<svg width="36" height="36" viewBox="0 0 36 36" fill="none" xmlns="http://www.w3.org/2000/svg">
<path d="M30.375 28.125H28.6875V23.0119H27.5625V28.125H11.8125C11.6964 28.1164 11.5798 28.1164 11.4637 28.125C11.3146 28.125 11.1715 28.1843 11.066 28.2898C10.9605 28.3952 10.9012 28.5383 10.9012 28.6875C10.9012 28.8367 10.9605 28.9798 11.066 29.0852C11.1715 29.1907 11.3146 29.25 11.4637 29.25C11.7779 29.2881 12.0751 29.4137 12.3212 29.6126C12.5674 29.8115 12.7527 30.0756 12.856 30.3748C12.9592 30.6739 12.9762 30.9961 12.9051 31.3045C12.834 31.6128 12.6776 31.895 12.4537 32.1187C12.1864 32.382 11.8411 32.5517 11.4694 32.6025H11.43H11.25C10.5041 32.6025 9.78871 32.3062 9.26126 31.7787C8.73382 31.2513 8.4375 30.5359 8.4375 29.79V7.3125C8.4408 6.70343 8.24309 6.11028 7.875 5.625H18V4.5H5.625C4.87908 4.5 4.16371 4.79632 3.63626 5.32376C3.10882 5.85121 2.8125 6.56658 2.8125 7.3125V15.1875C2.8125 15.3367 2.87176 15.4798 2.97725 15.5852C3.08274 15.6907 3.22582 15.75 3.375 15.75H7.3125V29.8125C7.3125 30.8568 7.72734 31.8583 8.46577 32.5967C9.20419 33.3352 10.2057 33.75 11.25 33.75H30.375C31.1209 33.75 31.8363 33.4537 32.3637 32.9262C32.8912 32.3988 33.1875 31.6834 33.1875 30.9375C33.1875 30.1916 32.8912 29.4762 32.3637 28.9488C31.8363 28.4213 31.1209 28.125 30.375 28.125ZM3.9375 14.625V7.3125C3.9375 6.86495 4.11529 6.43572 4.43176 6.11926C4.74822 5.80279 5.17745 5.625 5.625 5.625C6.07255 5.625 6.50178 5.80279 6.81824 6.11926C7.13471 6.43572 7.3125 6.86495 7.3125 7.3125V14.625H3.9375ZM31.5731 32.13C31.4159 32.2874 31.2291 32.4122 31.0235 32.4971C30.8179 32.5821 30.5975 32.6255 30.375 32.625H13.5C13.8651 32.1382 14.0625 31.546 14.0625 30.9375C14.0625 30.329 13.8651 29.7368 13.5 29.25H30.375C30.709 29.2492 31.0358 29.3475 31.3139 29.5325C31.592 29.7175 31.8089 29.9809 31.9372 30.2893C32.0655 30.5977 32.0994 30.9373 32.0346 31.2649C31.9698 31.5926 31.8092 31.8937 31.5731 32.13ZM31.5 2.25H20.25C19.8024 2.25 19.3732 2.42779 19.0568 2.74426C18.7403 3.06072 18.5625 3.48995 18.5625 3.9375V19.6875C18.5625 20.1351 18.7403 20.5643 19.0568 20.8807C19.3732 21.1972 19.8024 21.375 20.25 21.375H31.5C31.9476 21.375 32.3768 21.1972 32.6932 20.8807C33.0097 20.5643 33.1875 20.1351 33.1875 19.6875V3.9375C33.1875 3.48995 33.0097 3.06072 32.6932 2.74426C32.3768 2.42779 31.9476 2.25 31.5 2.25ZM32.0625 19.6875C32.0625 19.8367 32.0032 19.9798 31.8977 20.0852C31.7923 20.1907 31.6492 20.25 31.5 20.25H20.25C20.1008 20.25 19.9577 20.1907 19.8523 20.0852C19.7468 19.9798 19.6875 19.8367 19.6875 19.6875V3.9375C19.6875 3.78832 19.7468 3.64524 19.8523 3.53975C19.9577 3.43426 20.1008 3.375 20.25 3.375H31.5C31.6492 3.375 31.7923 3.43426 31.8977 3.53975C32.0032 3.64524 32.0625 3.78832 32.0625 3.9375V19.6875ZM30.375 5.0625H21.375C21.2258 5.0625 21.0827 5.12176 20.9773 5.22725C20.8718 5.33274 20.8125 5.47582 20.8125 5.625V9C20.8125 9.14918 20.8718 9.29226 20.9773 9.39775C21.0827 9.50324 21.2258 9.5625 21.375 9.5625H30.375C30.5242 9.5625 30.6673 9.50324 30.7727 9.39775C30.8782 9.29226 30.9375 9.14918 30.9375 9V5.625C30.9375 5.47582 30.8782 5.33274 30.7727 5.22725C30.6673 5.12176 30.5242 5.0625 30.375 5.0625ZM29.8125 8.4375H21.9375V6.1875H29.8125V8.4375ZM23.0625 11.8125H20.8125V10.6875H23.0625V11.8125ZM27 11.8125H24.75V10.6875H27V11.8125ZM28.6875 10.6875H30.9375V11.8125H28.6875V10.6875ZM23.0625 14.0625H20.8125V12.9375H23.0625V14.0625ZM24.75 12.9375H27V14.0625H24.75V12.9375ZM28.6875 12.9375H30.9375V14.0625H28.6875V12.9375ZM23.0625 16.3125H20.8125V15.1875H23.0625V16.3125ZM24.75 15.1875H27V16.3125H24.75V15.1875ZM23.0625 17.4375H28.6875V18.5625H23.0625V17.4375ZM28.6875 15.1875H30.9375V16.3125H28.6875V15.1875ZM14.625 12.375V11.25H11.8125C11.6633 11.25 11.5202 11.1907 11.4148 11.0852C11.3093 10.9798 11.25 10.8367 11.25 10.6875V8.4375C11.25 8.28832 11.3093 8.14524 11.4148 8.03975C11.5202 7.93426 11.6633 7.875 11.8125 7.875H12.9375V6.75H14.0625V7.875H15.75V9H12.375V10.125H15.1875C15.3367 10.125 15.4798 10.1843 15.5852 10.2898C15.6907 10.3952 15.75 10.5383 15.75 10.6875V12.9375C15.75 13.0867 15.6907 13.2298 15.5852 13.3352C15.4798 13.4407 15.3367 13.5 15.1875 13.5H14.0625V14.625H12.9375V13.5H11.25V12.375H14.625ZM10.125 15.75H16.875V16.875H10.125V15.75ZM10.125 18H16.875V19.125H10.125V18ZM10.125 20.25H16.875V21.375H10.125V20.25ZM10.125 25.3125C10.125 25.4617 10.1843 25.6048 10.2898 25.7102C10.3952 25.8157 10.5383 25.875 10.6875 25.875H25.3125C25.4617 25.875 25.6048 25.8157 25.7102 25.7102C25.8157 25.6048 25.875 25.4617 25.875 25.3125V23.0625C25.875 22.9133 25.8157 22.7702 25.7102 22.6648C25.6048 22.5593 25.4617 22.5 25.3125 22.5H10.6875C10.5383 22.5 10.3952 22.5593 10.2898 22.6648C10.1843 22.7702 10.125 22.9133 10.125 23.0625V25.3125ZM11.25 23.625H24.75V24.75H11.25V23.625Z" fill="#555555"/>
</svg>
