<svg width="24" height="24" viewBox="0 0 24 24" fill="none" xmlns="http://www.w3.org/2000/svg">
<g clip-path="url(#clip0_2565_1503)">
<path d="M22.131 9.42883H1.86819C0.908195 9.42883 0.496767 8.38312 1.25105 7.88597L11.3825 1.25168C11.5695 1.14164 11.7826 1.08362 11.9996 1.08362C12.2166 1.08362 12.4297 1.14164 12.6168 1.25168L22.7482 7.88597C23.5025 8.38312 23.091 9.42883 22.131 9.42883Z" stroke="white" stroke-width="1.5" stroke-linecap="round" stroke-linejoin="round"/>
<path d="M22.2855 18.8572H1.71408C1.24069 18.8572 0.856934 19.241 0.856934 19.7143V22.2857C0.856934 22.7591 1.24069 23.1429 1.71408 23.1429H22.2855C22.7588 23.1429 23.1426 22.7591 23.1426 22.2857V19.7143C23.1426 19.241 22.7588 18.8572 22.2855 18.8572Z" stroke="white" stroke-width="1.5" stroke-linecap="round" stroke-linejoin="round"/>
<path d="M3.42822 9.42859V18.8572" stroke="white" stroke-width="1.5" stroke-linecap="round" stroke-linejoin="round"/>
<path d="M9.14258 9.42859V18.8572" stroke="white" stroke-width="1.5" stroke-linecap="round" stroke-linejoin="round"/>
<path d="M14.8569 9.42859V18.8572" stroke="white" stroke-width="1.5" stroke-linecap="round" stroke-linejoin="round"/>
<path d="M20.5713 9.42859V18.8572" stroke="white" stroke-width="1.5" stroke-linecap="round" stroke-linejoin="round"/>
</g>
<defs>
<clipPath id="clip0_2565_1503">
<rect width="24" height="24" fill="white"/>
</clipPath>
</defs>
</svg>
