<svg width="330" height="221" viewBox="0 0 330 221" fill="none" xmlns="http://www.w3.org/2000/svg">
<g clip-path="url(#clip0_1189_16434)">
<path d="M69.3003 40.5168C69.9798 39.3537 71.3871 38.869 72.6489 38.9175C87.1592 38.869 101.669 38.9175 116.18 38.869C117.199 38.869 118.267 38.7721 119.286 39.0629C120.353 39.6929 121.421 40.7592 121.324 42.1162C121.324 58.885 121.324 75.6539 121.324 92.4228C121.324 93.6828 121.227 95.1853 120.014 95.9607C118.364 97.1239 116.228 96.6877 114.336 96.7361C100.699 96.6877 87.0136 96.6877 73.3768 96.7361C72.5518 96.6877 71.6783 96.7361 70.9503 96.3484C69.7371 95.8153 69.0577 94.5067 69.0577 93.1982C68.9606 89.1756 69.2518 85.1046 68.9121 81.082C72.7945 78.1741 75.5121 73.473 75.3665 68.578C75.5121 63.7315 72.7945 59.0789 68.9121 56.2679C69.1062 52.1484 69.0577 48.0289 69.0092 43.9578C69.1062 42.7947 68.9606 41.6315 69.3003 40.5168ZM79.1518 49.7252C79.1518 49.919 79.1518 50.3552 79.1518 50.5491C87.0621 50.5491 94.9724 50.646 102.883 50.5006C103.562 49.6282 102.155 49.6282 101.669 49.6767C94.1959 49.7252 86.6739 49.5798 79.1518 49.7252ZM92.3518 58.2065C92.3033 58.4004 92.1577 58.7396 92.0606 58.9335C96.0401 58.885 100.019 58.9335 103.95 58.885L104.096 58.3519L103.853 58.1581C100.019 58.1096 96.1856 58.0611 92.3518 58.2065ZM78.9577 66.2032C78.9577 66.3971 78.9577 66.7848 78.9577 66.9787C89.6342 66.9302 100.262 67.0271 110.939 66.9302C110.939 66.7364 110.987 66.3971 110.987 66.2032C100.311 66.2032 89.6342 66.1063 78.9577 66.2032ZM78.8121 75.1208C78.9092 75.3146 79.0548 75.7024 79.1518 75.8478C88.0812 75.8478 97.0592 75.8478 105.989 75.8478C107.687 75.8478 109.386 75.9447 111.084 75.7024C111.036 75.2177 110.793 74.9754 110.356 74.9754C100.311 74.9754 90.2651 74.9754 80.2195 74.9754C79.7827 75.0238 79.2974 75.0239 78.8121 75.1208ZM79.0062 83.8929C90.2651 83.796 101.572 83.9414 112.831 83.8445C112.831 83.6506 112.88 83.2629 112.88 83.1175C102.009 83.069 91.1386 83.069 80.268 83.1175C79.7827 83.2144 78.5695 82.8752 79.0062 83.8929ZM78.9092 85.4923C79.2003 86.2192 80.0739 85.9285 80.6562 86.0254C90.0709 86.1223 99.4856 85.9285 108.9 86.0254C109.822 86.0254 110.793 86.0739 111.715 85.8315C112.055 85.1046 111.181 85.2015 110.696 85.153C101.039 85.1046 91.3812 85.2015 81.7239 85.153C80.8018 85.153 79.7827 85.0076 78.9092 85.4923ZM78.9092 87.1885L79.1518 87.7701C83.8592 87.9155 88.615 87.8186 93.3709 87.8186C94.0018 88.0609 94.2445 87.1401 93.6136 87.1401C88.7121 87.1401 83.8106 87.0431 78.9092 87.1885Z" fill="#FEFEFE"/>
<path d="M245.024 44.2969C246.431 44.0546 247.839 44.2 249.246 44.2C260.262 44.2 271.23 44.2 282.246 44.2C285.012 44.2485 287.778 44.0546 290.545 44.2969C290.787 50.2096 290.593 56.1224 290.642 62.0351C290.642 67.3662 290.642 72.6489 290.642 77.98C290.642 78.6585 290.545 79.2886 290.399 79.9671C275.258 80.0156 260.165 80.1125 245.024 80.0156C244.927 68.0932 244.927 56.2193 245.024 44.2969ZM250.362 52.3421C250.362 52.4875 250.411 52.8268 250.411 52.9721C251.43 53.2629 252.546 52.9721 253.565 53.0691C263.853 53.166 274.142 53.0691 284.43 53.1175C284.478 52.9237 284.624 52.5844 284.672 52.3906C273.268 52.2936 261.815 52.3906 250.362 52.3421ZM250.265 54.0868C250.362 54.6684 250.799 55.0077 251.381 54.8623C262.64 54.8138 273.899 54.9107 285.158 54.8138C285.352 54.7169 285.692 54.4746 285.886 54.3776C284.721 53.8445 283.459 53.9899 282.246 53.9414C280.693 53.9414 279.092 53.9414 277.539 53.9899C270.55 54.2807 263.514 53.8445 256.525 54.0384C254.439 54.0384 252.352 53.9414 250.265 54.0868ZM250.459 55.977C250.459 56.1708 250.508 56.5585 250.556 56.8009C256.622 56.7039 262.64 56.8009 268.706 56.6555C268.658 56.5101 268.464 56.2193 268.415 56.0254C264.145 55.5893 259.777 55.9285 255.458 55.9285C253.759 55.88 252.109 55.6862 250.459 55.977ZM250.314 58.1094C250.411 58.3033 250.556 58.691 250.653 58.8849C257.69 58.8849 264.678 58.8849 271.715 58.9333C272.928 58.7395 274.53 59.418 275.403 58.3517C274.045 58.1094 272.686 58.061 271.327 58.061C265.989 58.0125 260.699 58.0125 255.361 58.0125C253.711 57.964 252.012 57.8671 250.314 58.1094ZM250.362 60.2903C250.362 60.4357 250.411 60.775 250.411 60.9204C251.915 61.2112 253.468 61.0173 255.021 61.0658C260.456 61.0173 265.892 61.0658 271.327 61.1143C272.055 61.1143 272.831 61.0658 273.559 60.9689C273.511 60.0965 272.637 60.145 272.006 60.145C265.746 60.0965 259.437 60.0965 253.177 60.145C252.303 60.145 251.284 59.9996 250.362 60.2903ZM250.702 62.2774C250.556 62.4228 250.314 62.6167 250.217 62.7621C254.099 63.0528 258.03 62.8105 261.912 62.9075C266.522 62.8105 271.181 63.0529 275.792 62.8105L275.889 62.3259L275.695 61.9866C270.987 61.9382 266.28 62.1805 261.572 61.8897C257.933 62.132 254.293 61.9866 250.702 62.2774ZM250.168 68.9171C255.167 69.014 260.165 68.9171 265.164 68.9656C269.822 68.9171 274.53 69.0625 279.189 68.8686C279.237 68.7232 279.334 68.384 279.334 68.2386C270.259 68.0932 261.184 68.2871 252.109 68.1901C251.43 68.3355 250.265 67.8993 250.168 68.9171ZM250.217 74.3452C250.265 74.4906 250.362 74.8298 250.362 74.9752C253.856 75.2175 257.35 75.0721 260.845 75.1206C265.212 75.1206 269.58 75.1691 273.947 75.1206C273.947 74.9268 273.947 74.539 273.996 74.3452C266.037 74.2967 258.127 74.2967 250.217 74.3452Z" fill="#FEFEFE"/>
<path d="M180.675 57.8188L181.063 58.0612C181.694 58.4974 182.47 58.4004 183.198 58.5458H183.344C182.664 58.4974 181.985 58.4974 181.306 58.4489C181.16 58.982 181.063 59.5151 180.966 59.9998C180.723 60.0967 180.481 60.1936 180.189 60.2421C179.995 60.0967 179.753 59.9513 179.559 59.8059C179.947 59.9998 180.335 59.9513 180.723 59.6605C181.014 59.1274 181.063 58.5943 180.772 57.9642L180.675 57.8188Z" fill="#FEFEFE"/>
<path d="M29.7969 170.5C32.0292 171.275 33.8733 172.875 35.9116 174.038C43.191 178.351 51.1498 181.695 59.5454 183.004C59.7395 185.088 59.2542 187.317 59.9822 189.353C60.0307 189.498 60.1278 189.837 60.1763 190.031C60.5645 191.873 62.166 193.327 64.0101 193.666C66.5822 193.957 69.2028 193.521 71.7748 193.86C70.9013 197.834 70.1248 201.808 69.2513 205.734C63.0395 205.491 56.8278 205.685 50.5675 205.637C44.6954 205.637 38.8719 205.637 32.9998 205.685C31.9322 205.685 30.8645 205.637 29.7969 205.879C29.7969 194.005 29.7969 182.228 29.7969 170.5Z" fill="#FEFEFE"/>
<path d="M77.5499 193.666C92.1087 193.618 106.668 193.666 121.275 193.666C121.42 195.459 121.469 197.301 121.712 199.094C121.712 199.191 121.712 199.433 121.712 199.53C121.712 199.676 121.712 199.918 121.712 200.063C121.712 201.324 121.76 202.535 121.954 203.795C120.401 205.055 118.412 205.637 116.47 205.976C115.791 205.831 115.063 205.637 114.384 205.637C101.184 205.637 87.9837 205.588 74.7837 205.637C75.7058 201.614 76.7734 197.689 77.5499 193.666Z" fill="#FEFEFE"/>
<path d="M140.298 200.209C141.608 197.979 143.161 195.847 144.52 193.666C185.042 193.714 225.515 193.666 266.037 193.714C268.415 193.763 270.842 193.666 273.22 193.763C274.093 197.737 275.064 201.663 275.937 205.588C231.29 205.637 186.643 205.588 141.996 205.637C140.443 205.588 138.793 205.879 137.289 205.249L137.192 204.813C137.435 204.377 137.677 203.941 137.968 203.504C138.939 202.487 139.57 201.323 140.298 200.209Z" fill="#FEFEFE"/>
<path d="M146.995 0.0967084C153.401 -0.000221431 159.807 -0.436404 166.213 -0.000219941C176.744 0.19364 187.274 0.920613 197.757 1.93838C203.677 2.56842 209.646 2.95614 215.567 3.82851C223.866 4.9432 232.164 6.25175 240.269 8.33574C257.739 12.7945 274.773 19.9189 289.186 30.8719C306.269 43.5213 319.032 61.7441 325.389 81.9539C329.272 94.3125 330.291 107.446 329.077 120.29C328.107 131 325.777 141.614 321.652 151.55C318.207 159.982 313.548 167.931 307.579 174.813C304.085 178.593 300.348 182.179 295.98 184.942C294.379 186.105 292.438 186.735 290.691 187.607C289.72 188.092 288.652 188.092 287.585 188.189C295.155 166.961 302.58 145.685 310.297 124.506C308.647 124.361 306.996 124.409 305.395 124.215C306.899 123.488 308.549 123.052 309.86 122.034C311.364 120.871 312.723 119.466 313.548 117.721C314.082 116.752 313.257 115.734 312.432 115.298C308.841 113.214 304.133 113.456 300.639 115.637C301.707 113.117 301.949 110.161 300.591 107.689C302.92 104.975 304.521 101.534 304.327 97.8989C304.182 96.9296 304.085 95.8149 303.357 95.0879C302.435 94.991 301.755 95.7664 301.124 96.2996C298.407 99.0136 296.611 102.648 296.029 106.477C295.641 106.477 295.204 106.526 294.816 106.526C295.155 104.636 295.689 102.745 295.349 100.807C294.816 97.8989 292.971 95.3787 290.545 93.7309C289.72 93.1978 288.846 92.6162 287.876 92.5677C287.099 92.5193 286.614 93.2947 286.469 93.9732C286.08 95.8634 286.177 97.8504 286.226 99.7406C286.274 102.552 287.051 105.508 288.992 107.64C289.623 108.367 290.594 108.658 291.467 109.046C289.332 114.135 291.176 119.66 292.68 124.652C289.041 124.7 285.352 124.845 281.713 124.506C281.858 119.417 281.713 114.28 281.761 109.191C281.713 105.75 281.907 102.309 281.373 98.9167C280.354 95.4756 277.005 92.7616 273.317 92.7616C258.419 92.7616 243.471 92.8101 228.573 92.7616C228.136 88.2544 226.486 83.5533 222.944 80.5485C221.002 78.8522 218.624 77.7375 216.149 77.059C213.092 76.1866 209.938 75.5566 206.783 75.2173C204.842 74.975 202.901 74.6842 200.96 74.3449C200.814 74.3449 200.523 74.2965 200.377 74.248C198.242 71.5824 196.349 68.723 194.457 65.9121C194.602 65.9121 194.894 65.9605 195.039 65.9605C195.719 64.3127 195.961 62.471 196.398 60.7263C197.174 56.9945 197.999 53.2627 197.805 49.434C197.611 46.9138 196.544 44.2482 194.311 42.8912C192.273 41.4857 189.652 42.455 187.42 41.5827C184.266 40.5164 182.664 37.1724 179.655 35.9607C175.336 34.3129 170.386 37.1724 168.688 41.2434C167.183 45.7991 170.969 50.5971 175.433 51.4211C175.336 53.2627 175.53 55.1044 175.579 56.946C174.705 57.1399 173.346 57.4792 173.492 58.6423C174.026 59.03 174.705 58.7393 175.288 58.6908C175.336 58.9816 175.482 59.5632 175.579 59.8539C175.579 61.3079 175.676 62.8103 175.773 64.2643C175.773 64.555 175.773 65.0882 175.773 65.3305C175.773 67.5114 175.724 69.7408 175.967 71.9217C176.113 72.9395 176.744 73.9572 177.811 74.2965C179.413 74.8296 181.16 74.2965 182.567 73.521C183.052 74.5388 183.538 75.5566 183.829 76.6713C183.877 76.8651 183.974 77.3013 184.023 77.4952C180.626 78.9006 177.18 80.4031 174.511 83.0202C172.716 84.668 171.211 86.7035 170.483 89.0298C167.086 89.6114 163.641 90.0476 160.195 90.4353C153.789 90.7261 147.189 91.0169 141.026 88.9329C136.61 87.5274 132.388 84.8618 130.01 80.7423C129.573 79.9669 129.33 79.0945 128.699 78.416C127.923 77.9314 126.758 78.416 126.564 79.3368C126.516 80.1607 126.904 80.9362 127.341 81.6147C129.136 84.3287 131.32 86.8974 134.135 88.5936C136.319 89.9022 138.599 91.0653 141.074 91.7438C147.286 93.4401 153.789 93.634 160.195 93.1493C163.349 92.9555 166.455 92.0831 169.658 92.18C168.154 98.7713 166.746 105.411 165.145 111.954C164.611 114.183 164.029 116.412 163.592 118.69C163.495 119.32 163.252 119.95 162.961 120.484C159.71 114.377 156.313 108.367 153.11 102.212C152.624 101.291 151.994 100.371 151.023 99.886C149.47 99.6436 147.917 99.7406 146.413 99.7406C142.821 99.789 139.23 99.789 135.639 99.8375C128.117 99.8375 120.595 100.031 113.024 100.128C112.151 100.177 111.035 100.128 110.549 101.001C110.064 101.776 110.598 102.648 110.986 103.327C116.761 113.698 122.294 124.215 128.214 134.538C124.671 135.75 121.274 137.979 119.479 141.323C117.926 144.231 118.217 147.624 118.363 150.823C118.654 154.312 118.799 157.753 119.042 161.243C104.871 161.243 90.6524 161.291 76.4818 161.243V161.146C76.7244 155.669 76.5788 150.144 76.5788 144.668C79.5391 144.619 82.5479 144.716 85.5082 144.619C86.1876 144.668 86.4303 143.892 86.77 143.456C87.7891 141.566 88.9538 139.724 89.9244 137.834C90.1185 137.398 90.2641 137.01 90.4582 136.574C89.6818 136.332 88.8568 136.235 88.0318 136.283C81.1891 136.332 74.395 136.235 67.5523 136.332C67.6009 135.265 67.6009 134.199 67.6494 133.133C68.0376 132.697 68.4744 132.261 68.8626 131.824C71.5318 128.723 74.2979 125.572 76.045 121.841C76.7729 120.387 76.5788 118.254 75.0259 117.43C72.6479 116.17 69.8818 117.236 67.3097 116.946L67.0671 116.461C61.8744 116.17 56.6332 116.461 51.4406 116.316H50.9553C51.0523 112.632 50.1303 108.513 46.9273 106.332C46.5876 109.627 46.8303 112.971 46.8303 116.267C45.2773 116.316 43.7729 116.316 42.22 116.412C42.4141 110.645 42.1715 104.829 42.3656 99.062C42.3656 96.9296 43.1421 94.8456 44.4524 93.1978C47.2185 89.7568 50.1303 86.3642 52.7994 82.8748C52.8965 82.7778 53.0906 82.5355 53.1876 82.3901C58.1862 84.8618 64.4465 84.2803 69.0568 81.1785C69.445 85.2011 69.1053 89.2721 69.2024 93.2947C69.2024 94.5548 69.8818 95.9118 71.095 96.4449C71.8715 96.8327 72.6965 96.8327 73.5215 96.8327C87.1582 96.7842 100.844 96.7842 114.48 96.8327C116.373 96.7842 118.508 97.2204 120.158 96.0572C121.371 95.3303 121.42 93.7794 121.469 92.5193C121.469 75.7504 121.42 58.9816 121.469 42.2127C121.614 40.8557 120.546 39.7895 119.43 39.1594C118.411 38.9171 117.344 39.014 116.324 38.9656C101.814 39.014 87.3038 38.9656 72.7935 39.014C71.4832 38.9656 70.1244 39.4502 69.445 40.6134C69.1053 41.6796 69.2024 42.8912 69.2024 44.0059C69.2509 48.1254 69.2994 52.2449 69.1053 56.316C65.9509 54.232 62.0685 53.1658 58.3318 53.7958C52.8479 54.4743 47.8494 58.2546 45.8597 63.4403C43.3847 69.4015 45.6171 76.8651 50.8582 80.6454C51.1009 80.7908 51.5376 81.13 51.7318 81.3239C48.82 85.1042 45.6656 88.739 42.7538 92.5677C40.9582 94.9425 40.57 97.9958 40.6185 100.904C40.7156 105.993 40.4729 111.081 40.57 116.17C40.2788 116.364 39.9876 116.509 39.6479 116.703C39.5994 119.03 39.6479 121.404 39.8906 123.731C40.1332 127.899 39.8421 132.115 40.3274 136.283C31.5921 136.332 22.8568 136.332 14.1215 136.283C13.5391 136.38 12.3259 136.138 12.52 137.107C13.7332 139.676 15.3832 142.099 16.742 144.619C19.7994 144.716 22.8568 144.571 25.9626 144.716C26.0112 152.18 25.9626 159.643 26.0112 167.107C25.1862 166.574 24.3126 166.041 23.6332 165.314C22.42 164.102 21.0126 163.133 19.945 161.824C19.4112 161.146 18.8288 160.467 18.2465 159.885C15.82 157.414 13.9273 154.506 11.9376 151.646C9.65675 147.915 7.32734 144.231 5.67734 140.16C1.84351 131.63 -0.437367 122.228 0.63028 112.826C1.50381 106.235 3.20234 99.6921 6.30822 93.7794C11.8891 82.2932 21.0126 72.891 31.3494 65.5728C33.3876 64.0704 35.62 62.8588 37.7068 61.4048C39.5023 60.1932 41.4921 59.4178 43.3847 58.3515C44.3068 57.8669 44.4038 56.7037 44.8891 55.8798C49.5479 46.0899 56.7303 37.7055 64.6891 30.4842C67.8921 27.8186 70.9979 25.0561 74.4921 22.8267C80.995 18.1257 88.0803 14.3454 95.3597 11.0498C111.471 3.78004 129.33 0.969077 146.995 0.0967084ZM97.0582 20.5489C93.7582 21.1789 91.4774 24.7169 92.1082 28.0125C92.545 31.8897 96.9126 34.6037 100.601 33.3921C104.095 32.4228 106.473 28.1579 104.969 24.7653C103.901 21.6151 100.261 19.725 97.0582 20.5489ZM115.208 25.2015C114.092 25.6862 114.286 27.334 115.451 27.5763C117.489 28.1094 119.624 28.2548 121.614 29.0303C125.011 30.3873 128.263 32.8105 129.524 36.3485C130.932 39.6441 130.544 43.3759 129.816 46.7684C129.039 50.2094 128.796 53.8443 129.524 57.2853C130.786 63.5373 136.901 68.3838 143.307 68.1414C145.782 67.996 148.451 67.0752 149.81 64.8943C150.732 63.4888 150.683 61.5502 149.907 60.0963C148.451 57.4792 145.394 56.2675 142.579 55.7829C141.463 55.4921 140.638 56.8976 141.366 57.7215C142.724 59.03 144.86 58.7877 146.316 59.9993C147.092 60.6294 147.966 61.5502 147.771 62.6649C147.626 64.0219 146.219 64.7004 145.054 65.0882C143.501 65.6697 141.754 65.6697 140.152 65.0882C136.416 64.0704 133.31 61.114 132.291 57.3822C130.786 52.7781 132.485 48.077 133.019 43.4728C133.407 40.5164 132.873 37.5116 131.708 34.7976C130.446 31.9382 128.166 29.6603 125.545 28.0125C123.167 26.5101 120.449 25.8316 117.78 25.2015C117.004 25.1046 116.082 24.9592 115.208 25.2015ZM188.099 25.25C187.129 25.8316 187.274 27.5278 188.342 27.964C189.313 28.4487 190.671 27.6248 190.623 26.5585C190.574 25.3469 189.07 24.62 188.099 25.25ZM246.335 42.1642C245.073 42.3581 243.132 42.2127 242.986 43.909C242.938 54.7651 242.986 65.6697 242.986 76.5259C242.986 77.8344 242.889 79.1914 243.035 80.5C243.18 81.3724 244.005 81.9055 244.879 81.857C259.971 81.8085 275.064 81.8085 290.157 81.857C290.836 81.8085 291.661 81.9539 292.147 81.3239C292.729 80.8392 292.632 80.0638 292.632 79.4338C292.535 67.9476 292.632 56.5099 292.632 45.0721C292.583 44.3936 292.68 43.6182 292.195 43.0851C291.467 42.1158 290.157 42.4066 289.138 42.1158C288.507 41.6311 288.361 40.7588 287.73 40.3226C286.905 39.6925 285.789 39.7895 284.819 39.7895C283.363 39.8379 281.907 39.6925 280.499 39.8864C279.335 40.1287 278.849 41.2919 278.316 42.2127C277.588 42.4066 276.86 42.3581 276.132 42.3581C269.969 42.3581 263.805 42.3581 257.642 42.3581C257.254 41.2434 256.526 39.9833 255.119 39.9349C253.08 39.8379 250.994 39.8379 248.955 39.9833C247.596 40.0318 247.16 41.3888 246.335 42.1642ZM156.119 78.416C155.002 78.8037 154.663 80.5485 155.779 81.13C156.749 82.0024 158.302 81.0331 158.205 79.8215C158.351 78.7068 157.041 77.9314 156.119 78.416Z" fill="#E4F1FF"/>
<path d="M97.0585 20.5492C100.261 19.7253 103.901 21.6154 104.969 24.7657C106.473 28.1582 104.047 32.4231 100.601 33.3924C96.9129 34.5556 92.5938 31.89 92.1085 28.0128C91.5262 24.7172 93.7585 21.1793 97.0585 20.5492Z" fill="#99C2FF"/>
<path d="M115.209 25.2019C116.082 24.9595 116.956 25.1049 117.829 25.2503C120.498 25.8804 123.265 26.5589 125.594 28.0613C128.166 29.7576 130.496 31.987 131.757 34.8464C132.922 37.5604 133.407 40.5653 133.068 43.5216C132.534 48.1258 130.835 52.8269 132.34 57.431C133.407 61.1628 136.465 64.1677 140.201 65.137C141.754 65.7185 143.501 65.7185 145.103 65.137C146.268 64.7977 147.723 64.1192 147.821 62.7137C148.015 61.599 147.19 60.6782 146.365 60.0481C144.957 58.8365 142.773 59.0788 141.415 57.7703C140.638 56.9464 141.463 55.4924 142.628 55.8317C145.443 56.3163 148.5 57.528 149.956 60.1451C150.732 61.599 150.829 63.5376 149.859 64.9431C148.5 67.124 145.831 68.0449 143.356 68.1902C136.95 68.3841 130.835 63.5861 129.573 57.3341C128.846 53.8446 129.04 50.2582 129.865 46.8172C130.593 43.3762 130.981 39.6929 129.573 36.3973C128.263 32.8593 125.06 30.4361 121.663 29.0791C119.673 28.3036 117.538 28.1582 115.5 27.6251C114.287 27.3343 114.141 25.6865 115.209 25.2019Z" fill="#FDFEFE"/>
<path d="M188.098 25.2503C189.069 24.6203 190.573 25.3472 190.573 26.5589C190.622 27.6735 189.263 28.449 188.292 27.9643C187.273 27.5282 187.128 25.8319 188.098 25.2503Z" fill="#A0C4FC"/>
<path d="M168.494 41.0982C170.192 37.0271 175.191 34.2161 179.461 35.8155C182.519 37.0271 184.072 40.3712 187.226 41.4374C189.459 42.3098 192.079 41.3405 194.117 42.746C196.35 44.103 197.417 46.7686 197.611 49.2887C197.806 53.1175 196.932 56.8493 196.204 60.5811C195.767 62.3258 195.525 64.119 194.845 65.8153C194.7 65.8153 194.409 65.7668 194.263 65.7668C193.389 64.4098 192.516 63.1012 191.739 61.7442C192.953 60.4841 193.292 58.2547 192.031 56.8977C191.351 56.0738 190.186 56.0738 189.216 56.0254C189.022 56.0254 188.634 56.0254 188.439 56.0254C188.1 56.3162 187.809 56.6554 187.517 56.9947C185.819 55.0561 187.275 52.3905 186.353 50.2096C185.528 50.4519 184.654 50.7427 183.781 50.985C180.966 51.6151 178.054 51.8574 175.239 51.2273C170.823 50.4519 166.989 45.6539 168.494 41.0982Z" fill="#123B8B"/>
<path d="M178.491 57.6246C179.171 57.5761 179.85 57.4792 180.578 57.4307C180.724 57.5761 180.966 57.9155 181.063 58.061L180.675 57.8186L180.724 58.061C180.529 58.5459 180.335 59.0307 180.093 59.5156C179.85 59.2247 179.607 58.9822 179.365 58.6913C179.607 58.3034 179.85 57.964 180.093 57.5761C179.559 57.6246 179.025 57.6246 178.491 57.6246Z" fill="#123B8B"/>
<path d="M246.335 42.1646C247.16 41.3891 247.596 40.0321 248.858 39.8867C250.896 39.7413 252.983 39.7898 255.021 39.8383C256.38 39.8867 257.108 41.1468 257.545 42.2615C263.708 42.2615 269.871 42.2615 276.035 42.2615C276.763 42.2615 277.491 42.31 278.219 42.1161C278.752 41.1953 279.238 40.0321 280.402 39.7898C281.858 39.5959 283.266 39.7898 284.721 39.6929C285.692 39.7413 286.808 39.5959 287.633 40.226C288.264 40.6622 288.458 41.5345 289.041 42.0192C290.06 42.31 291.419 41.9707 292.098 42.9885C292.632 43.5216 292.535 44.297 292.535 44.9756C292.535 56.4133 292.438 67.8995 292.535 79.3372C292.486 79.9672 292.583 80.7911 292.049 81.2273C291.564 81.8574 290.739 81.712 290.06 81.7604C274.967 81.712 259.874 81.712 244.782 81.7604C243.957 81.8089 243.083 81.2758 242.938 80.4034C242.792 79.0948 242.889 77.7378 242.889 76.4293C242.938 65.5731 242.889 54.6685 242.889 43.8124C243.132 42.213 245.121 42.3584 246.335 42.1646ZM245.024 44.297C244.927 56.1709 244.927 68.0933 245.024 79.9672C260.166 80.0641 275.258 79.9672 290.399 79.9188C290.545 79.2887 290.691 78.6102 290.642 77.9317C290.642 72.6006 290.594 67.3179 290.642 61.9867C290.594 56.074 290.788 50.1613 290.545 44.2486C287.779 44.0063 285.013 44.2486 282.246 44.1516C271.23 44.1516 260.263 44.1516 249.246 44.1516C247.839 44.2001 246.432 44.1032 245.024 44.297Z" fill="#9CC0FA"/>
<path d="M79.1514 49.7251C86.6734 49.5795 94.1955 49.7251 101.669 49.6766C102.154 49.6766 103.562 49.6281 102.882 50.5015C94.972 50.5986 87.0617 50.5501 79.1514 50.5501C79.1514 50.3074 79.1514 49.9192 79.1514 49.7251Z" fill="#92AAE6"/>
<path d="M183.78 51.0335C184.653 50.7912 185.478 50.5004 186.352 50.2581C186.061 53.796 186.594 57.3824 186.303 60.9688C186.206 61.1142 186.061 61.4535 185.964 61.6473C185.867 58.1578 186.012 54.6199 185.769 51.1304C185.09 51.0335 184.411 51.0335 183.78 51.0335Z" fill="#E5987E"/>
<path d="M186.352 50.2581C187.274 52.439 185.819 55.1045 187.517 57.0431C187.808 56.7039 188.148 56.3646 188.439 56.0738C188.633 56.0738 189.021 56.0738 189.216 56.0738C188.924 56.3646 188.585 56.6554 188.294 56.9947C187.274 60.8719 188.682 65.0883 187.129 68.8201C186.304 70.9526 184.363 72.3581 182.421 73.3758C181.014 74.1997 179.267 74.6844 177.666 74.1513C176.646 73.812 175.967 72.8427 175.821 71.7765C175.53 69.5956 175.627 67.3662 175.627 65.1853C178.005 64.6521 180.529 65.9122 182.81 64.846C183.344 64.6521 183.489 64.0706 183.78 63.6828C184.46 62.9559 185.188 62.2774 185.916 61.5989C186.013 61.4535 186.158 61.1142 186.255 60.9203C186.546 57.3824 186.013 53.796 186.352 50.2581Z" fill="#FF9464"/>
<path d="M183.78 51.0334C184.411 51.0334 185.09 51.0334 185.721 51.0819C185.964 54.5714 185.818 58.1093 185.915 61.5988C185.187 62.2773 184.459 62.9558 183.78 63.6828C182.955 64.2159 182.13 64.7975 181.111 64.749C179.267 64.7975 177.423 64.5067 175.627 64.0705C175.53 62.6166 175.433 61.1142 175.433 59.6602C175.433 58.6909 175.481 57.7216 175.433 56.7523C175.336 54.9106 175.142 53.069 175.287 51.2273C178.053 51.9058 180.965 51.6635 183.78 51.0334ZM178.102 56.51C178.005 56.9462 177.956 57.3824 177.908 57.8185C178.296 57.9639 178.684 58.1578 179.024 58.4001C179.073 58.9332 179.121 59.4663 179.509 59.9025C179.703 60.0479 179.946 60.1933 180.14 60.3387C180.383 60.2418 180.625 60.1448 180.917 60.0964C181.014 59.5633 181.159 59.0302 181.256 58.5455C181.936 58.594 182.615 58.594 183.295 58.6424H183.149L183.052 58.1578C183.489 57.3339 182.081 56.6554 181.499 57.14L181.208 56.9462C180.431 55.9769 179.073 56.6069 178.102 56.51Z" fill="#FF9160"/>
<path d="M250.363 52.3421C261.816 52.3907 273.269 52.2936 284.722 52.3421C284.674 52.5362 284.528 52.8759 284.479 53.07C274.191 53.0215 263.903 53.1185 253.615 53.0215C252.547 52.973 251.431 53.2156 250.46 52.9244C250.412 52.8274 250.412 52.4877 250.363 52.3421Z" fill="#8AA6E2"/>
<path d="M250.265 54.0869C252.351 53.8928 254.438 54.0383 256.476 54.0869C263.465 53.8928 270.501 54.3295 277.49 54.0383C279.043 53.9898 280.644 53.9898 282.197 53.9898C283.41 53.9898 284.721 53.8928 285.837 54.4266C285.643 54.5236 285.303 54.7662 285.109 54.8633C273.85 54.9603 262.591 54.8633 251.332 54.9118C250.798 55.0089 250.362 54.7177 250.265 54.0869Z" fill="#8AA6E2"/>
<path d="M92.3512 58.2064C96.1851 58.0609 100.019 58.1094 103.853 58.1579L104.095 58.352L103.95 58.8858C99.9704 58.9343 95.9909 58.8858 92.0601 58.9343C92.1086 58.7402 92.2542 58.352 92.3512 58.2064Z" fill="#8AA6E2"/>
<path d="M78.9565 66.2032C89.633 66.1062 100.309 66.1547 110.986 66.1547C110.986 66.3488 110.937 66.6885 110.937 66.8826C100.261 66.9797 89.633 66.9311 78.9565 66.9311C78.9565 66.7856 78.9565 66.3973 78.9565 66.2032Z" fill="#8AA6E2"/>
<path d="M79.0048 83.8938C78.5681 82.8748 79.7813 83.2144 80.2666 83.0689C91.1372 83.0203 102.008 83.0203 112.878 83.0689C112.878 83.263 112.83 83.6512 112.83 83.7968C101.571 83.9909 90.2637 83.8453 79.0048 83.8938Z" fill="#8AA6E2"/>
<path d="M78.9082 87.1886C83.8097 87.043 88.7111 87.0916 93.6126 87.1401C94.2435 87.0916 94.0494 88.0621 93.37 87.8194C88.6141 87.868 83.9067 87.9165 79.1509 87.7709L78.9082 87.1886Z" fill="#8AA6E2"/>
<path d="M45.7138 63.3437C47.655 58.1579 52.7021 54.3777 58.1859 53.6992C61.9227 53.1176 65.805 54.1838 68.9594 56.2193C72.8418 59.0303 75.5594 63.6829 75.4138 68.5294C75.5109 73.4728 72.7933 78.1255 68.9594 81.0334C64.3491 84.1351 58.0888 84.7167 53.0903 82.245C54.0609 80.9364 55.0315 79.6279 56.0991 78.3678C60.3697 73.3759 64.2036 68.0448 68.5227 63.0529C68.0859 62.7136 67.6977 62.3259 67.2609 61.9867C63.1844 66.7847 59.2536 71.6312 55.3712 76.5746C54.2065 78.0285 53.1388 79.531 51.8286 80.8395C51.5374 80.7426 51.0036 80.5972 50.7124 80.5487C45.4712 76.7684 43.2388 69.3533 45.7138 63.3437Z" fill="#83B1FF"/>
<path d="M189.216 56.0254C190.186 56.1223 191.351 56.0738 192.03 56.8978C193.292 58.2548 192.952 60.4842 191.739 61.7442C192.516 63.1497 193.438 64.4583 194.263 65.7668C196.155 68.5778 198.048 71.4372 200.183 74.1028C200.329 74.1028 200.62 74.1513 200.766 74.1997C201.057 76.3807 200.814 78.61 199.65 80.5002C198.291 82.2449 196.641 83.8442 194.457 84.4743C191.836 85.1528 188.585 84.9105 186.692 82.778C184.945 81.0818 184.411 78.6585 183.635 76.4291C183.344 75.3629 182.858 74.2967 182.373 73.2789C184.314 72.2127 186.255 70.8557 187.08 68.7232C188.633 64.9429 187.275 60.7749 188.245 56.8978C188.585 56.607 188.925 56.3162 189.216 56.0254Z" fill="#FF9464"/>
<path d="M250.46 55.9773C252.11 55.6861 253.809 55.8802 255.459 55.9287C259.778 55.9773 264.097 55.5891 268.416 56.0258C268.464 56.1714 268.659 56.4625 268.707 56.6566C262.641 56.8507 256.623 56.7052 250.557 56.8022C250.508 56.5596 250.46 56.1714 250.46 55.9773Z" fill="#A3C4EA"/>
<path d="M178.103 56.5101C179.122 56.607 180.432 55.9769 181.208 56.8009C180.238 56.7524 178.345 56.2193 178.151 57.5763L178.491 57.6248C179.025 57.6248 179.558 57.6248 180.092 57.6248C179.85 58.0125 179.607 58.3517 179.364 58.7394L178.976 58.4002C178.636 58.1579 178.248 57.964 177.86 57.8186C177.957 57.3824 178.005 56.9462 178.103 56.5101Z" fill="#B6797B"/>
<path d="M173.346 58.4971C173.2 57.3339 174.559 56.9946 175.433 56.8008C175.481 57.7701 175.433 58.7394 175.433 59.7087C175.384 59.4179 175.238 58.8363 175.141 58.5455C174.559 58.594 173.88 58.8848 173.346 58.4971Z" fill="#21377C"/>
<path d="M178.103 57.5767C178.297 56.2675 180.238 56.8009 181.16 56.8009L181.452 56.9948C181.937 57.3827 182.471 57.7221 183.005 58.013L183.102 58.4979C182.374 58.4009 181.597 58.4494 180.966 58.013C180.821 57.8676 180.578 57.5282 180.481 57.3827C179.802 57.4312 179.122 57.5282 178.394 57.5767H178.103Z" fill="#372754"/>
<path d="M181.5 56.9948C182.131 56.51 183.49 57.2373 183.053 58.013C182.519 57.7221 181.985 57.3827 181.5 56.9948Z" fill="#CC8580"/>
<path d="M250.315 58.1097C252.013 57.9156 253.663 57.9641 255.362 57.9641C260.7 57.9641 265.99 57.9641 271.328 58.0127C272.687 58.0612 274.046 58.0612 275.405 58.3038C274.531 59.3714 272.93 58.692 271.716 58.8861C264.68 58.8376 257.691 58.8376 250.655 58.8376C250.558 58.692 250.412 58.3038 250.315 58.1097Z" fill="#B3CCED"/>
<path d="M178.977 58.4003L179.365 58.7397C179.607 58.9821 179.85 59.2731 180.093 59.564C180.287 59.0791 180.481 58.5942 180.724 58.1094C181.015 58.6912 180.966 59.2731 180.675 59.8064C180.335 60.0488 179.947 60.0973 179.51 59.9519C179.122 59.467 179.025 58.9337 178.977 58.4003Z" fill="#182151"/>
<path d="M170.386 134.442C174.22 134.393 178.005 134.684 181.791 134.733C183.926 134.781 186.11 134.636 188.197 135.218C183.78 135.364 179.316 135.461 174.899 134.976C173.444 134.781 171.745 135.315 170.386 134.442Z" fill="#182151"/>
<path d="M121.711 199.482C123.847 199.385 125.982 199.288 128.117 199.433C128.554 199.433 128.7 200.015 129.039 200.258C127.438 200.21 125.885 200.064 124.283 200.064C123.41 200.015 122.585 200.015 121.711 200.015C121.711 199.87 121.711 199.627 121.711 199.482Z" fill="#182151"/>
<path d="M250.363 60.2908C251.285 59.9996 252.304 60.1452 253.226 60.0967C259.487 60.0967 265.796 60.0967 272.056 60.0967C272.687 60.1452 273.56 60.0967 273.609 60.9216C272.881 61.0187 272.104 61.0672 271.377 61.0672C265.941 61.0187 260.506 60.9701 255.071 61.0187C253.518 60.9701 251.965 61.1157 250.46 60.8731C250.412 60.7275 250.412 60.4364 250.363 60.2908Z" fill="#C4DAF7"/>
<path d="M55.3708 76.5745C59.2531 71.6311 63.184 66.7846 67.2605 61.9866C67.6972 62.3258 68.0855 62.7136 68.5222 63.0528C64.2031 67.9962 60.3693 73.3274 56.0987 78.3677C55.0311 79.6278 54.109 80.9364 53.0899 82.2449C52.9928 82.3903 52.7987 82.5842 52.7017 82.7296C52.4105 82.0995 52.1193 81.4695 51.8281 80.8394C53.0899 79.5309 54.2061 78.0285 55.3708 76.5745Z" fill="#5C91F7"/>
<path d="M250.702 62.2779C254.341 61.9868 257.981 62.1323 261.572 61.9382C266.28 62.1809 270.987 61.9382 275.694 62.0353L275.888 62.375L275.791 62.8602C271.181 63.1029 266.522 62.8117 261.912 62.9573C258.03 62.9088 254.099 63.1514 250.216 62.8117C250.313 62.6661 250.556 62.4235 250.702 62.2779Z" fill="#CADCF6"/>
<path d="M181.11 64.7496C182.129 64.7981 182.954 64.1677 183.779 63.6829C183.488 64.1192 183.343 64.6526 182.809 64.8465C180.528 65.9133 178.004 64.6526 175.626 65.186C175.626 64.895 175.626 64.3617 175.626 64.1192C177.422 64.5071 179.266 64.7981 181.11 64.7496Z" fill="#FF9464"/>
<path d="M200.813 74.2483C202.754 74.5391 204.695 74.8783 206.636 75.1207C205.083 75.6538 203.482 74.9753 201.929 75.2661C201.395 76.2354 201.735 77.4954 201.249 78.5132C200.958 79.3371 200.376 80.0641 199.648 80.5487C200.861 78.6586 201.104 76.4292 200.813 74.2483Z" fill="#032A6E"/>
<path d="M112.927 99.9832C120.449 99.8862 127.971 99.6924 135.541 99.6924C136.221 99.8862 136.852 100.129 137.579 100.129C141.462 100.225 145.296 100.032 149.178 100.129C149.809 100.177 150.343 99.9347 150.925 99.6924C151.896 100.177 152.527 101.098 153.012 102.019C156.215 108.174 159.612 114.183 162.863 120.29C165.338 125.04 168.007 129.644 170.434 134.393C171.744 135.266 173.443 134.733 174.947 134.926C179.363 135.411 183.828 135.314 188.244 135.169C188.39 136.768 186.788 137.35 185.478 137.204C182.615 137.204 179.8 137.543 176.937 137.495C161.893 137.156 146.849 137.543 131.804 137.253C129.96 137.447 128.99 135.653 128.116 134.393C122.196 124.07 116.663 113.553 110.888 103.182C110.549 102.503 110.015 101.631 110.452 100.856C110.937 99.9832 112.053 100.032 112.927 99.9832ZM139.181 113.893C138.453 114.377 138.841 115.201 138.89 115.88C138.307 115.637 137.579 115.25 136.997 115.783C136.075 117.334 137.288 119.175 138.599 120.096C139.569 120.823 141.462 120.92 141.802 119.466C141.51 117.915 140.879 115.928 138.987 115.783C139.424 115.298 140.346 113.796 139.181 113.893Z" fill="#032A6E"/>
<path d="M250.168 68.9182C250.265 67.8506 251.43 68.2873 252.158 68.1903C261.233 68.2388 270.308 68.0932 279.383 68.2388C279.334 68.3844 279.237 68.7241 279.237 68.8696C274.578 69.0637 269.871 68.9182 265.212 68.9667C260.165 68.9667 255.166 69.0637 250.168 68.9182Z" fill="#89A6DF"/>
<path d="M250.216 74.3452C258.127 74.2967 266.085 74.2967 273.996 74.3452C273.996 74.5393 273.996 74.9275 273.947 75.1217C269.58 75.1702 265.212 75.1217 260.844 75.1217C257.35 75.0731 253.856 75.2187 250.362 74.9761C250.313 74.782 250.265 74.4908 250.216 74.3452Z" fill="#889EE5"/>
<path d="M78.8115 75.1209C79.2968 75.0724 79.7821 75.0239 80.2674 74.9753C90.313 74.9753 100.359 74.9753 110.404 74.9753C110.841 74.9753 111.084 75.218 111.132 75.7032C109.434 75.9459 107.735 75.8003 106.037 75.8488C97.0586 75.8488 88.1292 75.8488 79.1998 75.8488C79.1027 75.6547 78.9086 75.315 78.8115 75.1209Z" fill="#8FA9E4"/>
<path d="M201.931 75.266C203.435 74.9752 205.085 75.6537 206.638 75.1206C209.792 75.4599 212.947 76.0899 216.004 76.9623C210.763 79.434 208.531 85.9283 209.55 91.3564C209.744 92.9072 210.763 94.4581 210.278 96.0575C208.628 101.34 206.784 106.574 205.959 112.051C205.813 112.875 205.619 113.699 205.376 114.523C203.484 115.589 201.3 115.686 199.213 115.88C189.75 116.51 179.85 112.487 174.269 104.684C174.172 107.495 174.317 110.306 174.706 113.069C171.503 112.681 168.251 112.196 165.048 111.809C166.65 105.217 168.057 98.6261 169.562 92.0349C169.804 90.9686 170.047 89.9024 170.387 88.8846C171.115 86.5583 172.619 84.5228 174.415 82.875C177.084 80.2579 180.529 78.7555 183.926 77.35C183.878 77.1561 183.781 76.7199 183.732 76.5261C184.46 78.7555 185.042 81.1787 186.79 82.875C188.731 85.0074 191.934 85.2498 194.554 84.5713C196.738 83.9412 198.388 82.3419 199.747 80.5971C200.475 80.1125 201.009 79.3855 201.348 78.5616C201.737 77.4954 201.397 76.2353 201.931 75.266Z" fill="#163F92"/>
<path d="M216.004 76.9622C218.479 77.6407 220.857 78.8038 222.798 80.4516C226.34 83.4565 228.039 88.1091 228.427 92.6648C243.326 92.7133 258.273 92.6648 273.171 92.6648C276.811 92.6648 280.159 95.3788 281.227 98.8198C280.936 101.437 281.518 104.054 281.227 106.671C279.577 104.975 277.879 102.939 275.355 102.649C272.201 102.164 269.434 104.636 268.27 107.35C261.184 122.083 254.439 136.962 247.402 151.744C240.365 151.792 233.377 151.744 226.34 151.744C226.34 151.113 226.34 150.532 226.34 149.902C227.311 139.821 227.893 129.692 228.427 119.563C228.912 112.438 229.058 105.314 228.815 98.1413C228.282 101.873 227.699 105.556 226.632 109.143C226.049 111.033 225.709 113.02 224.545 114.668C220.954 113.747 217.265 113.408 213.577 112.826C211.054 112.535 208.53 111.954 205.958 111.954C206.783 106.477 208.627 101.243 210.277 95.9604C210.762 94.3611 209.743 92.8102 209.549 91.2593C208.53 85.9282 210.762 79.4823 216.004 76.9622Z" fill="#5187FF"/>
<path d="M126.516 79.1432C126.661 78.2223 127.874 77.7377 128.651 78.2223C129.233 78.9008 129.476 79.7732 129.961 80.5486C132.291 84.6682 136.561 87.3337 140.977 88.7392C147.141 90.8232 153.741 90.5324 160.146 90.2416C163.592 89.8539 167.038 89.4177 170.435 88.8361C170.095 89.8539 169.852 90.9201 169.61 91.9864C166.455 91.8894 163.301 92.7133 160.146 92.9557C153.741 93.3918 147.238 93.2464 141.026 91.5502C138.551 90.9201 136.27 89.7085 134.086 88.4C131.271 86.7037 129.088 84.135 127.292 81.421C126.855 80.7425 126.419 79.9671 126.516 79.1432Z" fill="#FDFEFD"/>
<path d="M156.119 78.4162C157.041 77.9316 158.352 78.707 158.206 79.8217C158.303 81.0333 156.75 82.0026 155.78 81.1302C154.663 80.5002 155.003 78.7555 156.119 78.4162Z" fill="#9EBFFB"/>
<path d="M50.7132 80.5488C51.0043 80.6458 51.5382 80.7912 51.8293 80.8396C52.1205 81.4697 52.4117 82.0997 52.7029 82.7297C49.9852 86.2192 47.122 89.6118 44.3558 93.0528C42.997 94.7006 42.269 96.7846 42.269 98.917C42.0749 104.684 42.3176 110.5 42.1234 116.267C41.9779 115.686 41.8323 115.153 41.6867 114.571C41.2984 115.637 40.8617 116.704 40.4734 117.77C40.4734 117.14 40.4249 116.558 40.4249 115.977C40.3764 110.888 40.5705 105.799 40.4734 100.71C40.4249 97.8023 40.8132 94.7491 42.6087 92.3743C45.5205 88.5455 48.6749 84.9591 51.5867 81.1304C51.3926 81.0335 50.9558 80.6942 50.7132 80.5488Z" fill="#83ABF3"/>
<path d="M78.9082 85.4926C79.7817 85.0559 80.8008 85.1529 81.7714 85.1529C91.4288 85.2015 101.086 85.1044 110.743 85.1529C111.229 85.2015 112.054 85.0559 111.763 85.8323C110.841 86.0749 109.87 86.0264 108.948 86.0264C99.5332 85.9779 90.1185 86.1234 80.7038 86.0264C80.0729 85.9293 79.1994 86.2205 78.9082 85.4926Z" fill="#92ABE4"/>
<path d="M286.322 93.925C286.419 93.2465 286.904 92.471 287.729 92.5195C288.7 92.6164 289.573 93.1495 290.398 93.6827C292.825 95.3305 294.669 97.8506 295.203 100.759C295.543 102.697 295.009 104.587 294.669 106.477C295.057 106.477 295.446 106.429 295.882 106.429C296.465 102.6 298.212 98.9653 300.978 96.2513C301.609 95.7182 302.288 94.9427 303.21 95.0397C303.987 95.7667 304.084 96.8813 304.181 97.8506C304.375 101.437 302.773 104.927 300.444 107.641C301.803 110.112 301.56 113.069 300.493 115.589C303.987 113.408 308.694 113.166 312.285 115.25C313.11 115.686 313.935 116.703 313.401 117.673C312.625 119.418 311.218 120.823 309.713 121.986C308.403 123.052 306.753 123.44 305.248 124.167C306.85 124.361 308.5 124.312 310.15 124.458C306.025 124.506 301.851 124.7 297.726 124.603C295.979 124.506 294.232 124.506 292.485 124.506C290.981 119.514 289.137 113.989 291.272 108.901C290.398 108.513 289.428 108.222 288.797 107.495C286.856 105.363 286.128 102.406 286.031 99.5954C286.031 97.7537 285.934 95.8151 286.322 93.925ZM292.971 114.523C293.116 117.576 293.747 120.629 294.378 123.634C295.931 120.338 297.678 117.043 298.26 113.456C298.357 112.729 298.503 111.76 297.775 111.324C295.64 110.306 292.873 112.148 292.971 114.523Z" fill="#A2C8FF"/>
<path d="M226.583 109.24C227.651 105.653 228.233 101.922 228.767 98.2383C229.058 105.363 228.864 112.535 228.378 119.66C227.845 129.789 227.262 139.918 226.292 149.999C226.049 152.616 225.612 155.33 223.962 157.414C222.749 159.159 220.905 160.322 219.012 161.243C216.877 161.582 214.693 161.437 212.558 161.485C197.077 161.776 181.499 162.697 166.067 161.34C165.145 161.291 163.931 161 163.398 162.067C161.165 165.944 159.078 169.918 156.798 173.795C152.818 180.435 148.499 186.832 144.714 193.569C150.78 193.811 156.895 193.617 162.961 193.666C197.271 193.666 231.533 193.617 265.843 193.714H266.037C225.515 193.714 185.042 193.763 144.52 193.666C143.161 195.895 141.656 197.979 140.298 200.208C139.57 201.323 138.939 202.535 137.92 203.456C135.105 202.292 132.048 201.953 129.136 201.129C129.087 200.935 129.039 200.499 129.039 200.305C129.767 198.464 130.301 196.574 130.786 194.635C134.28 181.695 137.386 168.609 140.589 155.572C140.977 154.118 141.462 152.616 141.559 151.065C140.443 152.471 139.715 154.118 138.89 155.669C135.833 161.437 133.601 167.592 131.271 173.65C129.039 179.514 126.709 185.378 124.574 191.291C123.603 193.86 123.361 196.767 121.711 199.045C121.468 197.252 121.42 195.459 121.274 193.617L121.226 193.229C106.715 193.278 92.2535 193.278 77.7432 193.229C92.2049 193.133 106.715 193.229 121.177 193.181C120.401 182.47 119.721 171.76 118.896 161.097C118.653 157.608 118.508 154.167 118.217 150.677C118.023 147.479 117.78 144.086 119.333 141.178C121.177 137.834 124.526 135.605 128.068 134.393C128.942 135.702 129.912 137.446 131.756 137.253C146.801 137.592 161.845 137.204 176.889 137.495C178.151 137.834 179.509 138.028 180.82 138.173C184.508 138.513 188.196 139.191 191.933 139.143C192.515 139.143 193.098 139.143 193.68 139.337C191.593 139.724 189.506 138.852 187.42 139.337C188.681 140.16 190.186 140.597 191.496 141.324C193.631 142.487 195.621 143.941 197.514 145.492C199.115 146.703 201.056 147.963 203.143 147.721C205.084 147.576 206.54 146.17 207.996 145.055C209.792 143.504 211.393 141.711 212.752 139.773C213.043 139.24 213.237 138.706 213.48 138.222C217.702 135.362 218.673 130.08 220.565 125.669C221.148 124.652 220.614 123.198 221.633 122.471C222.749 119.951 223.234 117.188 224.448 114.765C225.661 113.117 226.001 111.081 226.583 109.24ZM221.39 123.295C221.39 123.488 221.39 123.876 221.39 124.07C222.021 124.264 221.973 123.101 221.39 123.295Z" fill="#153E91"/>
<path d="M67.4551 136.235C74.2977 136.138 81.0918 136.235 87.9345 136.186C88.7595 136.138 89.536 136.283 90.361 136.477C90.1668 136.914 90.0213 137.302 89.8271 137.738C89.8271 137.447 89.8757 136.817 89.8757 136.477C83.9065 136.235 77.9374 136.477 71.9683 136.429C70.4639 136.429 68.9595 136.429 67.4551 136.235Z" fill="#153E91"/>
<path d="M281.226 98.8684C281.76 102.261 281.566 105.702 281.615 109.143C281.566 114.232 281.712 119.369 281.566 124.458C280.304 126.687 279.576 129.159 278.654 131.534C275.597 139.627 272.394 147.673 269.385 155.815C268.706 153.343 266.279 151.792 263.756 151.792C258.32 151.744 252.837 151.889 247.401 151.792C254.39 137.01 261.184 122.132 268.269 107.398C269.482 104.684 272.2 102.212 275.354 102.697C277.878 102.988 279.576 105.023 281.226 106.72C281.518 104.103 280.935 101.486 281.226 98.8684Z" fill="#3567D4"/>
<path d="M60.0785 172.438C60.1272 170.354 59.9324 168.27 60.3221 166.235C60.1272 174.134 60.4682 182.083 60.2246 189.982C60.1759 189.837 60.0785 189.498 60.0298 189.304C60.1272 183.682 60.0298 178.06 60.0785 172.438Z" fill="#3567D4"/>
<path d="M135.542 99.6926C139.133 99.644 142.724 99.644 146.315 99.5954C147.868 99.5954 149.421 99.4982 150.925 99.7411C150.392 99.9841 149.809 100.227 149.178 100.178C145.296 100.081 141.462 100.227 137.58 100.178C136.852 100.13 136.221 99.8869 135.542 99.6926Z" fill="#01194F"/>
<path d="M174.268 104.684C179.849 112.487 189.797 116.51 199.212 115.879C201.299 115.686 203.531 115.589 205.375 114.522C204.647 117.576 203.919 120.581 203.191 123.634C202.9 124.797 202.415 126.057 201.202 126.445C199.455 126.493 197.708 126.736 196.009 127.075C196.106 127.123 196.3 127.269 196.397 127.317C194.844 127.56 193.291 127.802 191.69 127.996C190.622 127.899 189.555 127.899 188.633 128.432C184.75 128.965 180.916 129.692 177.034 130.128C177.034 127.511 176.403 124.991 176.306 122.374C176.258 122.325 176.209 122.277 176.161 122.228C175.724 119.175 175.336 116.073 174.705 113.02C174.268 110.258 174.122 107.447 174.268 104.684Z" fill="#072E74"/>
<path d="M46.7334 116.17C46.7334 112.875 46.4907 109.531 46.8304 106.235C50.0334 108.416 50.9554 112.584 50.8584 116.219C49.4996 116.122 48.0922 116.073 46.7334 116.17Z" fill="#578BF0"/>
<path d="M292.972 114.523C292.875 112.148 295.641 110.355 297.777 111.324C298.505 111.76 298.359 112.729 298.262 113.456C297.631 117.091 295.932 120.387 294.38 123.634C293.7 120.629 293.118 117.576 292.972 114.523Z" fill="#E6F2FD"/>
<path d="M163.495 118.497C163.932 116.219 164.466 113.989 165.048 111.76C168.251 112.148 171.503 112.632 174.706 113.02C175.337 116.073 175.725 119.127 176.162 122.228C176.113 122.858 176.113 123.537 175.822 124.07C174.415 126.978 172.279 129.644 169.513 131.388C172.862 131.001 176.21 129.983 179.607 130.274C178.734 130.225 177.86 130.177 177.035 130.128C180.917 129.692 184.751 129.014 188.634 128.432C189.653 128.335 190.672 128.19 191.691 127.996C193.244 127.802 194.797 127.56 196.398 127.317C198 127.123 199.65 127.026 201.203 126.445C202.416 126.057 202.95 124.749 203.193 123.634C203.92 120.581 204.648 117.576 205.376 114.523C205.57 113.699 205.765 112.875 205.959 112.051C208.531 112.051 211.054 112.632 213.578 112.923C217.218 113.505 220.954 113.796 224.545 114.765C223.284 117.237 222.847 119.999 221.731 122.471C220.663 123.198 221.197 124.652 220.663 125.669C218.77 130.031 217.8 135.314 213.578 138.222C213.384 138.319 213.044 138.464 212.85 138.561C210.812 138.755 208.919 139.676 206.881 139.482C203.581 139.191 200.281 139.53 197.029 139.046C192.856 138.852 188.537 139.24 184.46 138.076C184.8 137.834 185.188 137.543 185.528 137.301C186.838 137.446 188.44 136.816 188.294 135.265C186.207 134.684 184.023 134.878 181.888 134.781C178.054 134.732 174.269 134.442 170.484 134.49C168.057 129.74 165.388 125.136 162.913 120.387C163.156 119.757 163.398 119.127 163.495 118.497Z" fill="#FF9565"/>
<path d="M139.181 113.893C140.395 113.796 139.424 115.346 138.987 115.734C140.88 115.88 141.462 117.867 141.802 119.418C141.511 120.871 139.57 120.823 138.599 120.048C137.289 119.127 136.075 117.334 136.997 115.734C137.58 115.201 138.259 115.589 138.89 115.831C138.793 115.201 138.453 114.329 139.181 113.893Z" fill="#FCFEFE"/>
<path d="M41.6864 114.62C41.832 115.201 41.9776 115.734 42.1231 116.316C42.3173 118.642 42.1231 120.92 42.2202 123.246C42.2202 125.815 42.5599 128.432 41.929 130.952C41.3952 130.468 40.5217 130.08 40.5702 129.208C40.4246 125.427 40.5217 121.647 40.4731 117.867C40.8614 116.752 41.2981 115.686 41.6864 114.62Z" fill="#74A1F8"/>
<path d="M39.5023 116.558C39.7934 116.364 40.0846 116.219 40.4243 116.025C40.4243 116.606 40.4729 117.237 40.4729 117.818C40.5214 121.598 40.4243 125.379 40.5699 129.159C40.5214 129.983 41.3949 130.371 41.9287 130.904C42.5596 128.383 42.2199 125.766 42.2199 123.198C42.1714 120.871 42.317 118.594 42.1229 116.267C43.6758 116.219 45.1802 116.219 46.7331 116.122C48.092 116.073 49.4993 116.073 50.8581 116.17H51.3434C51.4405 122.81 51.2949 129.45 51.392 136.089C47.6552 136.089 43.9184 136.089 40.1817 136.089C39.6964 131.921 39.9876 127.705 39.7449 123.537C39.5023 121.259 39.4537 118.884 39.5023 116.558Z" fill="#9FC6FF"/>
<path d="M51.3433 116.219C56.5359 116.364 61.7771 116.122 66.9697 116.364L67.2124 116.849C67.4065 117.334 67.7462 117.721 68.1344 118.061C67.8918 118.061 67.4065 118.109 67.1153 118.109C66.9697 120.872 67.0668 123.683 67.0668 126.445C67.1153 127.948 66.8727 129.498 67.455 130.904C67.8918 130.758 68.3771 130.662 68.8138 130.565C68.7653 130.952 68.7653 131.34 68.7168 131.728C68.3286 132.164 67.8918 132.6 67.5036 133.036C67.455 134.103 67.455 135.169 67.4065 136.235C62.0683 136.09 56.6815 136.138 51.3433 136.187C51.3433 129.498 51.4888 122.859 51.3433 116.219Z" fill="#4073E1"/>
<path d="M67.2138 116.849C69.7858 117.14 72.5035 116.074 74.9299 117.334C76.4829 118.206 76.677 120.29 75.9491 121.744C74.202 125.476 71.4358 128.626 68.7667 131.728C68.8152 131.34 68.8152 130.952 68.8638 130.565C68.427 130.662 67.9417 130.807 67.5049 130.904C66.8741 129.498 67.1652 127.948 67.1167 126.445C67.1652 123.683 67.0196 120.872 67.1652 118.109C67.4079 118.109 67.8932 118.061 68.1844 118.061C67.7961 117.721 67.4079 117.382 67.2138 116.849ZM67.5535 118.642C67.5049 122.616 67.5049 126.591 67.5535 130.565C70.077 127.802 72.5035 124.894 74.3476 121.696C74.9299 120.726 75.4152 119.078 74.1049 118.497C72.0182 117.625 69.7373 118.545 67.5535 118.642Z" fill="#3964CB"/>
<path d="M67.5525 118.642C69.7363 118.545 72.0172 117.624 74.104 118.448C75.4628 119.03 74.9775 120.678 74.3466 121.647C72.454 124.894 70.0275 127.802 67.5525 130.516C67.504 126.59 67.504 122.616 67.5525 118.642Z" fill="#E5F3FE"/>
<path d="M176.113 122.229C176.162 122.277 176.21 122.325 176.259 122.374C176.356 124.991 176.987 127.511 176.987 130.128C177.86 130.177 178.734 130.225 179.559 130.274C176.162 130.031 172.813 131.001 169.465 131.388C172.231 129.644 174.318 126.978 175.774 124.07C176.113 123.537 176.113 122.859 176.113 122.229Z" fill="#E7F1F9"/>
<path d="M221.392 123.295C221.975 123.101 222.024 124.265 221.392 124.071C221.392 123.925 221.392 123.489 221.392 123.295Z" fill="#3C3663"/>
<path d="M281.568 124.458C285.207 124.797 288.896 124.652 292.535 124.603C294.282 124.555 296.03 124.603 297.777 124.7C288.216 144.377 279.093 164.247 270.115 184.215C268.659 187.365 267.543 190.661 265.844 193.666C231.582 193.569 197.272 193.617 162.962 193.617C156.896 193.569 150.781 193.763 144.715 193.52C148.5 186.784 152.868 180.386 156.799 173.747C158.255 174.425 159.856 174.958 161.506 174.91C192.468 174.91 223.381 174.91 254.343 174.91C256.478 174.861 258.759 175.201 260.749 174.183C262.593 173.213 263.466 171.129 264.194 169.288C265.165 166.622 266.232 164.054 267.203 161.388C267.931 159.546 268.61 157.705 269.387 155.863C272.396 147.769 275.599 139.724 278.656 131.582C279.578 129.159 280.306 126.687 281.568 124.458Z" fill="#5B90FF"/>
<path d="M297.727 124.652C301.852 124.749 306.026 124.603 310.151 124.506C302.434 145.686 295.009 166.962 287.439 188.189C286.711 190.128 286.274 192.648 284.09 193.472C282.392 193.811 280.693 193.666 278.946 193.666C279.723 197.64 280.548 201.662 281.421 205.637C281.664 207.236 282.149 208.787 282.149 210.386C281.809 212.664 278.17 213.1 277.296 211.016C276.568 209.223 276.423 207.284 275.937 205.443C275.064 201.469 274.093 197.543 273.22 193.617C270.842 193.52 268.415 193.617 266.037 193.569H265.843C267.493 190.516 268.609 187.22 270.114 184.118C279.043 164.199 288.167 144.329 297.727 124.652Z" fill="#3365D2"/>
<path d="M196.01 127.076C197.708 126.736 199.455 126.494 201.202 126.445C199.649 127.027 197.999 127.173 196.398 127.319C196.301 127.27 196.107 127.124 196.01 127.076Z" fill="#3D3758"/>
<path d="M188.633 128.482C189.555 127.899 190.672 127.947 191.691 128.044C190.672 128.19 189.652 128.385 188.633 128.482Z" fill="#413952"/>
<path d="M12.326 136.962C12.1804 135.992 13.3451 136.235 13.9274 136.138C22.6627 136.186 31.398 136.186 40.1333 136.138C43.8701 136.138 47.6068 136.138 51.3436 136.138C56.6818 136.089 62.0686 136.041 67.4068 136.186C68.9113 136.429 70.4157 136.429 71.9201 136.429C77.8892 136.477 83.8583 136.235 89.8274 136.477C89.8274 136.768 89.7789 137.398 89.7789 137.737C88.8083 139.627 87.6436 141.469 86.6245 143.359C86.2848 143.795 86.0907 144.571 85.3627 144.522C82.4024 144.571 79.3936 144.474 76.4333 144.571L75.948 144.522C75.3657 144.425 74.8318 144.328 74.2495 144.328C73.3274 144.522 73.4245 145.637 73.2304 146.315C72.8907 145.734 72.5995 145.152 72.2113 144.619C58.0892 144.474 43.9186 144.571 29.7965 144.619C29.3598 144.619 28.9715 144.619 28.5833 144.668C28.3892 144.425 28.2436 144.183 28.0495 143.941C27.5157 144.571 27.0789 145.249 26.7392 146.025C26.6421 145.637 26.5451 145.249 26.4965 144.813C26.3024 144.765 25.9627 144.668 25.7686 144.668C22.7112 144.571 19.6539 144.716 16.548 144.571C15.1892 141.954 13.5877 139.579 12.326 136.962Z" fill="#2E60CA"/>
<path d="M176.938 137.543C179.801 137.543 182.616 137.204 185.479 137.253C185.139 137.495 184.751 137.786 184.412 138.028C188.488 139.191 192.759 138.803 196.981 138.997C200.232 139.482 203.581 139.191 206.832 139.433C208.87 139.627 210.812 138.706 212.801 138.513C209.113 140.548 204.794 139.53 200.766 139.724C198.388 139.579 196.059 139.385 193.681 139.337C193.147 139.143 192.516 139.143 191.934 139.143C188.197 139.191 184.557 138.513 180.82 138.173C179.559 138.076 178.248 137.883 176.938 137.543Z" fill="#DB8969"/>
<path d="M212.802 138.561C212.996 138.464 213.336 138.319 213.53 138.222C213.287 138.755 213.093 139.289 212.802 139.773C210.909 139.725 209.113 140.452 207.221 140.355C205.668 140.307 204.066 140.355 202.513 140.355C201.883 140.452 201.349 140.064 200.815 139.773C204.794 139.58 209.113 140.598 212.802 138.561Z" fill="#1E2758"/>
<path d="M187.42 139.385C189.507 138.9 191.593 139.724 193.68 139.385C196.058 139.482 198.388 139.627 200.766 139.773C201.299 140.064 201.833 140.451 202.464 140.354C204.017 140.354 205.618 140.306 207.171 140.354C209.064 140.451 210.86 139.724 212.752 139.773C211.393 141.711 209.792 143.505 207.996 145.055C206.541 146.219 205.085 147.576 203.143 147.721C201.008 147.963 199.116 146.703 197.514 145.492C195.621 143.941 193.632 142.535 191.496 141.324C190.186 140.645 188.73 140.209 187.42 139.385Z" fill="#052C71"/>
<path d="M28.0496 143.844C28.2437 144.086 28.3893 144.328 28.5835 144.571C28.9717 144.571 29.4085 144.571 29.7967 144.522C29.8452 153.149 29.7967 161.776 29.7967 170.451C29.7482 182.228 29.7482 193.956 29.7967 205.733C28.4864 206.412 26.8849 206.557 25.7202 205.491C25.8173 192.648 25.7687 179.756 25.7687 166.913C25.7202 159.449 25.8173 151.986 25.7202 144.522C25.9143 144.571 26.254 144.668 26.4482 144.668C26.5452 145.055 26.6423 145.443 26.6908 145.879C27.079 145.201 27.5158 144.474 28.0496 143.844Z" fill="#3765D4"/>
<path d="M74.2492 144.329C74.8315 144.329 75.3654 144.474 75.9477 144.522C75.9962 149.369 75.8992 154.215 75.8992 159.11C75.8507 159.789 76.0933 160.467 76.336 161.097V161.194C72.7933 161.146 69.2507 162.018 65.708 161.534C67.8918 161.291 70.0757 161.485 72.2595 161.34C72.308 155.766 72.2595 150.241 72.2595 144.668C72.6477 145.201 72.9389 145.783 73.2786 146.364C73.4727 145.589 73.3271 144.522 74.2492 144.329Z" fill="#3464D4"/>
<path d="M29.7966 144.571C43.9186 144.522 58.0892 144.474 72.2113 144.571C72.2113 150.144 72.2598 155.669 72.2113 161.243C70.0275 161.437 67.8436 161.194 65.6598 161.437C63.2333 161.921 61.001 163.811 60.2245 166.186C59.8363 168.222 60.0304 170.354 59.9819 172.39C59.9333 178.012 60.0789 183.634 59.9333 189.256C59.2054 187.22 59.6907 185.039 59.4966 182.907C51.101 181.598 43.1422 178.254 35.8627 173.941C33.8245 172.777 31.9804 171.178 29.748 170.403C29.7966 161.824 29.8451 153.198 29.7966 144.571Z" fill="#E4F1FE"/>
<path d="M75.9479 144.522L76.4332 144.571C76.4332 150.047 76.5303 155.572 76.3362 161.049C76.0935 160.419 75.8994 159.74 75.8994 159.062C75.8994 154.215 75.9965 149.369 75.9479 144.522Z" fill="#2A53B4"/>
<path d="M223.963 157.366C225.613 155.233 226.05 152.519 226.293 149.95C226.293 150.532 226.293 151.162 226.293 151.792C233.329 151.792 240.318 151.841 247.354 151.792C252.79 151.889 258.273 151.744 263.709 151.792C266.184 151.792 268.659 153.343 269.338 155.815C268.61 157.656 267.882 159.498 267.154 161.34C251.14 161.097 235.076 161.291 219.013 161.194C220.954 160.273 222.75 159.11 223.963 157.366Z" fill="#2E5EC5"/>
<path d="M138.891 155.669C139.716 154.118 140.444 152.422 141.56 151.065C141.463 152.616 140.978 154.07 140.589 155.572C137.386 168.609 134.281 181.647 130.786 194.635C130.301 196.574 129.767 198.464 129.039 200.306C128.748 200.063 128.603 199.482 128.117 199.482C125.982 199.385 123.847 199.433 121.711 199.53C121.711 199.433 121.711 199.191 121.711 199.094C123.361 196.816 123.604 193.908 124.575 191.34C126.71 185.427 128.991 179.563 131.272 173.698C133.601 167.592 135.833 161.437 138.891 155.669Z" fill="#072F75"/>
<path d="M65.7088 161.485C69.2515 161.97 72.7941 161.097 76.3368 161.146C90.5073 161.146 104.726 161.146 118.897 161.146C119.722 171.857 120.401 182.567 121.178 193.23C106.716 193.278 92.2059 193.181 77.7441 193.278C92.2544 193.326 106.716 193.326 121.226 193.278L121.275 193.666C106.716 193.714 92.1573 193.666 77.55 193.666C75.6088 193.617 73.6676 193.569 71.7265 193.763C69.1544 193.423 66.5338 193.86 63.9618 193.569C62.1176 193.278 60.5162 191.776 60.1279 189.934C60.4191 182.034 60.0794 174.134 60.225 166.186C61.05 163.86 63.2823 161.97 65.7088 161.485Z" fill="#5A8EFF"/>
<path d="M163.446 162.019C163.98 161 165.193 161.291 166.115 161.291C165.339 161.922 164.368 162.068 163.446 162.019Z" fill="#6390E4"/>
<path d="M166.116 161.291C181.597 162.697 197.126 161.727 212.607 161.437C214.742 161.388 216.926 161.534 219.062 161.194C235.076 161.291 251.14 161.097 267.203 161.34C266.232 164.005 265.165 166.622 264.194 169.24C263.466 171.081 262.592 173.165 260.748 174.134C258.759 175.152 256.478 174.813 254.342 174.861C223.381 174.861 192.467 174.861 161.506 174.861C159.856 174.91 158.303 174.377 156.798 173.698C159.079 169.87 161.215 165.895 163.398 161.97C164.369 162.067 165.34 161.921 166.116 161.291Z" fill="#3667D1"/>
<path d="M71.7735 193.763C73.7146 193.569 75.6558 193.617 77.597 193.666C76.8205 197.688 75.7043 201.614 74.8308 205.588C74.297 207.478 74.0543 209.514 73.1808 211.307C72.2102 213.246 68.8132 212.616 68.522 210.483C68.3764 208.835 69.0073 207.285 69.2985 205.685C70.1235 201.711 70.8999 197.737 71.7735 193.763Z" fill="#396AD7"/>
<path d="M121.711 200.015C122.585 200.015 123.41 200.015 124.283 200.063C125.642 201.178 127.583 200.499 129.136 201.081C132.048 201.953 135.106 202.244 137.92 203.407C137.678 203.843 137.386 204.28 137.144 204.716C136.416 205.54 135.494 206.412 134.329 206.364C131.951 206.606 129.913 204.958 128.506 203.262C127.341 203.698 126.176 204.328 124.866 204.134C123.895 203.989 122.925 203.746 121.954 203.698C121.76 202.486 121.711 201.275 121.711 200.015Z" fill="#FF9364"/>
<path d="M124.283 200.063C125.885 200.063 127.438 200.209 129.039 200.257C129.088 200.451 129.136 200.84 129.136 201.082C127.535 200.5 125.642 201.179 124.283 200.063Z" fill="#F09F81"/>
<path d="M124.866 204.183C126.128 204.377 127.341 203.746 128.506 203.31C129.961 205.007 131.951 206.654 134.329 206.412C135.494 206.461 136.464 205.588 137.144 204.764L137.241 205.2C138.454 207.624 138.939 210.338 138.745 213.003C138.551 214.99 136.756 216.735 134.669 216.541C127.195 216.493 119.722 216.59 112.248 216.493C110.841 216.396 110.356 214.99 110.21 213.827C110.21 212.713 110.938 211.792 111.811 211.21C114.238 209.465 116.956 208.302 119.673 207.091C120.256 206.848 120.741 206.412 121.032 205.83C118.848 206.848 116.47 206.412 114.189 206.703C114.966 206.461 115.694 206.17 116.47 205.927C118.411 205.588 120.401 205.007 121.954 203.746C122.973 203.795 123.895 204.037 124.866 204.183Z" fill="#2C5CC2"/>
<path d="M137.24 205.2C138.745 205.83 140.346 205.54 141.948 205.588C186.595 205.54 231.242 205.637 275.889 205.54C276.374 207.381 276.52 209.32 277.248 211.113C278.17 213.197 281.761 212.761 282.101 210.483C282.101 208.884 281.664 207.284 281.373 205.734C284.09 205.685 286.857 205.54 289.574 205.782C290.496 206.073 291.467 206.218 292.437 206.267C292.146 206.945 291.904 207.624 291.952 208.351C291.952 212.034 292.049 215.766 291.904 219.498C291.321 219.595 290.739 219.691 290.157 219.788C292.486 220.855 295.01 220.467 297.436 220.806C290.885 221 284.333 220.855 277.782 220.903C206.395 220.903 134.96 220.952 63.5728 220.903C53.1389 220.855 42.7536 220.952 32.3198 220.855C32.9992 220.709 33.8242 220.709 34.4551 220.273C34.1154 217.317 34.1154 214.312 34.4066 211.307C34.6007 209.32 34.3095 207.236 32.9507 205.685C38.8228 205.685 44.6463 205.637 50.5184 205.637C56.7301 205.685 62.9904 205.491 69.2022 205.734C68.911 207.333 68.2801 208.884 68.4257 210.532C68.7169 212.664 72.1139 213.343 73.0845 211.355C73.9581 209.562 74.1522 207.527 74.7345 205.637C87.9345 205.588 101.135 205.637 114.335 205.637C115.062 205.637 115.742 205.83 116.421 205.976C115.645 206.218 114.917 206.509 114.14 206.751C110.307 207.769 106.521 209.029 102.979 210.822C101.717 211.501 100.212 212.519 100.31 214.166C100.358 215.572 101.765 216.541 103.076 216.59C106.133 216.735 109.142 216.444 112.199 216.59C119.673 216.687 127.146 216.59 134.62 216.638C136.658 216.832 138.502 215.087 138.696 213.1C138.939 210.338 138.454 207.575 137.24 205.2Z" fill="#A5CBFF"/>
<path d="M24.9926 205.588C25.1868 205.588 25.575 205.588 25.7691 205.54C26.9338 206.606 28.5353 206.461 29.8456 205.782C30.9132 205.588 31.9809 205.588 33.0485 205.588C34.4073 207.139 34.6985 209.223 34.5044 211.21C34.1647 214.167 34.2132 217.171 34.5529 220.176C33.9706 220.612 33.1456 220.612 32.4176 220.758C27.9044 220.758 23.3912 220.903 18.8779 220.661C19.7029 220.419 20.4794 220.128 21.3044 219.885C20.6735 219.692 20.0912 219.498 19.4603 219.304C19.3632 217.414 19.7029 215.475 19.5573 213.585C19.4603 212.034 19.8485 210.532 19.7515 208.981C19.6544 207.915 19.6544 206.8 19.7029 205.734C21.45 205.782 23.197 205.685 24.9926 205.588Z" fill="#AFD0FF"/>
<path d="M114.189 206.703C116.47 206.412 118.896 206.848 121.031 205.831C120.74 206.412 120.255 206.848 119.673 207.091C116.955 208.254 114.237 209.465 111.811 211.21C110.937 211.792 110.209 212.761 110.209 213.827C110.355 214.99 110.84 216.396 112.248 216.493C109.19 216.347 106.181 216.59 103.124 216.493C101.814 216.444 100.358 215.524 100.358 214.07C100.261 212.47 101.814 211.452 103.027 210.726C106.57 208.932 110.355 207.721 114.189 206.703Z" fill="#3E70D8"/>
<path d="M289.671 205.734C295.786 205.394 301.901 205.685 308.015 205.588C308.161 205.83 308.307 206.073 308.501 206.315C308.307 207.43 307.579 208.399 307.19 209.465C307.385 212.761 307.433 216.057 307.142 219.352C306.851 219.498 306.608 219.643 306.365 219.788C306.851 220.128 307.336 220.418 307.821 220.709C304.424 220.855 300.979 220.855 297.582 220.709C295.155 220.37 292.632 220.709 290.302 219.691C290.885 219.595 291.467 219.498 292.049 219.401C292.146 215.717 292.049 211.986 292.098 208.254C292.049 207.527 292.292 206.8 292.583 206.17C291.564 206.17 290.593 206.024 289.671 205.734Z" fill="#B2D3FD"/>
</g>
<defs>
<clipPath id="clip0_1189_16434">
<rect width="330" height="221" fill="white"/>
</clipPath>
</defs>
</svg>
