<svg width="36" height="36" viewBox="0 0 36 36" fill="none" xmlns="http://www.w3.org/2000/svg">
<path d="M34.8592 14.9362H33.5107V9.19153H33.7022C34.0195 9.19153 34.2766 8.93433 34.2766 8.61708C34.2766 8.29983 34.0195 8.04263 33.7022 8.04263H32.7228C32.443 4.38173 29.512 1.45069 25.8511 1.17091V0.574453C25.8511 0.257203 25.5939 0 25.2766 0C24.9593 0 24.7022 0.257203 24.7022 0.574453V1.17084C21.0413 1.45062 18.1102 4.38166 17.8304 8.04255H16.8511C16.5338 8.04255 16.2767 8.29976 16.2767 8.61701C16.2767 8.93426 16.5338 9.19146 16.8511 9.19146H17.0426V14.9361H13.0198C13.2712 14.6019 13.4516 14.2115 13.5381 13.7872H13.7873C14.1047 13.7872 14.3618 13.53 14.3618 13.2128C14.3618 12.8955 14.1047 12.6383 13.7873 12.6383H13.0198C13.2712 12.3041 13.4516 11.9137 13.5381 11.4894H13.7873C14.1047 11.4894 14.3618 11.2322 14.3618 10.915C14.3618 10.5977 14.1047 10.3405 13.7873 10.3405H13.0198C13.2712 10.0063 13.4516 9.61587 13.5381 9.1916H13.7873C14.1047 9.1916 14.3618 8.9344 14.3618 8.61715C14.3618 8.2999 14.1047 8.0427 13.7873 8.0427H13.0198C13.2712 7.7085 13.4516 7.31805 13.5381 6.89379H13.7873C14.1047 6.89379 14.3618 6.63659 14.3618 6.31934C14.3618 6.00209 14.1047 5.74488 13.7873 5.74488H2.29792C1.9806 5.74488 1.72347 6.00209 1.72347 6.31934C1.72347 6.63659 1.9806 6.89379 2.29792 6.89379H2.54725C2.63373 7.31805 2.81402 7.70857 3.06552 8.0427H2.29792C1.9806 8.0427 1.72347 8.2999 1.72347 8.61715C1.72347 8.9344 1.9806 9.1916 2.29792 9.1916H2.54725C2.63373 9.61587 2.81402 10.0064 3.06552 10.3405H2.29792C1.9806 10.3405 1.72347 10.5977 1.72347 10.915C1.72347 11.2322 1.9806 11.4894 2.29792 11.4894H2.54725C2.63373 11.9137 2.81402 12.3042 3.06552 12.6383H2.29792C1.9806 12.6383 1.72347 12.8955 1.72347 13.2128C1.72347 13.53 1.9806 13.7872 2.29792 13.7872H2.54725C2.63373 14.2115 2.81402 14.602 3.06552 14.9361H1.14086C0.823539 14.9361 0.566406 15.1933 0.566406 15.5106V20.1064C0.566406 20.4236 0.823539 20.6808 1.14086 20.6808H29.4957C29.813 20.6808 30.0702 20.4236 30.0702 20.1064C30.0702 19.7891 29.813 19.5319 29.4957 19.5319H1.71531V16.0851H34.2848V19.5319H31.7936C31.4763 19.5319 31.2191 19.7891 31.2191 20.1064C31.2191 20.4236 31.4763 20.6808 31.7936 20.6808H34.0851V32.5271C33.2201 32.4432 32.7221 32.1685 32.1606 31.8587C31.4491 31.4662 30.6427 31.0212 29.1065 31.0212C27.5703 31.0212 26.7639 31.4662 26.0525 31.8587C25.3771 32.2313 24.7937 32.5531 23.5534 32.5531C22.3131 32.5531 21.7296 32.2313 21.0542 31.8587C20.3427 31.4662 19.5364 31.0212 18 31.0212C16.4637 31.0212 15.6574 31.4662 14.9459 31.8587C14.2705 32.2313 13.687 32.5531 12.4467 32.5531C11.2064 32.5531 10.623 32.2313 9.94764 31.8587C9.23622 31.4662 8.42988 31.0212 6.89369 31.0212C5.3575 31.0212 4.55109 31.4662 3.83966 31.8587C3.67963 31.9469 3.52473 32.0321 3.36506 32.111C2.96392 32.3094 2.53333 32.4671 1.915 32.527V22.4042C1.915 22.087 1.65787 21.8298 1.34055 21.8298C1.02323 21.8298 0.766094 22.087 0.766094 22.4042V33.1277C0.766094 33.4449 1.02323 33.7021 1.34055 33.7021C2.05035 33.7021 2.60315 33.6066 3.06398 33.4657V35.4255C3.06398 35.7427 3.32111 35.9999 3.63843 35.9999C3.95575 35.9999 4.21288 35.7427 4.21288 35.4255V32.9643C4.27427 32.9309 4.33495 32.8976 4.39464 32.8647C5.07006 32.492 5.65345 32.1702 6.89369 32.1702C8.13393 32.1702 8.71731 32.4921 9.39259 32.8646C10.104 33.2572 10.9104 33.7021 12.4466 33.7021C13.9829 33.7021 14.7893 33.2572 15.5008 32.8647C16.1762 32.492 16.7597 32.1702 18 32.1702C19.2403 32.1702 19.8237 32.4921 20.4992 32.8647C21.2107 33.2572 22.017 33.7021 23.5533 33.7021C25.0896 33.7021 25.896 33.2572 26.6074 32.8647C27.2828 32.492 27.8662 32.1702 29.1065 32.1702C30.3467 32.1702 30.9301 32.4921 31.6054 32.8646C31.6651 32.8975 31.7257 32.9308 31.7871 32.9642V35.4255C31.7871 35.7428 32.0442 36 32.3615 36C32.6788 36 32.936 35.7428 32.936 35.4255V33.4656C33.3968 33.6065 33.9495 33.7021 34.6594 33.7021C34.9767 33.7021 35.2338 33.4449 35.2338 33.1277V20.5413C35.356 20.436 35.4336 20.2804 35.4336 20.1064V15.5107C35.4337 15.1934 35.1765 14.9362 34.8592 14.9362ZM10.7235 14.9362H5.36172C4.61282 14.9362 3.97424 14.4559 3.73715 13.7873H12.348C12.1109 14.4558 11.4723 14.9362 10.7235 14.9362ZM10.7235 12.6383H5.36172C4.61282 12.6383 3.97424 12.158 3.73715 11.4894H12.348C12.1109 12.1579 11.4723 12.6383 10.7235 12.6383ZM10.7235 10.3404H5.36172C4.61282 10.3404 3.97424 9.86013 3.73715 9.19153H12.348C12.1109 9.86006 11.4723 10.3404 10.7235 10.3404ZM10.7235 8.04255H5.36172C4.61282 8.04255 3.97424 7.56225 3.73715 6.89365H12.348C12.1109 7.56225 11.4723 8.04255 10.7235 8.04255ZM25.2766 2.29788C28.5672 2.29788 31.2772 4.82653 31.5685 8.04255H18.9848C19.2761 4.82653 21.986 2.29788 25.2766 2.29788ZM32.3617 14.9362H18.1915V9.19153H32.3617V14.9362Z" fill="#555555"/>
</svg>
