<svg width="24" height="24" viewBox="0 0 24 24" fill="none" xmlns="http://www.w3.org/2000/svg">
<g clip-path="url(#clip0_1189_13640)">
<path d="M7.71261 0.857178H2.56975C1.62298 0.857178 0.855469 1.62469 0.855469 2.57146V7.71432C0.855469 8.66109 1.62298 9.42861 2.56975 9.42861H7.71261C8.65939 9.42861 9.4269 8.66109 9.4269 7.71432V2.57146C9.4269 1.62469 8.65939 0.857178 7.71261 0.857178Z" stroke="#B4B4B4" stroke-width="1.5" stroke-linecap="round" stroke-linejoin="round"/>
<path d="M21.4275 0.857178H16.2846C15.3378 0.857178 14.5703 1.62469 14.5703 2.57146V7.71432C14.5703 8.66109 15.3378 9.42861 16.2846 9.42861H21.4275C22.3742 9.42861 23.1417 8.66109 23.1417 7.71432V2.57146C23.1417 1.62469 22.3742 0.857178 21.4275 0.857178Z" stroke="#B4B4B4" stroke-width="1.5" stroke-linecap="round" stroke-linejoin="round"/>
<path d="M7.71261 14.5715H2.56975C1.62298 14.5715 0.855469 15.339 0.855469 16.2858V21.4287C0.855469 22.3754 1.62298 23.143 2.56975 23.143H7.71261C8.65939 23.143 9.4269 22.3754 9.4269 21.4287V16.2858C9.4269 15.339 8.65939 14.5715 7.71261 14.5715Z" stroke="#B4B4B4" stroke-width="1.5" stroke-linecap="round" stroke-linejoin="round"/>
<path d="M21.4275 14.5715H16.2846C15.3378 14.5715 14.5703 15.339 14.5703 16.2858V21.4287C14.5703 22.3754 15.3378 23.143 16.2846 23.143H21.4275C22.3742 23.143 23.1417 22.3754 23.1417 21.4287V16.2858C23.1417 15.339 22.3742 14.5715 21.4275 14.5715Z" stroke="#B4B4B4" stroke-width="1.5" stroke-linecap="round" stroke-linejoin="round"/>
</g>
<defs>
<clipPath id="clip0_1189_13640">
<rect width="24" height="24" fill="white"/>
</clipPath>
</defs>
</svg>
