<svg width="24" height="24" viewBox="0 0 24 24" fill="none" xmlns="http://www.w3.org/2000/svg">
<path fill-rule="evenodd" clip-rule="evenodd" d="M4.56389 5H19.4361C20.3276 5 20.6509 5.08305 20.9768 5.23901C21.3028 5.39497 21.5586 5.62384 21.7329 5.91545C21.9072 6.20707 22 6.49633 22 7.294V19.706C22 20.5037 21.9072 20.7929 21.7329 21.0845C21.5586 21.3762 21.3028 21.605 20.9768 21.761C20.6509 21.9169 20.3276 22 19.4361 22H4.56389C3.67237 22 3.34908 21.9169 3.02315 21.761C2.69723 21.605 2.44144 21.3762 2.26713 21.0845C2.09283 20.7929 2 20.5037 2 19.706V7.294C2 6.49633 2.09283 6.20707 2.26713 5.91545C2.44144 5.62384 2.69723 5.39497 3.02315 5.23901C3.34908 5.08305 3.67237 5 4.56389 5Z" stroke="#223385" stroke-width="2" stroke-linecap="round" stroke-linejoin="round"/>
<path d="M17 2V5" stroke="#223385" stroke-width="2" stroke-linecap="round" stroke-linejoin="round"/>
<path d="M7 2V5" stroke="#223385" stroke-width="2" stroke-linecap="round" stroke-linejoin="round"/>
<path d="M7.00439 9.5H7" stroke="#223385" stroke-width="2" stroke-linecap="round" stroke-linejoin="round"/>
<path d="M12.0083 9.5H12.0039" stroke="#223385" stroke-width="2" stroke-linecap="round" stroke-linejoin="round"/>
<path d="M17.0132 9.5H17.0088" stroke="#223385" stroke-width="2" stroke-linecap="round" stroke-linejoin="round"/>
<path d="M7.00439 13.5H7" stroke="#223385" stroke-width="2" stroke-linecap="round" stroke-linejoin="round"/>
<path d="M12.0083 13.5H12.0039" stroke="#223385" stroke-width="2" stroke-linecap="round" stroke-linejoin="round"/>
<path d="M17.0132 13.5H17.0088" stroke="#223385" stroke-width="2" stroke-linecap="round" stroke-linejoin="round"/>
<path d="M7.00439 17.5H7" stroke="#223385" stroke-width="2" stroke-linecap="round" stroke-linejoin="round"/>
<path d="M12.0083 17.5H12.0039" stroke="#223385" stroke-width="2" stroke-linecap="round" stroke-linejoin="round"/>
</svg>
