<svg width="400" height="331" viewBox="0 0 400 331" fill="none" xmlns="http://www.w3.org/2000/svg">
<g clip-path="url(#clip0_1189_10267)">
<path d="M259.827 0.44335C272.996 -0.738793 286.214 0.93591 299.136 3.15243C315.807 5.91076 332.478 10.3931 347.324 18.6188C362.86 27.0416 376.029 39.7003 384.808 55.0189C390.53 64.9194 394.574 75.805 397.237 86.8875C398.273 91.7639 399.309 96.6895 399.506 101.664C401.479 123.189 397.287 145.207 387.866 164.663C380.419 179.834 368.532 192.148 356.794 204.067C349.346 211.604 341.504 218.647 333.711 225.839C333.563 204.806 333.612 183.774 333.711 162.791C333.711 161.166 333.711 159.491 333.07 158.013C331.639 154.812 328.286 152.644 324.833 152.595C316.448 152.595 308.064 152.644 299.728 152.595C299.728 150.231 299.876 147.866 299.728 145.502C299.284 140.084 295.339 135.208 290.308 133.287C288.138 132.449 285.77 132.302 283.452 132.302C227.028 132.351 170.653 132.302 114.229 132.302C111.122 132.252 107.916 132.794 105.302 134.518C101.75 136.833 99.0377 140.675 98.6431 144.911C98.3965 147.423 98.4458 149.984 98.4458 152.546C90.0611 152.546 81.6764 152.546 73.2917 152.546C70.2831 152.546 67.4224 154.22 65.9921 156.831C64.611 159.048 64.8083 161.707 64.8083 164.219C64.8577 192.295 64.8577 220.371 64.8577 248.447C64.907 273.42 64.7097 298.393 64.907 323.316C64.5617 322.282 64.6604 320.755 63.3287 320.558C59.6789 319.573 56.325 317.75 52.9218 316.076C36.3496 307.259 22.7368 293.369 13.7109 277.016C9.66653 269.332 6.55925 261.204 4.33977 252.831C1.28182 240.468 -1.03631 227.71 0.048768 214.904C0.887239 201.309 4.58638 188.059 9.76517 175.548C13.9575 165.254 19.1363 155.255 26.2387 146.635C33.0944 138.409 41.0845 131.169 49.1733 124.224C59.8268 115.062 70.9736 106.59 82.1696 98.1672C83.7479 96.8865 185.597 32.0657 200.739 22.4608C209.667 17.0919 218.692 11.723 228.409 7.78249C238.372 3.89127 249.025 1.37921 259.827 0.44335Z" fill="#BDFCF4"/>
<path d="M105.302 144.911C114.772 152.201 123.995 159.835 133.317 167.273C151.813 182.148 170.259 197.073 188.952 211.702C191.665 213.771 194.279 216.381 197.781 217.022C200.789 217.563 204.044 217.317 206.757 215.741C208.385 214.805 209.815 213.524 211.295 212.392C228.015 199.092 244.538 185.498 261.159 172.002C271.714 163.234 282.466 154.713 292.972 145.896C293.169 151.019 293.021 156.191 293.021 161.362C291.048 161.806 289.766 163.53 288.187 164.712C275.019 175.4 261.751 185.941 248.631 196.63C242.367 201.605 236.202 206.727 229.84 211.554C227.62 211.554 225.401 211.308 223.181 211.653C221.8 211.85 221.011 213.672 221.8 214.854C222.491 215.642 223.625 215.84 224.612 216.037C221.8 218.499 218.94 220.814 215.931 223.031C214.846 223.868 213.564 224.41 212.232 224.706C204.883 224.706 197.485 224.607 190.136 224.706C186.091 221.898 182.294 218.746 178.298 215.889C179.975 215.199 180.271 212.638 178.496 211.899C176.128 211.308 173.613 211.751 171.196 211.604C157.485 200.718 143.675 189.931 130.062 178.947C121.776 172.297 113.49 165.697 105.154 159.097C105.154 154.417 105.006 149.64 105.302 144.911Z" fill="#BDFCF4"/>
<path d="M194.87 229.04C199.26 229.089 203.649 229.04 208.039 229.04C206.214 231.503 203.058 232.981 199.95 232.587C197.731 232.439 196.152 230.666 194.87 229.04Z" fill="#BDFCF4"/>
<path d="M105.204 134.567C107.818 132.794 111.073 132.302 114.131 132.351C170.555 132.351 226.93 132.4 283.354 132.351C285.672 132.4 288.04 132.499 290.21 133.336C295.29 135.257 299.186 140.084 299.63 145.551C299.778 147.916 299.68 150.28 299.63 152.644C308.015 152.693 316.4 152.644 324.735 152.644C328.237 152.644 331.591 154.861 332.972 158.062C333.662 159.54 333.613 161.264 333.613 162.84C333.514 183.872 333.465 204.905 333.613 225.888C333.613 258.052 333.613 290.216 333.613 322.38C333.662 325.68 331.492 328.833 328.484 330.113C326.807 330.852 324.982 330.852 323.157 330.852C240.937 330.852 158.718 330.902 76.5477 330.852C74.1802 330.852 71.6648 331.148 69.4453 330.015C66.8313 328.882 64.9077 326.222 64.6611 323.365C64.4638 298.393 64.7104 273.469 64.6118 248.496C64.6118 220.42 64.6118 192.345 64.5625 164.269C64.5625 161.757 64.3652 159.097 65.7462 156.88C67.2259 154.27 70.0865 152.595 73.0458 152.595C81.4305 152.595 89.8153 152.595 98.2 152.595C98.2 150.034 98.1013 147.522 98.3973 144.96C98.9891 140.724 101.702 136.932 105.204 134.567ZM109.643 139.69C119.458 147.817 129.47 155.698 139.433 163.678C154.92 176.287 170.654 188.65 186.19 201.211C187.177 201.949 188.064 202.787 188.903 203.723C190.925 202.048 192.997 200.373 195.561 199.684C201.184 197.812 207.694 199.536 211.788 203.772C230.974 188.207 250.161 172.642 269.248 156.979C275.956 151.61 282.417 145.995 289.174 140.774C289.174 140.675 289.174 140.429 289.223 140.33C287.645 139.345 285.771 138.705 283.897 138.803C227.472 138.803 171.098 138.803 114.673 138.803C112.947 138.803 111.221 138.951 109.643 139.69ZM105.302 144.911C105.006 149.64 105.154 154.368 105.154 159.097C105.204 193.822 105.154 228.498 105.154 263.224C105.302 266.573 107.818 269.381 110.777 270.711C112.898 271.745 115.364 271.499 117.682 271.499C172.775 271.499 227.818 271.499 282.91 271.499C286.708 271.696 290.358 269.332 292.133 266.081C293.317 264.012 293.021 261.549 293.071 259.234C293.12 226.627 293.071 193.97 293.071 161.363C293.071 156.191 293.218 151.068 293.021 145.896C282.516 154.713 271.763 163.234 261.209 172.002C244.587 185.449 228.064 199.043 211.344 212.392C209.865 213.574 208.434 214.805 206.807 215.741C204.143 217.317 200.839 217.514 197.83 217.022C194.328 216.332 191.714 213.771 189.001 211.702C170.308 197.073 151.862 182.149 133.366 167.273C123.995 159.836 114.772 152.25 105.302 144.911ZM75.1667 159.245C82.7129 170.77 90.7524 181.952 98.4466 193.379C98.4959 182.001 98.4466 170.623 98.4959 159.245C90.7031 159.146 82.9102 159.245 75.1667 159.245ZM299.68 159.245C299.778 170.672 299.384 182.099 299.729 193.527C307.374 182.05 315.068 170.623 322.861 159.294C315.117 159.146 307.374 159.294 299.68 159.245ZM300.37 204.363C300.025 204.905 299.532 205.447 299.581 206.136C299.877 225.001 299.68 243.866 299.729 262.781C299.729 267.952 296.622 272.533 292.479 275.39C299.285 283.862 306.585 291.891 313.588 300.166C318.077 305.83 322.713 311.396 327.103 317.159C327.3 305.584 327.152 294.058 327.201 282.483C327.201 255.589 327.201 228.646 327.201 201.752C327.103 189.586 327.398 177.42 327.053 165.254C318.027 178.208 309.248 191.31 300.37 204.363ZM71.2702 165.796C71.1716 188.601 71.3196 211.407 71.2209 234.212C71.2702 262.042 71.1223 289.921 71.3196 317.75C72.8979 315.829 74.4762 313.859 76.1531 312.036C86.4614 300.264 96.5723 288.246 105.943 275.686C101.603 272.878 98.4959 268.051 98.4959 262.781C98.4466 243.571 98.5452 224.312 98.4466 205.102C96.1285 201.26 93.4157 197.664 90.9003 193.97C84.2912 184.611 77.978 175.056 71.2702 165.796ZM112.849 278.247C109.741 281.843 106.831 285.685 103.823 289.379C96.4737 298.59 88.8288 307.603 81.0853 316.47C78.9151 319.129 76.4984 321.641 74.6241 324.548C111.665 324.745 148.706 324.547 185.697 324.597C231.911 324.646 278.175 324.646 324.39 324.597C321.529 320.804 318.521 317.061 315.66 313.268C306.338 301.052 295.833 289.871 285.82 278.247C281.036 278.148 276.252 278.247 271.517 278.198C218.644 278.296 165.722 278.148 112.849 278.247Z" fill="#044671"/>
<path d="M160.591 162.988C167.447 162.692 174.352 162.988 181.257 162.889C200.345 162.889 219.432 162.84 238.52 162.889C240.197 162.742 241.479 164.86 240.492 166.239C239.901 167.273 238.569 167.273 237.533 167.273C213.513 167.027 189.543 167.273 165.523 167.175C163.797 167.125 162.021 167.519 160.345 166.978C158.47 166.387 158.766 163.382 160.591 162.988Z" fill="#044671"/>
<path d="M172.035 175.253C173.662 174.514 175.586 174.957 177.312 174.859C193.243 174.859 209.223 174.957 225.154 174.859C226.535 174.908 228.41 174.514 229.199 175.992C230.185 177.42 228.755 179.489 227.078 179.193C209.174 179.144 191.221 179.193 173.317 179.193C171.344 179.341 170.358 176.386 172.035 175.253Z" fill="#044671"/>
<path d="M135.783 215.101C134.648 213.623 135.98 211.357 137.854 211.604C148.952 211.554 160.049 211.604 171.196 211.604C173.613 211.702 176.128 211.259 178.496 211.899C180.271 212.589 180.025 215.199 178.298 215.889C165.82 216.086 153.292 215.889 140.814 216.037C139.137 215.938 137.115 216.381 135.783 215.101Z" fill="#044671"/>
<path d="M221.8 214.854C221.011 213.672 221.8 211.85 223.181 211.653C225.4 211.308 227.62 211.554 229.839 211.554C240.296 211.604 250.702 211.604 261.159 211.554C262.145 211.554 263.477 211.554 263.921 212.687C264.759 214.017 263.723 215.938 262.145 215.889C249.617 216.086 237.09 215.79 224.611 216.037C223.625 215.84 222.54 215.643 221.8 214.854Z" fill="#044671"/>
<path d="M132.232 226.183C132.627 224.804 134.205 224.656 135.389 224.706C153.638 224.706 171.887 224.656 190.136 224.706C197.485 224.607 204.883 224.706 212.232 224.706C228.064 224.656 243.847 224.706 259.68 224.656C261.307 224.804 263.527 224.164 264.661 225.74C265.697 227.119 264.316 229.188 262.639 228.942C244.439 229.04 226.239 228.843 208.04 229.04C203.65 229.04 199.26 229.139 194.871 229.04C174.698 228.794 154.525 229.089 134.402 228.942C132.972 229.089 131.64 227.562 132.232 226.183Z" fill="#044671"/>
<path d="M138.003 237.906C162.96 237.808 187.867 238.005 212.824 237.857C227.818 237.906 242.763 238.005 257.707 237.857C258.644 237.857 259.779 237.906 260.42 238.744C261.554 240.024 260.42 242.339 258.693 242.241C218.595 242.241 178.447 242.241 138.348 242.241C136.77 242.487 135.093 240.763 135.882 239.187C136.178 238.3 137.115 237.906 138.003 237.906Z" fill="#044671"/>
<path d="M181.85 49.2067C189.79 45.3647 199.013 44.5766 207.546 46.5961C215.536 48.6156 222.836 53.1964 228.113 59.5504C233.243 65.6581 236.35 73.4406 237.09 81.3708C238.471 95.1625 231.665 109.348 220.025 116.884C207.004 125.75 188.459 125.504 175.684 116.195C167.743 110.629 161.973 102.009 160.049 92.5026C158.323 83.7843 159.704 74.475 163.798 66.594C167.645 58.9593 174.155 52.8023 181.85 49.2067ZM185.302 50.6843C171.097 55.9547 161.184 70.9285 161.923 86.0501C162.121 95.852 166.856 105.358 174.254 111.762C182.787 119.249 194.92 122.5 206.017 119.938C213.761 118.362 220.863 114.027 225.993 108.068C231.517 101.615 234.821 93.1922 234.525 84.6709C234.575 75.5093 230.875 66.5448 224.759 59.7474C221.554 56.3488 217.756 53.4919 213.465 51.4724C204.735 47.3842 194.279 47.0394 185.302 50.6843Z" fill="#044671"/>
<path d="M185.302 50.6844C194.278 47.0394 204.735 47.4335 213.563 51.4232C217.805 53.4427 221.603 56.2503 224.858 59.6982C223.674 60.7818 222.589 62.0132 221.751 63.3432C220.616 65.0671 207.842 78.8095 195.61 90.8772C185.006 101.369 174.648 110.333 174.303 111.712C166.905 105.309 162.17 95.8028 161.973 86.0009C161.184 70.8793 171.097 55.9548 185.302 50.6844Z" fill="#FFE3B6"/>
<path d="M224.808 59.6981C230.875 66.4954 234.623 75.46 234.574 84.6216C234.821 93.1429 231.516 101.566 226.041 108.018C220.863 113.978 213.81 118.313 206.066 119.889C194.969 122.45 182.835 119.199 174.303 111.712C178.692 104.62 183.23 98.364 187.718 92.8966C189.001 91.3204 193.094 93.2907 194.377 91.8623C197.632 88.1188 203.353 80.5334 206.362 77.578C209.913 74.1301 211.393 69.7956 214.155 67.0865C221.109 60.1907 224.315 60.1414 224.808 59.6981Z" fill="#FFD38F"/>
<path d="M215.142 64.3775C216.03 63.0968 217.559 62.555 219.088 62.7028C219.976 63.5401 221.061 64.5745 220.814 65.9044C220.222 67.4806 218.94 68.712 217.954 70.0912C214.55 74.7212 202.516 90.6309 199.014 95.1624C198.225 96.1968 197.436 97.2312 196.4 98.0685C195.019 99.0537 192.947 99.0044 191.714 97.773C189.84 95.9013 188.311 93.6848 186.634 91.5667C183.626 87.8233 183.478 87.4785 180.42 83.7351C179.877 83.0455 179.236 82.2081 179.384 81.2723C179.335 79.105 182.343 77.8736 183.971 79.1542C185.549 80.4349 186.585 82.1589 187.818 83.6858C190.876 87.5278 191.221 87.9218 194.279 91.813C198.323 86.4934 210.901 69.6479 215.142 64.3775Z" fill="#044671"/>
<path d="M75.166 159.244C82.9095 159.294 90.7024 159.146 98.4459 159.244C98.4459 170.623 98.4459 182.001 98.3966 193.379C90.7517 181.951 82.7123 170.721 75.166 159.244Z" fill="#8FD1FF"/>
<path d="M299.68 159.244C307.423 159.244 315.167 159.146 322.861 159.244C315.068 170.623 307.374 182.001 299.729 193.477C299.334 182.099 299.778 170.672 299.68 159.244Z" fill="#8FD1FF"/>
<path d="M300.37 204.363C309.248 191.31 318.077 178.159 327.053 165.204C327.398 177.371 327.152 189.537 327.201 201.703C327.201 228.597 327.201 255.54 327.201 282.434C327.152 294.009 327.3 305.535 327.102 317.11C322.713 311.347 318.077 305.781 313.588 300.116C306.585 291.841 299.236 283.813 292.479 275.341C296.622 272.484 299.729 267.903 299.729 262.731C299.68 243.866 299.877 224.952 299.581 206.087C299.532 205.447 300.025 204.905 300.37 204.363Z" fill="#8FD1FF"/>
<path d="M71.2702 165.796C77.9779 175.056 84.2911 184.611 90.9002 193.921C93.4157 197.664 96.1284 201.26 98.4465 205.053C98.5451 224.262 98.4465 243.521 98.4958 262.731C98.4958 268.002 101.603 272.829 105.943 275.636C96.5723 288.197 86.4613 300.166 76.153 311.987C74.4761 313.859 72.8978 315.78 71.3195 317.701C71.1222 289.871 71.2702 261.992 71.2208 234.163C71.3195 211.407 71.1222 188.601 71.2702 165.796Z" fill="#8FD1FF"/>
<path d="M112.848 278.247C165.721 278.148 218.594 278.296 271.517 278.198C276.301 278.247 281.085 278.148 285.82 278.247C295.783 289.871 306.338 301.052 315.66 313.268C318.52 317.11 321.529 320.804 324.39 324.597C278.175 324.646 231.911 324.695 185.697 324.597C148.656 324.547 111.615 324.744 74.624 324.547C76.4983 321.641 78.8657 319.129 81.0852 316.469C88.8287 307.554 96.4736 298.59 103.823 289.379C106.831 285.684 109.741 281.843 112.848 278.247Z" fill="#8FD1FF"/>
</g>
<defs>
<clipPath id="clip0_1189_10267">
<rect width="400" height="331" fill="white"/>
</clipPath>
</defs>
</svg>
