<?xml version="1.0" encoding="utf-8"?>
<!-- Generator: Adobe Illustrator 24.3.0, SVG Export Plug-In . SVG Version: 6.00 Build 0)  -->
<svg version="1.1" id="Layer_1" xmlns="http://www.w3.org/2000/svg" xmlns:xlink="http://www.w3.org/1999/xlink" x="0px" y="0px"
	 viewBox="0 0 465 399.5" style="enable-background:new 0 0 465 399.5;" xml:space="preserve">
<style type="text/css">
	.st0{fill:#83D8CD;}
	.st1{fill:#FEC740;}
	.st2{fill:#171C6C;}
	.st3{fill:#6053DF;}
	.st4{fill:#5F53DE;}
	.st5{fill:#FCBB32;}
	.st6{fill:#5B52D4;}
	.st7{fill:#5954DC;}
	.st8{fill:#FCFCFD;}
	.st9{fill:#FC9F3A;}
	.st10{fill:#FF6D5A;}
	.st11{fill:#564EC9;}
	.st12{fill:#E28F32;}
	.st13{fill:#FDC842;}
	.st14{fill:#4A42B7;}
	.st15{fill:#FDC843;}
	.st16{fill:#191A73;}
	.st17{fill:#443EAE;}
	.st18{fill:#1E1B75;}
	.st19{fill:#3D39A0;}
	.st20{fill:#EAAD36;}
	.st21{fill:#1B166B;}
	.st22{fill:#51C6B4;}
	.st23{fill:#2BAA9C;}
	.st24{fill:#1A9087;}
	.st25{fill:#111A66;}
	.st26{fill:#27A497;}
	.st27{fill:#FCB5B7;}
	.st28{fill:#FDC438;}
	.st29{fill:#FC9937;}
	.st30{fill:#F0C952;}
	.st31{fill:#12195F;}
	.st32{fill:#D1CEFD;}
	.st33{fill:#FDB4BE;}
	.st34{fill:#FFB2B3;}
	.st35{fill:#392341;}
	.st36{fill:#FF6B7F;}
	.st37{fill:#FF697B;}
	.st38{fill:#9E5673;}
	.st39{fill:#3C3BA8;}
	.st40{fill:#FF6779;}
	.st41{fill:#FCFCFB;}
	.st42{fill:#F2526F;}
	.st43{fill:#FA8797;}
	.st44{fill:#FF79B9;}
	.st45{fill:#FC6F83;}
	.st46{fill:#613C7D;}
	.st47{fill:#F2546B;}
	.st48{fill:#151B64;}
	.st49{fill:#3D38A6;}
	.st50{fill:#151C66;}
	.st51{fill:#130F48;}
	.st52{fill:#141048;}
	.st53{fill:#10125B;}
	.st54{fill:#C2FBF1;}
	.st55{fill:#C4FBF3;}
	.st56{fill:#151B62;}
	.st57{fill:#FCFDFD;}
	.st58{fill:#D4B75B;}
	.st59{fill:#18136F;}
	.st60{fill:#99EDDB;}
	.st61{fill:#1D176B;}
	.st62{font-family:'MuseoSansRounded-900';}
	.st63{font-size:32px;}
</style>
<g>
	<g>
		<g id="_x23_83d8cdff">
			<path class="st0" d="M385.4,271.8c0.4-0.1,0.8-0.3,1.2-0.4c-1.6,2.8-3.6,5.3-5,8.1c-4,7.7-6.4,16.1-7.2,24.8c-0.2,0-0.7,0-1,0
				c0.1-3,0.6-6,1.2-8.9c1.7-7.4,4.5-14.7,9.2-20.8C384.5,273.8,384.9,272.8,385.4,271.8z"/>
		</g>
		<g id="_x23_fec740ff">
			<path class="st1" d="M254,43c6.1-5.5,16.2-5.4,22.3,0c0.2,0.2,0.5,0.6,0.7,0.8c-0.3,0-1,0-1.3,0c-2.1,2.5-4.8,4.3-7.1,6.6
				c-1.6-0.8-3.6-1.4-5.3-0.6c-1.4,0.7-3,1.5-3.7,3c-0.8,1.4-0.7,3.1-0.6,4.6c-0.2-0.2-0.6-0.7-0.8-1c-2.7,2.4-4.5,5.6-6.7,8.5
				c-2-2.9-3-6.5-2.9-10C248.7,50.4,250.8,46.1,254,43z"/>
		</g>
		<g id="_x23_171c6cff">
			<path class="st2" d="M119.9,43.9c3.4-1.3,7.1-0.8,10.7-0.9c-3.1,1-5.9,3.1-7.4,6c-1.2,2.2-1.5,4.8-1.4,7.3c0,15.3,0,30.6,0,45.9
				c0,12.2,0,24.4,0,36.5c0,0.7,0,1.4,0.1,2.1c-0.3,11.6,0,23.2-0.1,34.8c0,14,0,27.9,0,41.9c-2.1-0.5-4.3-0.8-6.4-1.4
				c1.5-1.1,2.7-2.7,3.1-4.6c0.5-2.4,0.3-4.8,0.4-7.2c-1.5,0.2-3,0.2-4.4-0.1c-0.9-0.9-1.9-1.7-2.5-2.8c0.1-0.5,0.2-1.1,0.4-1.6
				c0-0.1,0-0.4,0-0.6c-0.3-14.8-0.1-29.6-0.1-44.4c0-16.3,0-32.6,0-48.9c0-17,0-34,0-51C112.1,50,115.3,45.4,119.9,43.9z"/>
		</g>
		<g id="_x23_6053dfff">
			<path class="st3" d="M130.6,43c32.3-0.1,64.6,0,96.9-0.1c8.8,0.1,17.6-0.1,26.5,0.1c-3.2,3.1-5.3,7.4-5.4,11.9
				c-0.2,3.5,0.9,7.1,2.9,10c1.6,2.4,3.8,4.4,6.4,5.7c-1.2,1.2-2.5,2.5-4.3,2.5c-2.2,0.1-4.6,0.7-6.5-0.7c-0.2,0.2-0.5,0.5-0.6,0.6
				c-1.1-0.9-2.4-1.5-3.6-0.5c-0.1-0.2-0.4-0.5-0.6-0.6c-7.9,0-15.8,0-23.7,0c-3-0.1-6.1,0.8-9.1,0.2c-2.3-0.5-4.6,0.5-6.9,0.1
				c-1.6-0.2-3.2-0.4-4.8-0.3c-7.4,0.1-14.8-0.1-22.2,0.1c-1.5-0.1-2.9-0.3-4.4-0.2c-0.2-0.4-0.3-0.8-0.5-1.3
				c-0.2,0.3-0.5,0.9-0.6,1.1c-0.7,0.3-1.4,0.7-2,1c-1-1.1-2-2.1-3.2-2.9c-1.6-2.3-3.9-4.4-6.8-4.8c-3-0.6-6.1,0.8-8.2,2.9
				c-1.1,0.6-2.4,1.1-3.5,0.3c-0.6,0.3-1.1,0.7-1.7,0.9c-0.7-0.2-1.2-1-1.9-1.1c-0.8-0.1-1.7-0.2-2.5-0.3c-0.1-0.6-0.2-1.2-0.3-1.7
				c-0.2,0.4-0.4,0.8-0.5,1.3c-1.1-0.6-2.1-1.5-3.4-1.4c-2.5,0.1-5-0.1-7.5-0.6c-1.7-0.5-1.8-2.4-2.2-3.9c-0.5,0-1.1,0.1-1.6,0.1
				c-0.1-1.3-0.2-2.5-0.3-3.7c-0.3-0.1-0.8-0.3-1.1-0.4c0.1-0.4,0.2-0.7,0.4-1.1c0.3,0.2,0.7,0.4,1,0.7c-0.7-1.2-1.4-2.4-1.5-3.7
				c0.4,0.3,0.8,0.6,1.3,0.9c0-0.5,0-1,0.1-1.5c-0.4,0-0.9,0.1-1.3,0.1c0.2-0.8,0.4-1.6,0.6-2.4c-0.1-0.3-0.3-0.8-0.3-1
				C124.7,46.1,127.5,44,130.6,43z"/>
		</g>
		<g id="_x23_5f53deff">
			<path class="st4" d="M276.3,43c10.5-0.1,20.9-0.1,31.4-0.1c4.6,0,9.2,2.8,10.9,7.1c1,2.1,1.1,4.4,1,6.7c0,6.2,0,12.4,0.1,18.5
				c0,3.1,0,6.1-0.1,9.2c-1.3,2.4-0.3,5.3-0.8,7.9c-0.6-5.4,0.1-10.9-0.5-16.3c-0.3,1.9-0.4,3.8-0.4,5.7c-1.5-0.9-2.2-2.5-2.5-4.1
				c-0.8,0.7-1.8,1.1-2.7,0.4c-0.7,0.2-1.3,0.4-2,0.6c0.2-0.4,0.5-0.9,0.7-1.3c-0.6,0.2-1.2,0.6-1.8,1c-0.2-0.3-0.4-0.6-0.6-0.9
				c-1.5,0.2-3-0.3-4.4-0.7c-1.2,0-2.3,0.7-3.4,0.4c-2.4-0.5-4.7,0.8-7,1.2c-0.4-0.2-0.8-0.4-1.2-0.5c-0.5,0.1-1.1,0.2-1.6,0.3
				c0-0.2-0.1-0.7-0.1-0.9c-0.7,0.4-1.4,1-2.2,1.2c-1.1-0.2-1.9-1.2-2.8-1.8c0.5-1.2,0.4-2.5,0.1-3.8c-1.9-7.1-3.2-14.3-5.1-21.3
				c-0.8-2.9-2.2-5.5-4.1-7.7C276.8,43.5,276.5,43.2,276.3,43z"/>
		</g>
		<g id="_x23_fcbb32ff">
			<path class="st5" d="M268.6,50.3c2.3-2.3,5-4.1,7.1-6.6c0.3,0,1,0,1.3,0c1.9,2.2,3.4,4.9,4.1,7.7c1.9,7.1,3.3,14.3,5.1,21.3
				c0.3,1.2,0.4,2.6-0.1,3.8c-0.7,0.1-1.5,0.4-2.3,0.2c-5.5-1.2-11.1-2.5-16.6-3.5c-3.2-0.7-6.5-1.2-9.5-2.6
				c-2.6-1.3-4.8-3.3-6.4-5.7c2.2-2.9,4-6.1,6.7-8.5c0.2,0.2,0.6,0.7,0.8,1c0.9,1.7,2.1,3.4,4.1,3.9c3.9,1.6,8.4-2.3,8-6.4
				C271.1,53,269.9,51.4,268.6,50.3z"/>
		</g>
		<g id="_x23_5b52d4ff">
			<path class="st6" d="M121.7,56.3c0-2.5,0.2-5.1,1.4-7.3c0.1,0.3,0.3,0.8,0.3,1c-0.2,0.8-0.4,1.6-0.6,2.4c0.4,0,0.9-0.1,1.3-0.1
				c0,0.5,0,1-0.1,1.5c-0.4-0.3-0.8-0.6-1.3-0.9c0.1,1.4,0.8,2.6,1.5,3.7c-0.3-0.2-0.7-0.5-1-0.7c-0.1,0.4-0.2,0.7-0.4,1.1
				c0.3,0.1,0.8,0.3,1.1,0.4c0.1,1.2,0.2,2.5,0.3,3.7c0.5,0,1.1-0.1,1.6-0.1c0.4,1.4,0.5,3.4,2.2,3.9c2.4,0.5,5,0.7,7.5,0.6
				c1.3,0,2.4,0.9,3.4,1.4c0.2-0.4,0.3-0.8,0.5-1.3c0.1,0.6,0.2,1.2,0.3,1.7c0.8,0.1,1.7,0.1,2.5,0.3c0.8,0.1,1.2,0.9,1.9,1.1
				c0.6-0.2,1.1-0.6,1.7-0.9c1.1,0.8,2.4,0.3,3.5-0.3c-0.9,1.1-1.6,2.4-2.1,3.8c-1.3,4.3,1.1,9.4,5.2,11.1c2.5,1.1,5.4,1,7.8-0.3
				c2.5-1.5,4.5-4.1,4.9-7.1c0.3-1.9-0.2-3.8-0.8-5.6c1.2,0.8,2.3,1.8,3.2,2.9c0.7-0.3,1.4-0.7,2-1c0.2-0.3,0.5-0.9,0.6-1.1
				c0.2,0.4,0.3,0.8,0.5,1.3c1.5-0.1,2.9,0.2,4.4,0.2c7.4-0.2,14.8,0,22.2-0.1c1.6,0,3.2,0.1,4.8,0.3c2.3,0.4,4.6-0.6,6.9-0.1
				c3,0.6,6.1-0.4,9.1-0.2c7.9,0,15.8,0,23.7,0c0.1,0.2,0.4,0.5,0.6,0.6c1.2-1,2.6-0.4,3.6,0.5c0.2-0.2,0.5-0.5,0.6-0.6
				c1.9,1.4,4.3,0.8,6.5,0.7c1.8,0,3.1-1.3,4.3-2.5c3,1.4,6.3,1.9,9.5,2.6c5.6,1.1,11.1,2.3,16.6,3.5c0.7,0.2,1.5,0,2.3-0.2
				c0.9,0.6,1.7,1.6,2.8,1.8c0.8-0.2,1.5-0.8,2.2-1.2c0,0.2,0.1,0.7,0.1,0.9c0.5-0.1,1.1-0.2,1.6-0.3c0.4,0.2,0.8,0.3,1.2,0.5
				c2.3-0.5,4.6-1.8,7-1.2c1.2,0.3,2.3-0.4,3.4-0.4c1.4,0.5,2.9,0.9,4.4,0.7c0.2,0.3,0.4,0.6,0.6,0.9c0.6-0.4,1.1-0.7,1.8-1
				c-0.2,0.4-0.5,0.9-0.7,1.3c0.6-0.2,1.3-0.4,2-0.6c0.9,0.7,1.9,0.3,2.7-0.4c0.3,1.6,1,3.2,2.5,4.1c0.1-1.9,0.1-3.8,0.4-5.7
				c0.6,5.4-0.1,10.9,0.5,16.3c0.5-2.6-0.5-5.5,0.8-7.9c0,5.3,0,10.7,0,16h-0.4c-2.7-2-6.1-1.5-9.2-1.6c-4.4,0.1-8.7-0.1-13.1-0.1
				c-0.6-1.7-1.5-3.8-3.5-4c-2.4,0.1-3.8,2.4-5.3,4c-46.1-0.1-92.2-0.1-138.2,0c-4.5-0.1-8.5,3.5-9.1,8c-0.2,0-0.6-0.1-0.8-0.1
				s-0.7-0.1-0.9-0.1c-0.3,0.3-0.5,0.6-0.8,0.9c-0.7,0-1.4,0.1-2,0.1c-0.1-0.3-0.3-0.9-0.3-1.2c-0.9,1-1.6,2.1-2.7,2.8
				c-1.5-0.1-2.7-1.3-3.9-2.1c-0.1-0.3-0.2-0.6-0.2-0.8c-0.4-0.1-0.8-0.1-1.2-0.2c-0.4-1.2-0.7-2.5-1.5-3.4c-0.4,0.4-0.7,0.8-1,1.2
				c-0.1-1.4-0.7-2.6-1.5-3.7c-0.1,2.1-0.1,4.2-0.2,6.3c-0.3-1.7-0.5-3.5-0.8-5.2c-0.4,0.3-0.7,0.6-1.1,0.9
				C121.8,86.9,121.7,71.6,121.7,56.3z"/>
		</g>
		<g id="_x23_5954dcff">
			<path class="st7" d="M263.2,49.7c1.7-0.8,3.7-0.2,5.3,0.6c1.4,1.1,2.5,2.7,2.5,4.6c0.5,4-4,8-8,6.4c-2-0.5-3.3-2.2-4.1-3.9
				c-0.1-1.5-0.2-3.2,0.6-4.6C260.3,51.2,261.8,50.4,263.2,49.7z"/>
		</g>
		<g id="_x23_fcfcfdff">
			<path class="st8" d="M149.6,67.7c2.1-2.1,5.2-3.5,8.2-2.9c2.9,0.4,5.2,2.5,6.8,4.8c0.6,1.8,1.1,3.7,0.8,5.6
				c-0.4,3-2.3,5.6-4.9,7.1c-2.4,1.3-5.3,1.4-7.8,0.3c-4.2-1.7-6.6-6.8-5.2-11.1C148,70.1,148.8,68.9,149.6,67.7z"/>
		</g>
		<g id="_x23_fc9f3aff">
			<path class="st9" d="M319.7,75.3c1.3,0.5,2.5,1.1,3.7,1.8c14.2,7.7,27.1,17.8,37.3,30.3c2.8,3.4,5.4,6.9,7.9,10.6
				c-0.9,1.9-2.7,3.1-4.1,4.7c-6.8,7.8-13.9,15.5-20.8,23.2c-4.8,5.2-9.3,10.6-14.2,15.7c-1.8,2.1-3.5,4.2-5.3,6.2
				c-0.3-11,0-21.9-0.1-32.9c0-8.1,0-16.1-0.1-24.2c-0.1-2.6-0.2-5.5-1.7-7.7c-0.2,0-0.6-0.1-0.8-0.2c-0.8-0.8-1.5-1.6-2.3-2.4h0.4
				c0-5.3,0-10.7,0-16C319.6,81.4,319.6,78.3,319.7,75.3z"/>
		</g>
		<g id="_x23_ff6d5aff">
			<path class="st10" d="M288,98.9c1.5-1.6,2.9-4,5.3-4c2,0.2,2.9,2.3,3.5,4c1,2.4,1.5,5,3.2,7c2.8,1.9,6.3,2.3,9.2,4.2
				c1.4,1,1.5,3.3,0.1,4.4c-2.3,2.1-5.2,3.6-7.6,5.7c-0.7,0.5-0.5,1.3-0.6,2c-0.2,2.7,0.1,5.4-0.3,8c-0.2,1.6-2.2,2.6-3.6,1.8
				c-2.8-1.3-5-3.5-7.6-5c-1-0.7-2.3-0.1-3.3,0.1c-2.7,0.5-5.3,1.4-8,1.6c-1.5,0.2-2.7-1.3-2.5-2.7c0.3-3,1.3-5.8,1.8-8.7
				c0.1-0.6,0.2-1.2-0.1-1.8c-1.6-2.8-3.6-5.3-5.1-8c-1-1.5-0.1-3.8,1.8-4c3.3-0.2,6.7,0,10,0C285.3,102,286.7,100.5,288,98.9z"/>
		</g>
		<g id="_x23_564ec9ff">
			<path class="st11" d="M123.8,100.3c0.8,1.1,1.4,2.3,1.5,3.7c0.3-0.4,0.7-0.8,1-1.2c0.8,1,1.1,2.3,1.5,3.4
				c0.4,0.1,0.8,0.1,1.2,0.2c0.1,0.3,0.2,0.6,0.2,0.8c1.2,0.8,2.4,2,3.9,2.1c1.1-0.7,1.8-1.8,2.7-2.8c0.1,0.3,0.3,0.9,0.3,1.2
				c0.7,0,1.4-0.1,2-0.1c0.3-0.3,0.5-0.6,0.8-0.9c0.2,0,0.7,0.1,0.9,0.1c-0.2,2.8-2.1,5-3.3,7.4c-3.6,6.1-6.6,12.5-10.5,18.4
				c-1.3,2-2.1,4.4-3.4,6.4c-0.3-0.1-0.8-0.2-1-0.2c0-12.2,0-24.4,0-36.5c0.4-0.3,0.7-0.6,1.1-0.9c0.2,1.7,0.4,3.5,0.8,5.2
				C123.7,104.5,123.7,102.4,123.8,100.3z"/>
		</g>
		<g id="_x23_e28f32ff">
			<path class="st12" d="M321.5,102.9c0.2,0,0.6,0.1,0.8,0.2c1.5,2.2,1.7,5.1,1.7,7.7c0.1,8.1,0,16.1,0.1,24.2
				c0.2,11-0.2,21.9,0.1,32.9c0,0.2-0.1,0.5-0.1,0.7c-0.4,0.4-0.9,0.7-1.4,1.1c-0.2-11.6-0.1-23.1,0-34.7c-0.2-6.5,0-12.9-0.1-19.4
				C322.6,111.3,323.5,106.8,321.5,102.9z"/>
		</g>
		<g id="_x23_fdc842ff">
			<path class="st13" d="M107.8,110c1.4-1.4,2.6-3,4.2-4c0,16.3,0,32.6,0,48.9c0.1,14.8-0.1,29.6,0.1,44.4c-3-0.2-6.5,0.2-8.4,2.8
				c-3,3.9-1.1,10.1,3.2,12.2c0.2-0.1,0.5-0.4,0.6-0.6c0,0.6,0,1.1,0,1.7c-1.5,1.7-4.1,1.6-5.7,3.1c-1.6,1.7-2,4.1-2.4,6.4
				c-1.4,8.6-3.2,17.2-4.7,25.8c-1.2-1.1-1.8-2.6-2.6-4c-12.3-20.8-18-45.6-15.4-69.7C79.2,152,90.6,128.2,107.8,110z"/>
		</g>
		<g id="_x23_4a42b7ff">
			<path class="st14" d="M139.9,106.8c0.2,0,0.6,0.1,0.8,0.1c-0.1,0.8-0.1,1.6-0.1,2.5c0,16.3,0,32.7-0.1,49c-1.1,2-0.5,4.3-0.7,6.5
				c-0.2,6.4,0.3,12.8-0.2,19.2c-0.8-3.1-0.1-6.2-0.6-9.3c-0.3,1.6-0.4,3.3-0.4,4.9c-0.4-1-0.7-2.1-1-3.2c-3.8,0-7.6,0.8-11.5,0.6
				c-0.1-0.5-0.2-1-0.3-1.5c-0.2,0-0.6-0.1-0.7-0.2c0-0.2,0-0.6,0-0.8c0.2,0,0.6-0.1,0.8-0.1c0-0.2,0-0.6,0-0.9
				c-0.2,0-0.6-0.1-0.8-0.1c0-1.4-0.1-2.8-0.1-4.3c-0.3,0.2-0.6,0.4-0.8,0.6c0-1.6-0.1-3.1-0.4-4.6c-0.2,1.8-0.2,3.6-0.4,5.4
				c-0.6-2-0.5-4.2-0.3-6.2c-0.2,0.2-0.6,0.6-0.8,0.8c-0.2-7.2-0.1-14.4-0.1-21.7c0-0.9-0.3-1.8-0.5-2.6c0-0.7-0.1-1.4-0.1-2.1
				c0.3,0.1,0.8,0.2,1,0.2c1.3-2,2.1-4.4,3.4-6.4c3.9-5.9,6.9-12.3,10.5-18.4C137.9,111.8,139.7,109.5,139.9,106.8z"/>
		</g>
		<g id="_x23_fdc843ff">
			<path class="st15" d="M368.6,118c11.4,17.2,18.4,37.5,19.4,58.2c0.5,4.4,0.3,8.8,0.3,13.2c-0.7,9.2-1.8,18.5-4.6,27.4
				c-2.8,9.6-6.8,18.9-11.9,27.5c-1.2,1.7-2.2,3.5-3.6,5c-1.6-8.1-3.2-16.2-4.8-24.4c-0.6-3.9-1.4-7.8-2.3-11.6
				c3-3.3,5.4-7.5,5.4-12.1c0.4-6.8-4.3-13.9-11.1-15.4c-3.1-0.7-6.9-0.4-9.1,2.1c-1.7,2-0.5,5.4,1.9,6.1c0.5,2.1,1.3,4.1,1.2,6.3
				c-0.1,2,0,4.1-0.2,6.2l-0.1,0.5c-0.6-3.3-0.2-6.6-1-9.9c-4.3-0.2-8.5,0.1-12.8-0.1c-0.1-0.7-0.2-1.4-0.3-2.1
				c-0.3,0.6-0.6,1.3-0.9,2c-1,0.3-2,0.6-3,0.9c0.5-1,1-2,1.5-2.9c1.6-2.9,3.2-5.8,4.7-8.7c0.6-1.1,1.1-2.3,0.8-3.6
				c-0.7-0.9-1.9-1-2.9-1.3c-4.2-0.8-8.4-1.7-12.6-2.4l0.2-0.1c0.3-0.1,0.9-0.3,1.2-0.4c0.1-3.3,0.1-6.6,0-9.8
				c0-0.2,0.1-0.5,0.1-0.7c1.8-2,3.5-4.1,5.3-6.2c4.9-5.1,9.4-10.6,14.2-15.7c6.9-7.8,14-15.4,20.8-23.2
				C365.9,121.1,367.7,119.9,368.6,118z"/>
		</g>
		<g id="_x23_191a73ff">
			<path class="st16" d="M207.7,126c0.9-0.4,1.8-0.2,2.8-0.3c14.4,0,28.8,0.1,43.1,0c2.8,0.1,5.7-0.1,8.6,0.1c2,0.2,1.4,3.4-0.5,3.1
				c-17.7,0-35.4,0-53,0C206.9,129.1,206.1,126.7,207.7,126z"/>
		</g>
		<g id="_x23_443eaeff">
			<path class="st17" d="M121.8,140.8c0.2,0.9,0.4,1.7,0.5,2.6c0.1,7.2-0.1,14.5,0.1,21.7c0.2-0.2,0.6-0.6,0.8-0.8
				c-0.2,2.1-0.3,4.2,0.3,6.2c0.3-1.8,0.3-3.6,0.4-5.4c0.3,1.5,0.4,3.1,0.4,4.6c0.3-0.2,0.6-0.4,0.8-0.6c0,1.4,0.1,2.8,0.1,4.3
				c0.2,0,0.6,0.1,0.8,0.1c0,0.2,0,0.6,0,0.9c-0.2,0-0.6,0.1-0.8,0.1c0,0.2,0,0.6,0,0.8c0.2,0,0.6,0.1,0.7,0.2
				c0.1,0.5,0.2,1,0.3,1.5c3.8,0.1,7.6-0.6,11.5-0.6c0.2,1.1,0.5,2.1,1,3.2c0-1.6,0-3.3,0.4-4.9c0.5,3.1-0.2,6.3,0.6,9.3
				c0.6,8.1-0.6,16.3,0.7,24.4c-2.7,3.3-5.1,7-8.9,9.2c-1.7,1.1-3.8,1-5.8,0.9c-1.3-0.2-2.7-0.5-4-0.8c0-14,0-27.9,0-41.9
				C121.8,164,121.5,152.4,121.8,140.8z"/>
		</g>
		<g id="_x23_1e1b75ff">
			<path class="st18" d="M162.6,153.5c1.5-0.3,3.1-0.1,4.7-0.2c44.4,0,88.8,0,133.3,0c2,0.3,1.4,3.4-0.6,3.1
				c-44.7,0-89.4-0.1-134,0.1c-1.1,0-2.3,0.2-3.3-0.2C161.4,155.9,161.5,153.9,162.6,153.5z"/>
		</g>
		<g id="_x23_3d39a0ff">
			<path class="st19" d="M139.9,164.8c0.1-2.2-0.5-4.5,0.7-6.5c0.1,15.9-0.1,31.9,0.1,47.8c0,0.6,0,1.2,0,1.8l-0.3,0.4
				c-1.3-8.1-0.1-16.3-0.7-24.4C140.2,177.6,139.7,171.2,139.9,164.8z"/>
			<path class="st19" d="M122,279.7c0.6,0.9,1.2,1.8,1.5,2.9c2.6,7.1,5.7,13.9,8.2,21c-2.1,0.4-3.7-1.1-5.3-2.2
				c-2.1-1.4-3.5-3.8-4.3-6.2c-0.6-2.1-0.4-4.2-0.4-6.3C121.8,285.9,121.5,282.8,122,279.7z"/>
		</g>
		<g id="_x23_eaad36ff">
			<path class="st20" d="M322.8,169.6c0.5-0.4,0.9-0.7,1.4-1.1c0,3.3,0.1,6.6,0,9.8c-0.3,0.1-0.9,0.3-1.2,0.4
				C323,175.7,322.6,172.7,322.8,169.6z"/>
		</g>
		<g id="_x23_1b166bff">
			<path class="st21" d="M161.7,171.9c0.1-1.4,1.7-1.4,2.8-1.4c44.7,0.1,89.4,0.1,134.1,0c1,0.1,2.3-0.1,3,0.9c0.5,1,0,2.1-0.9,2.6
				c-1.8-0.3-3.6-0.4-5.4-0.3c-43.9,0-87.8,0-131.7,0C162.5,173.8,161.4,173,161.7,171.9z"/>
		</g>
		<g id="_x23_51c6b4ff">
			<path class="st22" d="M295.2,173.7c1.8,0,3.7,0,5.4,0.3c2.4,0.9,4.9,1.2,7.4,1.8c4.9,1.1,9.8,2.2,14.8,2.9l-0.2,0.1
				c-0.3,0.1-1,0.3-1.3,0.3c3.5,2.6,7.4,4.7,10.9,7.4c-3.1-0.1-6.1-0.7-9.1-1.2c-5.2-0.9-10.4-1.6-15.6-2.4
				c-5.6-0.8-11.1-1.8-16.7-2.2C292.2,178.2,293.4,175.8,295.2,173.7z"/>
		</g>
		<g id="_x23_2baa9cff">
			<path class="st23" d="M321.3,179.1c0.3-0.1,1-0.3,1.3-0.3c4.2,0.7,8.4,1.6,12.6,2.4c1,0.2,2.2,0.4,2.9,1.3
				c0.4,1.3-0.2,2.5-0.8,3.6c-1.6,2.9-3.1,5.8-4.7,8.7c-4.8-0.9-9.4-2.6-14.2-3.8c-6.7-1.9-13.5-3.8-20.2-6c-2.7-1-5.6-1.5-8.3-2.7
				c0.3-0.5,0.6-1,0.8-1.5c5.6,0.4,11.2,1.4,16.7,2.2c5.2,0.8,10.4,1.6,15.6,2.4c3,0.5,6,1.1,9.1,1.2
				C328.8,183.8,324.9,181.8,321.3,179.1z"/>
		</g>
		<g id="_x23_1a9087ff">
			<path class="st24" d="M287.3,187.1c0.9-1.6,1.8-3.3,2.8-4.9c2.7,1.2,5.5,1.8,8.3,2.7c6.7,2.1,13.4,4.1,20.2,6
				c4.8,1.2,9.4,2.9,14.2,3.8c-0.5,1-1,1.9-1.5,2.9c-2.1,0.1-4.2,0-6.3,0c-1.4-0.3-2.8-0.6-4.2-0.9c-6.4-2-12.8-4.1-19.3-5.8
				C296.7,189.5,291.8,188.9,287.3,187.1z"/>
		</g>
		<g id="_x23_111a66ff">
			<path class="st25" d="M346.4,187.9c2.2-2.5,6-2.8,9.1-2.1c6.8,1.5,11.5,8.5,11.1,15.4c0,4.6-2.4,8.8-5.4,12.1
				c-0.8-1.7-1.8-3.5-3.5-4.3c-2-1.1-4.8-0.1-5.8,1.9c-1.6,2.9-1,6.3-1.1,9.4c-1,0.9-2.3,0.9-3.5,0.8c0.4-5,2.4-9.7,2-14.7
				c1-0.2,2.3,0,2.9-0.9c0.5-1.6,0.4-3.3,0.6-4.9c0.7-0.6,2-1,1.7-2.1c-0.6-1.1-1.3-2.2-2.1-3.2c-1.2-0.8-2.8-0.9-4.2-1.2
				C345.8,193.3,344.6,189.9,346.4,187.9z"/>
		</g>
		<g id="_x23_27a497ff">
			<path class="st26" d="M281.5,197.4c2-3.4,3.8-6.8,5.8-10.3c4.6,1.8,9.4,2.4,14.1,3.8c6.5,1.7,12.9,3.9,19.3,5.8
				c1.4,0.3,2.8,0.6,4.2,0.9c-13.5,0.3-27,0-40.5,0.1c-12-0.5-24.1,0.1-36.1-0.4C259.3,197.4,270.4,197.3,281.5,197.4z"/>
		</g>
		<g id="_x23_fcb5b7ff">
			<path class="st27" d="M348.3,194c1.4,0.3,2.9,0.4,4.2,1.2c0.8,1,1.5,2.1,2.1,3.2c0.3,1.1-1.1,1.6-1.7,2.1
				c-0.2,1.6-0.1,3.3-0.6,4.9c-0.7,0.9-1.9,0.8-2.9,0.9c0.3-2,0.2-4.1,0.2-6.2C349.6,198.1,348.8,196.1,348.3,194z"/>
		</g>
		<g id="_x23_fdc438ff">
			<path class="st28" d="M334.2,196.8c0.3-0.7,0.6-1.3,0.9-2c0.1,0.7,0.2,1.4,0.3,2.1c4.3,0.2,8.5,0,12.8,0.1c0.8,3.2,0.4,6.6,1,9.9
				c-1,5-2,9.9-2.9,14.9c-0.5,2.7-0.9,5.5-1.6,8.2c-1.9,9.2-3.4,18.5-5.3,27.7c-1.7,8.9-3.3,17.8-5.1,26.7c-0.1-0.2-0.3-0.5-0.4-0.6
				c-0.4,2.7-1.4,5.4-1.1,8.2c-0.5,2.5-1.1,5-2,7.4c-0.5,0.6-0.9,1.1-1.4,1.7c-0.8,0.9-1.5,1.9-2.3,2.8c-2.8,3.1-6.9,4.9-11.1,4.8
				c-40.4,0-80.8,0-121.2,0c-5.8-35.6-11.6-71.2-17.3-106.8c-0.4-1.6-0.2-4-2.3-4.2c3.9-0.4,7.9-0.2,11.9-0.2
				c20.3,0,40.7-0.1,61,0.1c12,0.5,24.1-0.1,36.1,0.4c13.5-0.2,27,0.2,40.5-0.1c2.1,0.1,4.2,0.1,6.3,0
				C332.2,197.4,333.2,197.1,334.2,196.8 M293.8,198.2c2.1,0.3,4.2,0.2,6.2,0.2c9.6,0,19.3,0.3,28.9-0.3
				C317.2,197.9,305.5,197.9,293.8,198.2 M265.7,219.7c-2.4,0.5-4.7,1-6.9,2c-0.9,0.4-1.9,0.9-2.8,0.5c-4.6-1.5-9.4-2.5-14.3-2
				c-7,0.6-13.5,5.9-14.8,12.8c-1.2,7.1,1.5,14.3,6,19.7c4.8,6,11.6,9.7,18,13.6c2.5,1.4,5.3,3.5,8.3,2.3c3.3-1.4,6.2-3.5,9.3-5.4
				c3.7-2.5,7.4-4.9,10.4-8.2c5.3-5.6,9.1-13.2,8.5-21c-0.2-5.4-3.5-10.5-8.4-12.8C275,219.1,270.2,219.2,265.7,219.7z"/>
		</g>
		<g id="_x23_fc9937ff">
			<path class="st29" d="M149.5,201.3c8.6-1.2,17.2-2.6,25.9-3.8c2.1,0.2,1.9,2.6,2.3,4.2c5.7,35.6,11.5,71.2,17.3,106.8
				c-5.4,0-10.8,0.1-16.2-0.1c-3.4-0.1-6.4-2.1-8.8-4.4c-2.7-2.9-4.6-6.7-5.1-10.6c-4.3-25.5-9.1-51-13.4-76.5
				C150.6,211.7,149.2,206.6,149.5,201.3z"/>
		</g>
		<g id="_x23_f0c952ff">
			<path class="st30" d="M293.8,198.2c11.7-0.3,23.4-0.2,35.1,0c-9.6,0.5-19.3,0.3-28.9,0.3C297.9,198.4,295.8,198.5,293.8,198.2z"
				/>
		</g>
		<g id="_x23_12195fff">
			<path class="st31" d="M103.7,202.1c1.9-2.6,5.4-3.1,8.4-2.8c0,0.1,0,0.4,0,0.6c-0.1,0.5-0.3,1.1-0.4,1.6c0.7,1.1,1.7,1.9,2.5,2.8
				c-1.1-0.1-2.5-0.6-3.5,0.2c-0.8,0.6-0.9,1.6-1.2,2.5c-1,0.4-1.6,1.2-1.6,2.3c0.3,0.2,0.8,0.5,1,0.7c-0.6,1.3-1.1,2.5-1.5,3.8
				c-0.2,0.1-0.5,0.4-0.6,0.6C102.7,212.1,100.7,206,103.7,202.1z"/>
		</g>
		<g id="_x23_d1cefdff">
			<path class="st32" d="M149.1,201.5l0.3-0.2c-0.3,5.3,1.1,10.4,1.9,15.6c4.2,25.5,9,51,13.4,76.5c0.6,4,2.4,7.7,5.1,10.6
				c-3.5,1-7.1,0.5-10.6,0.7c-4.2,0-8.5,0.1-12.7-0.2c-2.3-1.1-4.2-3-5.2-5.3c-0.9-2.1-0.8-4.3-0.8-6.5c0-5.5-0.1-11,0-16.5
				c2-9.9,2.8-20,4.1-30.1c0.7-6.4,1.4-12.9,2-19.3c0-5.9,1-11.7,1.4-17.6C148.4,206.7,148.3,204,149.1,201.5z"/>
		</g>
		<g id="_x23_fdb4beff">
			<path class="st33" d="M110.8,204.5c1-0.8,2.4-0.3,3.5-0.2c1.5,0.3,3,0.3,4.4,0.1c0,2.4,0.1,4.9-0.4,7.2c-0.4,1.9-1.6,3.4-3.1,4.6
				c-2.5-0.8-5.2-1.1-7.8-0.7c0-0.6,0-1.1,0-1.7c0.5-1.3,0.9-2.6,1.5-3.8c-0.3-0.2-0.8-0.5-1-0.7c0-1.1,0.6-1.9,1.6-2.3
				C109.9,206.1,110,205,110.8,204.5 M114.8,209.4c-0.8,0.2-0.6,1.6,0.4,1.3C116.6,210.9,116.2,208.4,114.8,209.4z"/>
		</g>
		<g id="_x23_ffb2b3ff">
			<path class="st34" d="M140.6,206.1c0.5-0.4,1.1-0.8,1.6-1.2c0.8,0.3,1.5,0.5,2.3,0.8c-0.1,2.7-1.8,4.9-3.1,7.1
				c-0.2-1.6-0.5-3.2-0.8-4.8C140.6,207.4,140.6,206.7,140.6,206.1z"/>
		</g>
		<g id="_x23_392341ff">
			<path class="st35" d="M349.2,206.9l0.1-0.5c0.4,5-1.6,9.8-2,14.7c1.2,0.1,2.5,0.1,3.5-0.8c0,0.3-0.1,1-0.1,1.3
				c-1.5,0.1-2.9,0.2-4.4,0.2C347.2,216.8,348.2,211.9,349.2,206.9z"/>
		</g>
		<g id="_x23_ff6b7fff">
			<path class="st36" d="M140.4,208.4l0.3-0.4c0.3,1.6,0.6,3.2,0.8,4.8c-0.3,0.5-0.5,1.1-0.8,1.7c-2.9,5.1-7.6,9.5-13.5,10.7
				c-0.7-0.1-1.4-0.2-2.1-0.3c1.8-0.5,3.2-1.9,4.7-2.9c-0.2-0.5-0.3-1-0.5-1.5c-0.5,0.6-1,1.2-1.5,1.8c0-0.5-0.1-1.1-0.1-1.6
				c-0.5,0.3-1,0.5-1.5,0.8c-0.1-0.5-0.2-1-0.3-1.5c-0.3-0.2-0.7-0.4-1-0.5c0.1-0.1,0.4-0.4,0.6-0.5c-0.4-0.2-0.9-0.3-1.3-0.5
				c0.4,0,1.2-0.1,1.5-0.1c1.9,0.1,4,0.2,5.8-0.9C135.2,215.4,137.7,211.7,140.4,208.4z"/>
		</g>
		<g id="_x23_ff697bff">
			<path class="st37" d="M351.9,210.9c1-2,3.7-3,5.8-1.9c1.7,0.9,2.7,2.7,3.5,4.3c0.9,3.8,1.7,7.7,2.3,11.6
				c1.6,8.1,3.2,16.3,4.8,24.4c0.8,5.8,2.1,11.5,2.9,17.3c0.2,1.4-0.7,3-2.1,3.4c-2.8,0.4-5.7,0.5-8.5,1c-0.1,0-0.2,0-0.2,0
				c-2.2,0.1-4.4,0.5-6.5,0c-2.4-0.8-3.2-3.5-3.4-5.8c-1-10.5-2.3-21-3-31.6c1.1,2.4,0.7,5,1.2,7.5c4.7-2.5,9.1-6.2,10.8-11.4
				c1-3.3,1.7-6.7,1.3-10.1c-0.9,2.2-1.1,4.8-2.9,6.6c-1.1,1.2-2.4,2.4-3.9,3.2c-1.9,1.1-4.2,1-6.3,1.2c-0.1,0.8-0.3,1.6-0.3,2.5
				c-0.1-0.9-0.3-1.9-0.4-2.8c-0.7-0.1-1.5-0.2-2.2-0.3c0.7-2.7,1-5.5,1.6-8.2c1.5,0,2.9,0,4.4-0.2c0-0.3,0.1-1,0.1-1.3
				C350.9,217.2,350.3,213.8,351.9,210.9z"/>
		</g>
		<g id="_x23_9e5673ff">
			<path class="st38" d="M114.8,209.4c1.4-1,1.7,1.5,0.4,1.3C114.3,211,114,209.7,114.8,209.4z"/>
		</g>
		<g id="_x23_3c3ba8ff">
			<path class="st39" d="M127.1,225.2c5.9-1.2,10.6-5.6,13.5-10.7c-0.2,3.3-0.1,6.5,0,9.8v0.4c-2.4,1.8-4.9,3.6-7.7,4.7
				c-2.6,0.7-5.4,0.3-7.8-0.9c-0.6-0.8-1.3-1.5-1.9-2.3c1.2-0.3,2.4-0.5,3.5-1C126.9,225.3,127,225.2,127.1,225.2z"/>
		</g>
		<g id="_x23_ff6779ff">
			<path class="st40" d="M107.5,215.4c2.6-0.4,5.3-0.1,7.8,0.7c2.1,0.6,4.3,1,6.4,1.4c1.3,0.3,2.7,0.6,4,0.8c-0.4,0-1.2,0.1-1.5,0.1
				c0.4,0.2,0.9,0.3,1.3,0.5c-0.1,0.1-0.4,0.4-0.6,0.5c0.3,0.2,0.7,0.4,1,0.5c0.1,0.5,0.2,1,0.3,1.5c0.5-0.3,1-0.5,1.5-0.8
				c0,0.5,0.1,1.1,0.1,1.6c0.5-0.6,1-1.2,1.5-1.8c0.2,0.5,0.3,1,0.5,1.5c-1.5,1-2.9,2.4-4.7,2.9c0.7,0.1,1.4,0.2,2.1,0.3
				c-0.1,0-0.3,0.1-0.4,0.1c-2,0-4.1,0-6.1,0.3c1.2,1.3,2.8,2.3,4.5,3c2.4,1.2,5.2,1.6,7.8,0.9c0.3,0.1,0.8,0.4,1.1,0.6
				c2-1.4,4.5-0.9,6.6,0.1l-0.1,0.1c-3,2.3-6.1,4.8-9.9,5.4c-2.9,0.7-5.9,0-8.9-0.3c-0.7-0.2-1.3-0.4-1.9-0.6
				c-3.6-1.1-7.1-2.6-10.3-4.5c0,3.8,2.5,7.1,5.2,9.5c1.3,1.2,3,1.8,4.7,2c-0.1,5.3-0.1,10.6-0.6,15.9c-0.3,4-0.3,8.2-1.4,12.1
				c-0.6,2.4-2.9,4.2-5.4,3.9c-1.1,0-2.2,0.1-3.2,0.1c-2.9-0.6-5.8-0.6-8.7-1c-2.3-0.5-4.9,0.3-7-0.9c-1.7-1-1.5-3.1-1.3-4.7
				c0.9-5.5,2.1-10.9,2.9-16.4c1.4-8.6,3.2-17.2,4.7-25.8c0.4-2.2,0.9-4.6,2.4-6.4C103.4,217,106,217.1,107.5,215.4z"/>
		</g>
		<g id="_x23_fcfcfbff">
			<path class="st41" d="M265.7,219.7c4.5-0.5,9.2-0.6,13.4,1.4c4.9,2.3,8.2,7.5,8.4,12.8c0.5,7.9-3.3,15.4-8.5,21
				c-3,3.3-6.7,5.7-10.4,8.2c-3,1.9-6,4-9.3,5.4c-3,1.2-5.8-0.9-8.3-2.3c-6.4-3.9-13.2-7.7-18-13.6c-4.5-5.4-7.2-12.6-6-19.7
				c1.4-7,7.9-12.3,14.8-12.8c4.8-0.5,9.7,0.5,14.3,2c1,0.4,1.9-0.1,2.8-0.5C261,220.7,263.4,220.2,265.7,219.7 M267,223.4
				c-2.9,0.3-5.6,1.3-8.3,2.5c-2.4,1.1-4.8-0.5-7.1-1c-4.3-1.1-9.1-1.7-13.4-0.1c-3.7,1.5-6.9,4.7-7.7,8.7c-1.1,5.3,1,10.8,4,15.1
				c4.2,6,10.7,9.9,16.9,13.5c1.9,1.1,3.8,2.4,5.9,3.2c2-0.5,3.6-1.9,5.4-2.9c4.5-3,9.2-5.8,13.1-9.6c4.6-4.8,8.2-11.1,7.9-18
				c0.1-4.2-2.3-8.4-6.1-10.2C274.4,222.9,270.6,223.1,267,223.4z"/>
		</g>
		<g id="_x23_f2526fff">
			<path class="st42" d="M357.7,226.3c1.7-1.8,2-4.4,2.9-6.6c0.4,3.4-0.3,6.8-1.3,10.1c-1.7,5.2-6.1,8.9-10.8,11.4
				c-0.5-2.5-0.2-5.1-1.2-7.5c0-0.1-0.1-0.4-0.1-0.5c0.1-0.8,0.2-1.6,0.3-2.5c2.1-0.2,4.4-0.1,6.3-1.2
				C355.3,228.6,356.6,227.5,357.7,226.3z"/>
		</g>
		<g id="_x23_fa8797ff">
			<path class="st43" d="M140.7,224.3c1.1-1,2.2-2.1,3.4-2.8c0.9-0.3,1.8,0,2.1,0.9c0.8,1.4-0.6,2.4-1.4,3.3c-0.6-0.7-1.1-1.3-1.7-2
				c-0.8,0.3-1.6,0.6-2.4,1L140.7,224.3z"/>
		</g>
		<g id="_x23_ff79b9ff">
			<path class="st44" d="M267,223.4c3.5-0.2,7.3-0.5,10.6,1.3c3.8,1.8,6.2,6,6.1,10.2c0.3,6.8-3.3,13.2-7.9,18
				c-3.9,3.8-8.6,6.7-13.1,9.6c-1.8,1-3.4,2.4-5.4,2.9c-2.1-0.7-3.9-2.1-5.9-3.2c-6.2-3.6-12.6-7.5-16.9-13.5c-3-4.4-5.1-9.8-4-15.1
				c0.8-4,4-7.2,7.7-8.7c4.3-1.7,9-1,13.4,0.1c2.3,0.5,4.7,2.1,7.1,1C261.4,224.6,264.2,223.7,267,223.4 M251.1,236
				c-0.7,1.2-1.5,3.5-3.3,2.8c-1-0.8-1.5-1.9-2.2-2.9c-0.3,0.2-0.9,0.7-1.1,0.9c-0.5,2,1.5,3.9,3.4,4.1c2.4,0.6,5.1-1.7,4.7-4.2
				C252.4,236.1,251.6,236.1,251.1,236 M262.9,236.8c-0.4,1.6,0.9,3,2.2,3.7c2.6,1.5,6.5-0.8,5.9-3.9c-0.3-0.1-1-0.4-1.3-0.5
				c-0.8,1-1.3,2.6-2.8,2.8c-1.5-0.1-1.7-1.8-2.3-2.8C264,236.1,263.2,236.1,262.9,236.8 M253.8,246.1c-0.9,0.1-1.2,1.2-1.1,2
				c1.2,1.5,3.4,1.4,5.1,1.4c1.5-0.1,3.3,0,4.5-1.1c1-0.8,0.2-2.6-1.1-2.4C258.7,246,256.3,246,253.8,246.1z"/>
		</g>
		<g id="_x23_fc6f83ff">
			<path class="st45" d="M140.7,224.7c0.8-0.4,1.6-0.7,2.4-1c0.6,0.7,1.1,1.3,1.7,2c-1.4,1.5-3,2.7-4.2,4.4c-2.1-1-4.6-1.5-6.6-0.1
				c-0.3-0.1-0.8-0.4-1.1-0.6C135.8,228.3,138.3,226.5,140.7,224.7z"/>
		</g>
		<g id="_x23_613c7dff">
			<path class="st46" d="M120.7,225.5c2-0.2,4-0.2,6.1-0.3c-1.1,0.5-2.3,0.7-3.5,1c0.6,0.8,1.2,1.5,1.9,2.3
				C123.5,227.8,122,226.9,120.7,225.5z"/>
		</g>
		<g id="_x23_f2546bff">
			<path class="st47" d="M109.5,230.2c3.2,2,6.7,3.4,10.3,4.5c-0.3,2.3-0.4,4.6-0.4,7c-1.7-0.2-3.4-0.8-4.7-2
				C111.9,237.3,109.5,234,109.5,230.2z"/>
		</g>
		<g id="_x23_151b64ff">
			<path class="st48" d="M344.7,230c0.7,0.1,1.4,0.2,2.2,0.3c0.1,0.9,0.3,1.9,0.4,2.8c0,0.1,0.1,0.4,0.1,0.5c0.7,10.6,2,21.1,3,31.6
				c0.2,2.3,1,5,3.4,5.8c2.1,0.4,4.4,0.1,6.5,0c0.3,11.1,0,22.2,0.5,33.3c-0.2,0-0.7,0.1-0.9,0.2c-0.9,0.1-1.7,0.2-2.6,0.1
				c-0.6-0.7-0.8-1.7-1.1-2.5c-2.3-9.5-4.5-19.1-6.8-28.6c-1-4.6-2.2-9.1-2.9-13.7c-0.2,0-0.4,0-0.5,0c-2.5,9.7-5.2,19.4-7.8,29.1
				c-0.9,3.8-2.2,7.5-2.8,11.3c-1.6,0.2-3.3,0.3-4.9,0.1c0.1-0.2,0.3-0.7,0.4-1c0.9-2.4,1.5-4.9,2-7.4c0.6-2.5,1.1-5.1,1.5-7.6
				c1.8-8.9,3.4-17.8,5.1-26.7C341.3,248.4,342.8,239.2,344.7,230z"/>
		</g>
		<g id="_x23_3d38a6ff">
			<path class="st49" d="M130.6,235.6c3.8-0.7,7-3.1,9.9-5.4c0.1,15.4,0,30.7,0.1,46.1c-0.1,5.5,0.1,11,0,16.5
				c0,2.2-0.1,4.4,0.8,6.5c1,2.4,2.9,4.2,5.2,5.3h-0.3c-3.2-0.3-6.3-0.2-9.5-0.2c-0.2,0.1-0.5,0.3-0.6,0.4l-0.2,0.1l-0.2-0.1
				c-1.4-8.1-2.6-16.3-3.9-24.4c-0.3-2-0.9-3.9-1.8-5.7c-2.3-4.6-4.9-9.1-7.2-13.7c-1.4-2.5-1.1-5.4-1.1-8.1
				c0.1-5.9-0.1-11.7,0-17.6C124.6,235.7,127.7,236.4,130.6,235.6z"/>
		</g>
		<g id="_x23_151c66ff">
			<path class="st50" d="M119.4,241.7c0-2.3,0.1-4.7,0.4-7c0.6,0.2,1.3,0.4,1.9,0.6c-0.2,5.9,0,11.7,0,17.6c0,2.7-0.3,5.6,1.1,8.1
				c2.3,4.6,4.9,9.1,7.2,13.7c0.9,1.8,1.5,3.7,1.8,5.7c1.3,8.1,2.5,16.3,3.9,24.4l0.2,0.1c1.3,0.4,2.6,0.7,3.9,1.1
				c0.4,0.5,0.7,1.1,1.1,1.6c-2.9,0.2-5.8,0.1-8.7,0.1c-0.1-1.1-0.2-2.3-0.2-3.4c-2.1,0.1-4.1,0-6.2-0.1c-2.4-0.3-4.9-0.5-7.2-1.6
				c-2.9-1.4-5-4.2-6-7.2c-0.8-2.2-0.6-4.6-0.6-6.9c0-4.9,0-9.9,0-14.8c2.5,0.3,4.8-1.6,5.4-3.9c1.1-3.9,1.1-8.1,1.4-12.1
				C119.2,252.3,119.2,247,119.4,241.7 M122,279.7c-0.5,3-0.2,6.1-0.3,9.2c0,2.1-0.2,4.3,0.4,6.3c0.8,2.4,2.2,4.7,4.3,6.2
				c1.6,1.1,3.2,2.5,5.3,2.2c-2.6-7.1-5.6-13.9-8.2-21C123.1,281.6,122.6,280.6,122,279.7z"/>
		</g>
		<g id="_x23_130f48ff">
			<path class="st51" d="M251.1,236c0.5,0.2,1.2,0.2,1.4,0.8c0.4,2.5-2.3,4.7-4.7,4.2c-1.9-0.3-3.9-2.2-3.4-4.1
				c0.3-0.2,0.9-0.7,1.1-0.9c0.8,0.9,1.3,2.1,2.2,2.9C249.6,239.4,250.5,237.2,251.1,236z"/>
		</g>
		<g id="_x23_141048ff">
			<path class="st52" d="M262.9,236.8c0.3-0.7,1-0.7,1.7-0.7c0.6,1,0.8,2.8,2.3,2.8c1.5-0.2,2-1.8,2.8-2.8c0.3,0.1,1,0.4,1.3,0.5
				c0.7,3.1-3.3,5.5-5.9,3.9C263.8,239.7,262.5,238.4,262.9,236.8z"/>
		</g>
		<g id="_x23_10125bff">
			<path class="st53" d="M253.8,246.1c2.5-0.1,5-0.1,7.4-0.1c1.2-0.1,2,1.6,1.1,2.4c-1.2,1.1-3,1-4.5,1.1c-1.7,0-3.9,0.1-5.1-1.4
				C252.5,247.3,252.8,246.1,253.8,246.1z"/>
		</g>
		<g id="_x23_c2fbf1ff">
			<path class="st54" d="M345.9,259.8c0.2,0,0.4,0,0.5,0c0.7,4.6,2,9.1,2.9,13.7c2.3,9.5,4.5,19.1,6.8,28.6c0.2,0.9,0.5,1.8,1.1,2.5
				c0.9,0.1,1.7,0,2.6-0.1v0.3c-1,0.1-1.9,0.3-2.9,0.5c-0.4-0.4-0.8-0.7-1.2-1.1c-7.1,0-14.1,0.1-21.2-0.1c0-1.2-0.1-2.4-0.1-3.5
				c-1.7,0.2-3.4,0.3-5,0.4c0.5-0.6,1-1.1,1.4-1.7c-0.1,0.2-0.3,0.7-0.4,1c1.6,0.1,3.3,0.1,4.9-0.1c0.6-3.8,1.8-7.5,2.8-11.3
				C340.7,279.2,343.5,269.5,345.9,259.8z"/>
		</g>
		<g id="_x23_c4fbf3ff">
			<path class="st55" d="M373.7,273.5c7.4-4.1,15.9-6.7,24.5-6.6c3.8,0.1,7.8,0.6,10.9,3.1c2.3,1.7,3.2,4.8,3,7.5
				c-0.3,3.9-2.2,7.4-4.2,10.7c-2.4,3.7-5.1,7.2-8.2,10.3c-1.7,1.9-3.8,3.4-5.6,5.2c0,0.2,0.1,0.5,0.2,0.6c-6.6,0-13.2,0-19.8,0
				c0.7-8.6,3.2-17.1,7.2-24.8c1.4-2.9,3.4-5.4,5-8.1c-0.4,0.1-0.8,0.3-1.2,0.4c-0.4,1-0.9,2-1.5,2.8c-4.7,6-7.5,13.4-9.2,20.8
				c-0.6,2.9-1.1,5.9-1.2,8.9c-4.2,0.1-8.5,0-12.7,0c-0.5-11.1-0.2-22.2-0.5-33.3c0.1,0,0.2,0,0.2,0c0.2,0.7,0.2,1.6,0.9,2
				c1.9,1.5,3.1,3.8,5.4,4.6C369.3,276.8,371.3,274.7,373.7,273.5z"/>
			<path class="st55" d="M136.2,304.7c0.2-0.1,0.5-0.3,0.6-0.4c3.2,0,6.3-0.1,9.5,0.2c-1.9,0.4-3.9,0.1-5.8,0.6
				c-0.1,0.2-0.4,0.6-0.6,0.8c-1.3-0.4-2.6-0.7-3.9-1.1L136.2,304.7z"/>
		</g>
		<g id="_x23_151b62ff">
			<path class="st56" d="M97.7,272.6c0.8,0,1.6,0.1,2.4,0.2c2.9,0.4,5.9,0.4,8.7,1c-4.2,10.1-8.7,20.1-13,30.2
				c1.5,0.5,3.1,1,4.7,1.3c0.7,0.5,1.1,1.2,1.5,1.8c-3,0.3-6.1,0.1-9.1,0.2c0-1-0.1-2,0-3c0-0.3,0.1-0.9,0.2-1.2
				c-0.2,0-0.7-0.1-1-0.2C94,292.8,95.9,282.7,97.7,272.6z"/>
		</g>
		<g id="_x23_fcfdfdff">
			<path class="st57" d="M108.8,273.8c1.1-0.1,2.2-0.1,3.2-0.1c-0.1,4.9,0,9.9,0,14.8c0,2.3-0.1,4.7,0.6,6.9c1,3,3.2,5.7,6,7.2
				c2.2,1.1,4.7,1.3,7.2,1.6c-7.5,0.5-15,0.1-22.5,0.3c-1,0-2,0.4-2.9,0.8c-1.6-0.3-3.2-0.7-4.7-1.3
				C100.1,293.9,104.6,283.9,108.8,273.8z"/>
		</g>
		<g id="_x23_d4b75bff">
			<path class="st58" d="M333.9,283.7c0.1,0.2,0.3,0.5,0.4,0.6c-0.4,2.6-0.9,5.1-1.5,7.6C332.5,289.2,333.5,286.5,333.9,283.7z"/>
		</g>
		<g id="_x23_18136fff">
			<path class="st59" d="M329.4,301c1.7-0.1,3.4-0.2,5-0.4c-0.1,1.2-0.1,2.4-0.1,3.6c-2.4-0.1-4.8-0.1-7.1-0.4
				C327.9,302.9,328.6,301.9,329.4,301z"/>
		</g>
		<g id="_x23_99eddbff">
			<path class="st60" d="M334.5,300.6c0,1.2,0.1,2.4,0.1,3.5c7.1,0.1,14.1,0.1,21.2,0.1c0.4,0.4,0.8,0.7,1.2,1.1
				c-1.8,0.5-3.6,0.8-5.2,1.7c-0.5,0.2-0.7,0.6-0.4,1.2c2.9,0.8,5.9,0.3,8.8,0.4c0-1.3-0.1-2.5-0.2-3.8v-0.3c0.2,0,0.7-0.1,0.9-0.2
				c4.2,0,8.5,0,12.7,0c0.2,0,0.7,0,1,0c6.6,0.1,13.2,0,19.8,0c3.6,0.2,7.6-0.8,10.7,1.4c3.4,2.3,3.7,7.8,0.7,10.6
				c-1.8,1.9-4.6,1.9-7.1,2c-11.2,0.2-22.4,0-33.6,0c-3.8-0.3-7.6,0-11.4-0.1c-64.9-0.2-129.8-0.1-194.7-0.1
				c-14.7,0.3-29.4-0.1-44.1,0.1c-7.7-0.1-15.5-0.2-23.2-0.1c-4.3,0.4-8.5-0.2-12.8,0.1c-4,0.2-7.9-0.2-11.9-0.2
				c-2.8,0.2-5.7-1.2-7-3.8c-1.6-3-0.7-7.1,2.2-8.9c2.4-1.6,5.4-1.1,8.1-1.2c7.5-0.1,15.1,0.2,22.6-0.1c0,1,0,2,0,3
				c3-0.2,6.1,0,9.1-0.2c-0.4-0.7-0.8-1.4-1.5-1.8c0.9-0.4,1.9-0.8,2.9-0.8c7.5-0.3,15,0.2,22.5-0.3c2.1,0.1,4.1,0.2,6.2,0.1
				c0.1,1.1,0.2,2.3,0.2,3.4c2.9,0,5.8,0.1,8.7-0.1c-0.4-0.5-0.7-1.1-1.1-1.6c0.1-0.2,0.4-0.6,0.6-0.8c1.9-0.5,3.9-0.2,5.8-0.6h0.3
				c4.2,0.3,8.5,0.2,12.7,0.2c3.5-0.1,7.2,0.3,10.6-0.7c2.4,2.3,5.4,4.3,8.8,4.4c5.4,0.2,10.8,0.1,16.2,0.1c40.4,0.1,80.8,0,121.2,0
				c4.2,0.2,8.3-1.7,11.1-4.8c2.4,0.2,4.8,0.3,7.1,0.4C334.3,303,334.4,301.8,334.5,300.6z"/>
		</g>
		<g id="_x23_1d176bff">
			<path class="st61" d="M357,305.3c1-0.2,1.9-0.4,2.9-0.5c0.1,1.3,0.2,2.5,0.2,3.8c-2.9-0.2-5.9,0.4-8.8-0.4
				c-0.2-0.5-0.1-0.9,0.4-1.2C353.4,306.1,355.2,305.8,357,305.3z"/>
		</g>
	</g>
</g>
<text transform="matrix(1 0 0 1 109.5131 355.4242)" class="st62 st63">No data available</text>
</svg>
