<svg width="465" height="400" viewBox="0 0 465 400" fill="none" xmlns="http://www.w3.org/2000/svg">
<path d="M382.185 255.9C382.585 255.8 382.985 255.6 383.385 255.5C381.785 258.3 379.785 260.8 378.385 263.6C374.385 271.3 371.985 279.7 371.185 288.4C370.985 288.4 370.485 288.4 370.185 288.4C370.285 285.4 370.785 282.4 371.385 279.5C373.085 272.1 375.885 264.8 380.585 258.7C381.285 257.9 381.685 256.9 382.185 255.9Z" fill="#83D8CD"/>
<path d="M250.785 27.0998C256.885 21.5998 266.985 21.6998 273.085 27.0998C273.285 27.2998 273.585 27.6998 273.785 27.8998C273.485 27.8998 272.785 27.8998 272.485 27.8998C270.385 30.3998 267.685 32.1998 265.385 34.4998C263.785 33.6998 261.785 33.0998 260.085 33.8998C258.685 34.5998 257.085 35.3998 256.385 36.8998C255.585 38.2998 255.685 39.9998 255.785 41.4998C255.585 41.2998 255.185 40.7998 254.985 40.4998C252.285 42.8998 250.485 46.0998 248.285 48.9998C246.285 46.0998 245.285 42.4998 245.385 38.9998C245.485 34.4998 247.585 30.1998 250.785 27.0998Z" fill="#FEC740"/>
<path d="M116.685 27.9999C120.085 26.6999 123.785 27.1999 127.385 27.0999C124.285 28.0999 121.485 30.1999 119.985 33.0999C118.785 35.2999 118.485 37.8999 118.585 40.3999C118.585 55.6999 118.585 70.9999 118.585 86.2999C118.585 98.4999 118.585 110.7 118.585 122.8C118.585 123.5 118.585 124.2 118.685 124.9C118.385 136.5 118.685 148.1 118.585 159.7C118.585 173.7 118.585 187.6 118.585 201.6C116.485 201.1 114.285 200.8 112.185 200.2C113.685 199.1 114.885 197.5 115.285 195.6C115.785 193.2 115.585 190.8 115.685 188.4C114.185 188.6 112.685 188.6 111.285 188.3C110.385 187.4 109.385 186.6 108.785 185.5C108.885 185 108.985 184.4 109.185 183.9C109.185 183.8 109.185 183.5 109.185 183.3C108.885 168.5 109.085 153.7 109.085 138.9C109.085 122.6 109.085 106.3 109.085 89.9999C109.085 72.9999 109.085 55.9999 109.085 38.9999C108.885 34.0999 112.085 29.4999 116.685 27.9999Z" fill="#171C6C"/>
<path d="M127.385 27.1C159.685 27 191.985 27.1 224.285 27C233.085 27.1 241.885 26.9 250.785 27.1C247.585 30.2 245.485 34.5 245.385 39C245.185 42.5 246.285 46.1 248.285 49C249.885 51.4 252.085 53.4 254.685 54.7C253.485 55.9 252.185 57.2 250.385 57.2C248.185 57.3 245.785 57.9 243.885 56.5C243.685 56.7 243.385 57 243.285 57.1C242.185 56.2 240.885 55.6 239.685 56.6C239.585 56.4 239.285 56.1 239.085 56C231.185 56 223.285 56 215.385 56C212.385 55.9 209.285 56.8 206.285 56.2C203.985 55.7 201.685 56.7 199.385 56.3C197.785 56.1 196.185 55.9 194.585 56C187.185 56.1 179.785 55.9 172.385 56.1C170.885 56 169.485 55.8 167.985 55.9C167.785 55.5 167.685 55.1 167.485 54.6C167.285 54.9 166.985 55.5 166.885 55.7C166.185 56 165.485 56.4 164.885 56.7C163.885 55.6 162.885 54.6 161.685 53.8C160.085 51.5 157.785 49.4 154.885 49C151.885 48.4 148.785 49.8 146.685 51.9C145.585 52.5 144.285 53 143.185 52.2C142.585 52.5 142.085 52.9 141.485 53.1C140.785 52.9 140.285 52.1 139.585 52C138.785 51.9 137.885 51.8 137.085 51.7C136.985 51.1 136.885 50.5 136.785 50C136.585 50.4 136.385 50.8 136.285 51.3C135.185 50.7 134.185 49.8 132.885 49.9C130.385 50 127.885 49.8 125.385 49.3C123.685 48.8 123.585 46.9 123.185 45.4C122.685 45.4 122.085 45.5 121.585 45.5C121.485 44.2 121.385 43 121.285 41.8C120.985 41.7 120.485 41.5 120.185 41.4C120.285 41 120.385 40.7 120.585 40.3C120.885 40.5 121.285 40.7 121.585 41C120.885 39.8 120.185 38.6 120.085 37.3C120.485 37.6 120.885 37.9 121.385 38.2C121.385 37.7 121.385 37.2 121.485 36.7C121.085 36.7 120.585 36.8 120.185 36.8C120.385 36 120.585 35.2 120.785 34.4C120.685 34.1 120.485 33.6 120.485 33.4C121.485 30.2 124.285 28.1 127.385 27.1Z" fill="#6053DF"/>
<path d="M273.085 27.1C283.585 27 293.985 27 304.485 27C309.085 27 313.685 29.8 315.385 34.1C316.385 36.2 316.485 38.5 316.385 40.8C316.385 47 316.385 53.2 316.485 59.3C316.485 62.4 316.485 65.4 316.385 68.5C315.085 70.9 316.085 73.8 315.585 76.4C314.985 71 315.685 65.5 315.085 60.1C314.785 62 314.685 63.9 314.685 65.8C313.185 64.9 312.485 63.3 312.185 61.7C311.385 62.4 310.385 62.8 309.485 62.1C308.785 62.3 308.185 62.5 307.485 62.7C307.685 62.3 307.985 61.8 308.185 61.4C307.585 61.6 306.985 62 306.385 62.4C306.185 62.1 305.985 61.8 305.785 61.5C304.285 61.7 302.785 61.2 301.385 60.8C300.185 60.8 299.085 61.5 297.985 61.2C295.585 60.7 293.285 62 290.985 62.4C290.585 62.2 290.185 62 289.785 61.9C289.285 62 288.685 62.1 288.185 62.2C288.185 62 288.085 61.5 288.085 61.3C287.385 61.7 286.685 62.3 285.885 62.5C284.785 62.3 283.985 61.3 283.085 60.7C283.585 59.5 283.485 58.2 283.185 56.9C281.285 49.8 279.985 42.6 278.085 35.6C277.285 32.7 275.885 30.1 273.985 27.9C273.585 27.6 273.285 27.3 273.085 27.1Z" fill="#5F53DE"/>
<path d="M265.385 34.3998C267.685 32.0998 270.385 30.2998 272.485 27.7998C272.785 27.7998 273.485 27.7998 273.785 27.7998C275.685 29.9998 277.185 32.6998 277.885 35.4998C279.785 42.5998 281.185 49.7998 282.985 56.7998C283.285 57.9998 283.385 59.3998 282.885 60.5998C282.185 60.6998 281.385 60.9998 280.585 60.7998C275.085 59.5998 269.485 58.2998 263.985 57.2998C260.785 56.5998 257.485 56.0998 254.485 54.6998C251.885 53.3998 249.685 51.3998 248.085 48.9998C250.285 46.0998 252.085 42.8998 254.785 40.4998C254.985 40.6998 255.385 41.1998 255.585 41.4998C256.485 43.1998 257.685 44.8998 259.685 45.3998C263.585 46.9998 268.085 43.0998 267.685 38.9998C267.885 37.0998 266.685 35.4998 265.385 34.3998Z" fill="#FCBB32"/>
<path d="M118.485 40.3996C118.485 37.8996 118.685 35.2996 119.885 33.0996C119.985 33.3996 120.185 33.8996 120.185 34.0996C119.985 34.8996 119.785 35.6996 119.585 36.4996C119.985 36.4996 120.485 36.3996 120.885 36.3996C120.885 36.8996 120.885 37.3996 120.785 37.8996C120.385 37.5996 119.985 37.2996 119.485 36.9996C119.585 38.3996 120.285 39.5996 120.985 40.6996C120.685 40.4996 120.285 40.1996 119.985 39.9996C119.885 40.3996 119.785 40.6996 119.585 41.0996C119.885 41.1996 120.385 41.3996 120.685 41.4996C120.785 42.6996 120.885 43.9996 120.985 45.1996C121.485 45.1996 122.085 45.0996 122.585 45.0996C122.985 46.4996 123.085 48.4996 124.785 48.9996C127.185 49.4996 129.785 49.6996 132.285 49.5996C133.585 49.5996 134.685 50.4996 135.685 50.9996C135.885 50.5996 135.985 50.1996 136.185 49.6996C136.285 50.2996 136.385 50.8996 136.485 51.3996C137.285 51.4996 138.185 51.4996 138.985 51.6996C139.785 51.7996 140.185 52.5996 140.885 52.7996C141.485 52.5996 141.985 52.1996 142.585 51.8996C143.685 52.6996 144.985 52.1996 146.085 51.5996C145.185 52.6996 144.485 53.9996 143.985 55.3996C142.685 59.6996 145.085 64.7996 149.185 66.4996C151.685 67.5996 154.585 67.4996 156.985 66.1996C159.485 64.6996 161.485 62.0996 161.885 59.0996C162.185 57.1996 161.685 55.2996 161.085 53.4996C162.285 54.2996 163.385 55.2996 164.285 56.3996C164.985 56.0996 165.685 55.6996 166.285 55.3996C166.485 55.0996 166.785 54.4996 166.885 54.2996C167.085 54.6996 167.185 55.0996 167.385 55.5996C168.885 55.4996 170.285 55.7996 171.785 55.7996C179.185 55.5996 186.585 55.7996 193.985 55.6996C195.585 55.6996 197.185 55.7996 198.785 55.9996C201.085 56.3996 203.385 55.3996 205.685 55.8996C208.685 56.4996 211.785 55.4996 214.785 55.6996C222.685 55.6996 230.585 55.6996 238.485 55.6996C238.585 55.8996 238.885 56.1996 239.085 56.2996C240.285 55.2996 241.685 55.8996 242.685 56.7996C242.885 56.5996 243.185 56.2996 243.285 56.1996C245.185 57.5996 247.585 56.9996 249.785 56.8996C251.585 56.8996 252.885 55.5996 254.085 54.3996C257.085 55.7996 260.385 56.2996 263.585 56.9996C269.185 58.0996 274.685 59.2996 280.185 60.4996C280.885 60.6996 281.685 60.4996 282.485 60.2996C283.385 60.8996 284.185 61.8996 285.285 62.0996C286.085 61.8996 286.785 61.2996 287.485 60.8996C287.485 61.0996 287.585 61.5996 287.585 61.7996C288.085 61.6996 288.685 61.5996 289.185 61.4996C289.585 61.6996 289.985 61.7996 290.385 61.9996C292.685 61.4996 294.985 60.1996 297.385 60.7996C298.585 61.0996 299.685 60.3996 300.785 60.3996C302.185 60.8996 303.685 61.2996 305.185 61.0996C305.385 61.3996 305.585 61.6996 305.785 61.9996C306.385 61.5996 306.885 61.2996 307.585 60.9996C307.385 61.3996 307.085 61.8996 306.885 62.2996C307.485 62.0996 308.185 61.8996 308.885 61.6996C309.785 62.3996 310.785 61.9996 311.585 61.2996C311.885 62.8996 312.585 64.4996 314.085 65.3996C314.185 63.4996 314.185 61.5996 314.485 59.6996C315.085 65.0996 314.385 70.5996 314.985 75.9996C315.485 73.3996 314.485 70.4996 315.785 68.0996C315.785 73.3996 315.785 78.7996 315.785 84.0996H315.385C312.685 82.0996 309.285 82.5996 306.185 82.4996C301.785 82.5996 297.485 82.3996 293.085 82.3996C292.485 80.6996 291.585 78.5996 289.585 78.3996C287.185 78.4996 285.785 80.7996 284.285 82.3996C238.185 82.2996 192.085 82.2996 146.085 82.3996C141.585 82.2996 137.585 85.8996 136.985 90.3996C136.785 90.3996 136.385 90.2996 136.185 90.2996C135.985 90.2996 135.485 90.1996 135.285 90.1996C134.985 90.4996 134.785 90.7996 134.485 91.0996C133.785 91.0996 133.085 91.1996 132.485 91.1996C132.385 90.8996 132.185 90.2996 132.185 89.9996C131.285 90.9996 130.585 92.0996 129.485 92.7996C127.985 92.6996 126.785 91.4996 125.585 90.6996C125.485 90.3996 125.385 90.0996 125.385 89.8996C124.985 89.7996 124.585 89.7996 124.185 89.6996C123.785 88.4996 123.485 87.1996 122.685 86.2996C122.285 86.6996 121.985 87.0996 121.685 87.4996C121.585 86.0996 120.985 84.8996 120.185 83.7996C120.085 85.8996 120.085 87.9996 119.985 90.0996C119.685 88.3996 119.485 86.5996 119.185 84.8996C118.785 85.1996 118.485 85.4996 118.085 85.7996C118.585 70.9996 118.485 55.6996 118.485 40.3996Z" fill="#5B52D4"/>
<path d="M259.985 33.7997C261.685 32.9997 263.685 33.5997 265.285 34.3997C266.685 35.4997 267.785 37.0997 267.785 38.9997C268.285 42.9997 263.785 46.9997 259.785 45.3997C257.785 44.8997 256.485 43.1997 255.685 41.4997C255.585 39.9997 255.485 38.2997 256.285 36.8997C257.085 35.2997 258.585 34.4997 259.985 33.7997Z" fill="#5954DC"/>
<path d="M146.385 51.8C148.485 49.7 151.585 48.3 154.585 48.9C157.485 49.3 159.785 51.4 161.385 53.7C161.985 55.5 162.485 57.4 162.185 59.3C161.785 62.3 159.885 64.9 157.285 66.4C154.885 67.7 151.985 67.8 149.485 66.7C145.285 65 142.885 59.9 144.285 55.6C144.785 54.2 145.585 53 146.385 51.8Z" fill="#FCFCFD"/>
<path d="M316.485 59.3999C317.785 59.8999 318.985 60.4999 320.185 61.1999C334.385 68.8999 347.285 78.9999 357.485 91.4999C360.285 94.8999 362.885 98.3999 365.385 102.1C364.485 104 362.685 105.2 361.285 106.8C354.485 114.6 347.385 122.3 340.485 130C335.685 135.2 331.185 140.6 326.285 145.7C324.485 147.8 322.785 149.9 320.985 151.9C320.685 140.9 320.985 130 320.885 119C320.885 110.9 320.885 102.9 320.785 94.7999C320.685 92.1999 320.585 89.2999 319.085 87.0999C318.885 87.0999 318.485 86.9999 318.285 86.8999C317.485 86.0999 316.785 85.2999 315.985 84.4999H316.385C316.385 79.1999 316.385 73.7999 316.385 68.4999C316.385 65.4999 316.385 62.3999 316.485 59.3999Z" fill="#FC9F3A"/>
<path d="M284.785 83C286.285 81.4 287.685 79 290.085 79C292.085 79.2 292.985 81.3 293.585 83C294.585 85.4 295.085 88 296.785 90C299.585 91.9 303.085 92.3 305.985 94.2C307.385 95.2 307.485 97.5 306.085 98.6C303.785 100.7 300.885 102.2 298.485 104.3C297.785 104.8 297.985 105.6 297.885 106.3C297.685 109 297.985 111.7 297.585 114.3C297.385 115.9 295.385 116.9 293.985 116.1C291.185 114.8 288.985 112.6 286.385 111.1C285.385 110.4 284.085 111 283.085 111.2C280.385 111.7 277.785 112.6 275.085 112.8C273.585 113 272.385 111.5 272.585 110.1C272.885 107.1 273.885 104.3 274.385 101.4C274.485 100.8 274.585 100.2 274.285 99.6C272.685 96.8 270.685 94.3 269.185 91.6C268.185 90.1 269.085 87.8 270.985 87.6C274.285 87.4 277.685 87.6 280.985 87.6C282.085 86.1 283.485 84.6 284.785 83Z" fill="#FF6D5A"/>
<path d="M120.585 84.3999C121.385 85.4999 121.985 86.6999 122.085 88.0999C122.385 87.6999 122.785 87.2999 123.085 86.8999C123.885 87.8999 124.185 89.1999 124.585 90.2999C124.985 90.3999 125.385 90.3999 125.785 90.4999C125.885 90.7999 125.985 91.0999 125.985 91.2999C127.185 92.0999 128.385 93.2999 129.885 93.3999C130.985 92.6999 131.685 91.5999 132.585 90.5999C132.685 90.8999 132.885 91.4999 132.885 91.7999C133.585 91.7999 134.285 91.6999 134.885 91.6999C135.185 91.3999 135.385 91.0999 135.685 90.7999C135.885 90.7999 136.385 90.8999 136.585 90.8999C136.385 93.6999 134.485 95.8999 133.285 98.2999C129.685 104.4 126.685 110.8 122.785 116.7C121.485 118.7 120.685 121.1 119.385 123.1C119.085 123 118.585 122.9 118.385 122.9C118.385 110.7 118.385 98.4999 118.385 86.3999C118.785 86.0999 119.085 85.7999 119.485 85.4999C119.685 87.1999 119.885 88.9999 120.285 90.6999C120.485 88.5999 120.485 86.4999 120.585 84.3999Z" fill="#564EC9"/>
<path d="M318.285 87C318.485 87 318.885 87.1 319.085 87.2C320.585 89.4 320.785 92.3 320.785 94.9C320.885 103 320.785 111 320.885 119.1C321.085 130.1 320.685 141 320.985 152C320.985 152.2 320.885 152.5 320.885 152.7C320.485 153.1 319.985 153.4 319.485 153.8C319.285 142.2 319.385 130.7 319.485 119.1C319.285 112.6 319.485 106.2 319.385 99.7C319.385 95.4 320.285 90.9 318.285 87Z" fill="#E28F32"/>
<path d="M104.585 94.0996C105.985 92.6996 107.185 91.0996 108.785 90.0996C108.785 106.4 108.785 122.7 108.785 139C108.885 153.8 108.685 168.6 108.885 183.4C105.885 183.2 102.385 183.6 100.485 186.2C97.4852 190.1 99.3852 196.3 103.685 198.4C103.885 198.3 104.185 198 104.285 197.8C104.285 198.4 104.285 198.9 104.285 199.5C102.785 201.2 100.185 201.1 98.5852 202.6C96.9852 204.3 96.5852 206.7 96.1852 209C94.7852 217.6 92.9852 226.2 91.4852 234.8C90.2852 233.7 89.6852 232.2 88.8852 230.8C76.5852 210 70.8852 185.2 73.4852 161.1C75.9852 136.1 87.3852 112.3 104.585 94.0996Z" fill="#FDC842"/>
<path d="M136.685 90.8999C136.885 90.8999 137.285 90.9999 137.485 90.9999C137.385 91.7999 137.385 92.5999 137.385 93.4999C137.385 109.8 137.385 126.2 137.285 142.5C136.185 144.5 136.785 146.8 136.585 149C136.385 155.4 136.885 161.8 136.385 168.2C135.585 165.1 136.285 162 135.785 158.9C135.485 160.5 135.385 162.2 135.385 163.8C134.985 162.8 134.685 161.7 134.385 160.6C130.585 160.6 126.785 161.4 122.885 161.2C122.785 160.7 122.685 160.2 122.585 159.7C122.385 159.7 121.985 159.6 121.885 159.5C121.885 159.3 121.885 158.9 121.885 158.7C122.085 158.7 122.485 158.6 122.685 158.6C122.685 158.4 122.685 158 122.685 157.7C122.485 157.7 122.085 157.6 121.885 157.6C121.885 156.2 121.785 154.8 121.785 153.3C121.485 153.5 121.185 153.7 120.985 153.9C120.985 152.3 120.885 150.8 120.585 149.3C120.385 151.1 120.385 152.9 120.185 154.7C119.585 152.7 119.685 150.5 119.885 148.5C119.685 148.7 119.285 149.1 119.085 149.3C118.885 142.1 118.985 134.9 118.985 127.6C118.985 126.7 118.685 125.8 118.485 125C118.485 124.3 118.385 123.6 118.385 122.9C118.685 123 119.185 123.1 119.385 123.1C120.685 121.1 121.485 118.7 122.785 116.7C126.685 110.8 129.685 104.4 133.285 98.2999C134.685 95.8999 136.485 93.5999 136.685 90.8999Z" fill="#4A42B7"/>
<path d="M365.385 102.1C376.785 119.3 383.785 139.6 384.785 160.3C385.285 164.7 385.085 169.1 385.085 173.5C384.385 182.7 383.285 192 380.485 200.9C377.685 210.5 373.685 219.8 368.585 228.4C367.385 230.1 366.385 231.9 364.985 233.4C363.385 225.3 361.785 217.2 360.185 209C359.585 205.1 358.785 201.2 357.885 197.4C360.885 194.1 363.285 189.9 363.285 185.3C363.685 178.5 358.985 171.4 352.185 169.9C349.085 169.2 345.285 169.5 343.085 172C341.385 174 342.585 177.4 344.985 178.1C345.485 180.2 346.285 182.2 346.185 184.4C346.085 186.4 346.185 188.5 345.985 190.6L345.885 191.1C345.285 187.8 345.685 184.5 344.885 181.2C340.585 181 336.385 181.3 332.085 181.1C331.985 180.4 331.885 179.7 331.785 179C331.485 179.6 331.185 180.3 330.885 181C329.885 181.3 328.885 181.6 327.885 181.9C328.385 180.9 328.885 179.9 329.385 179C330.985 176.1 332.585 173.2 334.085 170.3C334.685 169.2 335.185 168 334.885 166.7C334.185 165.8 332.985 165.7 331.985 165.4C327.785 164.6 323.585 163.7 319.385 163L319.585 162.9C319.885 162.8 320.485 162.6 320.785 162.5C320.885 159.2 320.885 155.9 320.785 152.7C320.785 152.5 320.885 152.2 320.885 152C322.685 150 324.385 147.9 326.185 145.8C331.085 140.7 335.585 135.2 340.385 130.1C347.285 122.3 354.385 114.7 361.185 106.9C362.685 105.2 364.485 104 365.385 102.1Z" fill="#FDC843"/>
<path d="M204.485 110.1C205.385 109.7 206.285 109.9 207.285 109.8C221.685 109.8 236.085 109.9 250.385 109.8C253.185 109.9 256.085 109.7 258.985 109.9C260.985 110.1 260.385 113.3 258.485 113C240.785 113 223.085 113 205.485 113C203.685 113.2 202.885 110.8 204.485 110.1Z" fill="#191A73"/>
<path d="M118.585 124.9C118.785 125.8 118.985 126.6 119.085 127.5C119.185 134.7 118.985 142 119.185 149.2C119.385 149 119.785 148.6 119.985 148.4C119.785 150.5 119.685 152.6 120.285 154.6C120.585 152.8 120.585 151 120.685 149.2C120.985 150.7 121.085 152.3 121.085 153.8C121.385 153.6 121.685 153.4 121.885 153.2C121.885 154.6 121.985 156 121.985 157.5C122.185 157.5 122.585 157.6 122.785 157.6C122.785 157.8 122.785 158.2 122.785 158.5C122.585 158.5 122.185 158.6 121.985 158.6C121.985 158.8 121.985 159.2 121.985 159.4C122.185 159.4 122.585 159.5 122.685 159.6C122.785 160.1 122.885 160.6 122.985 161.1C126.785 161.2 130.585 160.5 134.485 160.5C134.685 161.6 134.985 162.6 135.485 163.7C135.485 162.1 135.485 160.4 135.885 158.8C136.385 161.9 135.685 165.1 136.485 168.1C137.085 176.2 135.885 184.4 137.185 192.5C134.485 195.8 132.085 199.5 128.285 201.7C126.585 202.8 124.485 202.7 122.485 202.6C121.185 202.4 119.785 202.1 118.485 201.8C118.485 187.8 118.485 173.9 118.485 159.9C118.585 148.1 118.285 136.5 118.585 124.9Z" fill="#443EAE"/>
<path d="M159.385 137.6C160.885 137.3 162.485 137.5 164.085 137.4C208.485 137.4 252.885 137.4 297.385 137.4C299.385 137.7 298.785 140.8 296.785 140.5C252.085 140.5 207.385 140.4 162.785 140.6C161.685 140.6 160.485 140.8 159.485 140.4C158.185 140 158.285 138 159.385 137.6Z" fill="#1E1B75"/>
<path d="M136.685 148.9C136.785 146.7 136.185 144.4 137.385 142.4C137.485 158.3 137.285 174.3 137.485 190.2C137.485 190.8 137.485 191.4 137.485 192L137.185 192.4C135.885 184.3 137.085 176.1 136.485 168C136.985 161.7 136.485 155.3 136.685 148.9Z" fill="#3D39A0"/>
<path d="M118.785 263.8C119.385 264.7 119.985 265.6 120.285 266.7C122.885 273.8 125.985 280.6 128.485 287.7C126.385 288.1 124.785 286.6 123.185 285.5C121.085 284.1 119.685 281.7 118.885 279.3C118.285 277.2 118.485 275.1 118.485 273C118.585 270 118.285 266.9 118.785 263.8Z" fill="#3D39A0"/>
<path d="M319.585 153.7C320.085 153.3 320.485 153 320.985 152.6C320.985 155.9 321.085 159.2 320.985 162.4C320.685 162.5 320.085 162.7 319.785 162.8C319.785 159.8 319.385 156.8 319.585 153.7Z" fill="#EAAD36"/>
<path d="M158.485 156C158.585 154.6 160.185 154.6 161.285 154.6C205.985 154.7 250.685 154.7 295.385 154.6C296.385 154.7 297.685 154.5 298.385 155.5C298.885 156.5 298.385 157.6 297.485 158.1C295.685 157.8 293.885 157.7 292.085 157.8C248.185 157.8 204.285 157.8 160.385 157.8C159.285 157.9 158.185 157.1 158.485 156Z" fill="#1B166B"/>
<path d="M291.985 157.8C293.785 157.8 295.685 157.8 297.385 158.1C299.785 159 302.285 159.3 304.785 159.9C309.685 161 314.585 162.1 319.585 162.8L319.385 162.9C319.085 163 318.385 163.2 318.085 163.2C321.585 165.8 325.485 167.9 328.985 170.6C325.885 170.5 322.885 169.9 319.885 169.4C314.685 168.5 309.485 167.8 304.285 167C298.685 166.2 293.185 165.2 287.585 164.8C288.985 162.3 290.185 159.9 291.985 157.8Z" fill="#51C6B4"/>
<path d="M318.085 163.2C318.385 163.1 319.085 162.9 319.385 162.9C323.585 163.6 327.785 164.5 331.985 165.3C332.985 165.5 334.185 165.7 334.885 166.6C335.285 167.9 334.685 169.1 334.085 170.2C332.485 173.1 330.985 176 329.385 178.9C324.585 178 319.985 176.3 315.185 175.1C308.485 173.2 301.685 171.3 294.985 169.1C292.285 168.1 289.385 167.6 286.685 166.4C286.985 165.9 287.285 165.4 287.485 164.9C293.085 165.3 298.685 166.3 304.185 167.1C309.385 167.9 314.585 168.7 319.785 169.5C322.785 170 325.785 170.6 328.885 170.7C325.585 167.9 321.685 165.9 318.085 163.2Z" fill="#2BAA9C"/>
<path d="M284.085 171.2C284.985 169.6 285.885 167.9 286.885 166.3C289.585 167.5 292.385 168.1 295.185 169C301.885 171.1 308.585 173.1 315.385 175C320.185 176.2 324.785 177.9 329.585 178.8C329.085 179.8 328.585 180.7 328.085 181.7C325.985 181.8 323.885 181.7 321.785 181.7C320.385 181.4 318.985 181.1 317.585 180.8C311.185 178.8 304.785 176.7 298.285 175C293.485 173.6 288.585 173 284.085 171.2Z" fill="#1A9087"/>
<path d="M343.185 172C345.385 169.5 349.185 169.2 352.285 169.9C359.085 171.4 363.785 178.4 363.385 185.3C363.385 189.9 360.985 194.1 357.985 197.4C357.185 195.7 356.185 193.9 354.485 193.1C352.485 192 349.685 193 348.685 195C347.085 197.9 347.685 201.3 347.585 204.4C346.585 205.3 345.285 205.3 344.085 205.2C344.485 200.2 346.485 195.5 346.085 190.5C347.085 190.3 348.385 190.5 348.985 189.6C349.485 188 349.385 186.3 349.585 184.7C350.285 184.1 351.585 183.7 351.285 182.6C350.685 181.5 349.985 180.4 349.185 179.4C347.985 178.6 346.385 178.5 344.985 178.2C342.585 177.4 341.385 174 343.185 172Z" fill="#111A66"/>
<path d="M278.285 181.5C280.285 178.1 282.085 174.7 284.085 171.2C288.685 173 293.485 173.6 298.185 175C304.685 176.7 311.085 178.9 317.485 180.8C318.885 181.1 320.285 181.4 321.685 181.7C308.185 182 294.685 181.7 281.185 181.8C269.185 181.3 257.085 181.9 245.085 181.4C256.085 181.5 267.185 181.4 278.285 181.5Z" fill="#27A497"/>
<path d="M345.085 178.1C346.485 178.4 347.985 178.5 349.285 179.3C350.085 180.3 350.785 181.4 351.385 182.5C351.685 183.6 350.285 184.1 349.685 184.6C349.485 186.2 349.585 187.9 349.085 189.5C348.385 190.4 347.185 190.3 346.185 190.4C346.485 188.4 346.385 186.3 346.385 184.2C346.385 182.2 345.585 180.2 345.085 178.1Z" fill="#FCB5B7"/>
<path d="M330.985 180.9C331.285 180.2 331.585 179.6 331.885 178.9C331.985 179.6 332.085 180.3 332.185 181C336.485 181.2 340.685 181 344.985 181.1C345.785 184.3 345.385 187.7 345.985 191C344.985 196 343.985 200.9 343.085 205.9C342.585 208.6 342.185 211.4 341.485 214.1C339.585 223.3 338.085 232.6 336.185 241.8C334.485 250.7 332.885 259.6 331.085 268.5C330.985 268.3 330.785 268 330.685 267.9C330.285 270.6 329.285 273.3 329.585 276.1C329.085 278.6 328.485 281.1 327.585 283.5C327.085 284.1 326.685 284.6 326.185 285.2C325.385 286.1 324.685 287.1 323.885 288C321.085 291.1 316.985 292.9 312.785 292.8C272.385 292.8 231.985 292.8 191.585 292.8C185.785 257.2 179.985 221.6 174.285 186C173.885 184.4 174.085 182 171.985 181.8C175.885 181.4 179.885 181.6 183.885 181.6C204.185 181.6 224.585 181.5 244.885 181.7C256.885 182.2 268.985 181.6 280.985 182.1C294.485 181.9 307.985 182.3 321.485 182C323.585 182.1 325.685 182.1 327.785 182C328.985 181.5 329.985 181.2 330.985 180.9ZM290.585 182.3C292.685 182.6 294.785 182.5 296.785 182.5C306.385 182.5 316.085 182.8 325.685 182.2C313.985 182 302.285 182 290.585 182.3ZM262.485 203.8C260.085 204.3 257.785 204.8 255.585 205.8C254.685 206.2 253.685 206.7 252.785 206.3C248.185 204.8 243.385 203.8 238.485 204.3C231.485 204.9 224.985 210.2 223.685 217.1C222.485 224.2 225.185 231.4 229.685 236.8C234.485 242.8 241.285 246.5 247.685 250.4C250.185 251.8 252.985 253.9 255.985 252.7C259.285 251.3 262.185 249.2 265.285 247.3C268.985 244.8 272.685 242.4 275.685 239.1C280.985 233.5 284.785 225.9 284.185 218.1C283.985 212.7 280.685 207.6 275.785 205.3C271.785 203.2 266.985 203.3 262.485 203.8Z" fill="#FDC438"/>
<path d="M146.285 185.4C154.885 184.2 163.485 182.8 172.185 181.6C174.285 181.8 174.085 184.2 174.485 185.8C180.185 221.4 185.985 257 191.785 292.6C186.385 292.6 180.985 292.7 175.585 292.5C172.185 292.4 169.185 290.4 166.785 288.1C164.085 285.2 162.185 281.4 161.685 277.5C157.385 252 152.585 226.5 148.285 201C147.385 195.8 145.985 190.7 146.285 185.4Z" fill="#FC9937"/>
<path d="M290.585 182.3C302.285 182 313.985 182.1 325.685 182.3C316.085 182.8 306.385 182.6 296.785 182.6C294.685 182.5 292.585 182.6 290.585 182.3Z" fill="#F0C952"/>
<path d="M100.485 186.2C102.385 183.6 105.885 183.1 108.885 183.4C108.885 183.5 108.885 183.8 108.885 184C108.785 184.5 108.585 185.1 108.485 185.6C109.185 186.7 110.185 187.5 110.985 188.4C109.885 188.3 108.485 187.8 107.485 188.6C106.685 189.2 106.585 190.2 106.285 191.1C105.285 191.5 104.685 192.3 104.685 193.4C104.985 193.6 105.485 193.9 105.685 194.1C105.085 195.4 104.585 196.6 104.185 197.9C103.985 198 103.685 198.3 103.585 198.5C99.4852 196.2 97.4852 190.1 100.485 186.2Z" fill="#12195F"/>
<path d="M145.885 185.6L146.185 185.4C145.885 190.7 147.285 195.8 148.085 201C152.285 226.5 157.085 252 161.485 277.5C162.085 281.5 163.885 285.2 166.585 288.1C163.085 289.1 159.485 288.6 155.985 288.8C151.785 288.8 147.485 288.9 143.285 288.6C140.985 287.5 139.085 285.6 138.085 283.3C137.185 281.2 137.285 279 137.285 276.8C137.285 271.3 137.185 265.8 137.285 260.3C139.285 250.4 140.085 240.3 141.385 230.2C142.085 223.8 142.785 217.3 143.385 210.9C143.385 205 144.385 199.2 144.785 193.3C145.185 190.8 145.085 188.1 145.885 185.6Z" fill="#D1CEFD"/>
<path d="M107.585 188.6C108.585 187.8 109.985 188.3 111.085 188.4C112.585 188.7 114.085 188.7 115.485 188.5C115.485 190.9 115.585 193.4 115.085 195.7C114.685 197.6 113.485 199.1 111.985 200.3C109.485 199.5 106.785 199.2 104.185 199.6C104.185 199 104.185 198.5 104.185 197.9C104.685 196.6 105.085 195.3 105.685 194.1C105.385 193.9 104.885 193.6 104.685 193.4C104.685 192.3 105.285 191.5 106.285 191.1C106.685 190.2 106.785 189.1 107.585 188.6ZM111.585 193.5C110.785 193.7 110.985 195.1 111.985 194.8C113.385 195 112.985 192.5 111.585 193.5Z" fill="#FDB4BE"/>
<path d="M137.385 190.2C137.885 189.8 138.485 189.4 138.985 189C139.785 189.3 140.485 189.5 141.285 189.8C141.185 192.5 139.485 194.7 138.185 196.9C137.985 195.3 137.685 193.7 137.385 192.1C137.385 191.5 137.385 190.8 137.385 190.2Z" fill="#FFB2B3"/>
<path d="M345.985 191L346.085 190.5C346.485 195.5 344.485 200.3 344.085 205.2C345.285 205.3 346.585 205.3 347.585 204.4C347.585 204.7 347.485 205.4 347.485 205.7C345.985 205.8 344.585 205.9 343.085 205.9C343.985 200.9 344.985 196 345.985 191Z" fill="#392341"/>
<path d="M137.185 192.5L137.485 192.1C137.785 193.7 138.085 195.3 138.285 196.9C137.985 197.4 137.785 198 137.485 198.6C134.585 203.7 129.885 208.1 123.985 209.3C123.285 209.2 122.585 209.1 121.885 209C123.685 208.5 125.085 207.1 126.585 206.1C126.385 205.6 126.285 205.1 126.085 204.6C125.585 205.2 125.085 205.8 124.585 206.4C124.585 205.9 124.485 205.3 124.485 204.8C123.985 205.1 123.485 205.3 122.985 205.6C122.885 205.1 122.785 204.6 122.685 204.1C122.385 203.9 121.985 203.7 121.685 203.6C121.785 203.5 122.085 203.2 122.285 203.1C121.885 202.9 121.385 202.8 120.985 202.6C121.385 202.6 122.185 202.5 122.485 202.5C124.385 202.6 126.485 202.7 128.285 201.6C131.985 199.5 134.485 195.8 137.185 192.5Z" fill="#FF6B7F"/>
<path d="M348.685 195C349.685 193 352.385 192 354.485 193.1C356.185 194 357.185 195.8 357.985 197.4C358.885 201.2 359.685 205.1 360.285 209C361.885 217.1 363.485 225.3 365.085 233.4C365.885 239.2 367.185 244.9 367.985 250.7C368.185 252.1 367.285 253.7 365.885 254.1C363.085 254.5 360.185 254.6 357.385 255.1C357.285 255.1 357.185 255.1 357.185 255.1C354.985 255.2 352.785 255.6 350.685 255.1C348.285 254.3 347.485 251.6 347.285 249.3C346.285 238.8 344.985 228.3 344.285 217.7C345.385 220.1 344.985 222.7 345.485 225.2C350.185 222.7 354.585 219 356.285 213.8C357.285 210.5 357.985 207.1 357.585 203.7C356.685 205.9 356.485 208.5 354.685 210.3C353.585 211.5 352.285 212.7 350.785 213.5C348.885 214.6 346.585 214.5 344.485 214.7C344.385 215.5 344.185 216.3 344.185 217.2C344.085 216.3 343.885 215.3 343.785 214.4C343.085 214.3 342.285 214.2 341.585 214.1C342.285 211.4 342.585 208.6 343.185 205.9C344.685 205.9 346.085 205.9 347.585 205.7C347.585 205.4 347.685 204.7 347.685 204.4C347.685 201.3 347.085 197.9 348.685 195Z" fill="#FF697B"/>
<path d="M111.585 193.5C112.985 192.5 113.285 195 111.985 194.8C111.085 195.1 110.785 193.8 111.585 193.5Z" fill="#9E5673"/>
<path d="M123.885 209.3C129.785 208.1 134.485 203.7 137.385 198.6C137.185 201.9 137.285 205.1 137.385 208.4V208.8C134.985 210.6 132.485 212.4 129.685 213.5C127.085 214.2 124.285 213.8 121.885 212.6C121.285 211.8 120.585 211.1 119.985 210.3C121.185 210 122.385 209.8 123.485 209.3C123.685 209.4 123.785 209.3 123.885 209.3Z" fill="#3C3BA8"/>
<path d="M104.285 199.5C106.885 199.1 109.585 199.4 112.085 200.2C114.185 200.8 116.385 201.2 118.485 201.6C119.785 201.9 121.185 202.2 122.485 202.4C122.085 202.4 121.285 202.5 120.985 202.5C121.385 202.7 121.885 202.8 122.285 203C122.185 203.1 121.885 203.4 121.685 203.5C121.985 203.7 122.385 203.9 122.685 204C122.785 204.5 122.885 205 122.985 205.5C123.485 205.2 123.985 205 124.485 204.7C124.485 205.2 124.585 205.8 124.585 206.3C125.085 205.7 125.585 205.1 126.085 204.5C126.285 205 126.385 205.5 126.585 206C125.085 207 123.685 208.4 121.885 208.9C122.585 209 123.285 209.1 123.985 209.2C123.885 209.2 123.685 209.3 123.585 209.3C121.585 209.3 119.485 209.3 117.485 209.6C118.685 210.9 120.285 211.9 121.985 212.6C124.385 213.8 127.185 214.2 129.785 213.5C130.085 213.6 130.585 213.9 130.885 214.1C132.885 212.7 135.385 213.2 137.485 214.2L137.385 214.3C134.385 216.6 131.285 219.1 127.485 219.7C124.585 220.4 121.585 219.7 118.585 219.4C117.885 219.2 117.285 219 116.685 218.8C113.085 217.7 109.585 216.2 106.385 214.3C106.385 218.1 108.885 221.4 111.585 223.8C112.885 225 114.585 225.6 116.285 225.8C116.185 231.1 116.185 236.4 115.685 241.7C115.385 245.7 115.385 249.9 114.285 253.8C113.685 256.2 111.385 258 108.885 257.7C107.785 257.7 106.685 257.8 105.685 257.8C102.785 257.2 99.8852 257.2 96.9852 256.8C94.6852 256.3 92.0852 257.1 89.9852 255.9C88.2852 254.9 88.4852 252.8 88.6852 251.2C89.5852 245.7 90.7852 240.3 91.5852 234.8C92.9852 226.2 94.7852 217.6 96.2852 209C96.6852 206.8 97.1852 204.4 98.6852 202.6C100.185 201.1 102.785 201.2 104.285 199.5Z" fill="#FF6779"/>
<path d="M262.485 203.8C266.985 203.3 271.685 203.2 275.885 205.2C280.785 207.5 284.085 212.7 284.285 218C284.785 225.9 280.985 233.4 275.785 239C272.785 242.3 269.085 244.7 265.385 247.2C262.385 249.1 259.385 251.2 256.085 252.6C253.085 253.8 250.285 251.7 247.785 250.3C241.385 246.4 234.585 242.6 229.785 236.7C225.285 231.3 222.585 224.1 223.785 217C225.185 210 231.685 204.7 238.585 204.2C243.385 203.7 248.285 204.7 252.885 206.2C253.885 206.6 254.785 206.1 255.685 205.7C257.785 204.8 260.185 204.3 262.485 203.8ZM263.785 207.5C260.885 207.8 258.185 208.8 255.485 210C253.085 211.1 250.685 209.5 248.385 209C244.085 207.9 239.285 207.3 234.985 208.9C231.285 210.4 228.085 213.6 227.285 217.6C226.185 222.9 228.285 228.4 231.285 232.7C235.485 238.7 241.985 242.6 248.185 246.2C250.085 247.3 251.985 248.6 254.085 249.4C256.085 248.9 257.685 247.5 259.485 246.5C263.985 243.5 268.685 240.7 272.585 236.9C277.185 232.1 280.785 225.8 280.485 218.9C280.585 214.7 278.185 210.5 274.385 208.7C271.185 207 267.385 207.2 263.785 207.5Z" fill="#FCFCFB"/>
<path d="M354.485 210.4C356.185 208.6 356.485 206 357.385 203.8C357.785 207.2 357.085 210.6 356.085 213.9C354.385 219.1 349.985 222.8 345.285 225.3C344.785 222.8 345.085 220.2 344.085 217.8C344.085 217.7 343.985 217.4 343.985 217.3C344.085 216.5 344.185 215.7 344.285 214.8C346.385 214.6 348.685 214.7 350.585 213.6C352.085 212.7 353.385 211.6 354.485 210.4Z" fill="#F2526F"/>
<path d="M137.485 208.4C138.585 207.4 139.685 206.3 140.885 205.6C141.785 205.3 142.685 205.6 142.985 206.5C143.785 207.9 142.385 208.9 141.585 209.8C140.985 209.1 140.485 208.5 139.885 207.8C139.085 208.1 138.285 208.4 137.485 208.8V208.4Z" fill="#FA8797"/>
<path d="M263.785 207.5C267.285 207.3 271.085 207 274.385 208.8C278.185 210.6 280.585 214.8 280.485 219C280.785 225.8 277.185 232.2 272.585 237C268.685 240.8 263.985 243.7 259.485 246.6C257.685 247.6 256.085 249 254.085 249.5C251.985 248.8 250.185 247.4 248.185 246.3C241.985 242.7 235.585 238.8 231.285 232.8C228.285 228.4 226.185 223 227.285 217.7C228.085 213.7 231.285 210.5 234.985 209C239.285 207.3 243.985 208 248.385 209.1C250.685 209.6 253.085 211.2 255.485 210.1C258.185 208.7 260.985 207.8 263.785 207.5ZM247.885 220.1C247.185 221.3 246.385 223.6 244.585 222.9C243.585 222.1 243.085 221 242.385 220C242.085 220.2 241.485 220.7 241.285 220.9C240.785 222.9 242.785 224.8 244.685 225C247.085 225.6 249.785 223.3 249.385 220.8C249.185 220.2 248.385 220.2 247.885 220.1ZM259.685 220.9C259.285 222.5 260.585 223.9 261.885 224.6C264.485 226.1 268.385 223.8 267.785 220.7C267.485 220.6 266.785 220.3 266.485 220.2C265.685 221.2 265.185 222.8 263.685 223C262.185 222.9 261.985 221.2 261.385 220.2C260.785 220.2 259.985 220.2 259.685 220.9ZM250.585 230.2C249.685 230.3 249.385 231.4 249.485 232.2C250.685 233.7 252.885 233.6 254.585 233.6C256.085 233.5 257.885 233.6 259.085 232.5C260.085 231.7 259.285 229.9 257.985 230.1C255.485 230.1 253.085 230.1 250.585 230.2Z" fill="#FF79B9"/>
<path d="M137.485 208.8C138.285 208.4 139.085 208.1 139.885 207.8C140.485 208.5 140.985 209.1 141.585 209.8C140.185 211.3 138.585 212.5 137.385 214.2C135.285 213.2 132.785 212.7 130.785 214.1C130.485 214 129.985 213.7 129.685 213.5C132.585 212.4 135.085 210.6 137.485 208.8Z" fill="#FC6F83"/>
<path d="M117.485 209.6C119.485 209.4 121.485 209.4 123.585 209.3C122.485 209.8 121.285 210 120.085 210.3C120.685 211.1 121.285 211.8 121.985 212.6C120.285 211.9 118.785 211 117.485 209.6Z" fill="#613C7D"/>
<path d="M106.285 214.3C109.485 216.3 112.985 217.7 116.585 218.8C116.285 221.1 116.185 223.4 116.185 225.8C114.485 225.6 112.785 225 111.485 223.8C108.685 221.4 106.285 218.1 106.285 214.3Z" fill="#F2546B"/>
<path d="M341.485 214.1C342.185 214.2 342.885 214.3 343.685 214.4C343.785 215.3 343.985 216.3 344.085 217.2C344.085 217.3 344.185 217.6 344.185 217.7C344.885 228.3 346.185 238.8 347.185 249.3C347.385 251.6 348.185 254.3 350.585 255.1C352.685 255.5 354.985 255.2 357.085 255.1C357.385 266.2 357.085 277.3 357.585 288.4C357.385 288.4 356.885 288.5 356.685 288.6C355.785 288.7 354.985 288.8 354.085 288.7C353.485 288 353.285 287 352.985 286.2C350.685 276.7 348.485 267.1 346.185 257.6C345.185 253 343.985 248.5 343.285 243.9C343.085 243.9 342.885 243.9 342.785 243.9C340.285 253.6 337.585 263.3 334.985 273C334.085 276.8 332.785 280.5 332.185 284.3C330.585 284.5 328.885 284.6 327.285 284.4C327.385 284.2 327.585 283.7 327.685 283.4C328.585 281 329.185 278.5 329.685 276C330.285 273.5 330.785 270.9 331.185 268.4C332.985 259.5 334.585 250.6 336.285 241.7C338.085 232.5 339.585 223.3 341.485 214.1Z" fill="#151B64"/>
<path d="M127.385 219.7C131.185 219 134.385 216.6 137.285 214.3C137.385 229.7 137.285 245 137.385 260.4C137.285 265.9 137.485 271.4 137.385 276.9C137.385 279.1 137.285 281.3 138.185 283.4C139.185 285.8 141.085 287.6 143.385 288.7H143.085C139.885 288.4 136.785 288.5 133.585 288.5C133.385 288.6 133.085 288.8 132.985 288.9L132.785 289L132.585 288.9C131.185 280.8 129.985 272.6 128.685 264.5C128.385 262.5 127.785 260.6 126.885 258.8C124.585 254.2 121.985 249.7 119.685 245.1C118.285 242.6 118.585 239.7 118.585 237C118.685 231.1 118.485 225.3 118.585 219.4C121.385 219.8 124.485 220.5 127.385 219.7Z" fill="#3D38A6"/>
<path d="M116.185 225.8C116.185 223.5 116.285 221.1 116.585 218.8C117.185 219 117.885 219.2 118.485 219.4C118.285 225.3 118.485 231.1 118.485 237C118.485 239.7 118.185 242.6 119.585 245.1C121.885 249.7 124.485 254.2 126.785 258.8C127.685 260.6 128.285 262.5 128.585 264.5C129.885 272.6 131.085 280.8 132.485 288.9L132.685 289C133.985 289.4 135.285 289.7 136.585 290.1C136.985 290.6 137.285 291.2 137.685 291.7C134.785 291.9 131.885 291.8 128.985 291.8C128.885 290.7 128.785 289.5 128.785 288.4C126.685 288.5 124.685 288.4 122.585 288.3C120.185 288 117.685 287.8 115.385 286.7C112.485 285.3 110.385 282.5 109.385 279.5C108.585 277.3 108.785 274.9 108.785 272.6C108.785 267.7 108.785 262.7 108.785 257.8C111.285 258.1 113.585 256.2 114.185 253.9C115.285 250 115.285 245.8 115.585 241.8C115.985 236.4 115.985 231.1 116.185 225.8ZM118.785 263.8C118.285 266.8 118.585 269.9 118.485 273C118.485 275.1 118.285 277.3 118.885 279.3C119.685 281.7 121.085 284 123.185 285.5C124.785 286.6 126.385 288 128.485 287.7C125.885 280.6 122.885 273.8 120.285 266.7C119.885 265.7 119.385 264.7 118.785 263.8Z" fill="#151C66"/>
<path d="M247.885 220.1C248.385 220.3 249.085 220.3 249.285 220.9C249.685 223.4 246.985 225.6 244.585 225.1C242.685 224.8 240.685 222.9 241.185 221C241.485 220.8 242.085 220.3 242.285 220.1C243.085 221 243.585 222.2 244.485 223C246.385 223.5 247.285 221.3 247.885 220.1Z" fill="#130F48"/>
<path d="M259.685 220.9C259.985 220.2 260.685 220.2 261.385 220.2C261.985 221.2 262.185 223 263.685 223C265.185 222.8 265.685 221.2 266.485 220.2C266.785 220.3 267.485 220.6 267.785 220.7C268.485 223.8 264.485 226.2 261.885 224.6C260.585 223.8 259.285 222.5 259.685 220.9Z" fill="#141048"/>
<path d="M250.585 230.2C253.085 230.1 255.585 230.1 257.985 230.1C259.185 230 259.985 231.7 259.085 232.5C257.885 233.6 256.085 233.5 254.585 233.6C252.885 233.6 250.685 233.7 249.485 232.2C249.285 231.4 249.585 230.2 250.585 230.2Z" fill="#10125B"/>
<path d="M342.685 243.9C342.885 243.9 343.085 243.9 343.185 243.9C343.885 248.5 345.185 253 346.085 257.6C348.385 267.1 350.585 276.7 352.885 286.2C353.085 287.1 353.385 288 353.985 288.7C354.885 288.8 355.685 288.7 356.585 288.6V288.9C355.585 289 354.685 289.2 353.685 289.4C353.285 289 352.885 288.7 352.485 288.3C345.385 288.3 338.385 288.4 331.285 288.2C331.285 287 331.185 285.8 331.185 284.7C329.485 284.9 327.785 285 326.185 285.1C326.685 284.5 327.185 284 327.585 283.4C327.485 283.6 327.285 284.1 327.185 284.4C328.785 284.5 330.485 284.5 332.085 284.3C332.685 280.5 333.885 276.8 334.885 273C337.485 263.3 340.285 253.6 342.685 243.9Z" fill="#C2FBF1"/>
<path d="M370.485 257.6C377.885 253.5 386.385 250.9 394.985 251C398.785 251.1 402.785 251.6 405.885 254.1C408.185 255.8 409.085 258.9 408.885 261.6C408.585 265.5 406.685 269 404.685 272.3C402.285 276 399.585 279.5 396.485 282.6C394.785 284.5 392.685 286 390.885 287.8C390.885 288 390.985 288.3 391.085 288.4C384.485 288.4 377.885 288.4 371.285 288.4C371.985 279.8 374.485 271.3 378.485 263.6C379.885 260.7 381.885 258.2 383.485 255.5C383.085 255.6 382.685 255.8 382.285 255.9C381.885 256.9 381.385 257.9 380.785 258.7C376.085 264.7 373.285 272.1 371.585 279.5C370.985 282.4 370.485 285.4 370.385 288.4C366.185 288.5 361.885 288.4 357.685 288.4C357.185 277.3 357.485 266.2 357.185 255.1C357.285 255.1 357.385 255.1 357.385 255.1C357.585 255.8 357.585 256.7 358.285 257.1C360.185 258.6 361.385 260.9 363.685 261.7C366.085 260.9 368.085 258.8 370.485 257.6Z" fill="#C4FBF3"/>
<path d="M132.985 288.8C133.185 288.7 133.485 288.5 133.585 288.4C136.785 288.4 139.885 288.3 143.085 288.6C141.185 289 139.185 288.7 137.285 289.2C137.185 289.4 136.885 289.8 136.685 290C135.385 289.6 134.085 289.3 132.785 288.9L132.985 288.8Z" fill="#C4FBF3"/>
<path d="M94.4853 256.7C95.2853 256.7 96.0853 256.8 96.8853 256.9C99.7853 257.3 102.785 257.3 105.585 257.9C101.385 268 96.8853 278 92.5853 288.1C94.0853 288.6 95.6853 289.1 97.2853 289.4C97.9853 289.9 98.3853 290.6 98.7853 291.2C95.7853 291.5 92.6853 291.3 89.6853 291.4C89.6853 290.4 89.5853 289.4 89.6853 288.4C89.6853 288.1 89.7853 287.5 89.8853 287.2C89.6853 287.2 89.1853 287.1 88.8853 287C90.7853 276.9 92.6853 266.8 94.4853 256.7Z" fill="#151B62"/>
<path d="M105.585 257.9C106.685 257.8 107.785 257.8 108.785 257.8C108.685 262.7 108.785 267.7 108.785 272.6C108.785 274.9 108.685 277.3 109.385 279.5C110.385 282.5 112.585 285.2 115.385 286.7C117.585 287.8 120.085 288 122.585 288.3C115.085 288.8 107.585 288.4 100.085 288.6C99.0852 288.6 98.0852 289 97.1852 289.4C95.5852 289.1 93.9852 288.7 92.4852 288.1C96.8852 278 101.385 268 105.585 257.9Z" fill="#FCFDFD"/>
<path d="M330.685 267.8C330.785 268 330.985 268.3 331.085 268.4C330.685 271 330.185 273.5 329.585 276C329.285 273.3 330.285 270.6 330.685 267.8Z" fill="#D4B75B"/>
<path d="M326.185 285.1C327.885 285 329.585 284.9 331.185 284.7C331.085 285.9 331.085 287.1 331.085 288.3C328.685 288.2 326.285 288.2 323.985 287.9C324.685 287 325.385 286 326.185 285.1Z" fill="#18136F"/>
<path d="M331.285 284.7C331.285 285.9 331.385 287.1 331.385 288.2C338.485 288.3 345.485 288.3 352.585 288.3C352.985 288.7 353.385 289 353.785 289.4C351.985 289.9 350.185 290.2 348.585 291.1C348.085 291.3 347.885 291.7 348.185 292.3C351.085 293.1 354.085 292.6 356.985 292.7C356.985 291.4 356.885 290.2 356.785 288.9V288.6C356.985 288.6 357.485 288.5 357.685 288.4C361.885 288.4 366.185 288.4 370.385 288.4C370.585 288.4 371.085 288.4 371.385 288.4C377.985 288.5 384.585 288.4 391.185 288.4C394.785 288.6 398.785 287.6 401.885 289.8C405.285 292.1 405.585 297.6 402.585 300.4C400.785 302.3 397.985 302.3 395.485 302.4C384.285 302.6 373.085 302.4 361.885 302.4C358.085 302.1 354.285 302.4 350.485 302.3C285.585 302.1 220.685 302.2 155.785 302.2C141.085 302.5 126.385 302.1 111.685 302.3C103.985 302.2 96.1852 302.1 88.4852 302.2C84.1852 302.6 79.9852 302 75.6852 302.3C71.6852 302.5 67.7852 302.1 63.7852 302.1C60.9852 302.3 58.0852 300.9 56.7852 298.3C55.1852 295.3 56.0852 291.2 58.9852 289.4C61.3852 287.8 64.3852 288.3 67.0852 288.2C74.5852 288.1 82.1852 288.4 89.6852 288.1C89.6852 289.1 89.6852 290.1 89.6852 291.1C92.6852 290.9 95.7852 291.1 98.7852 290.9C98.3852 290.2 97.9852 289.5 97.2852 289.1C98.1852 288.7 99.1852 288.3 100.185 288.3C107.685 288 115.185 288.5 122.685 288C124.785 288.1 126.785 288.2 128.885 288.1C128.985 289.2 129.085 290.4 129.085 291.5C131.985 291.5 134.885 291.6 137.785 291.4C137.385 290.9 137.085 290.3 136.685 289.8C136.785 289.6 137.085 289.2 137.285 289C139.185 288.5 141.185 288.8 143.085 288.4H143.385C147.585 288.7 151.885 288.6 156.085 288.6C159.585 288.5 163.285 288.9 166.685 287.9C169.085 290.2 172.085 292.2 175.485 292.3C180.885 292.5 186.285 292.4 191.685 292.4C232.085 292.5 272.485 292.4 312.885 292.4C317.085 292.6 321.185 290.7 323.985 287.6C326.385 287.8 328.785 287.9 331.085 288C331.085 287.1 331.185 285.9 331.285 284.7Z" fill="#99EDDB"/>
<path d="M353.785 289.4C354.785 289.2 355.685 289 356.685 288.9C356.785 290.2 356.885 291.4 356.885 292.7C353.985 292.5 350.985 293.1 348.085 292.3C347.885 291.8 347.985 291.4 348.485 291.1C350.185 290.2 351.985 289.9 353.785 289.4Z" fill="#1D176B"/>
<path d="M81.5739 329.117C81.446 328.037 80.9276 327.199 80.0185 326.603C79.1094 326.006 77.9943 325.708 76.6733 325.708C75.7074 325.708 74.8622 325.864 74.1378 326.176C73.4205 326.489 72.8594 326.919 72.4545 327.466C72.0568 328.012 71.858 328.634 71.858 329.33C71.858 329.912 71.9964 330.413 72.2734 330.832C72.5575 331.244 72.9197 331.588 73.3601 331.865C73.8004 332.135 74.2621 332.359 74.745 332.537C75.228 332.707 75.6719 332.846 76.0767 332.952L78.2926 333.549C78.8608 333.698 79.4929 333.904 80.1889 334.167C80.892 334.429 81.5632 334.788 82.2024 335.243C82.8487 335.69 83.3814 336.265 83.8004 336.968C84.2195 337.672 84.429 338.534 84.429 339.557C84.429 340.736 84.12 341.801 83.5021 342.753C82.8913 343.705 81.9964 344.461 80.8175 345.022C79.6456 345.583 78.2216 345.864 76.5455 345.864C74.983 345.864 73.63 345.612 72.4865 345.108C71.3501 344.603 70.4553 343.9 69.8018 342.998C69.1555 342.096 68.7898 341.049 68.7045 339.855H71.4318C71.5028 340.679 71.7798 341.361 72.2628 341.901C72.7528 342.434 73.3707 342.831 74.1165 343.094C74.8693 343.35 75.679 343.478 76.5455 343.478C77.554 343.478 78.4595 343.314 79.2621 342.988C80.0646 342.654 80.7003 342.192 81.169 341.603C81.6378 341.006 81.8722 340.31 81.8722 339.515C81.8722 338.79 81.6697 338.201 81.2649 337.746C80.8601 337.292 80.3274 336.922 79.6669 336.638C79.0064 336.354 78.2926 336.105 77.5256 335.892L74.8409 335.125C73.1364 334.635 71.7869 333.936 70.7926 333.027C69.7983 332.118 69.3011 330.928 69.3011 329.458C69.3011 328.236 69.6314 327.171 70.2919 326.262C70.9595 325.346 71.8544 324.635 72.9766 324.131C74.1058 323.62 75.3665 323.364 76.7585 323.364C78.1648 323.364 79.4148 323.616 80.5085 324.12C81.6023 324.618 82.4688 325.299 83.108 326.166C83.7543 327.032 84.0952 328.016 84.1307 329.117H81.5739ZM95.0797 345.821C93.6025 345.821 92.3063 345.47 91.1912 344.767C90.0833 344.064 89.2168 343.08 88.5918 341.816C87.9739 340.551 87.665 339.074 87.665 337.384C87.665 335.679 87.9739 334.191 88.5918 332.92C89.2168 331.649 90.0833 330.662 91.1912 329.958C92.3063 329.255 93.6025 328.904 95.0797 328.904C96.557 328.904 97.8496 329.255 98.9576 329.958C100.073 330.662 100.939 331.649 101.557 332.92C102.182 334.191 102.494 335.679 102.494 337.384C102.494 339.074 102.182 340.551 101.557 341.816C100.939 343.08 100.073 344.064 98.9576 344.767C97.8496 345.47 96.557 345.821 95.0797 345.821ZM95.0797 343.563C96.2019 343.563 97.1252 343.275 97.8496 342.7C98.574 342.125 99.1103 341.368 99.4583 340.431C99.8063 339.493 99.9803 338.478 99.9803 337.384C99.9803 336.29 99.8063 335.271 99.4583 334.326C99.1103 333.382 98.574 332.618 97.8496 332.036C97.1252 331.453 96.2019 331.162 95.0797 331.162C93.9576 331.162 93.0343 331.453 92.3098 332.036C91.5854 332.618 91.0492 333.382 90.7012 334.326C90.3532 335.271 90.1792 336.29 90.1792 337.384C90.1792 338.478 90.3532 339.493 90.7012 340.431C91.0492 341.368 91.5854 342.125 92.3098 342.7C93.0343 343.275 93.9576 343.563 95.0797 343.563ZM106.332 345.48V329.117H108.761V331.588H108.932C109.23 330.779 109.77 330.122 110.551 329.618C111.332 329.113 112.213 328.861 113.193 328.861C113.378 328.861 113.609 328.865 113.886 328.872C114.163 328.879 114.372 328.89 114.514 328.904V331.461C114.429 331.439 114.234 331.407 113.928 331.365C113.63 331.315 113.314 331.29 112.98 331.29C112.185 331.29 111.474 331.457 110.849 331.791C110.232 332.118 109.741 332.572 109.379 333.154C109.024 333.73 108.847 334.387 108.847 335.125V345.48H106.332ZM117.494 345.48V329.117H119.923V331.588H120.094C120.392 330.779 120.932 330.122 121.713 329.618C122.494 329.113 123.375 328.861 124.355 328.861C124.54 328.861 124.771 328.865 125.048 328.872C125.325 328.879 125.534 328.89 125.676 328.904V331.461C125.591 331.439 125.396 331.407 125.09 331.365C124.792 331.315 124.476 331.29 124.142 331.29C123.347 331.29 122.637 331.457 122.012 331.791C121.394 332.118 120.904 332.572 120.541 333.154C120.186 333.73 120.009 334.387 120.009 335.125V345.48H117.494ZM130.774 351.617C130.348 351.617 129.968 351.581 129.634 351.51C129.3 351.446 129.069 351.382 128.942 351.319L129.581 349.103C130.192 349.259 130.731 349.316 131.2 349.273C131.669 349.23 132.084 349.021 132.447 348.645C132.816 348.275 133.153 347.675 133.459 346.844L133.927 345.566L127.876 329.117H130.604L135.121 342.157H135.291L139.808 329.117H142.535L135.589 347.867C135.277 348.712 134.89 349.412 134.428 349.966C133.966 350.527 133.43 350.942 132.819 351.212C132.216 351.482 131.534 351.617 130.774 351.617ZM149.178 323.662L148.965 339.344H146.493L146.28 323.662H149.178ZM147.729 345.651C147.203 345.651 146.752 345.463 146.376 345.086C145.999 344.71 145.811 344.259 145.811 343.733C145.811 343.208 145.999 342.757 146.376 342.38C146.752 342.004 147.203 341.816 147.729 341.816C148.254 341.816 148.705 342.004 149.082 342.38C149.458 342.757 149.646 343.208 149.646 343.733C149.646 344.081 149.558 344.401 149.38 344.692C149.21 344.983 148.979 345.218 148.688 345.395C148.404 345.566 148.084 345.651 147.729 345.651ZM165.155 335.637V345.48H162.641V329.117H165.07V331.674H165.283C165.667 330.843 166.249 330.175 167.03 329.671C167.811 329.159 168.82 328.904 170.056 328.904C171.164 328.904 172.133 329.131 172.964 329.586C173.795 330.033 174.441 330.715 174.903 331.631C175.365 332.54 175.596 333.691 175.596 335.083V345.48H173.081V335.253C173.081 333.968 172.748 332.966 172.08 332.249C171.412 331.525 170.496 331.162 169.331 331.162C168.529 331.162 167.811 331.336 167.179 331.684C166.554 332.032 166.061 332.54 165.699 333.208C165.336 333.875 165.155 334.685 165.155 335.637ZM186.838 345.821C185.36 345.821 184.064 345.47 182.949 344.767C181.841 344.064 180.975 343.08 180.35 341.816C179.732 340.551 179.423 339.074 179.423 337.384C179.423 335.679 179.732 334.191 180.35 332.92C180.975 331.649 181.841 330.662 182.949 329.958C184.064 329.255 185.36 328.904 186.838 328.904C188.315 328.904 189.607 329.255 190.715 329.958C191.83 330.662 192.697 331.649 193.315 332.92C193.94 334.191 194.252 335.679 194.252 337.384C194.252 339.074 193.94 340.551 193.315 341.816C192.697 343.08 191.83 344.064 190.715 344.767C189.607 345.47 188.315 345.821 186.838 345.821ZM186.838 343.563C187.96 343.563 188.883 343.275 189.607 342.7C190.332 342.125 190.868 341.368 191.216 340.431C191.564 339.493 191.738 338.478 191.738 337.384C191.738 336.29 191.564 335.271 191.216 334.326C190.868 333.382 190.332 332.618 189.607 332.036C188.883 331.453 187.96 331.162 186.838 331.162C185.715 331.162 184.792 331.453 184.068 332.036C183.343 332.618 182.807 333.382 182.459 334.326C182.111 335.271 181.937 336.29 181.937 337.384C181.937 338.478 182.111 339.493 182.459 340.431C182.807 341.368 183.343 342.125 184.068 342.7C184.792 343.275 185.715 343.563 186.838 343.563ZM206.528 345.48V329.117H208.957V331.588H209.127C209.425 330.779 209.965 330.122 210.746 329.618C211.528 329.113 212.408 328.861 213.388 328.861C213.573 328.861 213.804 328.865 214.081 328.872C214.358 328.879 214.567 328.89 214.71 328.904V331.461C214.624 331.439 214.429 331.407 214.124 331.365C213.825 331.315 213.509 331.29 213.175 331.29C212.38 331.29 211.67 331.457 211.045 331.791C210.427 332.118 209.937 332.572 209.575 333.154C209.219 333.73 209.042 334.387 209.042 335.125V345.48H206.528ZM224.053 345.821C222.476 345.821 221.116 345.473 219.972 344.777C218.836 344.074 217.959 343.094 217.341 341.837C216.73 340.573 216.425 339.103 216.425 337.426C216.425 335.75 216.73 334.273 217.341 332.995C217.959 331.709 218.818 330.708 219.919 329.99C221.027 329.266 222.32 328.904 223.797 328.904C224.649 328.904 225.491 329.046 226.322 329.33C227.153 329.614 227.909 330.076 228.591 330.715C229.273 331.347 229.816 332.185 230.221 333.229C230.626 334.273 230.828 335.559 230.828 337.086V338.151H218.214V335.978H228.271C228.271 335.054 228.087 334.23 227.717 333.506C227.355 332.782 226.837 332.21 226.162 331.791C225.494 331.372 224.706 331.162 223.797 331.162C222.795 331.162 221.929 331.411 221.197 331.908C220.473 332.398 219.915 333.037 219.525 333.826C219.134 334.614 218.939 335.459 218.939 336.361V337.81C218.939 339.046 219.152 340.093 219.578 340.953C220.011 341.805 220.612 342.455 221.379 342.902C222.146 343.343 223.037 343.563 224.053 343.563C224.713 343.563 225.31 343.471 225.842 343.286C226.382 343.094 226.847 342.81 227.238 342.434C227.629 342.05 227.93 341.574 228.143 341.006L230.572 341.688C230.317 342.512 229.887 343.236 229.283 343.861C228.68 344.479 227.934 344.962 227.046 345.31C226.158 345.651 225.161 345.821 224.053 345.821ZM246.244 332.782L243.985 333.421C243.843 333.044 243.634 332.679 243.357 332.324C243.087 331.961 242.717 331.663 242.249 331.429C241.78 331.194 241.18 331.077 240.448 331.077C239.447 331.077 238.612 331.308 237.945 331.77C237.284 332.224 236.954 332.803 236.954 333.506C236.954 334.131 237.181 334.625 237.636 334.987C238.09 335.349 238.8 335.651 239.766 335.892L242.195 336.489C243.658 336.844 244.749 337.387 245.466 338.119C246.183 338.843 246.542 339.777 246.542 340.921C246.542 341.858 246.272 342.696 245.732 343.435C245.2 344.174 244.454 344.756 243.495 345.182C242.536 345.608 241.421 345.821 240.15 345.821C238.481 345.821 237.099 345.459 236.006 344.735C234.912 344.01 234.219 342.952 233.928 341.56L236.315 340.963C236.542 341.844 236.972 342.505 237.604 342.945C238.243 343.385 239.077 343.605 240.107 343.605C241.279 343.605 242.21 343.357 242.898 342.86C243.594 342.355 243.942 341.752 243.942 341.049C243.942 340.48 243.744 340.005 243.346 339.621C242.948 339.23 242.337 338.939 241.513 338.748L238.786 338.108C237.288 337.753 236.187 337.203 235.484 336.457C234.788 335.704 234.44 334.763 234.44 333.634C234.44 332.711 234.699 331.894 235.217 331.184C235.743 330.473 236.457 329.916 237.359 329.511C238.268 329.106 239.298 328.904 240.448 328.904C242.067 328.904 243.339 329.259 244.262 329.969C245.192 330.679 245.853 331.617 246.244 332.782ZM260.639 338.79V329.117H263.153V345.48H260.639V342.711H260.469C260.085 343.542 259.488 344.248 258.679 344.831C257.869 345.406 256.846 345.694 255.611 345.694C254.588 345.694 253.679 345.47 252.883 345.022C252.088 344.568 251.463 343.886 251.008 342.977C250.554 342.061 250.327 340.907 250.327 339.515V329.117H252.841V339.344C252.841 340.537 253.175 341.489 253.842 342.199C254.517 342.909 255.376 343.265 256.42 343.265C257.045 343.265 257.681 343.105 258.327 342.785C258.981 342.466 259.528 341.975 259.968 341.315C260.415 340.654 260.639 339.813 260.639 338.79ZM270.272 323.662V345.48H267.758V323.662H270.272ZM281.994 329.117V331.248H273.514V329.117H281.994ZM275.985 325.196H278.499V340.793C278.499 341.503 278.602 342.036 278.808 342.391C279.021 342.739 279.291 342.973 279.618 343.094C279.952 343.208 280.303 343.265 280.673 343.265C280.95 343.265 281.177 343.25 281.355 343.222C281.532 343.186 281.674 343.158 281.781 343.137L282.292 345.395C282.122 345.459 281.884 345.523 281.578 345.587C281.273 345.658 280.886 345.694 280.417 345.694C279.707 345.694 279.011 345.541 278.329 345.235C277.654 344.93 277.093 344.465 276.646 343.84C276.205 343.215 275.985 342.426 275.985 341.475V325.196ZM297.074 332.782L294.815 333.421C294.673 333.044 294.464 332.679 294.187 332.324C293.917 331.961 293.547 331.663 293.079 331.429C292.61 331.194 292.01 331.077 291.278 331.077C290.277 331.077 289.442 331.308 288.775 331.77C288.114 332.224 287.784 332.803 287.784 333.506C287.784 334.131 288.011 334.625 288.466 334.987C288.92 335.349 289.631 335.651 290.596 335.892L293.025 336.489C294.488 336.844 295.579 337.387 296.296 338.119C297.013 338.843 297.372 339.777 297.372 340.921C297.372 341.858 297.102 342.696 296.562 343.435C296.03 344.174 295.284 344.756 294.325 345.182C293.366 345.608 292.251 345.821 290.98 345.821C289.311 345.821 287.93 345.459 286.836 344.735C285.742 344.01 285.05 342.952 284.758 341.56L287.145 340.963C287.372 341.844 287.802 342.505 288.434 342.945C289.073 343.385 289.907 343.605 290.937 343.605C292.109 343.605 293.04 343.357 293.729 342.86C294.425 342.355 294.773 341.752 294.773 341.049C294.773 340.48 294.574 340.005 294.176 339.621C293.778 339.23 293.167 338.939 292.344 338.748L289.616 338.108C288.118 337.753 287.017 337.203 286.314 336.457C285.618 335.704 285.27 334.763 285.27 333.634C285.27 332.711 285.529 331.894 286.047 331.184C286.573 330.473 287.287 329.916 288.189 329.511C289.098 329.106 290.128 328.904 291.278 328.904C292.898 328.904 294.169 329.259 295.092 329.969C296.023 330.679 296.683 331.617 297.074 332.782ZM316.881 329.117V331.248H308.06V329.117H316.881ZM310.702 345.48V326.858C310.702 325.921 310.922 325.14 311.363 324.515C311.803 323.89 312.375 323.421 313.078 323.108C313.781 322.796 314.523 322.64 315.304 322.64C315.922 322.64 316.426 322.689 316.817 322.789C317.208 322.888 317.499 322.98 317.691 323.066L316.966 325.239C316.838 325.196 316.661 325.143 316.434 325.079C316.213 325.015 315.922 324.983 315.56 324.983C314.729 324.983 314.129 325.193 313.76 325.612C313.397 326.031 313.216 326.645 313.216 327.455V345.48H310.702ZM326.379 345.821C324.901 345.821 323.605 345.47 322.49 344.767C321.382 344.064 320.516 343.08 319.891 341.816C319.273 340.551 318.964 339.074 318.964 337.384C318.964 335.679 319.273 334.191 319.891 332.92C320.516 331.649 321.382 330.662 322.49 329.958C323.605 329.255 324.901 328.904 326.379 328.904C327.856 328.904 329.148 329.255 330.256 329.958C331.371 330.662 332.238 331.649 332.856 332.92C333.481 334.191 333.793 335.679 333.793 337.384C333.793 339.074 333.481 340.551 332.856 341.816C332.238 343.08 331.371 344.064 330.256 344.767C329.148 345.47 327.856 345.821 326.379 345.821ZM326.379 343.563C327.501 343.563 328.424 343.275 329.148 342.7C329.873 342.125 330.409 341.368 330.757 340.431C331.105 339.493 331.279 338.478 331.279 337.384C331.279 336.29 331.105 335.271 330.757 334.326C330.409 333.382 329.873 332.618 329.148 332.036C328.424 331.453 327.501 331.162 326.379 331.162C325.256 331.162 324.333 331.453 323.609 332.036C322.884 332.618 322.348 333.382 322 334.326C321.652 335.271 321.478 336.29 321.478 337.384C321.478 338.478 321.652 339.493 322 340.431C322.348 341.368 322.884 342.125 323.609 342.7C324.333 343.275 325.256 343.563 326.379 343.563ZM347.944 338.79V329.117H350.458V345.48H347.944V342.711H347.773C347.39 343.542 346.793 344.248 345.983 344.831C345.174 345.406 344.151 345.694 342.915 345.694C341.893 345.694 340.983 345.47 340.188 345.022C339.393 344.568 338.768 343.886 338.313 342.977C337.858 342.061 337.631 340.907 337.631 339.515V329.117H340.145V339.344C340.145 340.537 340.479 341.489 341.147 342.199C341.822 342.909 342.681 343.265 343.725 343.265C344.35 343.265 344.986 343.105 345.632 342.785C346.285 342.466 346.832 341.975 347.273 341.315C347.72 340.654 347.944 339.813 347.944 338.79ZM357.577 335.637V345.48H355.063V329.117H357.492V331.674H357.705C358.088 330.843 358.671 330.175 359.452 329.671C360.233 329.159 361.242 328.904 362.478 328.904C363.586 328.904 364.555 329.131 365.386 329.586C366.217 330.033 366.863 330.715 367.325 331.631C367.787 332.54 368.017 333.691 368.017 335.083V345.48H365.503V335.253C365.503 333.968 365.169 332.966 364.502 332.249C363.834 331.525 362.918 331.162 361.753 331.162C360.951 331.162 360.233 331.336 359.601 331.684C358.976 332.032 358.483 332.54 358.12 333.208C357.758 333.875 357.577 334.685 357.577 335.637ZM378.791 345.821C377.427 345.821 376.223 345.477 375.179 344.788C374.135 344.092 373.318 343.112 372.729 341.848C372.139 340.576 371.845 339.074 371.845 337.341C371.845 335.623 372.139 334.131 372.729 332.867C373.318 331.603 374.139 330.626 375.19 329.937C376.241 329.248 377.455 328.904 378.833 328.904C379.899 328.904 380.74 329.081 381.358 329.436C381.983 329.784 382.459 330.182 382.786 330.63C383.119 331.07 383.379 331.432 383.563 331.716H383.776V323.662H386.291V345.48H383.862V342.966H383.563C383.379 343.265 383.116 343.641 382.775 344.096C382.434 344.543 381.948 344.944 381.316 345.299C380.683 345.647 379.842 345.821 378.791 345.821ZM379.132 343.563C380.14 343.563 380.992 343.3 381.688 342.775C382.384 342.242 382.914 341.507 383.276 340.569C383.638 339.625 383.819 338.534 383.819 337.299C383.819 336.077 383.642 335.008 383.286 334.092C382.931 333.169 382.406 332.451 381.71 331.94C381.014 331.422 380.154 331.162 379.132 331.162C378.066 331.162 377.178 331.436 376.468 331.983C375.765 332.522 375.236 333.257 374.881 334.188C374.533 335.111 374.359 336.148 374.359 337.299C374.359 338.463 374.536 339.522 374.892 340.473C375.254 341.418 375.786 342.171 376.49 342.732C377.2 343.286 378.08 343.563 379.132 343.563ZM393.077 345.651C392.551 345.651 392.1 345.463 391.724 345.086C391.347 344.71 391.159 344.259 391.159 343.733C391.159 343.208 391.347 342.757 391.724 342.38C392.1 342.004 392.551 341.816 393.077 341.816C393.602 341.816 394.053 342.004 394.43 342.38C394.806 342.757 394.994 343.208 394.994 343.733C394.994 344.081 394.906 344.401 394.728 344.692C394.558 344.983 394.327 345.218 394.036 345.395C393.752 345.566 393.432 345.651 393.077 345.651Z" fill="black"/>
<path d="M84 375.5V362.7H89.3C89.9 362.7 90.4 362.8 90.8 363C91.3 363.2 91.7 363.5 92 363.9C92.3 364.3 92.6 364.7 92.8 365.2C93 365.7 93.1 366.2 93.1 366.6C93.1 367.3 92.9 368 92.6 368.6C92.3 369.2 91.9 369.7 91.3 370.1C90.7 370.5 90.1 370.7 89.4 370.7H85.3V375.4H84V375.5ZM85.3 369.7H89.4C89.9 369.7 90.3 369.6 90.7 369.3C91.1 369 91.4 368.7 91.6 368.2C91.8 367.8 91.9 367.3 91.9 366.8C91.9 366.3 91.8 365.8 91.5 365.3C91.3 364.9 90.9 364.5 90.6 364.2C90.2 363.9 89.8 363.8 89.3 363.8H85.3V369.7Z" fill="black"/>
<path d="M95.7 362.399H97V373.499C97 373.999 97.1 374.299 97.3 374.399C97.5 374.499 97.7 374.599 97.9 374.599C98.1 374.599 98.3 374.599 98.5 374.499C98.7 374.399 98.9 374.399 99.1 374.399L99.3 375.399C99.1 375.499 98.8 375.599 98.5 375.599C98.2 375.699 97.9 375.699 97.6 375.699C97 375.699 96.6 375.499 96.3 375.199C96 374.899 95.8 374.399 95.8 373.899V362.399H95.7Z" fill="black"/>
<path d="M105.4 375.699C104.7 375.699 104.1 375.599 103.5 375.299C102.9 374.999 102.4 374.699 102 374.199C101.6 373.699 101.3 373.199 101 372.599C100.8 371.999 100.6 371.399 100.6 370.699C100.6 369.799 100.8 368.999 101.2 368.299C101.6 367.599 102.2 366.999 102.9 366.599C103.6 366.199 104.4 365.899 105.3 365.899C106.2 365.899 107 366.099 107.7 366.599C108.4 366.999 108.9 367.599 109.3 368.299C109.7 368.999 109.9 369.799 109.9 370.699C109.9 370.799 109.9 370.899 109.9 370.999C109.9 371.099 109.9 371.199 109.9 371.199H101.9C102 371.899 102.1 372.499 102.5 372.999C102.8 373.499 103.2 373.899 103.7 374.199C104.2 374.499 104.8 374.699 105.4 374.699C106 374.699 106.6 374.499 107.1 374.199C107.6 373.899 108 373.499 108.2 372.999L109.3 373.299C109.1 373.699 108.8 374.099 108.4 374.499C108 374.899 107.5 375.099 107 375.299C106.5 375.499 106 375.699 105.4 375.699ZM101.9 370.399H108.8C108.8 369.699 108.6 369.099 108.3 368.599C108 368.099 107.6 367.699 107.1 367.399C106.6 367.099 106 366.999 105.4 366.999C104.8 366.999 104.2 367.099 103.7 367.399C103.2 367.699 102.8 368.099 102.5 368.599C102.1 369.199 101.9 369.799 101.9 370.399Z" fill="black"/>
<path d="M111.8 372.9C111.8 372.3 112 371.8 112.3 371.4C112.6 371 113.1 370.6 113.7 370.4C114.3 370.2 115 370.1 115.8 370.1C116.3 370.1 116.7 370.1 117.2 370.2C117.7 370.3 118.1 370.4 118.5 370.5V369.7C118.5 368.9 118.3 368.3 117.8 367.8C117.3 367.3 116.7 367.1 115.9 367.1C115.4 367.1 114.9 367.2 114.4 367.4C113.9 367.6 113.4 367.9 112.9 368.2L112.4 367.3C113 366.9 113.6 366.6 114.2 366.4C114.8 366.2 115.4 366.1 116 366.1C117.2 366.1 118.1 366.4 118.7 367.1C119.4 367.8 119.7 368.7 119.7 369.8V374.1C119.7 374.3 119.7 374.4 119.8 374.5C119.9 374.6 120 374.6 120.1 374.6V375.6C120 375.6 119.9 375.6 119.8 375.6C119.7 375.6 119.6 375.6 119.6 375.6C119.3 375.6 119.1 375.5 118.9 375.3C118.7 375.1 118.7 374.9 118.6 374.7V374C118.2 374.5 117.6 375 117 375.3C116.4 375.6 115.6 375.7 114.9 375.7C114.3 375.7 113.8 375.6 113.3 375.3C112.8 375 112.4 374.7 112.2 374.3C112 373.9 111.8 373.4 111.8 372.9ZM118.1 373.6C118.2 373.4 118.3 373.3 118.4 373.1C118.5 372.9 118.5 372.8 118.5 372.7V371.3C118.1 371.1 117.7 371 117.2 370.9C116.8 370.8 116.3 370.8 115.9 370.8C115 370.8 114.3 371 113.8 371.3C113.3 371.6 113 372.1 113 372.7C113 373 113.1 373.4 113.3 373.7C113.5 374 113.7 374.3 114.1 374.5C114.4 374.7 114.9 374.8 115.3 374.8C115.9 374.8 116.4 374.7 116.9 374.5C117.4 374.2 117.8 373.9 118.1 373.6Z" fill="black"/>
<path d="M126.2 375.7C125.4 375.7 124.7 375.6 124.1 375.3C123.4 375 122.9 374.7 122.4 374.1L122.9 373.2C123.4 373.7 124 374 124.5 374.3C125 374.5 125.6 374.6 126.2 374.6C126.9 374.6 127.5 374.5 128 374.2C128.5 373.9 128.7 373.5 128.7 372.9C128.7 372.5 128.6 372.2 128.4 372C128.2 371.8 127.9 371.6 127.4 371.5C127 371.4 126.5 371.2 125.9 371.1C125.3 370.9 124.7 370.7 124.3 370.5C123.9 370.3 123.5 370.1 123.3 369.7C123.1 369.4 123 369 123 368.5C123 367.9 123.2 367.4 123.5 367C123.8 366.6 124.2 366.3 124.8 366.1C125.3 365.9 125.9 365.8 126.6 365.8C127.3 365.8 128 365.9 128.5 366.1C129.1 366.3 129.5 366.6 129.8 367.1L129.2 367.9C128.9 367.5 128.5 367.2 128 367C127.5 366.8 127 366.7 126.5 366.7C126.1 366.7 125.7 366.8 125.4 366.9C125.1 367 124.8 367.2 124.5 367.4C124.2 367.6 124.2 368 124.2 368.4C124.2 368.7 124.3 369 124.5 369.2C124.7 369.4 124.9 369.5 125.3 369.7C125.7 369.9 126.1 370 126.5 370.1C127.2 370.3 127.8 370.5 128.4 370.7C128.9 370.9 129.3 371.2 129.6 371.5C129.9 371.8 130 372.2 130 372.8C130 373.7 129.7 374.4 129 374.8C128.1 375.5 127.3 375.7 126.2 375.7Z" fill="black"/>
<path d="M136.6 375.699C135.9 375.699 135.3 375.599 134.7 375.299C134.1 374.999 133.6 374.699 133.2 374.199C132.8 373.699 132.5 373.199 132.2 372.599C132 371.999 131.8 371.399 131.8 370.699C131.8 369.799 132 368.999 132.4 368.299C132.8 367.599 133.4 366.999 134.1 366.599C134.8 366.199 135.6 365.899 136.5 365.899C137.4 365.899 138.2 366.099 138.9 366.599C139.6 366.999 140.1 367.599 140.5 368.299C140.9 368.999 141.1 369.799 141.1 370.699C141.1 370.799 141.1 370.899 141.1 370.999C141.1 371.099 141.1 371.199 141.1 371.199H133.1C133.2 371.899 133.3 372.499 133.7 372.999C134 373.499 134.4 373.899 134.9 374.199C135.4 374.499 136 374.699 136.6 374.699C137.2 374.699 137.8 374.499 138.3 374.199C138.8 373.899 139.2 373.499 139.4 372.999L140.5 373.299C140.3 373.699 140 374.099 139.6 374.499C139.2 374.899 138.7 375.099 138.2 375.299C137.7 375.499 137.2 375.699 136.6 375.699ZM133.1 370.399H140C140 369.699 139.8 369.099 139.5 368.599C139.2 368.099 138.8 367.699 138.3 367.399C137.8 367.099 137.2 366.999 136.6 366.999C136 366.999 135.4 367.099 134.9 367.399C134.4 367.699 134 368.099 133.7 368.599C133.4 369.199 133.2 369.799 133.1 370.399Z" fill="black"/>
<path d="M148.4 372.9C148.4 372.3 148.6 371.8 148.9 371.4C149.2 371 149.7 370.6 150.3 370.4C150.9 370.2 151.6 370.1 152.4 370.1C152.9 370.1 153.3 370.1 153.8 370.2C154.3 370.3 154.7 370.4 155.1 370.5V369.7C155.1 368.9 154.9 368.3 154.4 367.8C153.9 367.3 153.3 367.1 152.5 367.1C152 367.1 151.5 367.2 151 367.4C150.5 367.6 150 367.9 149.5 368.2L149 367.3C149.6 366.9 150.2 366.6 150.8 366.4C151.4 366.2 152 366.1 152.6 366.1C153.8 366.1 154.7 366.4 155.3 367.1C156 367.8 156.3 368.7 156.3 369.8V374.1C156.3 374.3 156.3 374.4 156.4 374.5C156.5 374.6 156.6 374.6 156.7 374.6V375.6C156.6 375.6 156.5 375.6 156.4 375.6C156.3 375.6 156.2 375.6 156.2 375.6C155.9 375.6 155.7 375.5 155.5 375.3C155.3 375.1 155.3 374.9 155.2 374.7V374C154.8 374.5 154.2 375 153.6 375.3C152.9 375.6 152.2 375.7 151.5 375.7C150.9 375.7 150.4 375.6 149.9 375.3C149.4 375 149 374.7 148.8 374.3C148.5 373.9 148.4 373.4 148.4 372.9ZM154.7 373.6C154.8 373.4 154.9 373.3 155 373.1C155.1 372.9 155.1 372.8 155.1 372.7V371.3C154.7 371.1 154.3 371 153.8 370.9C153.4 370.8 152.9 370.8 152.5 370.8C151.6 370.8 150.9 371 150.4 371.3C149.9 371.6 149.6 372.1 149.6 372.7C149.6 373 149.7 373.4 149.9 373.7C150.1 374 150.3 374.3 150.7 374.5C151.1 374.7 151.5 374.8 151.9 374.8C152.5 374.8 153 374.7 153.5 374.5C154 374.3 154.4 373.9 154.7 373.6Z" fill="black"/>
<path d="M159 370.9C159 370 159.2 369.2 159.5 368.5C159.9 367.8 160.4 367.2 161 366.7C161.6 366.3 162.4 366 163.2 366C164 366 164.7 366.2 165.3 366.6C165.9 367 166.4 367.5 166.7 368.1V362.3H167.9V374C167.9 374.2 167.9 374.3 168 374.4C168.1 374.5 168.2 374.5 168.3 374.5V375.5C168.1 375.5 167.9 375.5 167.7 375.5C167.4 375.5 167.2 375.4 167 375.2C166.8 375 166.7 374.8 166.7 374.6V373.7C166.3 374.3 165.8 374.8 165.2 375.2C164.6 375.6 163.9 375.7 163.2 375.7C162.6 375.7 162 375.6 161.4 375.3C160.9 375 160.4 374.7 160 374.2C159.6 373.7 159.3 373.2 159.1 372.7C158.9 372.2 159 371.5 159 370.9ZM166.9 372.3V369.4C166.7 369 166.5 368.6 166.1 368.2C165.8 367.8 165.4 367.6 164.9 367.4C164.5 367.2 164 367.1 163.6 367.1C163.1 367.1 162.6 367.2 162.2 367.4C161.8 367.6 161.4 367.9 161.1 368.2C160.8 368.5 160.6 369 160.4 369.4C160.2 369.9 160.2 370.3 160.2 370.8C160.2 371.3 160.3 371.8 160.5 372.2C160.7 372.7 160.9 373.1 161.2 373.4C161.5 373.8 161.9 374 162.3 374.2C162.7 374.4 163.2 374.5 163.7 374.5C164 374.5 164.3 374.4 164.7 374.3C165 374.2 165.4 374 165.7 373.8C166 373.6 166.3 373.3 166.5 373.1C166.7 372.9 166.8 372.6 166.9 372.3Z" fill="black"/>
<path d="M170.2 378.799C169.8 378.799 169.4 378.699 169.1 378.599C168.7 378.499 168.4 378.299 168.2 378.099L168.8 377.299C169 377.499 169.2 377.599 169.4 377.599C169.6 377.699 169.9 377.699 170.1 377.699C170.4 377.699 170.7 377.599 170.9 377.499C171.2 377.399 171.4 377.199 171.5 376.899C171.7 376.599 171.7 376.399 171.7 375.999V366.199H172.9V375.999C172.9 376.599 172.8 376.999 172.5 377.499C172.2 377.999 171.9 378.299 171.5 378.499C171.1 378.699 170.6 378.799 170.2 378.799ZM171.7 364.199V362.399H172.9V364.199H171.7Z" fill="black"/>
<path d="M176.3 371.7V366.2H177.5V371.5C177.5 372.6 177.7 373.4 178 373.9C178.3 374.4 178.9 374.7 179.6 374.7C180.1 374.7 180.5 374.6 181 374.4C181.4 374.2 181.8 373.9 182.2 373.5C182.5 373.1 182.8 372.7 183 372.1V366.2H184.2V374.1C184.2 374.3 184.2 374.4 184.3 374.5C184.4 374.6 184.5 374.6 184.6 374.6V375.6C184.5 375.6 184.3 375.6 184.3 375.6C184.2 375.6 184.1 375.6 184.1 375.6C183.9 375.6 183.7 375.5 183.5 375.3C183.3 375.1 183.2 374.9 183.2 374.7V373.4C182.8 374.1 182.2 374.7 181.5 375.1C180.8 375.5 180 375.7 179.2 375.7C178.2 375.7 177.5 375.4 177 374.7C176.5 374 176.3 373 176.3 371.7Z" fill="black"/>
<path d="M190.8 375.7C190 375.7 189.3 375.6 188.7 375.3C188 375 187.5 374.7 187 374.1L187.5 373.2C188 373.7 188.6 374 189.1 374.3C189.6 374.5 190.2 374.6 190.8 374.6C191.5 374.6 192.1 374.5 192.6 374.2C193.1 373.9 193.3 373.5 193.3 372.9C193.3 372.5 193.2 372.2 193 372C192.8 371.8 192.5 371.6 192 371.5C191.6 371.4 191.1 371.2 190.5 371.1C189.9 370.9 189.3 370.7 188.9 370.5C188.5 370.3 188.1 370.1 187.9 369.7C187.7 369.4 187.6 369 187.6 368.5C187.6 367.9 187.8 367.4 188.1 367C188.4 366.6 188.8 366.3 189.4 366.1C189.9 365.9 190.5 365.8 191.2 365.8C191.9 365.8 192.6 365.9 193.1 366.1C193.7 366.3 194.1 366.6 194.4 367.1L193.8 367.9C193.5 367.5 193.1 367.2 192.6 367C192.1 366.8 191.6 366.7 191.1 366.7C190.7 366.7 190.3 366.8 190 366.9C189.7 367 189.4 367.2 189.1 367.4C188.8 367.6 188.8 368 188.8 368.4C188.8 368.7 188.9 369 189.1 369.2C189.3 369.4 189.5 369.5 189.9 369.7C190.3 369.9 190.7 370 191.1 370.1C191.8 370.3 192.4 370.5 193 370.7C193.5 370.9 193.9 371.2 194.2 371.5C194.5 371.8 194.6 372.2 194.6 372.8C194.6 373.7 194.3 374.4 193.6 374.8C192.8 375.5 191.9 375.7 190.8 375.7Z" fill="black"/>
<path d="M201.7 375.2C201.6 375.2 201.5 375.3 201.2 375.4C201 375.5 200.8 375.6 200.5 375.7C200.2 375.8 199.9 375.799 199.6 375.799C199.3 375.799 198.9 375.7 198.6 375.6C198.3 375.5 198.1 375.3 197.9 375C197.7 374.7 197.6 374.4 197.6 374V367.299H196.3V366.299H197.6V363H198.8V366.2H201V367.2H198.8V373.6C198.8 373.9 198.9 374.2 199.2 374.4C199.4 374.6 199.7 374.7 200 374.7C200.3 374.7 200.6 374.6 200.9 374.5C201.2 374.4 201.3 374.299 201.4 374.299L201.7 375.2Z" fill="black"/>
<path d="M213.7 375.2C213.6 375.2 213.5 375.3 213.2 375.4C213 375.5 212.8 375.6 212.5 375.7C212.2 375.8 211.9 375.799 211.6 375.799C211.3 375.799 210.9 375.7 210.6 375.6C210.3 375.5 210.1 375.3 209.9 375C209.7 374.7 209.6 374.4 209.6 374V367.299H208.3V366.299H209.6V363H210.8V366.2H213V367.2H210.8V373.6C210.8 373.9 210.9 374.2 211.2 374.4C211.4 374.6 211.7 374.7 212 374.7C212.3 374.7 212.6 374.6 212.9 374.5C213.2 374.4 213.3 374.299 213.4 374.299L213.7 375.2Z" fill="black"/>
<path d="M223.9 375.5H222.7V370.3C222.7 369.3 222.5 368.5 222.1 367.9C221.7 367.3 221.2 367.1 220.5 367.1C220 367.1 219.6 367.2 219.1 367.4C218.6 367.6 218.3 367.9 217.9 368.3C217.6 368.7 217.3 369.2 217.2 369.7V375.4H216V362.3H217.2V368.2C217.6 367.5 218.1 367 218.8 366.5C219.5 366.1 220.2 365.9 220.9 365.9C221.4 365.9 221.9 366 222.3 366.2C222.7 366.4 223 366.7 223.2 367C223.4 367.4 223.6 367.8 223.7 368.3C223.8 368.8 223.9 369.3 223.9 369.9V375.5Z" fill="black"/>
<path d="M231.2 375.699C230.5 375.699 229.9 375.599 229.3 375.299C228.7 374.999 228.2 374.699 227.8 374.199C227.4 373.699 227.1 373.199 226.8 372.599C226.6 371.999 226.4 371.399 226.4 370.699C226.4 369.799 226.6 368.999 227 368.299C227.4 367.599 228 366.999 228.7 366.599C229.4 366.199 230.2 365.899 231.1 365.899C232 365.899 232.8 366.099 233.5 366.599C234.2 366.999 234.7 367.599 235.1 368.299C235.5 368.999 235.7 369.799 235.7 370.699C235.7 370.799 235.7 370.899 235.7 370.999C235.7 371.099 235.7 371.199 235.7 371.199H227.7C227.8 371.899 227.9 372.499 228.3 372.999C228.6 373.499 229 373.899 229.5 374.199C230 374.499 230.6 374.699 231.2 374.699C231.8 374.699 232.4 374.499 232.9 374.199C233.4 373.899 233.8 373.499 234 372.999L235.1 373.299C234.9 373.699 234.6 374.099 234.2 374.499C233.8 374.899 233.3 375.099 232.8 375.299C232.3 375.499 231.9 375.699 231.2 375.699ZM227.8 370.399H234.7C234.7 369.699 234.5 369.099 234.2 368.599C233.9 368.099 233.5 367.699 233 367.399C232.5 367.099 231.9 366.999 231.3 366.999C230.7 366.999 230.1 367.099 229.6 367.399C229.1 367.699 228.7 368.099 228.4 368.599C228 369.199 227.8 369.799 227.8 370.399Z" fill="black"/>
<path d="M244.2 367.1H242.9V366.1H244.2V365.8C244.2 365.4 244.3 364.9 244.4 364.5C244.5 364.1 244.7 363.7 245 363.3C245.3 362.9 245.6 362.7 246 362.4C246.4 362.1 246.9 362.1 247.5 362.1C247.9 362.1 248.3 362.1 248.7 362.2C249.1 362.3 249.4 362.4 249.6 362.5C249.9 362.6 250.1 362.8 250.2 362.9L249.6 363.8C249.4 363.6 249.1 363.5 248.7 363.3C248.3 363.1 247.9 363.1 247.5 363.1C247 363.1 246.6 363.2 246.3 363.5C246 363.8 245.7 364.1 245.6 364.5C245.4 364.9 245.4 365.3 245.4 365.7V366H250.1V375.4H248.9V367H245.4V375.4H244.2V367.1Z" fill="black"/>
<path d="M253.6 362.399H254.8V373.499C254.8 373.999 254.9 374.299 255.1 374.399C255.3 374.499 255.5 374.599 255.7 374.599C255.9 374.599 256.1 374.599 256.3 374.499C256.5 374.499 256.7 374.399 256.9 374.399L257.1 375.399C256.9 375.499 256.6 375.599 256.3 375.599C256 375.699 255.7 375.699 255.4 375.699C254.8 375.699 254.4 375.499 254.1 375.199C253.8 374.899 253.6 374.399 253.6 373.899V362.399Z" fill="black"/>
<path d="M263.7 375.2C263.6 375.2 263.5 375.3 263.2 375.4C263 375.5 262.8 375.6 262.5 375.7C262.2 375.8 261.9 375.799 261.6 375.799C261.3 375.799 260.9 375.7 260.6 375.6C260.3 375.5 260.1 375.3 259.9 375C259.7 374.7 259.6 374.4 259.6 374V367.299H258.3V366.299H259.6V363H260.8V366.2H263V367.2H260.8V373.6C260.8 373.9 260.9 374.2 261.2 374.4C261.4 374.6 261.7 374.7 262 374.7C262.3 374.7 262.6 374.6 262.9 374.5C263.2 374.4 263.3 374.299 263.4 374.299L263.7 375.2Z" fill="black"/>
<path d="M270 375.699C269.3 375.699 268.7 375.599 268.1 375.299C267.5 374.999 267 374.699 266.6 374.199C266.2 373.799 265.9 373.199 265.6 372.599C265.3 371.999 265.2 371.399 265.2 370.699C265.2 369.799 265.4 368.999 265.8 368.299C266.2 367.599 266.8 366.999 267.5 366.599C268.2 366.199 269 365.899 269.9 365.899C270.8 365.899 271.6 366.099 272.3 366.599C273 366.999 273.5 367.599 273.9 368.299C274.3 368.999 274.5 369.799 274.5 370.699C274.5 370.799 274.5 370.899 274.5 370.999C274.5 371.099 274.5 371.199 274.5 371.199H266.5C266.6 371.899 266.7 372.499 267.1 372.999C267.4 373.499 267.8 373.899 268.3 374.199C268.8 374.499 269.4 374.699 270 374.699C270.6 374.699 271.2 374.499 271.7 374.199C272.2 373.899 272.6 373.499 272.8 372.999L273.9 373.299C273.7 373.699 273.4 374.099 273 374.499C272.6 374.899 272.1 375.099 271.6 375.299C271.2 375.599 270.6 375.699 270 375.699ZM266.5 370.399H273.4C273.4 369.699 273.2 369.099 272.9 368.599C272.6 368.099 272.2 367.699 271.7 367.399C271.2 367.099 270.6 366.999 270 366.999C269.4 366.999 268.8 367.099 268.3 367.399C267.8 367.699 267.4 368.099 267.1 368.599C266.8 369.199 266.6 369.799 266.5 370.399Z" fill="black"/>
<path d="M281.9 367.2C281.1 367.2 280.4 367.5 279.7 367.9C279.1 368.3 278.6 368.9 278.4 369.7V375.5H277.2V366.2H278.4V368.4C278.7 367.7 279.2 367.2 279.7 366.8C280.2 366.4 280.8 366.2 281.4 366.1C281.5 366.1 281.6 366.1 281.7 366.1C281.8 366.1 281.9 366.1 281.9 366.1V367.2Z" fill="black"/>
<path d="M293.3 362.8L284.8 375.6H283.4L291.9 362.8H293.3Z" fill="black"/>
<path d="M302.6 375.499L299.1 370.699L297.1 372.599V375.499H295.9V362.399H297.1V371.299L302.4 366.199H303.8L300 369.999L304 375.499H302.6Z" fill="black"/>
<path d="M310.2 375.699C309.5 375.699 308.9 375.599 308.3 375.299C307.7 374.999 307.2 374.699 306.8 374.199C306.4 373.799 306.1 373.199 305.8 372.599C305.5 371.999 305.4 371.399 305.4 370.699C305.4 369.799 305.6 368.999 306 368.299C306.4 367.599 307 366.999 307.7 366.599C308.4 366.199 309.2 365.899 310.1 365.899C311 365.899 311.8 366.099 312.5 366.599C313.2 366.999 313.7 367.599 314.1 368.299C314.5 368.999 314.7 369.799 314.7 370.699C314.7 370.799 314.7 370.899 314.7 370.999C314.7 371.099 314.7 371.199 314.7 371.199H306.7C306.8 371.899 306.9 372.499 307.3 372.999C307.6 373.499 308 373.899 308.5 374.199C309 374.499 309.6 374.699 310.2 374.699C310.8 374.699 311.4 374.499 311.9 374.199C312.4 373.899 312.8 373.499 313 372.999L314.1 373.299C313.9 373.699 313.6 374.099 313.2 374.499C312.8 374.899 312.3 375.099 311.8 375.299C311.4 375.599 310.8 375.699 310.2 375.699ZM306.7 370.399H313.6C313.6 369.699 313.4 369.099 313.1 368.599C312.8 368.099 312.4 367.699 311.9 367.399C311.4 367.099 310.8 366.999 310.2 366.999C309.6 366.999 309 367.099 308.5 367.399C308 367.699 307.6 368.099 307.3 368.599C306.9 369.199 306.8 369.799 306.7 370.399Z" fill="black"/>
<path d="M317.9 378.4C318.1 378.4 318.2 378.4 318.4 378.4C318.6 378.4 318.7 378.4 318.7 378.4C318.8 378.4 319 378.3 319.1 378.1C319.2 377.9 319.4 377.7 319.6 377.3C319.8 376.9 320 376.3 320.4 375.5L316.3 366.1H317.6L321 374.2L324.2 366.1H325.4L320.5 378.2C320.4 378.4 320.3 378.6 320.1 378.8C319.9 379 319.7 379.2 319.5 379.3C319.3 379.4 319 379.5 318.6 379.5C318.5 379.5 318.4 379.5 318.3 379.5C318.2 379.5 318.1 379.5 317.9 379.5V378.4Z" fill="black"/>
<path d="M339.7 366.2H340.9L336.9 375.5H335.8L333.8 370.9L331.9 375.5H330.8L326.8 366.2H328L331.4 374.3L333.1 370.1L331.5 366.2H332.6L333.8 369.2L335 366.2H336.1L334.5 370.1L336.2 374.3L339.7 366.2Z" fill="black"/>
<path d="M347.2 375.7C346.5 375.7 345.9 375.599 345.3 375.299C344.7 374.999 344.2 374.7 343.8 374.2C343.4 373.7 343.1 373.2 342.8 372.7C342.6 372.1 342.5 371.5 342.5 370.9C342.5 370.2 342.6 369.6 342.8 369C343 368.4 343.4 367.9 343.8 367.5C344.2 367.1 344.7 366.7 345.3 366.4C345.9 366.1 346.5 366 347.2 366C347.9 366 348.5 366.1 349.1 366.4C349.7 366.7 350.2 367 350.6 367.5C351 368 351.3 368.5 351.6 369C351.8 369.6 351.9 370.2 351.9 370.9C351.9 371.5 351.8 372.2 351.6 372.7C351.4 373.3 351.1 373.8 350.6 374.2C350.1 374.6 349.7 374.999 349.1 375.299C348.5 375.599 347.9 375.7 347.2 375.7ZM343.8 370.9C343.8 371.6 344 372.199 344.3 372.799C344.6 373.399 345 373.8 345.5 374.1C346 374.4 346.6 374.6 347.2 374.6C347.8 374.6 348.4 374.4 348.9 374.1C349.4 373.8 349.8 373.3 350.1 372.7C350.4 372.1 350.6 371.499 350.6 370.799C350.6 370.099 350.4 369.5 350.1 368.9C349.8 368.3 349.4 367.9 348.9 367.5C348.4 367.2 347.8 367 347.2 367C346.6 367 346 367.2 345.5 367.5C345 367.8 344.6 368.3 344.3 368.9C344 369.6 343.8 370.2 343.8 370.9Z" fill="black"/>
<path d="M359.3 367.2C358.5 367.2 357.8 367.5 357.1 367.9C356.5 368.3 356 368.9 355.8 369.7V375.5H354.6V366.2H355.8V368.4C356.1 367.7 356.6 367.2 357.1 366.8C357.6 366.4 358.2 366.2 358.8 366.1C358.9 366.1 359 366.1 359.1 366.1C359.2 366.1 359.3 366.1 359.3 366.1V367.2Z" fill="black"/>
<path d="M361.1 370.9C361.1 370 361.3 369.2 361.6 368.5C362 367.8 362.5 367.2 363.1 366.7C363.7 366.3 364.5 366 365.3 366C366.1 366 366.8 366.2 367.4 366.6C368 367 368.5 367.5 368.8 368.1V362.3H370V374C370 374.2 370 374.3 370.1 374.4C370.2 374.5 370.3 374.5 370.4 374.5V375.5C370.2 375.5 370 375.5 369.8 375.5C369.5 375.5 369.3 375.4 369.1 375.2C368.9 375 368.8 374.8 368.8 374.6V373.7C368.4 374.3 367.9 374.8 367.3 375.2C366.7 375.6 366 375.7 365.3 375.7C364.7 375.7 364.1 375.6 363.5 375.3C363 375 362.5 374.7 362.1 374.2C361.7 373.7 361.4 373.2 361.2 372.7C361 372.2 361.1 371.5 361.1 370.9ZM368.9 372.3V369.4C368.7 369 368.5 368.6 368.1 368.2C367.8 367.8 367.4 367.6 366.9 367.4C366.5 367.2 366 367.1 365.6 367.1C365.1 367.1 364.6 367.2 364.2 367.4C363.8 367.6 363.4 367.9 363.1 368.2C362.8 368.5 362.6 369 362.4 369.4C362.2 369.9 362.2 370.3 362.2 370.8C362.2 371.3 362.3 371.8 362.5 372.2C362.7 372.7 362.9 373.1 363.2 373.4C363.5 373.8 363.9 374 364.3 374.2C364.7 374.4 365.2 374.5 365.7 374.5C366 374.5 366.3 374.4 366.7 374.3C367 374.2 367.4 374 367.7 373.8C368 373.6 368.3 373.3 368.5 373.1C368.7 372.9 368.9 372.6 368.9 372.3Z" fill="black"/>
<path d="M376.7 375.7C375.9 375.7 375.2 375.6 374.6 375.3C374 375 373.4 374.7 372.9 374.1L373.4 373.2C373.9 373.7 374.5 374 375 374.3C375.5 374.5 376.1 374.6 376.7 374.6C377.4 374.6 378 374.5 378.5 374.2C379 373.9 379.2 373.5 379.2 372.9C379.2 372.5 379.1 372.2 378.9 372C378.7 371.8 378.4 371.6 377.9 371.5C377.5 371.4 377 371.2 376.4 371.1C375.8 370.9 375.2 370.7 374.8 370.5C374.4 370.3 374 370.1 373.8 369.7C373.6 369.4 373.5 369 373.5 368.5C373.5 367.9 373.7 367.4 374 367C374.3 366.6 374.7 366.3 375.3 366.1C375.9 365.9 376.4 365.8 377.1 365.8C377.8 365.8 378.5 365.9 379 366.1C379.6 366.3 380 366.6 380.3 367.1L379.7 367.9C379.4 367.5 379 367.2 378.5 367C378 366.8 377.5 366.7 377 366.7C376.6 366.7 376.2 366.8 375.9 366.9C375.6 367 375.3 367.2 375 367.4C374.8 367.6 374.7 368 374.7 368.4C374.7 368.7 374.8 369 375 369.2C375.2 369.4 375.4 369.5 375.8 369.7C376.1 369.8 376.5 370 377 370.1C377.7 370.3 378.3 370.5 378.9 370.7C379.4 370.9 379.8 371.2 380.1 371.5C380.4 371.8 380.5 372.2 380.5 372.8C380.5 373.7 380.2 374.4 379.5 374.8C378.6 375.5 377.8 375.7 376.7 375.7Z" fill="black"/>
</svg>
