<svg width="437" height="277" viewBox="0 0 437 277" fill="none" xmlns="http://www.w3.org/2000/svg">
<path d="M35.2736 275.548C35.2736 275.548 -16.2661 216.709 5.25448 147.55C24.5704 85.4782 111.907 45.3053 158.313 76.0487C180.764 90.9205 198.901 31.1448 273.407 9.26384C328.506 -6.91873 409.979 29.3727 389.287 140.507C373.554 225.002 451.593 182.874 434.551 276.218L35.2736 275.548Z" fill="#DFF2F2"/>
<path d="M310.102 19.8948H126.899V277H310.102V19.8948Z" fill="#739AF0"/>
<path d="M303.668 27.0137H133.34V272.238H303.668V27.0137Z" fill="#DDEBFD"/>
<path d="M289.932 57.1035H150.88V65.0504H289.932V57.1035Z" fill="#A8C3F7"/>
<path d="M289.932 105.61H150.88V109.257H289.932V105.61Z" fill="#A8C3F7"/>
<path d="M289.932 114.189H150.88V117.835H289.932V114.189Z" fill="#A8C3F7"/>
<path d="M289.932 122.766H150.88V126.412H289.932V122.766Z" fill="#A8C3F7"/>
<path d="M289.932 131.344H150.88V134.991H289.932V131.344Z" fill="#A8C3F7"/>
<path d="M289.932 139.923H150.88V143.569H289.932V139.923Z" fill="#A8C3F7"/>
<path d="M289.932 148.5H150.88V152.146H289.932V148.5Z" fill="#A8C3F7"/>
<path d="M191.597 198.319C191.597 204.24 186.794 209.042 180.867 209.042C174.94 209.042 170.137 204.242 170.137 198.319C170.137 192.396 174.94 187.596 180.867 187.596C186.794 187.596 191.597 192.398 191.597 198.319Z" fill="#A8C3F7"/>
<path d="M236.52 208.628C236.489 208.628 236.461 208.626 236.43 208.62C236.138 208.571 235.94 208.294 235.991 208.002C236.091 207.413 238.533 193.541 246.232 188.819C246.78 188.483 247.125 188.658 247.28 188.792C247.955 189.369 247.441 190.843 245.124 196.399C244.2 198.612 243.105 201.238 242.654 202.834C243.474 201.759 244.702 199.919 245.677 198.458C248.722 193.89 249.315 193.144 249.909 193.144C250.129 193.144 250.327 193.246 250.451 193.425C250.776 193.89 250.531 194.664 249.689 196.941C249.366 197.813 248.873 199.151 248.73 199.868C249.167 199.475 249.809 198.637 250.196 198.133C251.251 196.762 251.787 196.105 252.415 196.205C252.546 196.226 252.868 196.32 253.023 196.745C253.086 196.921 253.117 197.121 253.148 197.332C253.231 197.883 253.325 198.504 253.986 198.877C255.322 199.632 259.174 199.587 269.933 195.105C270.206 194.991 270.52 195.121 270.634 195.394C270.748 195.667 270.618 195.981 270.344 196.095C261.261 199.88 255.736 201.095 253.458 199.813C252.348 199.189 252.183 198.142 252.087 197.51C251.781 197.832 251.357 198.384 251.045 198.79C249.88 200.306 249.116 201.217 248.334 201.152C248.096 201.132 247.894 201.009 247.765 200.808C247.392 200.221 247.757 199.065 248.679 196.572C248.826 196.173 248.995 195.714 249.144 195.288C248.4 196.305 247.388 197.824 246.568 199.053C243.158 204.169 242.54 204.913 241.853 204.725C241.747 204.696 241.402 204.564 241.374 204.067C241.304 202.87 242.422 200.092 244.133 195.989C245.004 193.904 246.142 191.173 246.423 189.973C239.422 194.673 237.072 208.047 237.048 208.184C237.003 208.443 236.777 208.628 236.52 208.628Z" fill="#A8C3F7"/>
<path d="M258.628 15.7267H237.026C237.509 14.4487 237.776 13.0648 237.776 11.6156C237.776 5.19942 232.571 0 226.153 0C219.735 0 214.53 5.20146 214.53 11.6156C214.53 13.0627 214.797 14.4487 215.281 15.7267H193.681C191.943 15.7267 190.534 17.1351 190.534 18.8716V27.593C190.534 29.3295 191.943 30.7379 193.681 30.7379H258.63C260.367 30.7379 261.777 29.3295 261.777 27.593V18.8716C261.777 17.1351 260.367 15.7267 258.628 15.7267ZM226.155 15.906C223.785 15.906 221.864 13.9861 221.864 11.6177C221.864 9.2493 223.785 7.32932 226.155 7.32932C228.525 7.32932 230.446 9.2493 230.446 11.6177C230.446 13.9861 228.525 15.906 226.155 15.906Z" fill="#F99746"/>
<path d="M193.68 30.7401H258.629C260.367 30.7401 261.776 29.3317 261.776 27.5952V18.8738L193.68 30.7401Z" fill="#ED7D2B"/>
<path d="M20.1792 275.989C24.5091 271.568 32.1367 268.527 40.9473 268.169V255.138H25.747C25.4105 255.138 25.1087 254.845 24.917 254.39C24.7844 254.072 24.7049 253.677 24.7049 253.249V252.591C24.7049 251.553 25.1739 250.703 25.747 250.703H40.9473V214.307C40.9473 213.345 41.7345 212.559 42.6972 212.559C43.6598 212.559 44.447 213.345 44.447 214.307V250.703H59.6473C60.2204 250.703 60.6894 251.553 60.6894 252.591V253.249C60.6894 253.691 60.6038 254.099 60.4631 254.421C60.2714 254.857 59.9777 255.136 59.6473 255.136H44.447V268.167C53.2576 268.525 60.8852 271.566 65.215 275.987C65.5291 276.309 65.8269 276.635 66.1043 276.969H19.29C19.5654 276.637 19.8631 276.309 20.1792 275.989Z" fill="#D39E7A"/>
<path d="M40.9399 268.234C47.0869 268.803 52.3712 271.768 55.4284 275.989C55.6609 276.311 55.8812 276.637 56.0872 276.972H60.419C60.213 276.637 59.9948 276.309 59.7603 275.989C56.3482 271.279 50.1665 268.134 43.1059 268.134C42.3737 268.134 41.6517 268.167 40.9399 268.234Z" fill="#E0B594"/>
<path d="M88.8657 268.297C88.8657 268.297 89.396 276.833 91.048 276.955C91.2682 276.971 99.4302 276.971 99.4302 276.971L109.85 276.91C109.85 276.91 109.783 274.401 106.736 273.871C103.691 273.341 98.592 271.201 96.7483 267.18C94.8067 262.949 88.8657 268.297 88.8657 268.297Z" fill="#163560"/>
<path d="M47.6022 205.578C49.089 208.099 50.8103 210.461 52.5826 212.699C58.0627 219.613 64.0281 225.313 65.0683 230.702C65.2743 231.777 65.6026 232.932 66.0309 234.151C66.4653 235.386 67.0017 236.682 67.6197 238.026C69.9447 243.074 73.424 248.73 76.8952 253.873C82.8974 262.761 87.8105 268.725 87.8105 268.725C87.8105 268.725 89.385 269.952 93.8861 269.95C95.1384 269.95 99.356 269.263 99.356 269.263C98.942 268.225 93.9636 256.426 87.9227 241.427C85.4712 235.339 82.8627 228.862 80.346 222.617C80.0116 221.783 79.675 220.952 79.3446 220.128C78.5758 218.216 77.8191 216.335 77.0788 214.503C71.407 200.419 66.8916 189.205 66.8916 189.205C66.8916 189.205 44.2268 180.624 41.8712 186.184C39.9337 190.77 41.5164 195.262 47.6022 205.578Z" fill="#233862"/>
<path d="M120.496 182.034H86.1699V276.973H120.496V182.034Z" fill="#D39E7A"/>
<path d="M119.067 276.971H143.622V182.033H119.067L119.067 276.971Z" fill="#F2C7AA"/>
<path d="M119.305 180.121H83.8389V182.036H119.305V180.121Z" fill="#AF7D5B"/>
<path d="M146.164 180.121H119.306V182.036H146.164V180.121Z" fill="#E2B291"/>
<path d="M83.3031 167.343C83.3031 167.343 88.2223 170.138 89.5989 170.138C90.9756 170.138 96.3802 169.094 97.8874 169.862C99.3946 170.631 102.121 173.727 102.633 174.738C103.553 176.556 98.9296 175.753 96.7432 174.204C96.4271 173.98 96.0315 173.896 95.6521 173.978C94.5202 174.224 92.1687 174.652 91.0327 174.232C89.5051 173.668 81.4614 173.04 81.4614 173.04L83.3031 167.343Z" fill="#ED975D"/>
<path d="M45.8843 129.274C45.8843 129.274 50.983 165.49 59.4264 168.735C63.5931 170.335 82.0035 173.965 87.4509 174.328C87.4509 174.328 88.7847 173.246 88.4605 168.843C88.4605 168.843 69.1711 161.767 66.43 157.916C62.351 152.189 68.961 134.514 63.8439 129.135C58.7248 123.756 50.106 121.443 45.8843 129.274Z" fill="#82B378"/>
<path d="M64.9 243.91C64.9 243.91 57.7007 248.532 58.3982 250.034C58.492 250.234 62.469 257.356 62.469 257.356L67.6003 266.417C67.6003 266.417 69.7601 265.135 68.7383 262.219C67.7166 259.302 67.1006 253.811 69.7153 250.24C72.4686 246.486 64.9 243.91 64.9 243.91Z" fill="#163560"/>
<path d="M68.9855 252.776C68.9855 252.776 63.9174 248.072 63.1241 245.163C63.1241 245.163 81.665 222.963 85.6868 217.986C85.8704 217.758 85.8235 217.507 85.5808 217.232C82.544 213.81 48.809 206.856 44.3996 199.999C42.8802 197.637 42.0195 195.395 41.5505 193.436C40.5511 189.254 41.3404 186.364 41.3404 186.364L75.0326 185.389C75.0326 185.389 103.084 202.844 106.261 214.747C109.437 226.648 68.9855 252.776 68.9855 252.776Z" fill="#2B478B"/>
<path d="M85.5752 217.23C82.5385 213.808 48.8034 206.853 44.3941 199.997C42.8747 197.635 42.014 195.393 41.5449 193.434V189.172L55.8641 186.922C55.8641 186.922 59.9247 199.41 71.9515 204.092C83.2156 208.478 85.3509 216.262 85.5752 217.23Z" fill="#233862"/>
<path d="M65.8119 126.991C58.996 128.752 47.6973 122.442 47.6973 122.442C47.6973 122.442 52.0842 119.495 53.7096 113.021C53.7933 112.695 53.8667 112.361 53.934 112.019C54.6478 111.868 55.9939 111.582 57.4337 111.277L62.6385 115.938C62.6385 115.938 62.5202 117.874 61.8696 121.201C61.7574 121.781 61.6269 122.403 61.478 123.068C64.2721 124.796 65.8119 126.991 65.8119 126.991Z" fill="#FFB27D"/>
<path d="M40.4876 155.226C41.4645 168.348 40.1796 188.306 41.2871 191.763C42.2436 194.745 53.1344 192.971 57.4805 191.977C59.0897 191.608 61.0374 191.082 63.0503 190.46C68.665 188.724 74.7814 186.241 75.4381 184.401C75.4626 184.327 75.4851 184.258 75.4993 184.189C75.5605 183.922 75.5462 183.671 75.4871 183.416C75.2689 182.479 74.4245 181.462 74.3266 179.138C74.2165 176.544 74.2328 173.486 74.1349 170.201C74.1308 169.832 74.1247 169.428 74.0839 169.059L74.0819 168.925C74.0799 168.854 74.0778 168.784 74.0758 168.715C73.982 165.05 73.7902 161.196 73.5679 157.377C73.4272 154.976 73.2641 152.599 73.0744 150.322C72.5849 144.444 71.9241 139.216 71.0512 135.912C69.6236 130.525 66.4767 127.012 63.6132 124.437L61.5411 122.662C59.2284 123.168 56.4955 122.831 54.0236 121.661C51.3478 120.392 50.4239 119.483 49.9569 119.825C43.7793 124.584 39.3353 139.184 40.4876 155.226Z" fill="#A8D29F"/>
<path d="M63.0497 190.458C68.6644 188.722 74.7808 186.239 75.4375 184.399C75.462 184.325 75.4844 184.256 75.4987 184.187C75.4946 183.93 75.4926 183.673 75.4865 183.414C75.2682 182.477 74.4239 181.46 74.326 179.136C74.2159 176.542 74.2322 173.484 74.1343 170.199C74.1302 169.83 74.1241 169.426 74.0833 169.057L74.0813 168.923C74.0792 168.851 74.0772 168.782 74.0751 168.713L51.3778 139.815C51.3778 139.813 36.1225 171.564 63.0497 190.458Z" fill="#82B378"/>
<path d="M62.6479 115.938C62.6479 115.938 62.5296 117.874 61.879 121.2C56.7941 119.558 54.4893 114.97 53.7183 113.023C53.8019 112.697 53.8753 112.363 53.9426 112.02C54.6565 111.87 56.0027 111.584 57.4427 111.279L62.6479 115.938Z" fill="#ED975D"/>
<path d="M63.3233 118.871C63.3233 118.871 52.2367 117.022 53.4951 110.139C54.7534 103.258 54.1701 98.383 61.3022 99.2737C68.4343 100.162 69.3255 103.04 69.4642 105.439C69.6029 107.838 66.2398 119.175 63.3233 118.871Z" fill="#FFB27D"/>
<path d="M87.605 178.431L115.293 178.427L122.817 154.117L123.798 154.421L115.846 180.121H87.5928L87.605 178.431Z" fill="#1C468A"/>
<path d="M80.2681 179.134C80.2681 179.134 89.3417 181.525 92.7456 181.274C96.1475 181.023 98.9783 179.405 99.4066 178.561C99.8348 177.717 100.734 176.219 98.4174 176.497C96.1005 176.774 92.9373 177.265 92.8394 176.821C92.7415 176.376 94.728 176.419 94.728 176.419C94.728 176.419 95.3276 175.547 94.573 175.514C93.8163 175.484 91.6117 174.884 90.7918 175.294C89.9719 175.704 89.2173 177.214 88.6177 177.153C88.0201 177.09 81.0247 174.004 81.0247 174.004L80.2681 179.134Z" fill="#FFB27D"/>
<path d="M48.1265 131.078C48.1265 131.078 49.1992 167.636 57.2327 171.79C61.1975 173.841 79.096 179.474 84.47 180.436C84.47 180.436 85.916 179.509 86.0771 175.096C86.0771 175.096 67.6851 165.937 65.3866 161.809C61.9643 155.666 70.4853 138.829 65.9923 132.918C61.4993 127.007 53.1864 123.76 48.1265 131.078Z" fill="#A8D29F"/>
<path d="M53.7114 113.021C53.7114 113.021 53.585 110.661 55.0412 109.308C55.0412 109.308 54.5333 106.939 55.4715 106.55C56.4076 106.161 56.6034 108.15 57.0337 107.838C57.4641 107.526 59.3771 106.043 60.197 103.858C61.0168 101.673 68.5221 104.318 69.3971 104.714C70.272 105.107 73.0824 103.664 73.629 102.492C73.629 102.492 72.0667 101.243 71.3652 100.307C70.6615 99.3695 65.7423 93.0491 58.8693 94.8447C51.9962 96.6404 51.0601 99.9178 51.4496 102.726C51.8412 105.535 50.8969 112.08 53.7114 113.021Z" fill="#233862"/>
<path d="M66.4785 200.857C56.0588 200.857 45.7451 198.75 36.1616 194.661L29.9412 192.007C24.2959 189.598 18.0225 193.738 18.0225 199.873V202.957V208.305V211.737C18.0225 212.891 18.9668 213.836 20.1231 213.836H66.4785C67.6328 213.836 68.5791 212.893 68.5791 211.737V202.957C68.5791 201.803 67.6328 200.857 66.4785 200.857Z" fill="#912F2F"/>
</svg>
