<svg width="300" height="247" viewBox="0 0 300 247" fill="none" xmlns="http://www.w3.org/2000/svg">
<g clip-path="url(#clip0_1189_14563)">
<path d="M185.702 3.89454C185.805 1.84475 187.706 0.204918 189.709 0.0511833C195.514 -0.563754 201.113 3.07463 203.682 8.14786C204.195 9.22401 204.401 10.4026 204.555 11.53C207.38 12.3499 210.206 13.7335 212.158 15.9371C212.003 16.0908 211.695 16.3983 211.541 16.552C208.921 14.2972 205.788 12.6574 202.449 11.9912C198.75 11.4788 195 11.4788 191.353 10.4539C190.428 10.1977 189.606 9.73645 188.682 9.53147C187.14 9.48023 185.599 9.99268 184.11 10.1464C184.161 9.94143 184.264 9.48023 184.315 9.27525C185.445 8.86529 186.729 8.7628 187.962 8.66031C186.832 7.2767 185.651 5.73936 185.702 3.89454Z" fill="#31949A"/>
<path d="M158.682 4.25343C160.89 1.79368 164.332 0.512554 167.62 1.025C171.113 1.48621 174.195 3.536 176.661 5.9445C179.384 8.60923 181.695 11.6839 183.647 14.9123C180.925 17.2184 178.099 19.4731 175.068 21.3692C172.295 23.1115 169.058 24.3926 165.771 24.1877C161.712 24.0852 157.962 21.2155 156.524 17.4746C155.034 13.8362 155.342 9.63413 157.192 6.20073C157.295 5.89326 157.397 5.58579 157.449 5.22708C158.014 5.12459 158.322 4.61214 158.682 4.25343ZM164.024 13.0675C163.973 14.6561 164.949 16.0397 165.925 17.2696C166.233 17.7308 166.747 17.987 167.363 17.8845C166.592 16.9109 165.616 16.091 165.154 14.9123C164.795 14.2974 164.692 13.5287 164.024 13.0675Z" fill="#31949A"/>
<path d="M245.24 8.09672C249.555 7.53303 254.281 8.45543 257.569 11.3764C259.521 13.1187 261.267 15.4247 261.319 18.1407C261.319 20.8054 260.394 23.3164 259.521 25.8274C257.671 30.4907 255.411 35.0515 252.534 39.1511C250.685 41.8158 248.219 44.1731 245.086 45.2492C240.668 46.8378 235.325 45.9154 231.986 42.5332C229.366 40.1247 228.134 36.5888 228.031 33.1042C227.825 27.9285 229.469 22.7527 231.884 18.1919C234.658 13.17 239.384 8.8654 245.24 8.09672ZM253.305 10.3515C249.863 13.8361 247.089 17.8845 244.88 22.189C242.209 27.4673 240.051 33.1554 239.795 39.0998C240 39.0998 240.411 39.0998 240.616 39.0998C240.873 35.0515 241.952 31.1056 243.545 27.3648C246.01 21.2666 249.503 15.5272 254.127 10.8127C254.384 10.5052 254.589 10.1978 254.795 9.83904C254.281 9.83904 253.664 9.89029 253.305 10.3515Z" fill="#31949A"/>
<path d="M263.99 17.4232C267.175 14.9122 270.565 12.7599 274.058 10.7101C274.726 10.5564 274.777 11.1713 274.572 11.6325C271.13 18.9605 270.36 27.2109 270.771 35.2051C274.007 35.6663 276.832 37.7674 278.373 40.6371C280.069 43.8143 280.274 47.6064 279.606 51.091C278.527 56.0618 276.01 60.5713 273.39 64.8759C269.795 70.6153 265.839 76.201 261.216 81.223C256.592 74.9711 253.099 67.6943 252.38 59.8539C251.918 55.3443 252.74 50.7323 254.897 46.7352C257.003 42.6869 259.88 38.7923 263.99 36.64C265.736 35.6663 267.74 35.2051 269.743 35.1026C269.64 30.7468 269.692 26.3398 270.462 22.0352C270.925 18.7555 272.003 15.6296 273.082 12.5037C270.205 14.451 267.38 16.4495 264.452 18.3456C264.247 18.0894 264.092 17.6282 263.99 17.4232Z" fill="#31949A"/>
<path d="M51.5754 17.1158C53.4247 16.6546 55.2226 15.9884 57.1233 15.6809C57.9452 21.0616 57.8939 26.801 55.6336 31.823C53.1165 37.255 47.4144 40.6371 41.6096 41.6108C40.5308 41.8158 39.4521 41.5595 38.4247 41.3546C36.0617 43.0456 33.4932 44.7367 30.5651 45.0954C28.6644 45.4541 26.7124 45.0954 24.863 44.6855C24.6576 47.3502 23.5274 50.0149 21.4726 51.7573C19.3665 53.6533 16.5411 54.3195 13.8185 54.8832C12.0719 55.1907 10.1713 55.4469 8.42469 54.7807C7.44866 54.422 6.67811 53.4483 6.72948 52.3722C6.83222 51.0911 7.50003 49.9637 8.16784 48.9388C9.91441 46.1716 11.6096 43.4043 13.6644 40.8421C15.1541 38.9973 17.4144 37.4087 19.8802 37.8699C22.7569 38.2799 24.7089 40.9958 25.0171 43.7631C26.8151 44.173 28.7158 44.4805 30.6165 44.1218C33.185 43.6093 35.548 42.3282 37.5514 40.6884C35.8048 38.4336 34.2124 35.7689 34.3151 32.7967C34.4178 28.0309 37.4487 23.6751 41.3528 21.1129C44.3836 19.0631 48.0308 18.0894 51.5754 17.1158ZM51.3185 19.473C51.7295 25.8274 49.7774 32.6942 44.6918 36.8963C45.0514 33.7191 43.5103 30.7981 41.7124 28.3384C41.4555 27.8772 40.9418 27.7234 40.4281 27.6722C41.3528 29.4145 42.637 30.9006 43.2534 32.7967C43.7158 34.3853 44.024 36.0763 43.6644 37.6649C42.9452 39.151 41.3014 39.766 40.1199 40.8421C42.1233 40.7396 43.613 39.356 45.1541 38.3311C46.4897 37.8699 47.9281 37.7674 49.161 37.05C49.7774 36.64 50.8048 36.4863 50.8562 35.6151C49.2637 36.1276 47.774 36.9987 46.0788 37.1012C47.4144 35.5126 48.5959 33.8216 49.8288 32.1305C51.8836 31.823 54.5034 30.6956 54.8117 28.3896C53.3733 29.3633 52.2432 31.0031 50.2911 31.1568C51.5754 27.5697 52.6028 23.7263 51.9863 19.9342C51.8322 19.8317 51.4726 19.5755 51.3185 19.473ZM15.4624 42.4307C15.5137 42.5332 15.6165 42.7382 15.7192 42.8407C16.9521 42.9944 18.1336 43.1994 19.161 43.9168C18.9555 42.1232 16.7466 42.4819 15.4624 42.4307Z" fill="#31949A"/>
<path d="M26.7124 51.2449C27.0206 51.4499 27.3288 51.6548 27.5857 51.8598C25.9932 53.8584 23.8871 55.3957 21.5754 56.5231C22.9624 56.5743 24.4521 56.7281 25.5823 57.5992C26.7124 58.4191 27.1747 60.059 26.5069 61.2889C25.685 62.9287 24.0925 64.0048 22.3973 64.671C18.9556 66.1059 15.2056 66.6183 11.5069 66.977C10.0172 67.1308 8.52747 67.1308 7.03775 66.8745C5.85624 64.4148 7.75693 61.955 9.70898 60.6227C12.5857 58.6241 15.8734 57.343 19.2124 56.4718C22.1405 55.3445 24.709 53.4996 26.7124 51.2449Z" fill="#31949A"/>
<path d="M283.305 63.7998C283.51 63.7998 283.973 63.8511 284.178 63.8511C284.281 66.1571 284.795 68.4118 285.462 70.6154C289.161 70.3591 292.911 71.6915 295.582 74.2537C298.048 76.4573 299.384 79.7369 299.486 83.0166C299.589 85.6813 298.87 88.2948 298.253 90.8571C297.277 94.4442 296.147 98.0313 295.069 101.618C290.753 100.44 286.438 98.6463 282.894 95.8278C279.914 93.4193 277.808 89.7809 277.603 85.9376C277.295 80.3006 279.966 74.51 284.589 71.2303C283.87 68.7706 283.202 66.3108 283.305 63.7998ZM284.949 71.4353C284.949 73.2801 285.976 74.9199 286.952 76.4573C288.699 79.0708 291.678 80.8131 292.757 83.8878C293.322 85.8863 292.86 87.9874 292.86 89.9859C293.014 89.8834 293.322 89.6784 293.476 89.5759C293.887 88.3461 293.784 86.9625 293.938 85.6813C295.017 86.3475 295.89 87.3212 296.918 88.0898C297.38 86.0913 294.76 85.6813 293.938 84.2977C293.271 83.0166 292.911 81.5305 291.935 80.3519C290.959 79.0195 289.469 78.1996 288.596 76.816C289.983 76.8672 291.37 77.1235 292.603 77.8409C293.219 78.0971 293.733 78.6608 294.452 78.5583C293.116 76.4573 290.445 75.8936 288.134 75.8936C286.541 74.9199 286.387 72.6652 284.949 71.4353Z" fill="#31949A"/>
<path d="M12.6373 70.8716C14.4866 70.5129 16.6955 70.0516 18.3907 71.179C20.7537 73.0238 21.8325 76.0985 21.8839 79.0195C21.8839 83.7853 20.3942 88.6023 17.5174 92.3944C15.1031 95.4178 11.5585 97.2627 7.91128 98.4413C5.49689 99.21 3.03114 99.6712 0.514017 99.7737C0.257168 93.3168 -0.0510523 86.6037 2.36333 80.5056C4.10991 75.9961 7.75717 71.9477 12.6373 70.8716ZM13.7674 75.0224C11.5072 75.2786 9.29826 75.9961 7.50032 77.4309C7.50032 77.6359 7.55169 78.0458 7.55169 78.3021C9.45237 77.2772 11.3531 76.0985 13.562 76.0473C12.0209 78.3533 10.4798 80.6593 9.24689 83.1703C8.32224 84.0415 6.93525 84.144 5.95922 84.8614C5.03456 85.5276 3.64758 86.0913 3.69895 87.4236C5.39415 86.45 6.83251 84.9639 8.83593 84.6564C7.75717 87.7824 6.72977 91.267 7.65443 94.5467C8.27087 93.9317 8.06539 93.0606 8.11676 92.2919C8.27087 87.4236 10.2229 82.8116 12.8428 78.7633C13.5106 80.8131 14.2811 82.8629 15.7195 84.5539C16.49 85.4251 17.1578 86.5525 18.4421 86.6037C18.0825 85.6813 17.2606 85.0664 16.6441 84.349C15.3599 82.8116 14.538 80.9668 13.9729 79.0707C13.8188 78.5583 13.6133 77.9434 13.9216 77.4309C14.949 75.2786 16.7983 73.6388 18.2366 71.7427C16.1818 71.9477 15.4626 74.2537 13.7674 75.0224Z" fill="#31949A"/>
<path d="M113.014 9.27524C122.825 4.15075 134.178 2.51092 145.12 3.22835C149.281 3.53582 153.493 3.99702 157.5 5.22689C157.397 5.53436 157.295 5.84183 157.243 6.20055C147.483 3.79204 137.158 3.43333 127.243 5.48312C120.514 6.91797 113.887 9.37773 108.39 13.5286C107.312 14.2972 106.49 15.4246 105.565 16.3983C104.846 16.6032 104.692 16.0396 105.051 15.5271C107.003 12.7086 110.034 10.9151 113.014 9.27524Z" fill="#10298D"/>
<path d="M81.0617 33.6678C83.0137 32.0792 85.7877 32.1817 88.048 33.0528C92.363 34.8976 94.0583 40.8933 91.4898 44.7879C90.7706 45.9153 89.5377 46.5302 88.3048 47.0427C88.2534 47.9651 88.2021 48.8362 87.9966 49.7074C87.4829 49.7074 86.9692 49.7074 86.4555 49.7586C86.4041 50.0661 86.3528 50.3736 86.3528 50.681C86.6096 50.681 87.226 50.681 87.4829 50.681V51.091C87.2774 51.5522 87.0719 52.0646 86.8151 52.5258C85.9932 52.0134 85.1713 51.5009 84.4007 50.9373C84.863 50.1173 85.5822 49.5024 86.4555 49.1437C86.3014 48.4775 86.3528 47.6063 85.5822 47.2989C83.2192 46.274 80.1884 45.3003 77.8767 46.8889C75.411 48.4263 75.1028 51.6034 73.3048 53.6532C72.5343 54.6269 71.3528 55.5493 70.0685 54.9343C69.5548 53.7557 70.2226 51.5009 68.4247 51.3472C66.5754 51.0397 65.6507 53.2945 66.1644 54.7806C66.3185 56.113 67.8082 56.6254 68.2706 57.7016C67.911 60.3663 66.7808 63.2873 64.3665 64.7221C63.8528 64.9783 62.9795 65.1833 62.7226 64.4659C61.3356 61.8524 60.5651 58.9827 59.4863 56.2155C58.3562 52.8846 56.8665 49.5024 57.0206 45.9153C57.1233 43.2505 58.5617 40.4321 61.0274 39.2534C62.3117 38.6385 63.8528 38.7922 65.137 38.1773C66.4726 37.2036 67.2432 35.6663 68.6815 34.8464C70.5822 33.7702 73.0993 33.514 75 34.6414C75.9247 35.1026 76.8493 35.9738 77.9281 35.7688C79.2637 35.5126 80.0343 34.3852 81.0617 33.6678Z" fill="#10298D"/>
<path d="M196.027 47.8625C196.798 45.5052 199.212 44.0704 201.575 43.7116C204.093 43.4042 206.764 43.9679 208.973 45.249C212.209 47.0426 214.315 50.3222 217.654 51.9108C219.709 53.0382 222.175 52.987 224.127 54.3193C225.873 55.4467 227.055 57.599 226.592 59.7C226.387 60.8787 226.027 62.2623 226.798 63.3384C227.671 64.4658 229.315 64.6195 230.291 65.6444C231.627 66.9768 231.884 69.1291 231.062 70.7689C230.497 71.9988 230.548 73.6386 231.729 74.4585C232.86 75.0222 234.195 74.9197 235.274 75.5347C237.791 76.8158 239.486 79.7368 239.127 82.5552C238.87 83.9901 237.791 85.2712 238.151 86.8085C238.459 88.6021 240.36 89.217 241.438 90.3444C244.366 93.2141 244.366 98.7998 240.822 101.157C239.589 101.977 237.791 102.336 237.226 103.873C236.507 105.923 238.664 107.716 237.997 109.766C237.534 111.816 235.428 113.097 233.373 112.79C232.192 108.536 230.805 104.334 229.418 100.132C227.877 95.9301 226.798 91.3693 223.87 87.8847C221.918 85.5274 219.093 84.0413 216.164 83.4264C213.699 82.6065 211.079 82.3502 208.664 81.5303C207.483 81.1716 206.301 80.8641 205.171 80.5054C204.76 77.5332 204.349 74.5098 204.76 71.5376C205.274 72.255 205.736 73.3312 206.815 73.2799C209.127 73.5874 210 69.4365 207.688 68.9241C207.843 70.1027 207.791 71.3326 206.969 72.3063C206.353 71.5888 205.788 70.8714 205.223 70.1027C204.863 68.2067 207.175 67.2843 207.072 65.3882C207.226 64.1583 206.456 62.5697 205.017 62.621C203.99 62.416 203.527 63.4921 202.86 64.0046C200.908 64.0046 199.007 63.6971 197.106 63.3897C196.798 64.7733 195.976 66.3619 194.332 66.4131C192.072 66.7206 190.48 63.7996 191.712 62.006C192.277 60.9299 193.459 60.2637 194.692 60.4175C195.925 60.4687 196.747 61.3911 197.363 62.3648C198.288 62.5185 199.161 62.6722 200.086 62.7235C198.801 61.5448 197.209 60.5712 196.387 58.9314C195.616 57.599 195.308 55.8567 194.075 54.883C192.791 54.1656 191.147 54.4731 190.069 55.4467C188.682 56.6253 187.243 57.9577 186.884 59.8025C185.343 58.9826 184.315 57.394 183.801 55.8054C182.979 52.2183 185.086 48.2212 188.476 46.7863C190.993 45.9664 194.024 46.1202 196.027 47.8625ZM193.716 61.6986C192.072 62.3135 192.021 65.0295 193.613 65.6957C195.051 66.0544 196.233 64.3633 195.873 63.0822C195.822 61.9548 194.743 61.0324 193.716 61.6986Z" fill="#10298D"/>
<path d="M48.185 45.7617C48.6987 45.5054 48.9042 46.1204 49.0583 46.4791C47.1062 47.7602 45.4624 49.4513 43.9213 51.1424C36.9863 58.7779 32.774 68.6169 31.2843 78.7633C30.5651 84.2978 30.2569 90.0372 31.5925 95.5204C31.8494 96.0841 31.0274 95.9303 30.7192 96.1353C29.7946 93.2656 29.6918 90.2422 29.5891 87.27C29.5377 75.7399 32.8768 64.1073 39.6576 54.6783C42.072 51.3474 44.8459 48.2214 48.185 45.7617Z" fill="#10298D"/>
<path d="M80.2913 50.7323C81.1134 50.3736 82.1409 49.9124 82.963 50.5273C81.6785 51.0398 80.4968 52.2184 79.0582 52.0134C78.9555 51.296 79.7262 50.9885 80.2913 50.7323Z" fill="#10298D"/>
<path d="M184.418 61.6473C185.137 59.9562 187.501 59.7 188.939 60.5712C189.35 60.8786 189.761 61.2374 190.069 61.6473C191.046 63.5946 189.35 66.0544 187.346 66.4131C185.086 66.4643 183.236 63.6971 184.418 61.6473ZM186.165 61.0324L186.37 61.0836C184.572 61.8011 184.675 64.6195 186.524 65.2345C188.169 65.4907 189.453 63.4409 188.631 62.0573V62.006C188.117 61.8523 187.501 61.6986 187.295 61.1349C186.884 61.0836 186.524 61.0324 186.165 61.0324Z" fill="#10298D"/>
<path d="M81.8323 60.4688C83.1167 60.9812 84.247 62.3136 85.737 61.4424C85.7884 61.9036 85.7884 62.4161 85.1718 62.5185C83.7846 62.7235 81.935 62.0061 81.8323 60.4688Z" fill="#10298D"/>
<path d="M78.4418 71.0253C78.9042 70.9229 79.3151 70.9229 79.7775 70.9229C85.5309 72.1015 91.1302 74.715 95.1884 79.0195C96.935 80.8643 98.2706 83.0166 99.2466 85.3226C101.867 91.5745 104.384 97.8776 106.798 104.181C106.952 104.591 106.798 105.052 106.695 105.462C104.64 112.636 102.791 119.913 100.839 127.138C99.7603 127.6 98.4761 127.446 97.2946 127.497C96.1131 126.267 94.6233 125.294 92.9281 124.884C92.2603 116.172 91.5412 107.512 90.9247 98.8C90.822 98.6975 90.5651 98.4926 90.4624 98.3901C90.8734 107.204 91.798 116.018 92.4144 124.832C90.5651 124.73 88.7158 124.884 86.9179 125.396C84.8117 125.96 82.8596 127.087 80.6507 127.395C77.7227 127.753 74.7432 127.753 71.8151 127.753C71.4042 130.469 70.5822 133.185 70.6336 136.004C71.5069 136.67 72.6884 136.67 73.7672 136.824C81.3699 137.644 89.024 138.31 96.6268 139.232C97.7055 139.54 98.2192 138.464 98.6816 137.746C97.1405 137.695 95.6507 137.695 94.1097 137.439C92.209 137.131 90.2055 137.182 88.3048 136.721C88.5103 136.26 89.024 136.26 89.435 136.209C92.7227 135.748 96.0617 135.133 99.3494 134.928C102.072 124.474 104.949 114.122 107.723 103.668C108.134 102.028 108.442 100.184 109.777 99.0563C110.651 98.2363 111.884 98.1851 113.014 98.0826C122.312 97.3139 131.558 95.9303 140.856 95.1104C144.298 94.7517 147.74 94.6492 151.182 94.3417C153.134 94.2392 154.983 93.5731 156.935 93.6243C158.476 93.8293 159.144 95.5716 158.784 96.9552C158.322 99.3637 157.397 101.67 156.781 104.027C153.956 113.764 151.233 123.551 148.305 133.288C147.791 135.03 146.353 136.567 144.452 136.721C130.839 138.515 117.277 140.462 103.664 142.256C101.301 142.614 98.9384 142.819 96.5754 142.614C89.6918 141.999 82.8083 141.179 75.8733 140.565C73.7158 140.308 71.4555 140.411 69.4007 139.488C60.8733 139.642 52.3459 141.077 43.7672 140.565C43.8699 141.948 42.7398 143.127 43.0994 144.562C43.0994 147.483 43.8186 150.66 45.9761 152.761C49.8288 156.655 55.4795 158.244 60.822 158.193C79.4179 158.193 98.0651 158.142 116.661 158.193C119.743 160.499 122.825 162.856 125.702 165.47C128.322 167.878 130.788 170.953 131.199 174.642C131.661 178.639 129.863 182.38 128.784 186.121C123.956 202.11 119.384 218.2 114.658 234.189C113.99 234.086 113.322 233.984 112.706 233.881C112.5 233.318 112.86 232.19 112.295 231.985C111.935 234.906 112.962 237.878 112.706 240.851C111.884 241.466 110.805 241.414 109.829 241.568C106.952 241.876 104.075 242.132 101.199 242.49C99.709 242.644 98.2192 242.9 96.6781 243.003C96.0617 242.952 96.0103 242.234 95.8562 241.824C95.4966 240.543 95.137 239.262 94.7775 237.981C91.4898 223.837 88.2535 209.694 84.9144 195.601C83.322 195.96 81.6268 195.858 80.0857 196.268C76.4898 211.744 73.3562 227.322 69.9144 242.849C68.7843 242.9 67.6542 242.952 66.4727 242.849C69.4521 229.731 72.1747 216.561 75.0514 203.442C75.5651 200.982 76.2329 198.574 76.5925 196.114C68.7329 195.601 60.9247 194.372 53.322 192.424C56.1987 209.13 59.1781 225.785 62.2603 242.49C62.4144 243.208 62.5172 243.925 62.6713 244.694C61.5412 244.694 60.411 244.694 59.2295 244.694C59.1268 244.028 58.9727 243.31 58.8699 242.644C56.096 227.937 53.5788 213.178 50.8562 198.471C50.7021 198.061 50.8049 197.241 50.1884 197.241C45.2055 196.626 40.1713 196.114 35.137 195.55C30.3083 211.334 25.5823 227.117 20.7021 242.849C19.5206 242.849 18.3905 242.849 17.209 242.798C21.7809 227.988 26.1987 213.178 30.7192 198.317C31.387 196.165 31.9521 193.962 32.774 191.809C28.2535 191.553 23.6816 191.246 19.161 191.041C17.8254 190.938 16.3357 190.784 15.3083 189.913C14.1781 188.94 13.8186 187.454 13.6644 186.07C12.1234 171.926 11.1987 157.783 10.0172 143.639C9.81171 140.77 9.24664 137.951 9.09253 135.081C8.6302 128.215 10.3768 121.245 14.1781 115.506C16.2843 112.329 19.7261 110.228 23.4247 109.51C25.685 108.947 28.048 109.1 30.411 109.151C29.1268 115.813 28.459 122.68 29.8973 129.393C30.5651 132.519 31.9521 135.594 34.4179 137.695C36.4727 139.591 39.298 140.462 42.0206 140.821C40.5823 145.177 40.0172 149.737 39.709 154.298C39.5035 157.783 39.298 161.267 39.5035 164.752C39.709 166.238 39.8117 167.776 39.9144 169.262C39.7603 165.572 39.6062 161.882 39.9144 158.193C40.3254 152.402 40.5823 146.406 42.637 140.923C42.9453 140.975 43.5103 141.026 43.8186 141.077L43.6644 140.411C40.2227 140.103 36.524 139.335 34.1096 136.67C30.6679 133.237 29.846 128.163 29.5891 123.5C29.2295 116.377 30.5651 109.254 32.5686 102.438C34.161 97.0577 35.959 91.6258 38.5788 86.655C40.7364 82.7092 43.459 79.0195 47.1062 76.3036C50.9076 73.3826 55.6336 72.0502 60.2569 71.0766C60.4624 71.0766 60.9247 71.0766 61.1302 71.0253C61.387 75.5349 63.9555 79.6345 67.2946 82.5554C68.4761 83.5291 69.8631 84.2465 71.3528 84.6052C72.6884 82.6067 73.048 80.1982 73.6131 77.8921C74.8459 79.9419 76.1302 82.0942 78.0309 83.6316C78.8014 84.2465 79.8288 83.6828 80.2398 82.9654C82.6542 79.6345 82.5514 75.0224 81.0103 71.3841C80.3425 70.6666 79.2638 71.0766 78.4418 71.0253ZM59.1268 88.1924C59.3323 97.2114 59.024 106.231 57.8425 115.198C57.7912 115.66 57.5343 116.326 58.2021 116.531C59.4864 107.409 59.8973 98.1851 59.6405 89.0123C59.6918 88.6023 59.5377 88.3461 59.1268 88.1924ZM131.456 114.891C132.021 114.173 132.534 113.405 132.945 112.585C131.866 112.277 130.377 114.173 131.456 114.891ZM127.243 122.578C127.86 122.68 128.425 122.27 128.99 122.065C129.452 122.219 129.914 122.68 130.428 122.475C131.199 121.809 131.661 120.835 132.226 120.015C131.969 119.554 131.712 119.093 131.507 118.581C131.507 117.351 132.483 116.428 133.099 115.403C131.815 114.942 130.428 115.198 129.093 114.993C126.267 116.172 125.497 120.272 127.243 122.578ZM43.7672 126.728C43.9213 126.728 44.1781 126.677 44.3323 126.677C45.3083 125.55 46.387 124.422 47.7227 123.654C49.5206 122.475 51.6781 122.27 53.7843 122.014C53.2192 121.399 52.2946 121.655 51.5754 121.706C48.4418 122.168 45.3596 123.961 43.7672 126.728ZM57.2261 121.911C57.5343 122.116 57.8939 122.321 58.3049 122.373C61.8494 122.936 65.3939 123.654 68.887 124.474C70.0686 124.73 71.1987 125.037 72.3802 125.089C72.2261 124.986 71.9692 124.781 71.8665 124.679C67.7569 123.603 63.5959 122.834 59.435 122.014C58.7158 121.809 57.9453 121.706 57.2261 121.911ZM93.9555 136.516C95.2398 137.029 96.6268 136.567 97.911 136.465C98.322 136.414 98.9384 136.414 98.9384 135.799C97.346 136.465 95.5994 136.004 93.9555 136.516ZM14.6918 185.506C14.846 186.736 15.0001 188.12 16.0275 188.991C17.3117 189.913 19.0069 189.811 20.548 189.913C30.9247 190.272 41.2501 191.297 51.6268 191.758C42.4829 189.298 33.4418 186.224 24.8117 182.329C23.3734 181.612 21.6781 180.997 20.959 179.459C20.3425 178.332 21.3186 176.743 22.6028 176.743C27.0206 176.641 31.387 176.795 35.8049 176.692C35.0343 174.284 34.3151 171.824 34.0069 169.313C31.2843 168.903 28.6644 167.776 26.4042 166.187C21.5754 162.907 18.0823 157.988 15.411 152.915C13.6644 149.43 12.0206 145.894 11.0446 142.153C12.2261 156.553 13.1508 171.055 14.6918 185.506ZM35.1884 169.569C35.7021 171.926 36.3186 174.284 37.0377 176.59C38.5788 176.641 40.1713 176.692 41.7124 176.59C40.5823 174.437 39.9658 172.08 39.6576 169.672C38.1165 169.62 36.6268 169.62 35.1884 169.569ZM45.4624 180.587C49.161 184.686 54.8631 186.121 60.1542 186.685C60.6679 186.89 61.0788 186.429 61.4898 186.224C56.9179 186.07 52.2946 185.045 48.3905 182.637C47.4144 182.022 46.4898 181.253 45.4624 180.587ZM108.647 188.017C109.726 202.366 110.753 216.766 112.038 231.114L112.243 231.165C112.757 230.807 112.243 229.936 112.346 229.372C111.062 214.255 110.188 199.086 108.545 184.02C108.39 185.353 108.493 186.685 108.647 188.017ZM61.2843 186.992C66.7295 187.095 72.1747 187.197 77.6199 187.095C79.4692 187.095 81.7295 186.736 83.0138 188.376C82.6542 187.71 82.2432 186.941 81.4213 186.787C79.8288 186.48 78.185 186.685 76.5925 186.634C71.7638 186.582 66.8836 186.787 62.0549 186.377C61.798 186.582 61.5412 186.787 61.2843 186.992Z" fill="#10298D"/>
<path d="M197.003 105.052C197.106 103.924 196.952 102.643 197.825 101.772C198.134 103.105 197.877 104.437 197.825 105.769C197.774 111.56 197.466 117.556 199.47 123.141C199.778 124.217 200.394 125.242 200.292 126.421C199.521 126.37 199.418 125.447 199.11 124.884C196.49 118.632 196.901 111.714 197.003 105.052Z" fill="#10298D"/>
<path d="M249.812 113.661C254.332 110.484 259.88 108.69 265.428 108.844C269.795 108.793 274.264 110.279 277.397 113.353C278.887 114.788 279.966 116.582 280.942 118.427C282.688 121.758 283.973 125.447 284.332 129.239C285.051 135.542 283.613 141.846 282.997 148.097C282.021 158.295 281.353 168.595 280.377 178.793C280.069 182.38 278.836 186.224 275.805 188.376C273.493 190.169 270.462 190.426 267.637 190.682C265.839 190.784 264.041 190.989 262.192 191.041C262.654 193.449 263.527 195.704 264.195 198.061C268.767 212.922 273.39 227.783 277.962 242.644C276.781 242.695 275.548 242.695 274.366 242.695C274.315 242.593 274.264 242.388 274.212 242.285C269.024 226.399 264.298 210.309 259.315 194.371C254.127 195.294 248.887 196.063 243.699 196.934C240.771 212.051 238.356 227.219 235.325 242.337C235.171 243.003 235.069 243.72 234.966 244.386C233.836 244.386 232.706 244.386 231.575 244.335C231.729 243.72 231.832 243.054 231.986 242.439C235.12 225.733 238.151 208.925 241.13 192.168C233.476 194.064 225.668 195.396 217.757 196.063C221.096 211.59 224.281 227.219 227.671 242.747C226.541 242.849 225.36 242.849 224.229 242.747C221.712 230.909 219.247 219.071 216.73 207.234C215.908 203.596 215.24 199.906 214.264 196.268C210.206 196.114 206.096 195.601 202.295 194.166C202.5 191.707 202.346 188.939 204.041 186.941C205.12 185.506 206.969 185.096 208.664 185.045C215.753 184.737 222.894 183.866 229.726 181.97C233.219 180.894 236.764 179.459 239.384 176.794C240.051 176.641 240.771 176.59 241.49 176.59C245.548 176.59 249.606 176.59 253.664 176.59C254.435 174.232 255.154 171.875 255.822 169.466C251.815 169.364 247.86 168.493 244.161 167.007C244.212 166.494 244.264 165.982 244.315 165.469C245.137 158.244 243.339 150.916 240.514 144.305C239.23 140.411 237.38 136.721 235.89 132.878C236.456 131.289 236.712 129.649 237.123 128.061C240.206 122.475 244.469 117.35 249.812 113.661ZM273.442 160.806C270.154 164.803 265.634 168.032 260.445 169.057C259.315 169.364 258.134 169.313 257.055 169.62C256.387 171.977 255.616 174.335 254.897 176.692C260.291 176.692 265.736 176.692 271.13 176.692C272.62 176.59 273.493 178.486 272.671 179.664C271.695 181.253 269.795 181.868 268.202 182.688C259.983 186.48 251.353 189.452 242.569 191.758C248.887 191.143 255.154 190.631 261.473 189.964C265.582 189.554 269.949 189.964 273.801 188.273C277.038 186.787 278.63 183.251 278.99 179.869C280.377 167.775 280.839 155.63 282.38 143.588C280.325 149.686 277.603 155.733 273.442 160.806Z" fill="#10298D"/>
<path d="M215.856 120.63C219.555 121.194 223.202 122.629 225.873 125.293C227.825 127.292 229.161 130.213 228.442 133.031C228.339 133.441 228.082 133.595 227.62 133.493C227.158 132.98 227.517 132.314 227.517 131.75C227.825 129.393 226.387 127.241 224.795 125.652C222.38 123.346 219.093 122.372 215.959 121.604V121.194C215.908 121.04 215.856 120.733 215.856 120.63Z" fill="#10298D"/>
<path d="M137.003 158.039C139.983 158.09 142.962 157.988 145.89 158.039C145.89 184.174 145.89 210.36 145.89 236.495C145.942 237.725 145.685 239.006 146.096 240.184C146.969 240.236 147.534 239.467 148.253 239.057C150.514 237.468 153.339 237.11 156.062 237.417C159.195 237.878 162.277 238.852 164.897 240.543C165.771 241.004 165.976 241.978 166.182 242.9C168.288 243.413 170.394 243.772 172.5 244.284C175.428 245.104 178.356 243.874 181.233 243.72C181.233 242.49 181.182 241.209 181.901 240.133C183.442 237.622 187.295 237.315 189.503 239.108C190.788 240.236 191.096 242.08 190.531 243.669C192.637 243.618 194.692 243.977 196.798 243.925C198.904 244.028 201.062 243.72 203.168 244.284C203.168 245.001 203.168 245.77 203.116 246.488C203.065 246.59 202.962 246.795 202.911 246.897C197.055 247.051 191.199 247 185.394 247C158.63 247 131.866 247 105.051 247C103.356 247 101.661 247.154 100.017 246.795C99.9144 246.129 99.8117 245.411 99.6576 244.745C99.9144 244.745 100.48 244.745 100.736 244.745C105.719 244.591 110.702 244.745 115.685 244.54C116.867 243.772 117.432 242.285 118.356 241.209C120.719 238.34 124.572 236.802 128.271 237.007C131.353 237.11 134.281 238.237 136.952 239.774C137.003 212.512 137.055 185.301 137.003 158.039Z" fill="#10298D"/>
<path d="M160.686 176.18C160.891 176.128 161.302 175.975 161.508 175.923C161.097 183.508 160.069 191.092 159.401 198.676C158.528 207.336 157.706 216.048 156.832 224.708C156.678 225.58 156.832 226.604 156.37 227.373C156.01 227.424 155.805 227.271 155.651 226.912C157.346 210.052 159.144 193.142 160.686 176.18Z" fill="#10298D"/>
<path d="M112.86 236.905C114.761 237.366 116.507 238.288 118.254 239.108C117.792 239.313 117.329 239.467 116.867 239.57C116.405 239.672 115.942 239.774 115.48 239.877C114.658 240.031 113.887 240.133 113.065 240.184C113.065 239.057 112.962 237.981 112.86 236.905Z" fill="#10298D"/>
<path d="M93.9556 241.26C94.8804 241.773 95.7025 242.49 96.2676 243.413C95.4969 243.925 94.5721 243.976 93.6473 244.028C93.6987 243.72 93.8015 243.105 93.8015 242.798C93.9042 242.285 93.9556 241.773 93.9556 241.26Z" fill="#10298D"/>
<path d="M77.8768 46.8889C80.2398 45.3003 83.2193 46.2227 85.5823 47.2989C86.3528 47.5551 86.3014 48.4775 86.4555 49.1437C85.5823 49.5024 84.8631 50.1173 84.4007 50.9372C85.1713 51.5009 85.9932 52.0134 86.8151 52.5258C87.7398 53.2945 88.9727 54.2682 88.7158 55.6005C88.6131 56.4204 87.6884 56.6254 87.072 56.9329C86.9692 60.1101 86.3014 63.5435 83.9898 65.952C82.5514 67.4381 80.4453 67.5406 78.4932 67.5406C78.3905 68.7192 78.3905 69.8466 78.3391 71.0252V71.0765C77.9282 72.7675 76.5412 73.9462 75.5138 75.2785C74.8973 75.996 74.3836 76.8159 73.6131 77.2771C72.9966 77.2258 72.4316 76.8671 71.9179 76.5084C69.1953 74.3561 66.4727 72.1014 63.2364 70.8715C63.185 68.9754 63.0823 67.0281 63.1336 65.1321C63.5446 65.0296 63.9042 64.9271 64.2638 64.7221C66.6782 63.2872 67.8083 60.3663 68.1679 57.7016C67.7055 56.6254 66.2158 56.113 66.0617 54.7806C65.548 53.2945 66.4727 50.9885 68.322 51.3472C70.1199 51.4497 69.4521 53.7557 69.9658 54.9343C71.2501 55.6005 72.4316 54.6269 73.2021 53.6532C75.0514 51.6034 75.3597 48.4263 77.8768 46.8889ZM80.2912 50.7323C79.7261 50.9885 79.0069 51.2447 79.0583 52.0134C80.4966 52.2184 81.6782 51.0397 82.9624 50.5273C82.0891 49.9124 81.1131 50.3736 80.2912 50.7323ZM81.8323 60.4688C81.935 62.0574 83.8357 62.7236 85.1713 62.5186C85.7877 62.4161 85.7877 61.9036 85.7364 61.4424C84.2466 62.3136 83.1165 60.9812 81.8323 60.4688Z" fill="#D37878"/>
<path d="M190.171 55.6004C191.25 54.678 192.894 54.3705 194.178 55.0367C195.462 56.0616 195.719 57.7527 196.49 59.0851C197.312 60.6737 198.904 61.6473 200.188 62.8772C199.264 62.7747 198.339 62.6722 197.466 62.5185C196.849 61.5961 196.027 60.6224 194.795 60.5712C193.562 60.3662 192.38 61.0324 191.815 62.1598C190.582 63.9533 192.175 66.8743 194.435 66.5668C196.027 66.5668 196.901 64.927 197.209 63.5434C199.11 63.8508 201.062 64.1583 202.962 64.1583C203.63 63.5946 204.093 62.5185 205.12 62.7747C206.507 62.7747 207.329 64.312 207.175 65.5419C207.277 67.3867 204.914 68.3091 205.325 70.2564C205.017 70.6664 204.863 71.1788 204.863 71.6913C204.452 74.6635 204.863 77.6869 205.274 80.6591C205.325 83.99 205.377 87.6284 203.425 90.4981C201.781 92.9067 197.98 93.6753 195.719 91.728C194.281 90.4469 194.075 88.3459 194.075 86.5523C194.127 83.1189 193.921 79.7367 193.767 76.3033C191.969 75.9959 190.325 75.0735 189.349 73.5874C187.911 71.7425 187.5 69.3853 187.089 67.1305C187.192 66.9768 187.397 66.6181 187.5 66.4643C189.503 66.1056 191.147 63.6459 190.223 61.6986C189.914 61.2886 189.503 60.9299 189.093 60.6224C188.938 60.5199 188.682 60.315 188.579 60.2125C188.117 60.1612 187.603 60.11 187.14 60.0587C187.295 58.1114 188.784 56.7791 190.171 55.6004ZM191.558 70.5639C190.788 70.7689 189.914 70.5639 189.298 71.1276C191.404 71.6913 194.23 70.9739 195.257 68.9241C193.973 69.4878 192.894 70.4102 191.558 70.5639Z" fill="#D37878"/>
<path d="M186.164 61.0325C186.524 61.0325 186.884 61.0837 187.295 61.135C187.5 61.6987 188.117 61.8524 188.631 62.0061V62.0574C188.425 62.8773 188.682 63.9534 187.963 64.5684C187.654 64.6196 187.038 64.7221 186.73 64.8246C186.781 63.646 186.986 62.4161 187.295 61.2887C187.089 61.2374 186.627 61.1862 186.421 61.1862L186.164 61.0325Z" fill="#D37878"/>
<path d="M193.716 61.6987C194.744 61.0326 195.874 62.0062 195.925 63.0311C196.285 64.3635 195.103 66.0033 193.665 65.6446C192.02 64.9784 192.072 62.2624 193.716 61.6987Z" fill="#D37878"/>
<path d="M150 82.6579C149.64 82.0942 149.435 80.9668 150.462 81.0693C153.904 83.4265 155.651 87.3724 158.373 90.3446C158.99 88.8073 159.298 87.0649 160.479 85.8351C160.839 85.4763 161.404 85.5788 161.866 85.4763C161.764 89.0635 159.966 92.4969 160.479 96.1353C161.866 97.6214 163.099 99.3124 164.692 100.542C162.534 103.463 160.274 106.384 157.962 109.203C158.322 108.485 158.733 107.819 159.195 107.153C158.322 106.128 157.346 105.103 156.678 103.924C157.243 101.516 158.219 99.2612 158.682 96.8527C158.99 95.5203 158.373 93.7268 156.832 93.5218C154.88 93.4705 153.031 94.1367 151.079 94.2392C149.024 92.1382 147.74 89.4222 146.558 86.8087C146.815 86.7575 147.329 86.6037 147.586 86.5012C147.175 85.5788 146.353 84.5539 147.226 83.6315C149.384 84.8102 151.027 86.6037 152.877 88.1923C153.134 87.9873 153.442 87.7824 153.699 87.6286C152.312 86.1425 150.976 84.5027 150 82.6579ZM150.103 90.5496C151.182 90.0884 151.901 89.0635 152.209 87.9873C151.233 88.551 150.925 89.7809 150.103 90.5496Z" fill="#D37878"/>
<path d="M157.347 109.766C157.964 109.766 157.604 110.638 157.192 110.69C156.626 110.69 156.935 109.818 157.347 109.766Z" fill="#D37878"/>
<path d="M86.9179 125.396C88.7158 124.883 90.5651 124.73 92.4144 124.832C92.5686 124.832 92.8254 124.883 92.9281 124.883C94.6234 125.293 96.0617 126.267 97.2946 127.497C97.9624 128.573 98.7329 129.752 98.322 131.084C98.1165 132.263 97.0891 133.185 95.8562 133.39C91.2843 134.364 86.6097 135.132 81.8836 134.979C78.1336 134.876 74.1268 134.466 70.5823 136.004C70.5309 133.236 71.3528 130.52 71.7638 127.753C74.6918 127.753 77.6713 127.753 80.5994 127.394C82.8597 127.087 84.8117 125.96 86.9179 125.396ZM93.4418 128.983C93.0309 129.291 93.4932 130.162 94.0069 129.854C94.3665 129.495 93.9555 128.624 93.4418 128.983Z" fill="#D37878"/>
<path d="M178.151 128.778C181.284 128.317 184.418 129.291 187.397 130.162C190.531 131.033 193.819 130.264 196.901 129.701L197.055 129.649C197.569 131.392 198.185 133.083 198.75 134.825C198.853 135.235 199.161 135.696 198.853 136.106C193.305 136.414 187.706 136.824 182.209 135.901C180.257 136.311 178.151 136.67 176.25 135.799C174.76 135.235 173.682 133.647 173.887 132.058C174.349 130.213 176.301 129.086 178.151 128.778ZM179.178 133.954C178.87 134.62 180.257 134.774 180.36 134.159C180.257 133.698 179.435 133.595 179.178 133.954Z" fill="#D37878"/>
<path d="M115.531 239.826C115.993 239.723 116.456 239.621 116.918 239.518C117.586 239.518 118.253 239.569 118.921 239.569C118.819 240.082 118.664 240.645 118.459 241.158C117.534 242.234 116.969 243.72 115.788 244.489C110.805 244.694 105.822 244.54 100.839 244.694C100.736 244.489 100.582 244.13 100.531 243.925C100.736 243.413 100.993 242.9 101.199 242.388C104.075 242.029 106.952 241.722 109.829 241.465C110.805 241.312 111.884 241.363 112.706 240.748C112.808 240.697 113.014 240.543 113.117 240.492C113.887 240.287 114.709 240.082 115.531 239.826Z" fill="#D37878"/>
<path d="M86.4555 49.7588C86.9693 49.7588 87.4831 49.7588 87.9969 49.7075C87.8427 50.22 87.6372 50.7837 87.4831 51.2961V51.0911V50.6812C87.2262 50.6812 86.6097 50.6812 86.3528 50.6812C86.4042 50.3737 86.4042 50.0662 86.4555 49.7588Z" fill="#869FC3"/>
<path d="M207.689 69.0781C210.052 69.5906 209.179 73.7414 206.815 73.4339C205.737 73.4339 205.274 72.409 204.76 71.6916C204.76 71.1792 204.915 70.6667 205.223 70.2568C205.737 71.0254 206.353 71.7429 206.97 72.4603C207.843 71.4866 207.894 70.2568 207.689 69.0781Z" fill="#ECA453"/>
<path d="M60.257 71.1278C61.1816 70.6666 62.3118 70.7691 63.3392 70.8716C66.5755 72.1015 69.3494 74.3562 72.0207 76.5085C72.5344 76.8672 73.0994 77.2259 73.7159 77.2772C74.5378 76.7647 75.0515 75.9448 75.6165 75.2786C76.6439 73.9463 78.0309 72.7676 78.4419 71.0766C79.2638 71.1278 80.3426 70.7178 80.959 71.4353C82.5001 75.1249 82.6542 79.6857 80.1885 83.0166C79.7261 83.734 78.7501 84.2977 77.9796 83.6828C76.0789 82.1454 74.846 79.9932 73.5618 77.9434C73.0481 80.2494 72.6885 82.6579 71.3015 84.6564C69.8118 84.2977 68.4248 83.5803 67.2433 82.6066C63.9042 79.6857 61.3357 75.6373 61.0789 71.0766C60.8734 71.0766 60.4624 71.1278 60.257 71.1278Z" fill="#ECA453"/>
<path d="M224.23 145.535C229.675 145.125 235.12 144.818 240.565 144.408C243.391 151.019 245.137 158.347 244.367 165.572C243.956 169.723 242.415 173.925 239.435 176.897C236.815 179.562 233.271 180.997 229.778 182.073C222.894 183.969 215.805 184.789 208.716 185.148C207.021 185.199 205.171 185.609 204.093 187.044C202.397 189.042 202.552 191.809 202.346 194.269C201.113 208.515 200.394 222.813 199.315 237.11C197.106 237.11 194.949 237.11 192.74 237.007C188.887 236.649 185.086 236.854 181.233 236.495C173.784 236.29 166.336 235.88 158.939 235.419C156.575 235.265 154.161 235.111 151.798 234.855C152.98 217.227 154.418 199.65 155.805 182.022C156.216 177.461 156.319 172.695 158.425 168.493C160.582 163.932 164.641 160.653 169.058 158.449C169.88 158.142 170.754 157.988 171.627 157.988C181.747 157.988 191.867 157.988 201.986 157.988C204.606 157.937 207.278 158.142 209.897 157.885C213.802 157.27 217.808 156.092 220.839 153.427C222.997 151.531 224.486 148.661 224.332 145.74L224.23 145.535ZM160.685 176.18C159.144 193.091 157.295 210.001 155.702 226.963C155.805 227.322 156.062 227.476 156.421 227.425C156.884 226.605 156.73 225.631 156.884 224.76C157.757 216.099 158.528 207.388 159.452 198.727C160.12 191.143 161.147 183.559 161.558 175.975C161.302 176.026 160.891 176.128 160.685 176.18Z" fill="#ECA453"/>
<path d="M208.716 81.6331C211.182 82.453 213.801 82.7092 216.216 83.5291C215.445 84.1441 214.778 84.8615 214.418 85.8351C212.62 90.0884 212.312 94.803 212.26 99.3638C212.209 105.923 213.288 112.431 215.343 118.683C215.548 119.349 215.805 119.964 215.856 120.682C215.856 120.835 215.908 121.092 215.908 121.245C209.435 123.449 202.962 125.755 196.541 128.215C196.644 128.727 196.798 129.291 196.901 129.854C193.767 130.418 190.531 131.136 187.397 130.316C184.521 123.859 183.185 116.838 182.825 109.818C182.517 102.797 182.928 95.7254 184.315 88.8073C184.521 87.6799 184.572 86.3988 185.343 85.4252C186.575 83.7341 188.63 82.9142 190.634 82.5555C190.017 85.7839 189.555 89.2173 190.891 92.292C191.815 94.9055 194.281 96.8528 197.055 97.109C200.188 97.6214 203.527 96.2891 205.428 93.7268C208.048 90.2422 208.767 85.8351 208.716 81.6331ZM197.004 105.052C196.901 111.714 196.49 118.632 199.11 124.884C199.418 125.447 199.521 126.37 200.291 126.421C200.394 125.294 199.777 124.217 199.469 123.141C197.414 117.607 197.723 111.611 197.825 105.769C197.877 104.437 198.134 103.105 197.825 101.772C197.004 102.643 197.106 103.925 197.004 105.052Z" fill="#1F7B92"/>
<path d="M235.942 132.878L235.993 132.98C237.483 136.824 239.281 140.513 240.617 144.408C235.171 144.818 229.726 145.125 224.281 145.535C224.384 144.306 224.384 143.024 223.87 141.897C227.209 141.59 230.548 140.206 232.911 137.746C234.195 136.363 235.171 134.671 235.942 132.878Z" fill="#1F7B92"/>
<path d="M176.764 92.4457C176.97 91.9845 177.33 91.6258 177.741 91.3184C177.381 92.3433 176.867 93.2657 176.405 94.1881C174.863 97.6727 174.041 101.362 173.065 105.001C173.014 105.616 172.5 105.923 171.986 106.077C173.117 103.976 173.322 101.567 174.093 99.3125C174.709 97.0065 175.583 94.6493 176.764 92.4457Z" fill="#EBD2D6"/>
<path d="M165.873 100.184C166.336 99.9787 166.902 100.697 166.748 101.107C166.285 101.312 165.668 100.645 165.873 100.184Z" fill="#EBD2D6"/>
<path d="M170.753 109.357C170.805 108.383 171.832 108.383 172.551 108.537C173.271 111.611 174.093 114.737 174.452 117.914C174.709 118.683 173.271 118.324 173.476 117.71C172.86 115.045 172.654 112.278 171.73 109.664C170.805 113.764 169.572 117.914 167.209 121.45C166.901 121.912 166.438 122.373 165.771 122.219C165.565 121.707 165.976 121.297 166.233 120.887C168.801 117.505 169.726 113.354 170.753 109.357Z" fill="#EBD2D6"/>
<path d="M157.346 120.016C157.192 118.478 156.73 116.89 157.038 115.301C158.014 119.708 157.911 124.474 160.12 128.573C161.353 130.931 163.51 132.776 166.182 133.339C168.596 134.057 171.01 133.134 173.373 132.519C172.295 133.442 170.805 133.698 169.469 133.852C166.541 134.159 163.305 133.288 161.353 130.982C158.527 128.01 157.911 123.859 157.346 120.016Z" fill="#EBD2D6"/>
<path d="M93.442 128.983C93.9565 128.624 94.3682 129.496 94.008 129.855C93.4935 130.214 93.0304 129.342 93.442 128.983Z" fill="#EBD2D6"/>
<path d="M179.178 133.954C179.487 133.595 180.258 133.698 180.361 134.159C180.206 134.774 178.87 134.62 179.178 133.954Z" fill="#EBD2D6"/>
<path d="M43.0994 144.408C44.1268 144.92 44.6918 145.945 45.7192 146.458C49.7775 148.713 54.4521 149.532 59.0754 149.789C107.363 149.789 155.702 149.789 203.99 149.789C206.712 149.737 209.486 149.994 212.209 149.43C216.267 148.815 220.531 147.893 223.767 145.125C223.87 145.279 224.127 145.535 224.229 145.689C224.384 148.61 222.945 151.48 220.736 153.376C217.706 156.041 213.699 157.219 209.795 157.834C207.175 158.09 204.503 157.885 201.884 157.937C191.764 157.937 181.644 157.937 171.524 157.937C170.651 157.937 169.777 158.09 168.956 158.398C167.312 157.68 165.462 158.09 163.664 158.039C157.757 157.988 151.798 158.09 145.89 158.039C142.911 158.039 139.932 158.09 137.003 158.039C130.223 157.988 123.493 157.988 116.712 158.039C98.1165 157.988 79.4692 158.039 60.8733 158.039C55.5309 158.09 49.8288 156.502 46.0275 152.607C43.8185 150.506 43.0994 147.38 43.0994 144.408Z" fill="#EBD2D6"/>
<path d="M158.887 235.367C166.336 235.777 173.733 236.239 181.182 236.444C185.034 236.802 188.836 236.597 192.688 236.956C192.072 237.007 191.456 237.11 190.839 237.161C191.353 238.955 191.456 240.799 191.404 242.644C201.216 242.593 210.976 242.644 220.788 242.593C221.918 242.593 223.048 242.695 224.229 242.798C225.36 242.9 226.541 242.9 227.671 242.798C229.11 242.593 230.548 242.388 231.986 242.439C231.832 243.054 231.729 243.72 231.575 244.335C232.706 244.335 233.836 244.387 234.966 244.387C235.069 243.669 235.171 243.003 235.325 242.337C237.123 242.388 238.973 242.388 240.771 242.388C251.918 242.337 263.065 242.49 274.212 242.337C274.264 242.439 274.315 242.644 274.366 242.747C272.26 243.003 270.103 242.644 267.945 243.003C266.096 243.31 264.247 243.054 262.397 243.413C256.182 244.13 249.914 244.643 243.647 245.155C241.901 245.514 240.103 245.155 238.356 245.565C236.353 245.975 234.247 245.463 232.243 245.873C229.777 246.334 227.209 245.873 224.743 246.231C221.918 246.744 218.99 246.18 216.164 246.744C213.185 246.898 210.257 246.744 207.277 246.846C205.942 246.846 204.503 247 203.219 246.59C203.271 245.873 203.271 245.104 203.271 244.387C201.216 243.874 199.007 244.13 196.901 244.028C194.795 244.079 192.74 243.72 190.634 243.772C191.199 242.234 190.89 240.338 189.606 239.211C187.397 237.417 183.545 237.725 182.003 240.236C181.284 241.312 181.387 242.593 181.336 243.823C178.408 243.977 175.479 245.206 172.603 244.387C170.497 243.874 168.39 243.464 166.284 243.003C166.079 242.132 165.873 241.107 165 240.646C162.329 238.955 159.247 237.981 156.164 237.52C156.473 237.468 156.832 237.417 157.14 237.366C157.192 237.007 157.243 236.649 157.295 236.29C157.757 235.88 158.322 235.624 158.887 235.367Z" fill="#EBD2D6"/>
<path d="M93.9555 241.261C93.9042 240.082 94.1096 238.903 94.7261 237.93C95.137 239.211 95.4453 240.492 95.8048 241.773C96.0103 242.183 96.0617 242.9 96.6268 242.952C98.1165 242.849 99.6062 242.593 101.147 242.439C100.89 242.952 100.685 243.464 100.479 243.977C100.582 244.182 100.736 244.54 100.788 244.745C100.531 244.745 99.9658 244.745 99.709 244.745C99.8117 245.411 99.9658 246.129 100.069 246.795C96.4213 246.59 92.7226 246.744 89.0754 246.693C83.5274 246.129 77.8768 246.539 72.3288 246.283C68.7843 245.668 65.137 246.385 61.5925 245.719C59.2295 245.565 56.8151 245.873 54.4521 245.411C49.161 245.258 43.8699 244.592 38.5274 244.182C35.137 243.772 31.798 243.105 28.3562 243.208C25.9932 242.798 23.5788 242.952 21.1644 242.849C21.3185 242.542 21.5754 242.439 21.8836 242.439C31.9007 242.439 41.9179 242.439 51.8836 242.439C54.1953 242.542 56.5069 242.234 58.8185 242.644C58.9726 243.31 59.0754 244.028 59.1781 244.694C60.3083 244.694 61.4384 244.694 62.6199 244.694C62.4658 243.977 62.3117 243.259 62.209 242.49C63.6473 242.644 65.0857 242.542 66.4726 242.849C67.6028 242.952 68.7329 242.9 69.9144 242.849C71.3014 242.695 72.6884 242.644 74.0754 242.644C79.3151 242.644 84.5548 242.644 89.7946 242.644C91.1302 242.593 92.5172 242.644 93.8528 242.849C93.8014 243.157 93.6987 243.772 93.6987 244.079C94.6233 244.028 95.548 243.977 96.3185 243.464C95.7021 242.49 94.8802 241.773 93.9555 241.261Z" fill="#EBD2D6"/>
</g>
<defs>
<clipPath id="clip0_1189_14563">
<rect width="300" height="247" fill="white"/>
</clipPath>
</defs>
</svg>
