<svg width="24" height="24" viewBox="0 0 24 24" fill="none" xmlns="http://www.w3.org/2000/svg">
<path d="M21.4279 7.71411H2.57073C1.62396 7.71411 0.856445 8.48162 0.856445 9.4284V21.4284C0.856445 22.3752 1.62396 23.1427 2.57073 23.1427H21.4279C22.3746 23.1427 23.1422 22.3752 23.1422 21.4284V9.4284C23.1422 8.48162 22.3746 7.71411 21.4279 7.71411Z" stroke="#B4B4B4" stroke-width="1.5" stroke-linecap="round" stroke-linejoin="round"/>
<path d="M0.856445 14.5713H23.1422" stroke="#B4B4B4" stroke-width="1.5" stroke-linecap="round" stroke-linejoin="round"/>
<path d="M12 12.8569V16.2855" stroke="#B4B4B4" stroke-width="1.5" stroke-linecap="round" stroke-linejoin="round"/>
<path d="M17.1422 7.71415C17.1422 6.35018 16.6003 5.04207 15.6359 4.0776C14.6714 3.11312 13.3633 2.57129 11.9993 2.57129C10.6353 2.57129 9.32723 3.11312 8.36275 4.0776C7.39828 5.04207 6.85645 6.35018 6.85645 7.71415" stroke="#B4B4B4" stroke-width="1.5" stroke-linecap="round" stroke-linejoin="round"/>
</svg>
