<svg width="36" height="36" viewBox="0 0 36 36" fill="none" xmlns="http://www.w3.org/2000/svg">
<path d="M11.8042 11.6077H5.45129C5.15892 11.6077 4.92188 11.8447 4.92188 12.1371V26.9606C4.92188 27.253 5.15892 27.49 5.45129 27.49H11.8042C12.0966 27.49 12.3336 27.253 12.3336 26.9606V12.1371C12.3336 11.8447 12.0966 11.6077 11.8042 11.6077ZM11.2748 26.4312H5.9807V12.6665H11.2748V26.4312ZM14.2944 18.0113H21.7043C21.9967 18.0113 22.2337 17.7742 22.2337 17.4819V12.1371C22.2337 11.8447 21.9967 11.6077 21.7043 11.6077H14.2944C14.002 11.6077 13.765 11.8447 13.765 12.1371V17.4819C13.765 17.7742 14.002 18.0113 14.2944 18.0113ZM14.8238 12.6665H21.1749V16.9524H14.8238V12.6665ZM24.1947 27.49H30.5477C30.84 27.49 31.0771 27.253 31.0771 26.9606V12.1371C31.0771 11.8447 30.84 11.6077 30.5477 11.6077H24.1947C23.9024 11.6077 23.6653 11.8447 23.6653 12.1371V26.9606C23.6653 27.253 23.9024 27.49 24.1947 27.49ZM24.7242 12.6665H30.0183V26.4312H24.7242V12.6665ZM12.369 6.34449C11.8566 6.22086 11.4809 6.13695 11.4809 5.76361C11.4809 5.4503 11.7666 5.331 12.0824 5.331C12.4003 5.331 12.8146 5.44904 13.0471 5.65862L13.3697 5.20314C13.0252 4.9164 12.5406 4.77325 12.1053 4.77325C11.4432 4.77325 10.8513 5.10682 10.8513 5.80713C10.8513 6.56202 11.3961 6.74915 12.1309 6.92557C12.4909 7.01201 12.8476 7.11034 12.8476 7.45796C12.8476 7.77898 12.5353 7.91596 12.2128 7.91596C11.8239 7.91596 11.4484 7.75911 11.0868 7.44503L10.708 7.90074C11.1414 8.28626 11.6377 8.47914 12.1975 8.47914C12.8974 8.47914 13.4772 8.10641 13.4772 7.42713C13.4772 6.75338 13.027 6.50405 12.369 6.34449Z" fill="#555555"/>
<path d="M16.6063 6.41116H14.8301V4.85999H14.2266V8.43828H14.8301V6.97393H16.6063V8.43828H17.2103V4.85999H16.6063V6.41116Z" fill="#555555"/>
<path d="M19.8563 4.77322C18.8013 4.77322 17.9727 5.54782 17.9727 6.62355C17.9727 7.69681 18.7991 8.4739 19.8563 8.4739C20.9147 8.4739 21.74 7.6953 21.74 6.62355C21.74 5.55035 20.9139 4.77322 19.8563 4.77322ZM19.8563 7.92113C19.1333 7.92113 18.5921 7.3385 18.5921 6.62355C18.5921 5.91047 19.131 5.326 19.8563 5.326C20.5808 5.326 21.1206 5.91002 21.1206 6.62355C21.1206 7.3395 20.5781 7.92113 19.8563 7.92113ZM23.7311 4.86008H22.5027V8.43807H23.1067V7.38878H23.7413C24.6856 7.38878 25.2924 7.08287 25.2924 6.13472C25.2924 5.17025 24.6879 4.86008 23.7311 4.86008ZM23.808 6.84098H23.1067V5.40785H23.7209C24.2812 5.40785 24.673 5.52989 24.673 6.08599C24.673 6.66297 24.3848 6.84098 23.808 6.84098Z" fill="#555555"/>
<path d="M1.05871 32.0893C0.766344 32.0893 0.529297 32.3263 0.529297 32.6187C0.529297 32.911 0.766344 33.1481 1.05871 33.1481C12.3158 33.1481 23.6357 33.1481 34.9411 33.1481C35.2334 33.1481 35.4705 32.911 35.4705 32.6187C35.4705 32.3263 35.2334 32.0893 34.9411 32.0893H33.701V10.4004H34.9411C35.2334 10.4004 35.4705 10.1634 35.4705 9.87103C35.4705 9.57866 35.2334 9.34162 34.9411 9.34162C34.8907 9.34162 30.1847 9.34162 29.9649 9.34162V3.91075H31.221C31.5133 3.91075 31.7504 3.67371 31.7504 3.38134C31.7504 3.08897 31.5133 2.85193 31.221 2.85193C23.436 2.85193 18.008 2.85193 4.77881 2.85193C4.48644 2.85193 4.2494 3.08897 4.2494 3.38134C4.2494 3.67371 4.48644 3.91075 4.77881 3.91075H6.03461V9.34162C5.89709 9.34162 1.27776 9.34162 1.05871 9.34162C0.766343 9.34162 0.529297 9.57866 0.529297 9.87103C0.529297 10.1634 0.766343 10.4004 1.05871 10.4004H2.29874V32.0893H1.05871ZM17.4694 32.0875H14.8224V21.1288H17.4694V32.0875ZM21.1753 32.0875H18.5283V21.1288H21.1753V32.0875ZM7.09343 3.91075H28.9061V9.34162H7.09343V3.91075ZM3.35757 10.4004C9.06987 10.4004 26.9201 10.4004 32.6422 10.4004V32.0893H22.2341V20.5994C22.2341 20.307 21.9971 20.07 21.7047 20.07H14.293C14.0006 20.07 13.7636 20.307 13.7636 20.5994V32.0893H3.35757V10.4004Z" fill="#555555"/>
</svg>
