<svg width="815" height="807" viewBox="0 0 815 807" fill="none" xmlns="http://www.w3.org/2000/svg">
<path fill-rule="evenodd" clip-rule="evenodd" d="M650.134 189.709C681.163 244.026 716.83 305.777 701.216 366.323C685.867 425.842 608.75 443.26 572.04 492.538C539.325 536.456 551.91 619.15 499.965 636.484C446.087 654.462 403.607 578.613 347.921 567.324C297.594 557.121 246.351 590.055 197.22 575.108C132.811 555.514 42.0866 536.494 29.2779 470.385C15.9826 401.764 124.053 367.038 143.928 300.052C163.568 233.857 82.4779 135.191 140.034 97.0917C201.674 56.2892 272.797 175.524 346.139 166.199C416.905 157.201 448.69 43.2999 519.824 48.8013C584.894 53.8339 617.743 133.01 650.134 189.709Z" fill="url(#paint0_linear_1204_17596)" fill-opacity="0.3"/>
<g clip-path="url(#clip0_1204_17596)">
<path d="M176.053 303.912C229.543 302.186 283.034 300.783 336.525 299.272C347.655 347.721 358.893 396.062 370.132 444.403C370.564 444.403 371.429 444.295 371.861 444.187C361.379 445.374 350.897 446.885 340.307 448.18C334.039 448.935 327.555 450.122 321.288 449.043C312.967 446.993 306.159 441.49 298.487 437.821C295.245 435.987 291.895 438.361 288.869 439.44C285.627 440.95 281.737 440.842 278.712 443.001C274.497 445.59 272.336 450.338 268.23 453.036C271.147 456.596 276.118 454.978 279.9 454.223C282.061 456.273 285.087 455.949 287.789 456.596C291.571 458.862 295.029 461.776 299.027 463.61C304.971 466.524 311.67 467.711 318.37 467.711C317.182 470.3 314.156 469.545 311.995 469.761C279.684 470.948 247.374 471.811 215.171 473.322C201.663 416.996 188.804 360.454 176.053 303.912ZM255.262 314.055C248.346 314.163 241.43 314.919 234.406 314.919C227.166 315.458 219.926 315.35 212.686 316.105C209.984 316.213 208.795 319.343 209.336 321.609C209.768 324.738 210.633 329.27 214.631 329.378C229.003 328.838 243.375 327.975 257.747 327.651C272.444 326.896 287.032 326.464 301.729 325.817C303.458 325.817 305.943 325.277 306.159 323.227C306.051 319.99 305.511 316.537 303.89 313.732C303.242 312.437 301.729 312.221 300.324 312.221C285.195 312.76 270.175 313.516 255.262 314.055ZM289.95 336.068C264.447 337.578 238.945 338.549 213.442 340.168C213.874 341.895 213.334 345.347 216.036 344.592C247.049 343.081 278.063 341.463 308.969 339.629C308.861 338.118 308.645 336.607 308.32 335.097C302.269 334.989 296.109 335.96 289.95 336.068ZM272.336 362.396C254.398 363.583 236.459 364.015 218.521 365.418C218.737 366.82 218.953 368.223 219.169 369.626C222.303 370.165 225.329 369.302 228.463 369.41C259.909 367.684 291.355 366.173 322.801 364.339C322.909 362.72 322.585 361.209 322.26 359.699C305.619 360.346 288.977 361.641 272.336 362.396ZM259.476 382.79C259.585 384.301 259.693 385.811 259.909 387.322C278.928 386.675 297.947 385.272 316.965 384.409C320.531 384.085 324.206 384.193 327.664 383.545C327.339 382.143 327.123 380.74 326.799 379.337C324.746 379.013 322.585 379.229 320.531 379.445C300.216 380.524 279.9 381.819 259.476 382.79ZM276.01 392.501C258.072 393.473 240.133 394.66 222.303 395.739C221.006 395.739 219.818 396.062 218.521 396.494C218.737 397.897 218.845 399.191 219.061 400.594C223.492 400.81 227.814 400.163 232.137 400.055C253.533 398.868 275.037 397.357 296.434 396.278C307.348 395.415 318.262 395.415 329.068 394.12C328.96 392.717 328.852 391.207 328.744 389.804C325.286 389.588 321.828 390.02 318.37 390.128C304.214 391.099 290.058 391.638 276.01 392.501ZM307.456 411.385C279.252 413.003 251.048 414.514 222.844 416.025C222.952 417.535 223.168 419.046 223.276 420.449C230.084 420.557 236.892 419.693 243.808 419.585C273.741 417.859 303.566 416.564 333.499 414.406C333.391 412.895 333.175 411.385 332.85 409.982C324.314 410.198 315.885 410.953 307.456 411.385ZM262.178 424.225C249.751 425.196 237.216 425.412 224.789 426.491C225.005 428.002 225.221 429.405 225.545 430.915C261.746 429.081 297.947 426.815 334.147 424.765C335.228 423.578 334.796 419.477 332.31 420.341C308.969 421.743 285.519 422.93 262.178 424.225Z" fill="#FEFEFE"/>
<path d="M112.188 409.119C113.593 411.061 114.457 413.219 115.322 415.377C116.51 415.485 117.807 415.485 118.996 415.485H119.752C121.049 415.485 122.346 415.377 123.642 415.377C124.723 415.377 125.804 415.377 126.884 415.377C127.425 414.514 127.965 413.543 128.505 412.679C128.829 412.895 129.37 413.435 129.586 413.651C129.478 414.082 129.262 415.053 129.154 415.485C130.234 415.377 131.423 415.377 132.504 415.377C133.692 415.269 134.881 415.269 136.07 415.377C137.582 415.485 139.095 415.593 140.608 415.269C147.956 416.348 155.413 414.514 162.761 415.917C163.085 420.233 162.761 424.549 162.869 428.865C162.869 447.64 162.977 466.308 162.761 485.083C141.148 485.191 119.536 485.299 97.9237 484.975C97.5996 479.364 97.8157 473.861 97.8157 468.25C97.9238 450.77 97.5996 433.397 98.0318 415.917C102.678 415.701 107.325 415.701 111.972 415.593C113.052 415.593 114.133 415.701 115.214 415.809C114.349 413.435 113.269 411.277 112.188 409.119Z" fill="#FEFEFE"/>
<path d="M168.271 354.088C168.379 353.764 168.487 353.117 168.595 352.793C168.919 353.764 169.352 354.735 169.784 355.598C170.108 356.57 170.432 357.649 170.756 358.62C162.328 368.871 153.034 378.366 144.173 388.185C143.525 388.833 142.768 389.48 142.012 390.02C141.688 389.912 141.147 389.804 140.823 389.804C141.364 388.941 141.904 388.078 142.552 387.322C150.225 379.122 157.573 370.813 165.137 362.504C166.542 360.778 168.271 359.267 169.352 357.325C169.352 356.138 168.703 355.059 168.271 354.088Z" fill="#F2F9FE"/>
<path d="M499.589 245.105C499.913 243.055 500.886 241.112 502.507 239.817C503.803 239.71 504.992 240.357 506.181 240.681C506.289 242.191 506.505 243.702 506.289 245.105C505.316 245.644 503.479 246.507 504.56 247.91C504.992 248.558 504.344 249.313 504.236 250.068C504.344 248.773 504.019 247.479 503.371 246.292C504.127 245.968 504.776 245.644 505.532 245.32C505.64 244.889 505.965 244.026 506.181 243.594C505.965 241.868 504.344 240.249 502.507 240.789C501.318 241.975 500.561 243.594 499.589 245.105Z" fill="#9E4A2A"/>
<path d="M361.27 352.901C366.132 351.822 371.211 352.253 376.182 352.145C396.606 352.037 417.029 352.145 437.453 352.145C437.669 357.972 437.453 363.799 437.669 369.626C442.856 370.165 448.043 369.41 453.338 369.734C442.208 389.48 430.537 409.011 417.246 427.462C414.436 431.131 411.518 435.016 407.412 437.389C403.089 439.979 398.011 440.519 393.04 441.274C389.366 441.706 385.8 442.353 382.125 442.785C375.101 412.787 368.185 382.898 361.27 352.901Z" fill="#E6F2FD"/>
<path d="M505.749 182.844C514.286 181.442 523.471 181.118 531.684 184.355C536.006 185.974 540.004 188.563 543.462 191.585C551.459 198.706 554.701 209.389 556.538 219.532C558.375 229.459 561.184 240.141 569.289 246.939C574.368 251.687 581.932 252.227 586.687 257.298C591.874 262.477 593.063 270.139 593.279 277.152C593.603 290.64 588.308 303.481 580.96 314.487C578.042 316.969 574.692 319.019 571.666 321.501C561.509 329.486 553.296 340.168 549.622 352.685L549.946 353.872C549.838 353.98 549.514 354.196 549.298 354.304C549.298 353.98 549.19 353.225 549.19 352.901C540.653 348.693 533.629 340.924 531.9 331.428C530.711 325.062 531.251 318.048 527.793 312.329C524.443 306.718 518.608 303.481 513.745 299.489C510.612 296.791 507.478 293.877 505.533 290.101C503.696 286.864 502.939 283.087 501.967 279.526C500.562 271.218 502.075 262.909 504.02 254.816C504.776 251.363 506.829 248.45 507.694 245.105C508.45 241.976 506.721 237.444 503.047 237.66C500.13 237.444 498.617 240.249 497.104 242.299C493.214 241.328 489.323 240.357 485.973 238.199C478.949 233.775 474.195 226.761 469.764 219.855C469.656 219.855 469.44 219.747 469.224 219.747C467.387 226.222 466.414 232.804 466.414 239.494C468.143 239.71 469.764 239.926 471.493 240.249C471.601 240.681 471.925 241.436 472.142 241.868C470.304 242.407 468.467 241.976 466.738 241.436C466.522 240.897 466.198 240.465 465.874 240.033C463.064 237.228 460.471 234.099 458.958 230.43C454.852 221.042 455.392 209.173 461.768 200.972C462.956 199.569 464.253 198.167 465.658 196.98C469.008 194.93 473.006 195.145 476.788 195.577C480.246 196.009 482.84 193.419 485.325 191.585C486.082 191.045 486.838 190.506 487.594 189.966C493.322 186.405 499.481 184.139 505.749 182.844Z" fill="#1B1626"/>
<path d="M469.44 219.531C469.548 219.531 469.764 219.639 469.98 219.639C474.411 226.437 479.165 233.451 486.189 237.983C489.539 240.249 493.538 241.22 497.32 242.083C498.833 240.141 500.346 237.228 503.263 237.444C506.937 237.336 508.666 241.868 507.91 244.889C506.937 248.234 504.884 251.147 504.236 254.6C502.399 262.693 500.778 271.11 502.183 279.31C500.778 276.289 501.318 272.836 501.21 269.491C497.86 273.699 493.43 276.828 488.783 279.31C484.46 280.713 479.814 282.116 475.275 280.929C470.737 278.987 469.872 273.591 467.495 269.815C466.738 267.872 466.414 265.822 466.198 263.772C466.198 263.34 466.09 262.369 465.982 261.83C465.658 261.722 465.009 261.614 464.685 261.614C463.28 261.29 461.984 260.859 460.687 260.427C460.579 259.456 460.579 258.485 460.471 257.514C463.713 252.55 466.63 247.155 466.954 241.004C468.683 241.652 470.52 242.083 472.358 241.436C472.249 241.004 471.925 240.249 471.709 239.817C469.98 239.494 468.359 239.278 466.63 239.062C466.522 232.696 467.603 226.006 469.44 219.531ZM499.589 245.105C500.562 243.702 501.318 241.976 502.615 240.789C504.452 240.249 506.073 241.76 506.289 243.594C506.181 244.026 505.857 244.889 505.641 245.321C504.884 245.644 504.236 245.968 503.479 246.292C504.128 247.479 504.452 248.773 504.344 250.068C504.452 249.313 505.1 248.558 504.668 247.91C503.587 246.507 505.533 245.644 506.397 245.105C506.613 243.594 506.397 242.083 506.289 240.681C505.1 240.357 503.804 239.71 502.615 239.817C500.886 241.004 499.913 243.055 499.589 245.105Z" fill="#FB925C"/>
<path d="M468.575 341.247C480.462 337.902 493.753 341.571 502.506 350.095C505.532 352.901 507.369 356.677 508.99 360.346C509.53 359.591 510.071 358.835 510.503 358.08C508.342 364.77 505.208 371.136 501.858 377.287C495.05 388.293 487.918 399.191 480.354 409.658C474.518 417.859 468.143 425.628 462.091 433.613C455.499 442.245 448.043 450.338 439.29 456.812C430.969 462.963 420.812 466.955 410.438 467.063C384.935 466.955 359.324 467.063 333.822 467.279C328.635 467.387 323.448 467.063 318.261 467.71C311.669 467.71 304.969 466.524 298.918 463.61C294.919 461.668 291.461 458.862 287.679 456.596C284.978 455.949 281.952 456.273 279.791 454.222C276.009 454.978 271.038 456.704 268.12 453.036C272.335 450.446 274.388 445.59 278.602 443C281.628 440.95 285.41 440.95 288.76 439.44C291.786 438.361 295.136 435.987 298.377 437.821C306.05 441.382 312.858 446.885 321.178 449.043C327.446 450.122 333.93 448.935 340.197 448.18C350.679 446.993 361.161 445.374 371.751 444.187C375.209 443.756 378.559 443.108 382.125 442.785C385.799 442.353 389.366 441.814 393.04 441.274C397.902 440.519 403.089 439.979 407.412 437.389C411.518 435.016 414.436 431.131 417.245 427.462C430.537 409.011 442.208 389.48 453.338 369.734C456.04 364.77 458.849 360.022 461.335 354.951C463.82 350.419 466.198 345.779 468.575 341.247Z" fill="#FB925C"/>
<path d="M124.398 248.342C126.451 246.076 128.72 243.162 132.07 243.378C132.718 244.565 133.367 245.86 134.015 247.155C133.583 249.097 135.096 250.5 135.96 252.011C139.634 257.622 141.255 264.204 141.796 270.786C142.552 279.742 140.823 288.698 139.742 297.546C139.634 298.193 139.418 298.841 138.986 299.38C132.394 287.943 126.127 276.289 119.535 264.743C118.67 263.448 118.238 261.506 116.401 261.29C117.049 264.204 118.887 266.578 120.291 269.167C125.586 278.663 130.773 288.266 136.176 297.762C137.149 299.596 138.446 301.323 138.878 303.373C136.825 313.624 134.772 323.875 132.286 334.018C131.746 336.068 131.638 338.118 131.638 340.168C131.097 341.355 130.449 342.542 129.909 343.729C128.936 344.053 127.748 344.484 127.315 345.563C126.127 344.268 125.262 342.758 124.938 341.031C123.209 333.262 121.48 325.601 119.427 317.94C119.103 316.645 118.562 315.458 118.022 314.271C116.617 311.466 116.617 308.121 115.429 305.315C113.159 300.891 108.513 298.086 103.542 298.301C101.813 286.864 106.027 275.534 111.971 265.93C115.861 259.78 119.967 253.845 124.398 248.342Z" fill="#8FB5E7"/>
<path d="M132.179 243.378C136.069 243.594 139.851 244.781 143.093 247.047C141.688 248.342 140.175 249.637 138.77 250.931C138.879 252.01 138.987 252.982 139.095 254.061C137.69 251.579 136.069 249.313 134.124 247.263C133.475 245.86 132.827 244.673 132.179 243.378Z" fill="#709BCF"/>
<path d="M138.771 250.824C140.175 249.529 141.58 248.234 143.093 246.939C148.28 250.608 151.63 256.219 153.467 262.154C155.412 269.06 156.601 276.397 155.736 283.519C155.412 287.403 154.331 291.072 153.575 294.849C150.981 303.912 148.388 313.084 145.903 322.148C144.498 327.436 142.553 332.507 139.959 337.255C139.095 338.765 137.798 339.952 136.393 341.031C136.393 338.873 138.771 337.902 139.419 335.96C139.851 334.341 139.959 332.723 140.175 331.212C138.662 330.241 137.15 329.378 135.637 328.515C138.338 317.077 140.716 305.531 142.228 293.77C144.282 280.497 145.686 266.146 139.311 253.845C138.879 252.982 138.879 251.903 138.771 250.824Z" fill="#5E88BC"/>
<path d="M135.961 252.01C135.096 250.5 133.583 249.097 134.015 247.155C135.961 249.205 137.69 251.471 138.986 253.953C145.254 266.362 143.957 280.713 141.904 293.877C140.391 305.531 138.014 317.077 135.312 328.622C134.124 332.507 133.907 336.715 131.638 340.168C131.53 338.118 131.746 335.96 132.286 334.017C134.772 323.874 136.825 313.624 138.878 303.373C138.446 301.323 137.149 299.596 136.177 297.762C130.774 288.266 125.587 278.771 120.292 269.167C118.887 266.577 117.05 264.204 116.401 261.29C118.238 261.614 118.779 263.448 119.535 264.743C126.127 276.181 132.395 287.835 138.986 299.38C139.419 298.841 139.635 298.193 139.743 297.546C140.823 288.698 142.552 279.742 141.796 270.786C141.256 264.204 139.743 257.514 135.961 252.01Z" fill="#F2FCFD"/>
<path d="M488.675 279.418C493.321 276.937 497.86 273.807 501.102 269.599C501.318 272.836 500.67 276.289 502.075 279.418C503.047 282.979 503.803 286.756 505.641 289.993C507.586 293.77 510.719 296.683 513.853 299.381C509.855 300.028 505.64 300.028 501.75 300.999C498.508 301.755 495.591 303.373 492.565 304.668C492.349 303.697 492.133 302.726 492.025 301.755C491.701 299.812 491.376 297.87 491.052 296.036C490.08 290.532 489.647 284.921 488.675 279.418Z" fill="#D17041"/>
<path d="M237.647 272.297C239.485 271.973 241.322 271.649 243.159 271.757C244.671 272.081 245.644 273.483 246.617 274.67C245.86 276.613 245.536 279.634 243.051 279.85C241.322 279.85 239.16 279.31 238.404 277.476C237.647 275.749 237.756 274.023 237.647 272.297Z" fill="#1A1729"/>
<path d="M233.865 275.534C234.513 273.807 235.918 272.728 237.647 272.297C237.755 274.023 237.647 275.857 238.403 277.476C239.052 279.31 241.213 279.85 243.05 279.85C245.643 279.634 245.859 276.613 246.616 274.671C246.832 274.994 247.156 275.426 247.372 275.75C248.237 277.044 248.993 278.339 249.642 279.742C250.83 282.224 251.803 284.813 252.775 287.403C262.393 287.079 272.01 286.864 281.628 286.54C287.571 286.324 293.407 286.216 299.35 286C310.589 285.677 321.719 285.353 332.957 285.029C336.199 285.029 339.765 284.813 342.467 286.864C345.709 289.238 347.113 293.122 347.978 296.791C348.194 297.978 348.518 299.165 348.734 300.352C349.815 305.531 351.004 310.603 352.408 315.674C352.625 316.645 352.841 317.616 353.057 318.587C354.137 323.443 355.326 328.299 356.515 333.154C356.839 334.341 357.055 335.636 357.379 336.823C358.136 340.168 358.892 343.621 359.757 346.966C359.973 348.153 360.297 349.34 360.513 350.527C360.729 351.39 360.945 352.253 361.161 353.117C368.077 383.114 374.993 413.111 382.017 443.001C378.559 443.324 375.101 443.972 371.643 444.403C371.211 444.403 370.347 444.511 369.914 444.619C358.676 396.278 347.438 347.829 336.307 299.488C282.817 300.999 229.326 302.402 175.835 304.128C188.695 360.67 201.446 417.212 214.738 473.537C247.048 472.027 279.251 471.164 311.561 469.977C313.83 469.761 316.856 470.516 317.937 467.926C323.124 467.279 328.311 467.711 333.498 467.495C359 467.279 384.611 467.063 410.113 467.279C428.376 467.063 446.638 467.063 464.901 467.171C464.469 469.761 463.82 472.351 462.848 474.832C422.865 474.724 382.99 474.617 343.007 474.724C304.753 474.94 266.499 474.724 228.353 474.832C220.465 474.617 212.576 475.156 204.58 475.048C204.148 473.861 203.607 472.674 203.283 471.487C195.178 437.498 187.182 403.508 179.293 369.41C174.214 347.506 169.244 325.601 164.273 303.805C163.408 299.704 161.787 295.172 163.84 291.072C165.786 289.669 168.271 289.669 170.54 289.561C191.396 289.022 212.252 288.266 233.216 287.727C233.108 284.382 233 281.145 233.216 277.8C233.54 277.26 233.757 276.073 233.865 275.534Z" fill="#1A1729"/>
<path d="M163.515 291.395L164.056 290.964C162.003 294.956 163.624 299.596 164.488 303.697C169.567 325.601 174.43 347.506 179.509 369.302C178.32 371.136 178.752 373.51 177.239 375.021C176.915 374.05 176.699 373.079 176.483 372.108C175.618 372.539 174.862 372.971 173.997 373.402C173.781 372.323 173.457 371.136 173.241 370.057C172.485 366.173 171.62 362.288 170.54 358.512C170.215 357.433 169.891 356.462 169.567 355.49C169.675 353.332 169.351 351.174 168.811 349.016C166.433 340.06 164.488 330.996 162.219 322.04C160.598 315.89 159.193 309.523 158.329 303.157C157.896 298.733 159.949 294.201 163.515 291.395Z" fill="#436A99"/>
<path d="M153.467 294.956C153.791 297.006 154.115 299.057 153.899 301.215C153.791 304.452 152.71 308.013 155.088 310.71C153.359 315.782 151.738 320.961 149.468 325.817C147.415 330.457 143.633 334.018 140.715 338.226C136.069 345.995 133.259 354.735 130.666 363.367C130.558 357.325 128.721 351.498 127.424 345.671C127.856 344.592 129.045 344.161 130.017 343.837C132.179 343.189 134.34 342.542 136.177 341.247C137.582 340.168 138.878 338.981 139.743 337.47C142.336 332.723 144.281 327.651 145.686 322.364C148.28 313.192 150.765 304.02 153.467 294.956Z" fill="#E4F1FC"/>
<path d="M103.65 298.301C108.621 298.193 113.267 300.999 115.537 305.315C116.725 308.229 116.725 311.466 118.13 314.271C120.399 322.472 122.236 330.673 123.749 338.981C124.398 343.513 125.262 348.045 126.343 352.577C125.586 355.167 124.398 357.972 121.588 358.943C120.507 359.267 119.319 359.591 118.238 359.807C110.998 359.375 104.514 355.275 98.5708 351.498C91.7629 346.534 85.7115 339.089 85.3873 330.349C85.1712 321.069 89.7098 312.329 95.329 305.207C97.3822 302.294 100.3 299.92 103.65 298.301ZM99.9756 313.624C103.974 317.724 108.404 321.824 110.35 327.328C113.051 334.125 115.32 341.139 117.914 347.937C118.67 349.772 119.103 352.038 121.156 353.009C118.67 343.513 114.456 334.449 111.322 325.169C110.998 321.285 111.754 317.292 111.106 313.408C110.89 313.192 110.458 312.868 110.242 312.653C109.701 315.782 109.917 318.911 109.377 321.932C106.567 319.451 104.622 316.321 102.245 313.516C101.705 312.437 100.732 313.192 99.9756 313.624Z" fill="#A7C8F6"/>
<path d="M501.75 301.107C505.748 300.028 509.854 300.028 513.852 299.488C518.715 303.481 524.551 306.826 527.901 312.329C531.358 318.156 530.818 325.062 532.007 331.428C533.736 340.815 540.868 348.692 549.297 352.901C549.297 353.224 549.405 353.98 549.405 354.303C545.19 368.223 541.84 382.358 537.842 396.386C532.655 415.377 527.576 434.476 522.281 453.467C519.904 444.08 516.878 434.8 514.717 425.412C511.475 412.895 508.125 400.271 504.991 387.754C504.127 384.301 503.587 380.74 501.966 377.503C505.316 371.352 508.449 364.986 510.611 358.296C510.07 359.051 509.53 359.807 509.098 360.562C507.477 356.785 505.532 353.117 502.614 350.311C493.861 341.787 480.569 338.118 468.683 341.463C471.816 333.91 475.599 326.572 480.137 319.774C481.11 318.371 482.082 316.969 483.055 315.566C484.135 314.055 485.324 312.545 486.513 311.034C487.81 309.415 489.322 308.013 490.835 306.61C491.376 306.07 492.024 305.531 492.564 304.991C495.59 303.373 498.508 301.862 501.75 301.107Z" fill="#FFDEA6"/>
<path d="M591.226 309.308C604.625 303.049 619.214 299.057 634.018 299.272C638.449 299.272 643.203 301.107 645.473 305.207C635.639 302.725 625.373 304.56 615.756 306.934C607.219 308.984 599.006 312.437 591.226 316.537C592.414 315.242 590.577 313.516 592.09 312.545C593.063 311.897 594.143 311.466 595.116 311.142C593.711 310.818 592.306 310.387 591.226 309.308Z" fill="#4970A0"/>
<path d="M158.545 303.265C159.409 309.631 160.706 315.89 162.435 322.148C164.596 331.104 166.65 340.168 169.027 349.124C169.567 351.174 169.891 353.44 169.783 355.598C169.351 354.627 168.919 353.656 168.595 352.793C167.838 349.987 166.325 347.506 165.245 344.916C161.679 337.47 158.221 329.809 153.466 323.011C153.466 323.551 153.358 324.738 153.25 325.277C151.953 325.493 150.656 325.709 149.468 325.817C151.737 320.961 153.358 315.782 155.087 310.71C155.735 307.905 159.518 306.61 158.545 303.265Z" fill="#5986B9"/>
<path d="M615.755 306.934C625.372 304.56 635.638 302.725 645.472 305.207C646.985 307.257 648.714 309.523 649.146 312.113C650.011 316.861 647.849 321.285 646.877 325.817C634.342 373.51 621.806 421.204 609.379 468.898C607.758 475.372 604.733 482.17 598.789 485.623C581.824 485.946 564.858 485.623 547.892 485.731C544.002 485.731 540.004 486.162 536.221 484.975C531.899 482.386 528.549 478.285 527.468 473.322C525.847 467.387 527.793 461.344 529.197 455.625C536.762 428.326 544.218 401.026 551.674 373.618C553.944 365.526 555.889 357.325 558.806 349.448C564.966 334.881 577.609 324.09 591.225 316.645C599.005 312.545 607.218 309.092 615.755 306.934Z" fill="#324E75"/>
<path d="M581.067 314.487C584.633 313.3 587.659 310.71 591.225 309.416C592.305 310.387 593.71 310.926 595.223 311.25C594.142 311.682 593.062 312.005 592.197 312.653C590.684 313.624 592.522 315.35 591.333 316.645C577.825 324.198 565.074 334.881 558.914 349.448C555.997 357.325 554.052 365.526 551.782 373.618C544.326 400.918 536.87 428.326 529.305 455.625C527.792 461.344 525.847 467.387 527.576 473.322C528.657 478.285 532.007 482.493 536.329 484.975C535.357 484.975 534.384 484.867 533.52 484.867C527.468 483.896 523.254 478.285 521.417 472.89C519.148 466.524 520.876 459.618 522.497 453.359C527.684 434.368 532.871 415.269 538.058 396.278C542.057 382.359 545.407 368.115 549.621 354.196C549.729 354.088 550.053 353.872 550.269 353.764L549.945 352.577C553.619 340.168 561.832 329.378 571.99 321.393C574.799 318.911 578.041 316.969 581.067 314.487Z" fill="#537FAF"/>
<path d="M255.261 314.055C270.281 313.516 285.194 312.76 300.214 312.221C301.511 312.113 303.132 312.329 303.781 313.732C305.51 316.537 306.05 319.99 306.05 323.227C305.834 325.385 303.456 325.817 301.619 325.817C286.923 326.572 272.335 326.896 257.638 327.651C256.99 323.119 255.909 318.587 255.261 314.055Z" fill="#78A6DC"/>
<path d="M99.9756 313.624C100.624 313.192 101.597 312.437 102.245 313.516C104.622 316.321 106.675 319.558 109.377 321.932C109.917 318.803 109.701 315.674 110.241 312.653C110.458 312.868 110.89 313.192 111.106 313.408C111.754 317.292 110.998 321.285 111.322 325.169C114.456 334.557 118.562 343.513 121.156 353.009C119.211 352.038 118.67 349.772 117.914 347.937C115.212 341.139 113.051 334.125 110.35 327.328C108.404 321.824 103.974 317.832 99.9756 313.624Z" fill="#F9FEFE"/>
<path d="M118.022 314.271C118.563 315.458 119.103 316.645 119.427 317.94C121.48 325.601 123.209 333.37 124.938 341.031C125.263 342.758 126.127 344.269 127.316 345.563C128.613 351.39 130.45 357.217 130.558 363.26C130.45 368.763 129.801 374.158 130.017 379.661C128.937 391.746 125.155 403.4 123.534 415.377C122.237 415.377 120.94 415.485 119.643 415.485C119.535 410.09 119.535 404.803 119.211 399.407C119.751 386.243 122.885 372.539 118.022 359.807C119.211 359.591 120.292 359.267 121.372 358.943C122.129 362.504 123.101 365.957 123.534 369.626C125.155 383.33 122.345 396.926 121.913 410.629C123.642 395.955 128.18 381.711 128.072 366.82C127.856 362.073 127.424 357.217 126.019 352.685C124.938 348.153 124.074 343.729 123.426 339.089C122.129 330.781 120.292 322.472 118.022 314.271Z" fill="#4469A0"/>
<path d="M234.404 314.919C241.32 314.919 248.236 314.055 255.26 314.055C255.908 318.587 256.989 323.119 257.745 327.651C243.373 328.083 229.001 328.946 214.629 329.378C210.738 329.27 209.766 324.63 209.334 321.609C208.793 319.343 209.982 316.213 212.683 316.106C219.924 315.35 227.164 315.458 234.404 314.919Z" fill="#B2D0FA"/>
<path d="M153.467 322.904C158.113 329.809 161.679 337.363 165.246 344.808C166.434 347.398 167.839 349.88 168.595 352.685C168.487 353.009 168.379 353.656 168.271 353.98C165.894 351.067 164.705 347.398 162.868 344.053C159.518 337.794 156.601 331.32 153.143 325.062C153.251 324.63 153.359 323.443 153.467 322.904Z" fill="#7BA4D1"/>
<path d="M149.36 325.817C150.657 325.601 151.954 325.385 153.143 325.277C156.493 331.536 159.518 337.902 162.868 344.268C164.705 347.506 165.786 351.282 168.271 354.196C168.704 355.275 169.352 356.246 169.244 357.433C168.163 359.375 166.434 360.886 165.029 362.612C157.465 370.921 150.117 379.229 142.445 387.43C141.796 388.185 141.256 389.049 140.716 389.912C141.04 390.02 141.58 390.128 141.904 390.128C142.012 390.991 142.012 391.746 142.12 392.609C141.796 392.717 141.148 392.825 140.824 392.933C140.499 393.041 139.851 393.365 139.527 393.581C138.878 392.825 138.122 392.07 137.474 391.315L137.041 391.638C133.583 388.401 131.314 384.085 130.017 379.553C129.801 374.05 130.45 368.655 130.558 363.152C133.151 354.519 135.961 345.779 140.607 338.01C143.525 334.018 147.307 330.457 149.36 325.817Z" fill="#5883B4"/>
<path d="M47.3495 328.73C49.4027 328.838 51.4559 329.27 53.1849 330.241C64.4233 335.96 74.365 343.729 84.0906 351.714C89.0614 356.246 94.1403 360.778 98.2467 366.173C101.921 370.813 105.055 375.776 108.08 380.74C105.487 380.2 104.514 377.611 103.434 375.561C102.893 376.424 102.461 377.179 101.921 378.042C91.1146 362.396 75.5537 350.851 59.9928 340.384C57.6154 338.765 55.3461 336.931 52.4285 336.391C53.401 338.549 55.6703 339.305 57.5074 340.492C65.8281 345.671 73.6086 351.606 81.1729 357.864C86.9002 362.612 92.1952 367.899 96.8419 373.618C101.813 380.74 107.324 387.538 110.998 395.523C105.919 388.725 102.245 380.956 95.9774 375.129C89.0614 367.899 79.552 363.583 69.8264 361.317C62.3701 359.267 54.2655 357.433 48.9705 351.498C44.3238 346.642 43.0271 339.197 44.7561 332.831C45.0802 331.212 46.377 330.025 47.3495 328.73Z" fill="#5784B9"/>
<path d="M135.42 328.623C136.933 329.486 138.445 330.349 139.958 331.32C139.742 332.939 139.634 334.557 139.202 336.068C138.662 338.01 136.176 338.873 136.176 341.139C134.339 342.434 132.178 343.19 130.017 343.729C130.557 342.542 131.205 341.355 131.746 340.168C133.907 336.715 134.123 332.507 135.42 328.623Z" fill="#6492C4"/>
<path d="M289.949 336.068C296.108 335.852 302.268 334.989 308.427 335.205C308.751 336.715 308.859 338.226 309.076 339.737C278.062 341.571 247.156 343.19 216.142 344.7C213.441 345.348 213.981 342.003 213.549 340.276C238.943 338.55 264.446 337.579 289.949 336.068Z" fill="#9FC5F7"/>
<path d="M52.5371 336.392C55.4548 336.823 57.7241 338.766 60.1014 340.384C75.7704 350.851 91.2233 362.504 102.029 378.043C107.433 385.596 111.971 393.797 115.321 402.429C116.618 406.098 118.995 409.658 118.779 413.759C116.077 408.256 114.24 402.105 110.242 397.357C104.083 388.509 94.6812 382.682 85.3879 377.611C78.472 373.726 70.7996 371.245 63.2352 369.194C63.7755 368.223 64.8562 368.655 65.7207 368.763C67.2335 369.086 68.6383 368.331 69.9351 367.9C69.3948 367.36 68.6383 367.144 67.8819 367.036C67.99 366.065 68.2061 365.202 68.3141 364.231C67.6658 363.907 67.0174 363.583 66.369 363.368C67.6658 362.936 69.2867 362.828 69.827 361.317C79.5526 363.583 88.954 367.9 95.978 375.129C102.246 380.956 105.92 388.725 110.999 395.523C107.324 387.646 101.813 380.74 96.8425 373.618C92.1958 367.792 86.9008 362.612 81.1735 357.865C73.6092 351.714 65.8287 345.671 57.508 340.492C55.6709 339.305 53.5097 338.55 52.5371 336.392Z" fill="#F0F7FD"/>
<path d="M84.1992 351.714C88.0894 351.822 89.3862 356.354 92.628 357.756C93.3845 357.541 94.0328 357.217 94.6812 356.893C95.2215 357.433 95.7618 357.972 96.3021 358.512C96.8425 357.109 97.2747 355.598 97.5989 354.196C96.9505 354.088 96.4102 353.98 95.7618 353.764C95.7618 353.44 95.6538 352.901 95.6538 352.685C96.7344 352.469 97.7069 352.145 98.4634 351.39C104.515 355.167 110.891 359.267 118.131 359.699C122.993 372.431 119.86 386.135 119.319 399.299C119.211 401.35 118.887 403.4 118.671 405.45C116.186 396.818 112.619 388.401 108.189 380.632C105.163 375.561 102.029 370.597 98.3553 366.065C94.249 360.886 89.1701 356.354 84.1992 351.714Z" fill="#ECF5FC"/>
<path d="M121.48 358.944C124.29 358.08 125.479 355.167 126.235 352.577C127.532 357.217 128.072 361.965 128.288 366.713C128.396 381.603 123.858 395.847 122.129 410.522C122.453 396.818 125.371 383.222 123.75 369.518C123.318 366.065 122.237 362.504 121.48 358.944Z" fill="#E9F4FC"/>
<path d="M170.649 358.62C171.729 362.397 172.594 366.281 173.35 370.166C170.865 372.647 168.271 375.021 165.462 377.071C160.059 380.201 153.467 381.28 148.712 385.596C146.443 387.322 145.903 390.236 144.822 392.718C144.174 392.718 142.877 392.61 142.12 392.61C142.012 391.746 142.012 390.991 141.904 390.128C142.661 389.588 143.417 388.941 144.066 388.293C152.927 378.366 162.112 368.871 170.649 358.62Z" fill="#5D89BC"/>
<path d="M272.334 362.396C288.976 361.641 305.617 360.346 322.259 359.807C322.583 361.317 322.907 362.828 322.799 364.446C291.353 366.281 259.907 367.684 228.461 369.518C225.327 369.41 222.194 370.273 219.168 369.734C218.952 368.331 218.736 366.928 218.52 365.526C236.458 364.015 254.396 363.583 272.334 362.396Z" fill="#A0C6F6"/>
<path d="M46.3766 369.734C46.7008 368.007 48.754 367.36 50.2668 367.36C54.5893 367.36 58.9118 368.331 63.1262 369.194C70.7986 371.244 78.3629 373.726 85.2789 377.611C94.5722 382.682 103.974 388.509 110.133 397.357C114.239 402.105 115.968 408.255 118.67 413.759C118.67 414.19 118.778 415.053 118.778 415.485C117.589 415.485 116.293 415.377 115.104 415.377C114.239 413.219 113.375 410.953 111.97 409.119C113.051 411.277 114.131 413.435 114.996 415.809C113.915 415.701 112.835 415.701 111.754 415.593C110.673 413.866 109.593 412.248 108.512 410.521C95.0044 408.471 81.6048 404.91 69.3938 398.652C60.6408 394.12 52.7523 387.214 48.2137 378.258C47.2411 375.561 45.9444 372.755 46.3766 369.734ZM58.1553 374.805C59.7763 376.316 61.9375 377.071 63.8826 378.15C69.9341 381.064 75.9855 384.301 81.1725 388.617C87.1159 393.688 92.7351 398.868 98.2463 404.371C99.2189 405.234 100.083 406.313 101.488 406.421C101.272 405.666 100.84 405.018 100.299 404.479C95.7609 400.055 91.1142 395.631 86.4676 391.207C85.495 390.236 84.3063 389.264 83.766 387.97C84.1983 384.84 84.5224 381.603 84.9547 378.474C84.7386 378.582 84.4144 378.798 84.1983 378.906C83.2257 381.603 83.3338 384.625 82.5773 387.538C75.8775 382.574 68.4212 378.69 60.8569 375.237C60.1005 374.805 59.1279 374.697 58.1553 374.805Z" fill="#4C76A7"/>
<path d="M177.348 375.021C178.861 373.403 178.428 371.029 179.617 369.302C187.397 403.4 195.502 437.39 203.607 471.379C203.931 472.566 204.471 473.753 204.903 474.94C205.66 478.393 206.957 481.846 207.173 485.407C204.903 484.328 202.634 483.141 201.229 481.091C198.528 477.854 197.879 473.645 196.907 469.653C193.233 453.899 189.559 438.037 185.776 422.283C184.912 419.262 184.588 416.025 183.183 413.111C182.859 407.716 181.13 402.645 180.049 397.465C179.617 395.415 179.077 393.365 178.536 391.315C178.428 390.667 178.104 389.48 177.996 388.833C176.915 383.869 175.511 378.906 174.322 373.942L174.214 373.511C175.078 373.079 175.835 372.647 176.699 372.216C176.807 373.187 177.023 374.05 177.348 375.021Z" fill="#446DA0"/>
<path d="M165.461 377.071C168.271 375.021 170.864 372.647 173.349 370.166C173.566 371.245 173.782 372.432 174.106 373.511L174.214 373.942C171.296 375.129 168.595 376.748 165.461 377.071Z" fill="#EFFAFC"/>
<path d="M165.461 377.071C168.595 376.64 171.296 375.129 174.106 373.942C175.295 378.906 176.699 383.761 177.78 388.833C174.322 392.286 171.188 396.278 168.703 400.487C161.679 401.997 154.439 401.889 147.415 403.616L146.334 404.047C145.902 400.486 147.09 396.71 145.686 393.257C144.065 392.825 142.336 392.825 140.715 392.933C141.039 392.825 141.687 392.717 142.012 392.61C142.66 392.61 143.957 392.717 144.713 392.717C145.902 390.236 146.334 387.322 148.603 385.596C153.466 381.387 160.058 380.201 165.461 377.071Z" fill="#90B7EA"/>
<path d="M58.1562 374.805C59.1288 374.698 60.1014 374.913 60.9659 375.237C68.5302 378.69 75.9865 382.575 82.6863 387.538C83.3347 384.733 83.2266 381.711 84.3072 378.906C84.5233 378.798 84.8475 378.582 85.0637 378.474C84.6314 381.603 84.3072 384.84 83.875 387.97C84.3072 389.372 85.604 390.236 86.5765 391.207C91.2232 395.523 95.8698 399.947 100.408 404.479C100.949 405.019 101.381 405.666 101.597 406.421C100.192 406.313 99.3278 405.234 98.3553 404.371C92.8441 398.868 87.1168 393.689 81.2815 388.617C75.9865 384.301 70.0431 381.064 63.9916 378.15C61.9384 377.071 59.7772 376.316 58.1562 374.805Z" fill="#79A1D4"/>
<path d="M401.253 485.407C417.139 485.299 433.024 485.515 448.909 485.083L449.557 485.623C447.504 485.946 445.451 486.27 443.398 486.27C426.432 486.378 409.574 485.946 392.608 486.594C387.097 486.054 381.694 486.486 376.183 486.378C367.322 486.486 358.569 486.162 349.708 486.702C352.734 487.565 355.867 486.81 358.893 487.673C359.542 488.536 358.461 489.184 358.029 489.831C357.488 489.507 357.056 489.291 356.516 489.076C354.463 490.802 354.571 493.608 355.867 495.766C355.435 496.737 353.922 497.816 354.895 498.895C355.543 499.974 357.164 499.866 357.813 501.161C358.785 502.887 358.677 504.938 358.677 506.88C358.569 510.98 358.569 514.973 358.677 519.073C359.217 518.749 359.65 518.426 360.19 517.994C360.082 519.397 359.758 520.692 359.109 521.986C360.082 522.634 360.946 523.389 361.919 524.037C361.379 524.576 360.838 525.116 360.298 525.655C361.919 525.763 363.648 525.871 365.269 526.087C363.648 528.029 360.622 526.41 358.893 528.353C328.204 528.569 297.514 528.353 266.824 528.353C267.797 527.705 268.878 527.058 270.066 527.166C275.037 526.95 279.9 527.49 284.871 526.95C281.413 525.979 277.631 527.166 274.389 525.223C275.686 525.223 276.982 525.331 278.279 525.331C277.955 524.684 277.415 524.36 276.658 524.36C274.389 524.252 272.119 524.36 269.958 524.037C272.552 523.281 275.253 523.605 277.847 523.497C276.01 519.613 278.495 515.296 276.658 511.52C275.145 514.217 276.118 517.454 275.794 520.476C274.605 520.584 273.416 520.799 272.228 521.015C273.416 521.339 274.605 521.663 275.902 521.986C274.065 522.094 272.336 522.202 270.499 522.202C270.607 521.986 270.715 521.447 270.823 521.231C270.066 514.757 270.282 508.283 270.066 501.808C269.958 499.434 268.77 497.384 268.229 495.118C268.662 494.471 269.31 493.931 269.85 493.392C269.634 492.637 269.31 491.881 269.094 491.126C269.634 489.939 270.174 488.644 270.715 487.457C265.96 487.026 261.097 488.212 256.559 486.702C262.826 486.162 269.094 486.486 275.253 486.594C292.327 486.486 309.293 486.486 326.367 486.378C327.447 486.27 328.528 485.946 329.608 485.731C353.49 485.299 377.372 485.731 401.253 485.407Z" fill="#79A1D4"/>
<path d="M102.029 378.15C102.57 377.287 103.002 376.532 103.542 375.668C104.731 377.719 105.595 380.308 108.189 380.848C112.727 388.617 116.293 397.033 118.671 405.666C118.887 403.616 119.103 401.565 119.319 399.515C119.643 404.91 119.643 410.198 119.751 415.593H118.995C118.995 415.161 118.887 414.298 118.887 413.866C118.995 409.766 116.726 406.205 115.429 402.537C111.971 393.796 107.324 385.704 102.029 378.15Z" fill="#5481B1"/>
<path d="M480.354 409.766C487.919 399.192 495.051 388.401 501.859 377.395C503.48 380.632 503.912 384.193 504.885 387.646C508.126 400.271 511.368 412.788 514.61 425.304C516.771 434.692 519.797 443.972 522.174 453.359C520.554 459.726 518.825 466.524 521.094 472.89C522.931 478.393 527.145 484.004 533.197 484.867C533.089 485.083 532.764 485.515 532.548 485.731C504.776 485.623 477.113 486.162 449.341 485.731L448.692 485.191C455.176 485.407 460.579 480.443 462.957 474.724C463.929 472.243 464.469 469.653 465.01 467.063C466.415 455.841 464.361 444.619 461.984 433.721C468.144 425.736 474.519 417.967 480.354 409.766Z" fill="#7DAAE6"/>
<path d="M259.476 382.79C279.899 381.819 300.215 380.524 320.639 379.445C322.692 379.337 324.853 379.013 326.906 379.337C327.122 380.74 327.447 382.143 327.771 383.545C324.205 384.301 320.639 384.193 317.073 384.409C298.054 385.272 279.035 386.675 260.016 387.322C259.692 385.811 259.476 384.301 259.476 382.79Z" fill="#9EC5F8"/>
<path d="M130.017 379.661C131.314 384.193 133.583 388.509 137.041 391.746C133.583 398.76 131.53 406.205 129.585 413.759C129.261 413.543 128.721 413.003 128.504 412.787C127.964 413.651 127.424 414.622 126.883 415.485C125.803 415.485 124.722 415.485 123.642 415.485C125.154 403.4 128.937 391.746 130.017 379.661Z" fill="#EBF4FC"/>
<path d="M168.812 400.486C171.297 396.278 174.323 392.286 177.889 388.833C177.997 389.48 178.321 390.667 178.429 391.315C175.511 393.688 173.458 396.818 171.405 399.947C170.432 400.055 169.676 400.271 168.812 400.486Z" fill="#E2F5FB"/>
<path d="M276.009 392.502C290.165 391.638 304.321 391.099 318.477 390.02C321.935 389.912 325.393 389.48 328.851 389.696C328.959 391.099 329.067 392.609 329.175 394.012C318.369 395.307 307.347 395.307 296.541 396.17C275.144 397.249 253.64 398.652 232.244 399.947C227.921 400.055 223.491 400.81 219.168 400.486C218.952 399.084 218.844 397.789 218.628 396.386C219.817 395.954 221.113 395.739 222.41 395.631C240.132 394.768 258.071 393.473 276.009 392.502Z" fill="#9FC5F5"/>
<path d="M137.582 391.314C138.231 392.07 138.879 392.825 139.635 393.58C136.934 400.702 134.016 407.824 132.503 415.377C131.423 415.377 130.234 415.485 129.153 415.485C129.261 415.053 129.477 414.19 129.586 413.651C131.531 406.205 133.692 398.652 137.042 391.638L137.582 391.314Z" fill="#4777AF"/>
<path d="M171.297 399.947C173.35 396.818 175.403 393.688 178.321 391.314C178.753 393.365 179.293 395.415 179.834 397.465C179.834 397.789 179.726 398.544 179.726 398.976C176.916 399.515 174.106 399.731 171.297 399.947Z" fill="#92BBE7"/>
<path d="M139.527 393.581C139.851 393.473 140.5 393.149 140.824 392.933C142.445 392.825 144.174 392.718 145.795 393.257C147.199 396.602 146.011 400.487 146.443 404.047C145.903 405.99 144.282 407.069 142.877 408.364C140.391 410.522 138.338 413.003 136.069 415.485C134.88 415.377 133.692 415.485 132.503 415.485C134.016 407.824 136.933 400.702 139.527 393.581Z" fill="#E9F3FD"/>
<path d="M179.835 397.465C180.915 402.645 182.752 407.824 182.968 413.111C177.025 413.975 170.973 413.543 164.922 412.788C159.195 412.032 153.359 411.169 148.389 408.04C148.713 407.824 149.037 407.5 149.253 407.285C148.929 407.177 148.172 406.961 147.848 406.853C147.74 405.774 147.632 404.695 147.416 403.616C154.44 401.889 161.68 401.997 168.704 400.487C169.569 400.271 170.325 400.163 171.19 399.947C173.999 399.731 176.809 399.516 179.51 398.868C179.727 398.544 179.835 397.789 179.835 397.465Z" fill="#5984B7"/>
<path d="M146.443 404.047L147.524 403.616C147.632 404.695 147.74 405.774 147.956 406.853C148.28 406.961 149.037 407.177 149.361 407.284C149.037 407.5 148.713 407.824 148.496 408.04C145.795 410.306 142.877 412.464 140.608 415.269C139.095 415.593 137.582 415.485 136.069 415.377C138.339 413.003 140.392 410.414 142.877 408.256C144.282 406.961 146.011 405.882 146.443 404.047Z" fill="#4474AC"/>
<path d="M307.455 411.385C315.884 410.953 324.313 410.198 332.741 410.09C333.066 411.493 333.282 413.003 333.39 414.514C303.565 416.672 273.632 417.967 243.698 419.693C236.89 419.801 230.083 420.664 223.167 420.557C223.059 419.046 222.842 417.535 222.734 416.132C251.047 414.514 279.251 412.895 307.455 411.385Z" fill="#9FC6F7"/>
<path d="M262.177 424.225C285.518 422.93 308.967 421.636 332.309 420.449C334.794 419.478 335.226 423.686 334.146 424.873C297.945 426.923 261.744 429.189 225.544 431.023C225.219 429.62 225.003 428.11 224.787 426.599C237.214 425.412 249.749 425.196 262.177 424.225Z" fill="#9FC3F6"/>
<path d="M439.29 456.92C448.043 450.446 455.499 442.353 462.091 433.721C464.576 444.619 466.629 455.841 465.116 467.063C446.854 466.955 428.592 466.955 410.329 467.171C420.811 467.063 430.969 463.071 439.29 456.92Z" fill="#E6F3FD"/>
<path d="M204.796 474.94C212.684 474.94 220.573 474.509 228.569 474.724C266.823 474.616 305.077 474.832 343.223 474.616C383.206 474.509 423.081 474.616 463.064 474.724C460.686 480.335 455.283 485.299 448.8 485.191C432.914 485.623 417.029 485.299 401.144 485.515C377.263 485.838 353.489 485.407 329.607 485.731C288.76 485.299 247.805 485.623 206.957 485.515C206.849 481.738 205.66 478.393 204.796 474.94Z" fill="#3B5B86"/>
<path d="M207.065 485.407C247.912 485.515 288.868 485.299 329.715 485.623C328.635 485.838 327.554 486.27 326.473 486.27C309.4 486.27 292.434 486.378 275.36 486.486C269.093 486.378 262.825 486.054 256.665 486.594C245.319 486.162 234.081 486.594 222.734 486.486C218.087 486.594 213.441 486.27 208.794 486.702C210.199 487.025 211.712 487.349 213.225 487.457C211.82 487.889 210.415 488.212 209.226 488.86C207.93 496.737 207.822 504.829 208.686 512.814C208.902 517.13 209.226 521.447 209.118 525.763C210.523 525.871 213.657 524.684 213.225 527.166C202.094 527.597 190.964 527.273 179.725 527.381C178.537 527.273 177.456 527.813 176.376 528.46C166.434 528.676 156.384 528.568 146.442 528.46C148.171 526.95 150.549 527.381 152.71 527.381C156.6 527.381 160.49 527.597 164.381 527.058C163.3 526.842 162.111 526.626 161.031 526.41C161.679 519.936 161.247 513.354 161.355 506.88C160.923 501.053 162.436 495.442 162.111 489.615C162.976 489.939 163.732 490.262 164.597 490.478C164.813 490.047 165.245 489.291 165.353 488.968C167.623 488.86 170 488.644 172.269 488.212C169.135 487.673 165.785 488.32 162.652 487.457C166.434 486.162 170.432 486.378 174.43 486.378C181.995 486.486 189.559 486.27 197.123 486.486C198.744 486.594 200.257 486.162 201.77 485.73C203.499 485.623 205.336 485.407 207.065 485.407Z" fill="#85AEE3"/>
<path d="M533.305 484.867C534.277 484.867 535.25 484.867 536.114 484.975C539.897 486.162 543.895 485.731 547.785 485.731C564.751 485.623 581.716 486.054 598.682 485.623C609.812 485.623 620.943 485.515 632.073 485.623C629.156 486.702 626.022 486.378 622.996 486.378C617.377 486.378 611.758 486.486 606.246 486.378C604.517 486.27 602.68 486.486 601.06 487.133C601.708 487.457 602.356 487.889 603.005 488.212C600.843 489.184 600.303 491.45 600.195 493.5C600.411 502.456 600.519 511.304 600.195 520.26C599.439 520.584 597.818 519.936 597.71 521.015C598.358 521.878 599.222 522.634 600.087 523.389C597.061 524.252 593.927 524.36 590.794 524.468C593.063 526.303 596.197 525.547 599.006 525.979C596.845 526.842 594.576 527.274 592.307 527.166C582.581 527.166 572.855 527.166 563.13 527.166C561.941 527.058 560.86 527.705 559.78 528.245C535.142 528.353 510.612 528.353 485.974 528.245C486.946 527.597 488.027 526.95 489.324 527.166C499.589 527.274 509.747 527.166 520.013 527.166C521.202 527.166 522.282 526.95 523.363 526.518C521.202 525.224 518.716 526.626 516.339 526.41C517.203 526.087 518.068 525.763 519.041 525.547C518.716 525.116 518.392 524.792 518.068 524.36C518.284 523.821 518.608 523.281 518.824 522.742C517.636 520.692 517.636 518.426 518.284 516.267C518.5 517.994 518.716 519.72 518.932 521.339C519.257 520.152 519.581 518.965 519.905 517.778C520.121 520.152 519.905 522.526 520.337 524.9C520.986 525.439 521.85 524.9 522.174 524.252C523.363 522.418 522.823 520.152 522.931 517.994C522.499 509.793 522.499 501.7 522.174 493.5C522.174 491.881 522.823 490.478 523.363 488.968C523.795 488.752 524.552 488.428 524.876 488.32C524.552 487.889 524.336 487.565 524.119 487.133C526.929 486.378 529.523 487.673 532.332 487.781C532.44 487.241 532.656 486.162 532.764 485.623C532.764 485.515 533.089 485.083 533.305 484.867Z" fill="#648ABB"/>
<path d="M63.2354 486.162C71.34 485.515 79.4446 486.162 87.5493 485.731C93.3846 485.299 99.2199 485.946 105.055 485.839C124.29 485.731 143.525 485.946 162.76 485.731C166.975 485.623 171.081 485.731 175.296 485.731C184.157 486.054 193.018 485.407 201.879 485.731C200.366 486.162 198.853 486.486 197.232 486.486C189.668 486.378 182.103 486.486 174.539 486.378C170.649 486.378 166.542 486.162 162.76 487.457C165.894 488.212 169.136 487.673 172.378 488.212C170.109 488.644 167.731 488.86 165.462 488.968C165.246 489.399 164.813 490.155 164.705 490.478C163.841 490.155 163.085 489.831 162.22 489.615C162.544 495.442 161.031 501.053 161.464 506.88C161.356 513.354 161.788 519.936 161.139 526.41C162.22 526.626 163.409 526.842 164.489 527.058C160.599 527.489 156.709 527.274 152.819 527.382C150.657 527.382 148.28 526.95 146.551 528.461C132.935 528.569 119.319 528.569 105.596 528.461C109.054 525.979 113.592 528.461 117.374 526.842C116.402 526.41 115.321 525.979 114.349 525.655C114.457 525.439 114.673 524.9 114.673 524.576C115.429 523.929 116.942 523.605 116.834 522.31C117.05 518.641 117.266 514.865 116.51 511.088C115.97 508.283 116.618 505.369 116.294 502.564C115.861 498.787 117.374 495.118 116.942 491.342C116.618 491.234 115.97 491.126 115.645 491.018C115.645 490.371 115.645 489.831 115.645 489.184C116.834 488.968 118.023 488.644 119.211 488.32C116.834 487.673 114.457 486.378 111.971 486.486C97.8151 486.486 83.7671 486.378 69.611 486.486C67.2336 486.594 65.2885 486.378 63.2354 486.162Z" fill="#8AB3E9"/>
<path d="M443.397 486.378C445.451 486.27 447.504 485.946 449.557 485.73C477.329 486.162 504.993 485.73 532.765 485.73C532.657 486.27 532.44 487.349 532.332 487.889C529.523 487.781 526.929 486.486 524.12 487.241C524.336 487.565 524.66 487.996 524.876 488.428C524.444 488.644 523.687 488.968 523.363 489.075C522.823 490.586 522.175 491.989 522.175 493.607C522.499 501.808 522.499 509.901 522.931 518.102C522.931 520.152 523.363 522.418 522.175 524.36C521.85 525.007 520.986 525.547 520.337 525.007C519.905 522.634 520.013 520.26 519.905 517.886C519.581 519.073 519.257 520.26 518.933 521.447C518.717 519.72 518.5 517.994 518.284 516.375C517.744 518.533 517.636 520.907 518.825 522.849C518.5 523.389 518.284 523.928 518.068 524.468C518.392 524.9 518.717 525.223 519.041 525.655C518.176 525.979 517.312 526.194 516.339 526.518C518.717 526.842 521.202 525.331 523.363 526.626C522.283 527.058 521.202 527.273 520.013 527.273C509.747 527.273 499.59 527.381 489.324 527.273C488.027 527.166 487.054 527.813 485.974 528.353C464.037 528.568 442.101 528.46 420.272 528.46C421.137 527.597 422.325 527.166 423.514 527.273C428.485 527.058 433.564 527.705 438.535 526.95C438.967 525.547 437.022 525.007 436.265 524.144C436.698 523.928 437.454 523.605 437.886 523.389C438.535 518.857 438.21 514.433 438.319 509.901C438.21 505.045 438.535 500.082 437.994 495.226C436.806 498.787 437.13 502.671 436.373 506.34C436.049 503.642 436.265 500.837 436.049 498.139C436.157 497.168 435.509 496.521 434.861 495.873C434.104 502.456 434.428 509.146 433.456 515.728C432.807 511.088 433.348 506.448 433.132 501.7C433.24 497.276 432.807 492.852 433.456 488.536C433.888 490.694 433.996 492.96 435.401 494.794C435.617 493.176 435.617 491.449 436.049 489.831C436.59 490.802 437.022 491.773 437.346 492.744C437.67 492.744 438.21 492.852 438.535 492.96C438.319 491.773 437.886 490.478 438.427 489.291C437.994 489.183 437.238 488.86 436.806 488.752C438.535 488.212 440.156 487.673 441.885 487.241C434.212 486.917 426.432 487.025 418.759 487.241C411.087 486.486 403.415 487.349 395.85 487.133C394.77 487.133 393.689 486.702 392.608 486.486C409.466 486.054 426.432 486.486 443.397 486.378Z" fill="#6B92C3"/>
<path d="M632.073 485.731C639.529 485.623 646.985 485.623 654.442 485.731C658.44 485.731 661.898 489.184 662.006 493.176C662.222 498.032 661.898 502.995 662.006 507.851C661.79 512.383 662.006 516.915 661.79 521.447C661.574 524.252 659.52 526.41 657.251 527.921C650.335 529 643.203 528.353 636.179 528.568C610.676 528.461 585.282 528.676 559.779 528.461C560.752 527.921 561.833 527.274 563.129 527.381C572.855 527.381 582.58 527.381 592.306 527.381C594.575 527.489 596.844 527.058 599.006 526.195C596.304 525.763 593.17 526.518 590.793 524.684C593.927 524.576 597.061 524.36 600.086 523.605C599.222 522.85 598.465 522.094 597.709 521.231C597.709 520.152 599.438 520.799 600.194 520.476C600.519 511.52 600.303 502.564 600.194 493.715C600.194 491.557 600.843 489.291 603.004 488.428C602.356 488.104 601.707 487.673 601.059 487.349C602.68 486.81 604.517 486.486 606.246 486.594C611.865 486.702 617.484 486.594 622.995 486.594C626.021 486.486 629.155 486.81 632.073 485.731Z" fill="#5F86B6"/>
<path d="M57.4 491.557C58.2645 488.86 60.4258 486.486 63.3434 486.162C65.3966 486.378 67.3417 486.594 69.3949 486.594C83.551 486.378 97.599 486.594 111.755 486.594C114.349 486.594 116.618 487.781 118.995 488.428C117.807 488.752 116.618 488.968 115.429 489.291C115.429 489.939 115.429 490.478 115.429 491.126C115.753 491.234 116.402 491.341 116.726 491.449C117.158 495.226 115.645 498.895 116.078 502.671C116.402 505.477 115.753 508.39 116.294 511.196C116.942 514.865 116.834 518.641 116.618 522.418C116.726 523.713 115.213 524.036 114.457 524.684C114.349 524.9 114.132 525.439 114.132 525.763C115.105 526.087 116.186 526.518 117.158 526.95C113.376 528.568 108.837 526.194 105.379 528.568C98.2474 528.784 91.0073 528.568 83.8752 528.676C76.9592 528.568 70.1513 528.892 63.2354 528.46C59.8855 527.273 57.0758 523.928 57.292 520.26C57.4 510.548 57.1839 501.053 57.4 491.557Z" fill="#8FB8F0"/>
<path d="M208.686 486.809C213.332 486.378 217.979 486.701 222.626 486.594C233.972 486.594 245.319 486.27 256.557 486.701C261.096 488.32 266.067 487.133 270.713 487.457C270.173 488.644 269.633 489.939 269.092 491.126C269.308 491.881 269.633 492.636 269.849 493.392C269.309 493.931 268.768 494.471 268.228 495.118C268.768 497.384 269.957 499.434 270.065 501.808C270.281 508.282 270.065 514.864 270.821 521.231C270.713 521.447 270.605 521.986 270.497 522.202C272.334 522.202 274.063 522.094 275.9 521.986C274.712 521.662 273.415 521.339 272.226 521.015C273.415 520.799 274.604 520.691 275.792 520.475C276.116 517.562 275.252 514.325 276.657 511.519C278.494 515.296 276.008 519.612 277.845 523.497C275.252 523.605 272.442 523.281 269.957 524.036C272.226 524.36 274.495 524.144 276.657 524.36C277.413 524.36 277.953 524.684 278.278 525.331C276.981 525.331 275.684 525.331 274.387 525.223C277.629 527.058 281.411 525.871 284.869 526.95C280.007 527.489 275.036 527.058 270.065 527.165C268.876 527.058 267.796 527.705 266.823 528.352C236.674 528.568 206.417 528.46 176.159 528.352C177.132 527.705 178.212 527.165 179.509 527.273C190.639 527.165 201.878 527.489 213.008 527.058C213.441 524.684 210.307 525.763 208.902 525.655C209.118 521.339 208.686 517.023 208.47 512.706C207.605 504.721 207.713 496.737 209.01 488.752C210.307 487.996 211.712 487.673 213.008 487.349C211.603 487.349 210.199 487.133 208.686 486.809Z" fill="#80A8DD"/>
<path d="M349.707 486.81C358.46 486.27 367.321 486.594 376.182 486.486C381.693 486.594 387.205 486.162 392.608 486.702C393.688 486.918 394.661 487.349 395.849 487.349C403.522 487.565 411.194 486.702 418.759 487.457C413.896 488.968 408.601 487.457 403.63 488.968C401.793 489.292 402.873 491.45 402.873 492.637C402.225 492.637 401.469 492.744 400.82 492.744C400.604 493.176 400.496 493.716 400.388 494.255C399.415 494.471 398.443 494.579 397.578 494.795C398.011 495.01 398.767 495.442 399.199 495.658C399.632 498.248 400.496 500.837 401.469 503.319C402.009 502.132 402.549 500.945 403.09 499.758C403.198 504.722 403.09 509.685 403.738 514.541C404.278 517.562 402.873 520.584 403.954 523.497C403.738 523.821 403.522 524.252 403.306 524.684C403.954 525.331 404.711 526.087 405.359 526.734C400.712 528.461 395.633 526.626 390.879 527.705C390.554 527.921 389.906 528.353 389.474 528.569C379.208 528.676 368.942 528.676 358.784 528.569C360.513 526.626 363.539 528.137 365.16 526.303C363.539 526.087 361.81 525.979 360.189 525.871C360.729 525.331 361.27 524.792 361.81 524.252C360.837 523.605 359.973 522.85 359 522.202C359.649 521.015 359.973 519.613 360.081 518.21C359.541 518.533 359.108 518.857 358.568 519.289C358.46 515.188 358.46 511.196 358.568 507.096C358.568 505.153 358.676 503.103 357.704 501.377C357.163 500.19 355.542 500.19 354.786 499.111C353.813 498.032 355.218 496.953 355.759 495.982C354.462 493.823 354.354 491.018 356.407 489.292C356.947 489.507 357.379 489.831 357.92 490.047C358.352 489.399 359.433 488.752 358.784 487.889C355.867 486.918 352.625 487.565 349.707 486.81Z" fill="#739BCC"/>
<path d="M418.759 487.457C426.431 487.241 434.212 487.133 441.884 487.457C440.155 487.889 438.426 488.32 436.805 488.968C437.237 489.076 437.994 489.399 438.426 489.507C437.994 490.694 438.318 491.881 438.534 493.176C438.21 493.176 437.67 493.068 437.345 492.96C436.913 491.989 436.481 491.018 436.049 490.047C435.616 491.665 435.508 493.284 435.4 495.01C433.995 493.176 433.887 490.91 433.455 488.752C432.915 493.068 433.239 497.492 433.131 501.916C433.239 506.556 432.807 511.304 433.455 515.944C434.428 509.362 434.104 502.671 434.86 496.089C435.508 496.737 436.157 497.384 436.049 498.355C436.157 501.053 435.941 503.858 436.373 506.556C437.237 502.887 436.805 499.003 437.994 495.442C438.534 500.298 438.21 505.261 438.318 510.117C438.21 514.649 438.642 519.181 437.886 523.605C437.453 523.821 436.697 524.144 436.265 524.36C437.021 525.223 439.074 525.763 438.534 527.166C433.563 528.029 428.484 527.381 423.513 527.489C422.325 527.381 421.136 527.813 420.272 528.676C410.006 528.784 399.848 528.676 389.582 528.676C389.906 528.461 390.555 528.029 390.987 527.813C395.742 526.734 400.82 528.676 405.467 526.842C404.819 526.087 404.062 525.439 403.414 524.792C403.63 524.36 403.846 524.036 404.062 523.605C402.982 520.691 404.387 517.67 403.846 514.649C403.198 509.793 403.306 504.83 403.198 499.866C402.658 501.053 402.117 502.24 401.577 503.427C400.604 500.945 399.74 498.463 399.308 495.766C398.875 495.55 398.119 495.118 397.687 494.902C398.659 494.687 399.632 494.579 400.496 494.363C400.604 493.823 400.82 493.392 400.929 492.852C401.577 492.852 402.225 492.744 402.982 492.744C402.982 491.557 401.901 489.399 403.738 489.076C408.601 487.457 413.788 488.968 418.759 487.457Z" fill="#7097C8"/>
</g>
<defs>
<linearGradient id="paint0_linear_1204_17596" x1="174.15" y1="74.9908" x2="527.532" y2="620.576" gradientUnits="userSpaceOnUse">
<stop stop-color="#8EE3F9"/>
<stop offset="1" stop-color="#CCF5FF"/>
</linearGradient>
<clipPath id="clip0_1204_17596">
<rect width="620" height="348" fill="white" transform="translate(44 181)"/>
</clipPath>
</defs>
</svg>
