<svg width="60" height="62" viewBox="0 0 60 62" fill="none" xmlns="http://www.w3.org/2000/svg">
<path d="M25.7536 31.3671C25.5623 31.3671 25.3747 31.3139 25.2119 31.2133C25.0491 31.1128 24.9174 30.969 24.8317 30.7979C22.796 26.7265 20.3808 25.1404 16.2166 25.1404H3.69727C2.87675 25.1404 2.08984 24.8145 1.50965 24.2343C0.929463 23.6541 0.603516 22.8672 0.603516 22.0467V10.375C0.603516 9.55449 0.929463 8.76758 1.50965 8.18739C2.08984 7.6072 2.87675 7.28125 3.69727 7.28125H23.6911C24.5117 7.28125 25.2986 7.6072 25.8788 8.18739C26.4589 8.76758 26.7849 9.55449 26.7849 10.375V30.3359C26.7849 30.6094 26.6762 30.8717 26.4828 31.0651C26.2894 31.2585 26.0271 31.3671 25.7536 31.3671ZM3.69727 9.34375C3.42376 9.34375 3.16146 9.4524 2.96806 9.6458C2.77467 9.83919 2.66602 10.1015 2.66602 10.375V22.0467C2.66602 22.3202 2.77467 22.5825 2.96806 22.7759C3.16146 22.9693 3.42376 23.0779 3.69727 23.0779H16.2166C19.923 23.0779 22.6104 24.2185 24.7224 26.7904V10.375C24.7224 10.1015 24.6137 9.83919 24.4203 9.6458C24.2269 9.4524 23.9646 9.34375 23.6911 9.34375H3.69727ZM34.247 45.5489C33.9735 45.5489 33.7112 45.4402 33.5178 45.2468C33.3244 45.0534 33.2158 44.7911 33.2158 44.5176V24.5568C33.2158 23.7362 33.5417 22.9493 34.1219 22.3691C34.7021 21.7889 35.489 21.463 36.3095 21.463H56.3034C57.1239 21.463 57.9108 21.7889 58.491 22.3691C59.0712 22.9493 59.3971 23.7362 59.3971 24.5568V36.2284C59.3971 37.049 59.0712 37.8359 58.491 38.416C57.9108 38.9962 57.1239 39.3222 56.3034 39.3222H43.784C39.6198 39.3222 37.2046 40.9083 35.169 44.9796C35.0832 45.1507 34.9516 45.2946 34.7888 45.3951C34.6259 45.4956 34.4384 45.5489 34.247 45.5489ZM36.3095 23.5255C36.036 23.5255 35.7737 23.6342 35.5803 23.8275C35.3869 24.0209 35.2783 24.2832 35.2783 24.5568V40.9722C37.3934 38.4003 40.0777 37.2597 43.784 37.2597H56.3034C56.5769 37.2597 56.8392 37.151 57.0326 36.9576C57.226 36.7642 57.3346 36.5019 57.3346 36.2284V24.5568C57.3346 24.2832 57.226 24.0209 57.0326 23.8275C56.8392 23.6342 56.5769 23.5255 56.3034 23.5255H36.3095Z" fill="#707CB7"/>
<path d="M19.7631 14.9733H7.54589C7.27239 14.9733 7.01008 14.8647 6.81669 14.6713C6.62329 14.4779 6.51464 14.2156 6.51464 13.9421C6.51464 13.6686 6.62329 13.4063 6.81669 13.2129C7.01008 13.0195 7.27239 12.9108 7.54589 12.9108H19.7631C20.0366 12.9108 20.2989 13.0195 20.4923 13.2129C20.6857 13.4063 20.7944 13.6686 20.7944 13.9421C20.7944 14.2156 20.6857 14.4779 20.4923 14.6713C20.2989 14.8647 20.0366 14.9733 19.7631 14.9733ZM16.1372 19.2293H7.54589C7.27239 19.2293 7.01008 19.1206 6.81669 18.9272C6.62329 18.7339 6.51464 18.4716 6.51464 18.198C6.51464 17.9245 6.62329 17.6622 6.81669 17.4688C7.01008 17.2754 7.27239 17.1668 7.54589 17.1668H16.1372C16.4107 17.1668 16.673 17.2754 16.8664 17.4688C17.0598 17.6622 17.1685 17.9245 17.1685 18.198C17.1685 18.4716 17.0598 18.7339 16.8664 18.9272C16.673 19.1206 16.4107 19.2293 16.1372 19.2293ZM25.7536 57.5155C25.5622 57.5154 25.3745 57.462 25.2117 57.3613C25.0489 57.2605 24.9173 57.1165 24.8317 56.9452C22.796 52.8749 20.3808 51.2888 16.2166 51.2888H3.69727C2.87675 51.2888 2.08984 50.9628 1.50965 50.3827C0.929463 49.8025 0.603516 49.0156 0.603516 48.195V36.5223C0.603516 35.7018 0.929463 34.9149 1.50965 34.3347C2.08984 33.7545 2.87675 33.4286 3.69727 33.4286H23.6911C24.5117 33.4286 25.2986 33.7545 25.8787 34.3347C26.4589 34.9149 26.7849 35.7018 26.7849 36.5223V56.4842C26.7851 56.7166 26.7068 56.9423 26.5626 57.1246C26.4185 57.3069 26.217 57.4352 25.9908 57.4887C25.913 57.5062 25.8334 57.5152 25.7536 57.5155ZM3.69727 35.4911C3.42376 35.4911 3.16146 35.5997 2.96806 35.7931C2.77466 35.9865 2.66602 36.2488 2.66602 36.5223V48.195C2.66602 48.4685 2.77466 48.7309 2.96806 48.9242C3.16146 49.1176 3.42376 49.2263 3.69727 49.2263H16.2166C19.923 49.2263 22.6104 50.3658 24.7224 52.9388V36.5223C24.7224 36.2488 24.6137 35.9865 24.4203 35.7931C24.2269 35.5997 23.9646 35.4911 23.6911 35.4911H3.69727Z" fill="#707CB7"/>
<path d="M19.764 47.765H7.62305C7.34954 47.765 7.08724 47.6564 6.89384 47.463C6.70045 47.2696 6.5918 47.0073 6.5918 46.7338V37.9836C6.5918 37.7101 6.70045 37.4478 6.89384 37.2544C7.08724 37.061 7.34954 36.9524 7.62305 36.9524H19.7609C20.0344 36.9524 20.2967 37.061 20.4901 37.2544C20.6835 37.4478 20.7921 37.7101 20.7921 37.9836V46.7338C20.7921 47.0067 20.6839 47.2686 20.4912 47.4619C20.2984 47.6552 20.0369 47.7642 19.764 47.765ZM8.65739 45.7025H18.7327V39.0149H8.6543L8.65739 45.7025Z" fill="#707CB7"/>
<path d="M7.92119 44.5434C7.70431 44.5445 7.4926 44.4772 7.31618 44.351C7.13976 44.2249 7.0076 44.0463 6.9385 43.8407C6.86941 43.6351 6.86688 43.413 6.93129 43.2059C6.9957 42.9988 7.12377 42.8173 7.29728 42.6872L10.5107 40.2544C10.7009 40.11 10.9354 40.0361 11.174 40.0453C11.4127 40.0545 11.6408 40.1463 11.8193 40.305L13.8096 42.0787L19.2866 39.216C19.5291 39.0892 19.8119 39.0639 20.073 39.1457C20.3341 39.2276 20.552 39.4097 20.6788 39.6522C20.8056 39.8946 20.8308 40.1775 20.749 40.4386C20.6672 40.6997 20.485 40.9176 20.2426 41.0444L14.1334 44.2412C13.9478 44.3381 13.7371 44.3762 13.5293 44.3504C13.3215 44.3246 13.1265 44.2362 12.9702 44.0969L11.0799 42.4139L8.54303 44.3382C8.36355 44.4723 8.14526 44.5444 7.92119 44.5434ZM43.5292 35.1807C43.2557 35.1807 42.9934 35.072 42.8 34.8786C42.6066 34.6852 42.498 34.4229 42.498 34.1494V26.6357C42.4978 26.4553 42.545 26.2781 42.6347 26.1216C42.7245 25.9651 42.8537 25.8349 43.0096 25.744C43.1654 25.6531 43.3423 25.6046 43.5227 25.6035C43.7031 25.6024 43.8807 25.6486 44.0376 25.7375L50.6593 29.4954C50.818 29.5853 50.95 29.7158 51.0418 29.8734C51.1337 30.031 51.1821 30.2102 51.1821 30.3926C51.1821 30.575 51.1337 30.7542 51.0418 30.9118C50.95 31.0694 50.818 31.1998 50.6593 31.2898L44.0376 35.0466C43.8826 35.1345 43.7074 35.1807 43.5292 35.1807ZM44.5605 28.4064V32.3788L48.0605 30.3926L44.5605 28.4064ZM12.47 35.4962C12.1965 35.4962 11.9342 35.3876 11.7408 35.1942C11.5474 35.0008 11.4388 34.7385 11.4388 34.465V24.1112C11.4388 23.8377 11.5474 23.5754 11.7408 23.382C11.9342 23.1886 12.1965 23.08 12.47 23.08C12.7435 23.08 13.0058 23.1886 13.1992 23.382C13.3926 23.5754 13.5013 23.8377 13.5013 24.1112V34.465C13.5013 34.7385 13.3926 35.0008 13.1992 35.1942C13.0058 35.3876 12.7435 35.4962 12.47 35.4962ZM43.9232 61.9581H15.5638C14.4698 61.9581 13.4206 61.5235 12.647 60.7499C11.8734 59.9763 11.4388 58.9271 11.4388 57.8331V50.2534C11.4388 49.9799 11.5474 49.7176 11.7408 49.5242C11.9342 49.3308 12.1965 49.2222 12.47 49.2222C12.7435 49.2222 13.0058 49.3308 13.1992 49.5242C13.3926 49.7176 13.5013 49.9799 13.5013 50.2534V57.8331C13.5013 58.3801 13.7186 58.9047 14.1054 59.2915C14.4922 59.6783 15.0168 59.8956 15.5638 59.8956H43.9232C44.4702 59.8956 44.9948 59.6783 45.3816 59.2915C45.7684 58.9047 45.9857 58.3801 45.9857 57.8331V39.2923C45.9857 39.0188 46.0943 38.7565 46.2877 38.5631C46.4811 38.3697 46.7434 38.261 47.0169 38.261C47.2904 38.261 47.5527 38.3697 47.7461 38.5631C47.9395 38.7565 48.0482 39.0188 48.0482 39.2923V57.8331C48.0482 58.9271 47.6136 59.9763 46.84 60.7499C46.0664 61.5235 45.0172 61.9581 43.9232 61.9581ZM47.0169 23.5234C46.7434 23.5234 46.4811 23.4148 46.2877 23.2214C46.0943 23.028 45.9857 22.7657 45.9857 22.4922V4.16687C45.9857 3.61986 45.7684 3.09526 45.3816 2.70846C44.9948 2.32167 44.4702 2.10437 43.9232 2.10437H15.5638C15.0168 2.10437 14.4922 2.32167 14.1054 2.70846C13.7186 3.09526 13.5013 3.61986 13.5013 4.16687V8.3125C13.5013 8.586 13.3926 8.8483 13.1992 9.0417C13.0058 9.2351 12.7435 9.34375 12.47 9.34375C12.1965 9.34375 11.9342 9.2351 11.7408 9.0417C11.5474 8.8483 11.4388 8.586 11.4388 8.3125V4.16687C11.4388 3.07285 11.8734 2.02364 12.647 1.25005C13.4206 0.476467 14.4698 0.0418701 15.5638 0.0418701H43.9232C45.0172 0.0418701 46.0664 0.476467 46.84 1.25005C47.6136 2.02364 48.0482 3.07285 48.0482 4.16687V22.4922C48.0482 22.7657 47.9395 23.028 47.7461 23.2214C47.5527 23.4148 47.2904 23.5234 47.0169 23.5234Z" fill="#707CB7"/>
<path d="M32.7694 4.84439H26.7129C26.4394 4.84439 26.1771 4.73574 25.9837 4.54234C25.7903 4.34895 25.6816 4.08665 25.6816 3.81314C25.6816 3.53964 25.7903 3.27733 25.9837 3.08394C26.1771 2.89054 26.4394 2.78189 26.7129 2.78189H32.7694C33.0429 2.78189 33.3052 2.89054 33.4986 3.08394C33.692 3.27733 33.8007 3.53964 33.8007 3.81314C33.8007 4.08665 33.692 4.34895 33.4986 4.54234C33.3052 4.73574 33.0429 4.84439 32.7694 4.84439ZM35.8477 4.83717C35.7102 4.83963 35.5736 4.81511 35.4455 4.76498C35.3201 4.71466 35.2074 4.63718 35.1155 4.53811C34.9234 4.34489 34.8156 4.08352 34.8156 3.81108C34.8156 3.53864 34.9234 3.27726 35.1155 3.08405C35.3129 2.90007 35.5727 2.79777 35.8425 2.79777C36.1124 2.79777 36.3722 2.90007 36.5696 3.08405C36.6657 3.17844 36.7427 3.29048 36.7965 3.41405C36.8453 3.54246 36.8698 3.67885 36.8686 3.81623C36.8698 3.95048 36.844 4.08359 36.7926 4.20761C36.7412 4.33164 36.6654 4.44404 36.5696 4.53811C36.4777 4.63718 36.365 4.71466 36.2396 4.76498C36.1149 4.81429 35.9818 4.83881 35.8477 4.83717Z" fill="#707CB7"/>
</svg>
