<svg width="288" height="192" viewBox="0 0 288 192" fill="none" xmlns="http://www.w3.org/2000/svg">
<g clip-path="url(#clip0_1270_1830)">
<path d="M60.4804 35.2C61.0734 34.1895 62.3016 33.7684 63.4028 33.8105C76.0663 33.7684 88.7298 33.8105 101.393 33.7684C102.283 33.7684 103.215 33.6842 104.104 33.9368C105.036 34.4842 105.967 35.4105 105.883 36.5895C105.883 51.1579 105.883 65.7263 105.883 80.2947C105.883 81.3895 105.798 82.6947 104.739 83.3684C103.299 84.3789 101.436 84 99.784 84.0421C87.8828 84 75.9392 84 64.0381 84.0421C63.3181 84 62.5557 84.0421 61.9204 83.7053C60.8616 83.2421 60.2687 82.1053 60.2687 80.9684C60.184 77.4737 60.4381 73.9368 60.1416 70.4421C63.5298 67.9158 65.9016 63.8316 65.7745 59.5789C65.9016 55.3684 63.5298 51.3263 60.1416 48.8842C60.311 45.3053 60.2687 41.7263 60.2263 38.1895C60.311 37.1789 60.184 36.1684 60.4804 35.2ZM69.0781 43.2C69.0781 43.3684 69.0781 43.7474 69.0781 43.9158C75.9816 43.9158 82.8851 44 89.7887 43.8737C90.3816 43.1158 89.1534 43.1158 88.7298 43.1579C82.2075 43.2 75.6428 43.0737 69.0781 43.2ZM80.5981 50.5684C80.5557 50.7368 80.4287 51.0316 80.344 51.2C83.8169 51.1579 87.2898 51.2 90.7204 51.1579L90.8475 50.6947L90.6357 50.5263C87.2898 50.4842 83.944 50.4421 80.5981 50.5684ZM68.9087 57.5158C68.9087 57.6842 68.9087 58.021 68.9087 58.1895C78.2263 58.1474 87.5016 58.2316 96.8193 58.1474C96.8193 57.9789 96.8616 57.6842 96.8616 57.5158C87.544 57.5158 78.2263 57.4316 68.9087 57.5158ZM68.7816 65.2632C68.8663 65.4316 68.9934 65.7684 69.0781 65.8947C76.871 65.8947 84.7063 65.8947 92.4992 65.8947C93.9816 65.8947 95.464 65.9789 96.9463 65.7684C96.904 65.3474 96.6922 65.1368 96.311 65.1368C87.544 65.1368 78.7769 65.1368 70.0098 65.1368C69.6287 65.1789 69.2051 65.1789 68.7816 65.2632ZM68.951 72.8842C78.7769 72.8 88.6451 72.9263 98.471 72.8421C98.471 72.6737 98.5134 72.3368 98.5134 72.2105C89.0263 72.1684 79.5392 72.1684 70.0522 72.2105C69.6287 72.2947 68.5698 72 68.951 72.8842ZM68.8663 74.2737C69.1204 74.9053 69.8828 74.6526 70.391 74.7368C78.6075 74.821 86.824 74.6526 95.0404 74.7368C95.8451 74.7368 96.6922 74.7789 97.4969 74.5684C97.7934 73.9368 97.031 74.021 96.6075 73.9789C88.1793 73.9368 79.751 74.021 71.3228 73.9789C70.5181 73.9789 69.6287 73.8526 68.8663 74.2737ZM68.8663 75.7474L69.0781 76.2526C73.1863 76.3789 77.3369 76.2947 81.4875 76.2947C82.0381 76.5053 82.2498 75.7053 81.6992 75.7053C77.4216 75.7053 73.144 75.621 68.8663 75.7474Z" fill="#FEFEFE"/>
<path d="M213.84 38.4842C215.068 38.2736 216.296 38.3999 217.525 38.3999C227.139 38.3999 236.71 38.3999 246.325 38.3999C248.739 38.4421 251.153 38.2736 253.567 38.4842C253.779 43.621 253.609 48.7578 253.652 53.8947C253.652 58.5263 253.652 63.1157 253.652 67.7473C253.652 68.3368 253.567 68.8842 253.44 69.4736C240.226 69.5157 227.054 69.6 213.84 69.5157C213.755 59.1578 213.755 48.8421 213.84 38.4842ZM218.499 45.4736C218.499 45.5999 218.541 45.8947 218.541 46.021C219.43 46.2736 220.405 46.021 221.294 46.1052C230.273 46.1894 239.252 46.1052 248.23 46.1473C248.273 45.9789 248.4 45.6842 248.442 45.5157C238.489 45.4315 228.494 45.5157 218.499 45.4736ZM218.414 46.9894C218.499 47.4947 218.88 47.7894 219.388 47.6631C229.214 47.621 239.04 47.7052 248.866 47.621C249.035 47.5368 249.332 47.3263 249.501 47.2421C248.485 46.7789 247.383 46.9052 246.325 46.8631C244.969 46.8631 243.572 46.8631 242.216 46.9052C236.118 47.1578 229.976 46.7789 223.878 46.9473C222.056 46.9473 220.235 46.8631 218.414 46.9894ZM218.583 48.6315C218.583 48.7999 218.626 49.1368 218.668 49.3473C223.962 49.2631 229.214 49.3473 234.508 49.221C234.466 49.0947 234.296 48.8421 234.254 48.6736C230.527 48.2947 226.715 48.5894 222.946 48.5894C221.463 48.5473 220.023 48.3789 218.583 48.6315ZM218.456 50.4842C218.541 50.6526 218.668 50.9894 218.753 51.1578C224.894 51.1578 230.993 51.1578 237.134 51.2C238.193 51.0315 239.59 51.621 240.353 50.6947C239.167 50.4842 237.981 50.4421 236.795 50.4421C232.136 50.4 227.52 50.3999 222.861 50.3999C221.421 50.3578 219.939 50.2736 218.456 50.4842ZM218.499 52.3789C218.499 52.5052 218.541 52.7999 218.541 52.9263C219.854 53.1789 221.209 53.0105 222.565 53.0526C227.308 53.0105 232.052 53.0526 236.795 53.0947C237.43 53.0947 238.108 53.0526 238.743 52.9684C238.701 52.2105 237.939 52.2526 237.388 52.2526C231.925 52.2105 226.419 52.2105 220.955 52.2526C220.193 52.2526 219.303 52.1263 218.499 52.3789ZM218.795 54.1052C218.668 54.2315 218.456 54.3999 218.372 54.5263C221.76 54.7789 225.19 54.5684 228.579 54.6526C232.602 54.5684 236.668 54.7789 240.692 54.5684L240.776 54.1473L240.607 53.8526C236.499 53.8105 232.39 54.021 228.282 53.7684C225.106 53.9789 221.929 53.8526 218.795 54.1052ZM218.329 59.8736C222.692 59.9578 227.054 59.8736 231.416 59.9157C235.482 59.8736 239.59 60 243.656 59.8315C243.699 59.7052 243.783 59.4105 243.783 59.2842C235.863 59.1578 227.943 59.3263 220.023 59.2421C219.43 59.3684 218.414 58.9894 218.329 59.8736ZM218.372 64.5894C218.414 64.7157 218.499 65.0105 218.499 65.1368C221.548 65.3473 224.598 65.221 227.647 65.2631C231.459 65.2631 235.27 65.3052 239.082 65.2631C239.082 65.0947 239.082 64.7578 239.125 64.5894C232.179 64.5473 225.275 64.5473 218.372 64.5894Z" fill="#FEFEFE"/>
<path d="M157.68 50.2316L158.019 50.4422C158.57 50.8211 159.247 50.7369 159.883 50.8632H160.01C159.417 50.8211 158.824 50.8211 158.231 50.779C158.104 51.2422 158.019 51.7053 157.934 52.1264C157.723 52.2106 157.511 52.2948 157.257 52.3369C157.087 52.2106 156.875 52.0843 156.706 51.9579C157.045 52.1264 157.384 52.0843 157.723 51.8316C157.977 51.3685 158.019 50.9053 157.765 50.3579L157.68 50.2316Z" fill="#FEFEFE"/>
<path d="M26.0049 148.126C27.9531 148.8 29.5625 150.189 31.3414 151.2C37.6943 154.947 44.6402 157.853 51.9672 158.989C52.1366 160.8 51.7131 162.737 52.3484 164.505C52.3908 164.632 52.4755 164.926 52.5178 165.095C52.8566 166.695 54.2543 167.958 55.8637 168.253C58.1084 168.505 60.3955 168.126 62.6402 168.421C61.8778 171.874 61.2002 175.326 60.4378 178.737C55.0166 178.526 49.5955 178.695 44.1319 178.653C39.0072 178.653 33.9249 178.653 28.8002 178.695C27.8684 178.695 26.9366 178.653 26.0049 178.863C26.0049 168.547 26.0049 158.316 26.0049 148.126Z" fill="#FEFEFE"/>
<path d="M67.6797 168.253C80.3856 168.211 93.0915 168.253 105.84 168.253C105.967 169.811 106.009 171.411 106.221 172.968C106.221 173.053 106.221 173.263 106.221 173.347C106.221 173.474 106.221 173.684 106.221 173.811C106.221 174.905 106.263 175.958 106.433 177.053C105.077 178.147 103.341 178.653 101.647 178.947C101.054 178.821 100.419 178.653 99.8256 178.653C88.3056 178.653 76.7856 178.611 65.2656 178.653C66.0703 175.158 67.0021 171.747 67.6797 168.253Z" fill="#FEFEFE"/>
<path d="M122.443 173.937C123.587 172 124.942 170.147 126.128 168.253C161.492 168.295 196.815 168.253 232.179 168.295C234.255 168.337 236.372 168.253 238.448 168.337C239.21 171.789 240.057 175.2 240.819 178.611C201.855 178.653 162.89 178.611 123.925 178.653C122.57 178.611 121.13 178.863 119.817 178.316L119.732 177.937C119.944 177.558 120.156 177.179 120.41 176.8C121.257 175.916 121.808 174.905 122.443 173.937Z" fill="#FEFEFE"/>
<path d="M128.287 0.0839C133.878 -0.00031054 139.469 -0.379257 145.059 -0.000309259C154.25 0.168112 163.44 0.799691 172.589 1.6839C177.756 2.23127 182.965 2.56811 188.132 3.32601C195.374 4.29443 202.617 5.43127 209.69 7.2418C224.937 11.1155 239.803 17.305 252.382 26.8207C267.29 37.8102 278.429 53.6418 283.977 71.1997C287.365 81.9365 288.254 93.3471 287.196 104.505C286.349 113.81 284.316 123.031 280.716 131.663C277.709 138.989 273.643 145.894 268.433 151.873C265.384 155.158 262.123 158.273 258.311 160.673C256.913 161.684 255.219 162.231 253.694 162.989C252.847 163.41 251.916 163.41 250.984 163.494C257.591 145.052 264.071 126.568 270.805 108.168C269.365 108.042 267.925 108.084 266.527 107.915C267.84 107.284 269.28 106.905 270.424 106.021C271.737 105.01 272.923 103.789 273.643 102.273C274.109 101.431 273.389 100.547 272.669 100.168C269.534 98.3576 265.426 98.5681 262.377 100.463C263.309 98.2734 263.52 95.705 262.334 93.5576C264.367 91.1997 265.765 88.2102 265.596 85.0523C265.469 84.2102 265.384 83.2418 264.749 82.6102C263.944 82.526 263.351 83.1997 262.8 83.6629C260.429 86.0208 258.862 89.1786 258.353 92.505C258.014 92.505 257.633 92.5471 257.294 92.5471C257.591 90.905 258.057 89.2629 257.76 87.5786C257.294 85.0523 255.685 82.8629 253.567 81.4313C252.847 80.9681 252.085 80.4629 251.238 80.4208C250.56 80.3786 250.137 81.0523 250.01 81.6418C249.671 83.2839 249.756 85.0102 249.798 86.6523C249.84 89.0944 250.518 91.6629 252.212 93.5155C252.763 94.1471 253.61 94.3997 254.372 94.7365C252.509 99.1576 254.118 103.958 255.431 108.294C252.254 108.337 249.036 108.463 245.859 108.168C245.986 103.747 245.859 99.2839 245.901 94.8629C245.859 91.8734 246.029 88.8839 245.563 85.9365C244.673 82.9471 241.751 80.5892 238.532 80.5892C225.53 80.5892 212.485 80.6313 199.483 80.5892C199.102 76.6734 197.662 72.5892 194.57 69.9786C192.876 68.505 190.8 67.5365 188.64 66.9471C185.972 66.1892 183.219 65.6418 180.466 65.3471C178.772 65.1365 177.078 64.8839 175.384 64.5892C175.257 64.5892 175.003 64.5471 174.876 64.505C173.012 62.1892 171.36 59.705 169.709 57.2629C169.836 57.2629 170.09 57.305 170.217 57.305C170.81 55.8734 171.021 54.2734 171.403 52.7576C172.08 49.5155 172.8 46.2734 172.631 42.9471C172.462 40.7576 171.53 38.4418 169.581 37.2629C167.803 36.0418 165.516 36.8839 163.567 36.126C160.814 35.1997 159.417 32.2944 156.791 31.2418C153.021 29.8102 148.701 32.2944 147.219 35.8313C145.906 39.7892 149.21 43.9576 153.106 44.6734C153.021 46.2734 153.191 47.8734 153.233 49.4734C152.471 49.6418 151.285 49.9365 151.412 50.9471C151.878 51.2839 152.471 51.0313 152.979 50.9892C153.021 51.2418 153.149 51.7471 153.233 51.9997C153.233 53.2629 153.318 54.5681 153.403 55.8313C153.403 56.0839 153.403 56.5471 153.403 56.7576C153.403 58.6523 153.36 60.5892 153.572 62.4839C153.699 63.3681 154.25 64.2523 155.181 64.5471C156.579 65.0102 158.104 64.5471 159.332 63.8734C159.756 64.7576 160.179 65.6418 160.433 66.6102C160.476 66.7786 160.56 67.1576 160.603 67.326C157.638 68.5471 154.631 69.8523 152.301 72.126C150.734 73.5576 149.421 75.326 148.786 77.3471C145.821 77.8523 142.814 78.2313 139.807 78.5681C134.217 78.8208 128.457 79.0734 123.078 77.2629C119.224 76.0418 115.539 73.726 113.464 70.1471C113.083 69.4734 112.871 68.7155 112.32 68.126C111.643 67.705 110.626 68.126 110.457 68.926C110.414 69.6418 110.753 70.3155 111.134 70.905C112.701 73.2629 114.607 75.4944 117.064 76.9681C118.97 78.105 120.96 79.1155 123.12 79.705C128.542 81.1786 134.217 81.3471 139.807 80.926C142.56 80.7576 145.271 79.9997 148.066 80.0839C146.753 85.8102 145.525 91.5786 144.127 97.2629C143.661 99.1997 143.153 101.137 142.772 103.115C142.687 103.663 142.476 104.21 142.221 104.673C139.384 99.3681 136.419 94.1471 133.624 88.7997C133.2 87.9997 132.65 87.1997 131.803 86.7786C130.447 86.5681 129.092 86.6523 127.779 86.6523C124.645 86.6944 121.511 86.6944 118.377 86.7365C111.812 86.7365 105.247 86.905 98.6403 86.9892C97.878 87.0313 96.9038 86.9892 96.4803 87.7471C96.0568 88.4207 96.5227 89.1786 96.8615 89.7681C101.901 98.7786 106.73 107.915 111.897 116.884C108.805 117.937 105.84 119.873 104.273 122.779C102.918 125.305 103.172 128.252 103.299 131.031C103.553 134.063 103.68 137.052 103.892 140.084C91.525 140.084 79.1156 140.126 66.7486 140.084V140C66.9603 135.242 66.8333 130.442 66.8333 125.684C69.4168 125.642 72.0427 125.726 74.6262 125.642C75.2191 125.684 75.4309 125.01 75.7274 124.631C76.6168 122.989 77.6333 121.389 78.4803 119.747C78.6497 119.368 78.7768 119.031 78.9462 118.652C78.2685 118.442 77.5485 118.358 76.8285 118.4C70.8568 118.442 64.9274 118.358 58.9556 118.442C58.998 117.515 58.998 116.589 59.0403 115.663C59.3791 115.284 59.7603 114.905 60.0991 114.526C62.4285 111.831 64.8427 109.094 66.3674 105.852C67.0027 104.589 66.8333 102.737 65.478 102.021C63.4027 100.926 60.9885 101.852 58.7438 101.6L58.5321 101.179C54.0003 100.926 49.4262 101.179 44.8944 101.052H44.4709C44.5556 97.8523 43.7509 94.2734 40.9556 92.3786C40.6591 95.2418 40.8709 98.1471 40.8709 101.01C39.5156 101.052 38.2027 101.052 36.8474 101.137C37.0168 96.126 36.805 91.0734 36.9744 86.0629C36.9744 84.2102 37.6521 82.3997 38.7956 80.9681C41.2097 77.9786 43.7509 75.0313 46.0803 71.9997C46.165 71.9155 46.3344 71.705 46.4191 71.5786C50.7815 73.726 56.245 73.2207 60.2685 70.526C60.6074 74.0208 60.3109 77.5576 60.3956 81.0523C60.3956 82.1471 60.9885 83.326 62.0474 83.7892C62.725 84.126 63.445 84.126 64.165 84.126C76.0662 84.0839 88.0097 84.0839 99.9109 84.126C101.563 84.0839 103.426 84.4629 104.866 83.4523C105.925 82.8208 105.967 81.4734 106.01 80.3786C106.01 65.8102 105.967 51.2418 106.01 36.6734C106.137 35.4944 105.205 34.5681 104.231 34.0207C103.341 33.8102 102.41 33.8944 101.52 33.8523C88.8568 33.8944 76.1933 33.8523 63.5297 33.8944C62.3862 33.8523 61.2003 34.2734 60.6074 35.2839C60.3109 36.2102 60.3956 37.2629 60.3956 38.2313C60.438 41.8102 60.4803 45.3892 60.3109 48.926C57.558 47.1155 54.1697 46.1892 50.9086 46.7365C46.1227 47.326 41.7603 50.6102 40.0238 55.1155C37.8638 60.2944 39.8121 66.7786 44.3862 70.0629C44.598 70.1892 44.9791 70.4839 45.1486 70.6523C42.6074 73.9365 39.8544 77.0944 37.3133 80.4208C35.7462 82.4839 35.4074 85.1365 35.4497 87.6629C35.5344 92.0839 35.3227 96.505 35.4074 100.926C35.1533 101.094 34.8991 101.221 34.6027 101.389C34.5603 103.41 34.6027 105.473 34.8144 107.494C35.0262 111.115 34.7721 114.779 35.1956 118.4C27.5721 118.442 19.9485 118.442 12.325 118.4C11.8168 118.484 10.758 118.273 10.9274 119.115C11.9862 121.347 13.4262 123.452 14.6121 125.642C17.2803 125.726 19.9485 125.6 22.6591 125.726C22.7015 132.21 22.6591 138.694 22.7015 145.179C21.9815 144.715 21.2191 144.252 20.6262 143.621C19.5674 142.568 18.3391 141.726 17.4074 140.589C16.9415 140 16.4333 139.41 15.925 138.905C13.8074 136.758 12.1556 134.231 10.4191 131.747C8.42854 128.505 6.3956 125.305 4.9556 121.768C1.60972 114.358 -0.380867 106.189 0.550897 98.0207C1.31325 92.2944 2.7956 86.6102 5.50619 81.4734C10.3768 71.4944 18.3391 63.326 27.3603 56.9681C29.1391 55.6629 31.0874 54.6102 32.9085 53.3471C34.4756 52.2944 36.2121 51.6207 37.8638 50.6944C38.6685 50.2734 38.7533 49.2629 39.1768 48.5471C43.2427 40.0418 49.5109 32.7576 56.4568 26.4839C59.2521 24.1681 61.9627 21.7681 65.0121 19.8313C70.6874 15.7471 76.8709 12.4629 83.2238 9.59969C97.285 3.2839 112.871 0.841795 128.287 0.0839ZM84.7062 17.8523C81.8262 18.3997 79.8356 21.4734 80.3862 24.3365C80.7674 27.705 84.5791 30.0628 87.798 29.0102C90.8474 28.1681 92.9227 24.4628 91.6097 21.5155C90.678 18.7786 87.5015 17.1365 84.7062 17.8523ZM100.546 21.8944C99.5721 22.3155 99.7415 23.7471 100.758 23.9576C102.537 24.4207 104.4 24.5471 106.137 25.2207C109.101 26.3997 111.939 28.505 113.04 31.5786C114.269 34.4418 113.93 37.6839 113.294 40.6313C112.617 43.6207 112.405 46.7786 113.04 49.7681C114.141 55.1997 119.478 59.4102 125.069 59.1997C127.229 59.0734 129.558 58.2734 130.744 56.3786C131.549 55.1576 131.506 53.4734 130.829 52.2102C129.558 49.9365 126.89 48.8839 124.433 48.4629C123.459 48.2102 122.739 49.4313 123.374 50.1471C124.56 51.2839 126.424 51.0734 127.694 52.126C128.372 52.6734 129.134 53.4734 128.965 54.4418C128.838 55.6208 127.61 56.2102 126.593 56.5471C125.238 57.0523 123.713 57.0523 122.316 56.5471C119.054 55.6629 116.344 53.0944 115.454 49.8523C114.141 45.8523 115.624 41.7681 116.09 37.7681C116.429 35.1997 115.963 32.5892 114.946 30.2313C113.845 27.7471 111.854 25.7681 109.567 24.3365C107.492 23.0313 105.12 22.4418 102.791 21.8944C102.113 21.8102 101.309 21.6839 100.546 21.8944ZM164.16 21.9365C163.313 22.4418 163.44 23.9155 164.372 24.2944C165.219 24.7155 166.405 23.9997 166.363 23.0734C166.32 22.0207 165.007 21.3892 164.16 21.9365ZM214.984 36.6313C213.883 36.7997 212.189 36.6734 212.062 38.1471C212.019 47.5786 212.062 57.0523 212.062 66.4839C212.062 67.6208 211.977 68.7997 212.104 69.9365C212.231 70.6944 212.951 71.1576 213.713 71.1155C226.885 71.0734 240.057 71.0734 253.229 71.1155C253.822 71.0734 254.542 71.1997 254.965 70.6523C255.473 70.2313 255.389 69.5576 255.389 69.0102C255.304 59.0313 255.389 49.0944 255.389 39.1576C255.346 38.5681 255.431 37.8944 255.007 37.4313C254.372 36.5892 253.229 36.8418 252.339 36.5892C251.789 36.1681 251.662 35.4102 251.111 35.0313C250.391 34.4839 249.417 34.5681 248.57 34.5681C247.299 34.6102 246.029 34.4839 244.8 34.6523C243.784 34.8629 243.36 35.8734 242.894 36.6734C242.259 36.8418 241.624 36.7997 240.989 36.7997C235.61 36.7997 230.231 36.7997 224.852 36.7997C224.513 35.8313 223.878 34.7365 222.65 34.6944C220.871 34.6102 219.05 34.6102 217.271 34.7365C216.085 34.7786 215.704 35.9576 214.984 36.6313ZM136.25 68.126C135.276 68.4629 134.979 69.9786 135.953 70.4839C136.8 71.2418 138.156 70.3997 138.071 69.3471C138.198 68.3786 137.054 67.705 136.25 68.126Z" fill="#E4F1FF"/>
<path d="M84.7063 17.8526C87.5016 17.1368 90.6781 18.7789 91.6098 21.5158C92.9228 24.4631 90.8051 28.1684 87.7981 29.0105C84.5792 30.021 80.8098 27.7052 80.3863 24.3368C79.8781 21.4737 81.8263 18.4 84.7063 17.8526Z" fill="#99C2FF"/>
<path d="M100.546 21.8946C101.309 21.6841 102.071 21.8104 102.833 21.9367C105.163 22.4841 107.577 23.0736 109.61 24.3789C111.854 25.8525 113.887 27.7894 114.989 30.2736C116.005 32.6315 116.429 35.242 116.132 37.8104C115.666 41.8104 114.184 45.8946 115.497 49.8946C116.429 53.1368 119.097 55.7473 122.358 56.5894C123.713 57.0946 125.238 57.0946 126.636 56.5894C127.652 56.2946 128.923 55.7052 129.007 54.4841C129.177 53.5157 128.457 52.7157 127.737 52.1683C126.509 51.1157 124.603 51.3262 123.417 50.1894C122.739 49.4736 123.459 48.2104 124.476 48.5052C126.932 48.9262 129.6 49.9789 130.871 52.2525C131.549 53.5157 131.633 55.1999 130.786 56.421C129.6 58.3157 127.271 59.1157 125.111 59.242C119.52 59.4104 114.184 55.242 113.083 49.8104C112.447 46.7789 112.617 43.6631 113.337 40.6736C113.972 37.6841 114.311 34.4841 113.083 31.621C111.939 28.5473 109.144 26.442 106.179 25.2631C104.443 24.5894 102.579 24.4631 100.8 23.9999C99.7415 23.7473 99.6144 22.3157 100.546 21.8946Z" fill="#FDFEFE"/>
<path d="M164.16 21.9369C165.007 21.3895 166.32 22.0211 166.32 23.0737C166.362 24.0421 165.177 24.7158 164.329 24.2948C163.44 23.9158 163.313 22.4421 164.16 21.9369Z" fill="#A0C4FC"/>
<path d="M147.05 35.7052C148.532 32.1683 152.895 29.7262 156.622 31.1157C159.29 32.1683 160.645 35.0736 163.398 35.9999C165.347 36.7578 167.634 35.9157 169.412 37.1368C171.361 38.3157 172.292 40.6315 172.462 42.821C172.631 46.1473 171.869 49.3894 171.234 52.6315C170.852 54.1473 170.641 55.7052 170.048 57.1789C169.921 57.1789 169.667 57.1368 169.54 57.1368C168.777 55.9578 168.015 54.821 167.337 53.642C168.396 52.5473 168.692 50.6105 167.591 49.4315C166.998 48.7157 165.982 48.7157 165.135 48.6736C164.965 48.6736 164.627 48.6736 164.457 48.6736C164.161 48.9262 163.907 49.221 163.652 49.5157C162.17 47.8315 163.441 45.5157 162.636 43.621C161.916 43.8315 161.154 44.0841 160.391 44.2947C157.935 44.842 155.394 45.0526 152.937 44.5052C149.083 43.8315 145.737 39.6631 147.05 35.7052Z" fill="#123B8B"/>
<path d="M155.774 50.0631C156.367 50.021 156.96 49.9368 157.596 49.8947C157.723 50.021 157.934 50.3157 158.019 50.442L157.68 50.2315L157.723 50.442C157.553 50.8631 157.384 51.2841 157.172 51.7052C156.96 51.4525 156.749 51.242 156.537 50.9894C156.749 50.6526 156.96 50.3578 157.172 50.021C156.706 50.0631 156.24 50.0631 155.774 50.0631Z" fill="#123B8B"/>
<path d="M214.984 36.6316C215.704 35.9579 216.085 34.7789 217.186 34.6526C218.965 34.5263 220.786 34.5684 222.565 34.6105C223.751 34.6526 224.386 35.7474 224.767 36.7158C230.146 36.7158 235.525 36.7158 240.904 36.7158C241.539 36.7158 242.175 36.7579 242.81 36.5895C243.276 35.7895 243.699 34.7789 244.716 34.5684C245.986 34.4 247.215 34.5684 248.485 34.4842C249.332 34.5263 250.306 34.4 251.026 34.9474C251.577 35.3263 251.746 36.0842 252.255 36.5052C253.144 36.7579 254.33 36.4631 254.923 37.3474C255.389 37.8105 255.304 38.4842 255.304 39.0737C255.304 49.0105 255.219 58.9895 255.304 68.9263C255.262 69.4737 255.346 70.1895 254.88 70.5684C254.457 71.1158 253.737 70.9895 253.144 71.0316C239.972 70.9895 226.8 70.9895 213.629 71.0316C212.909 71.0737 212.146 70.6105 212.019 69.8526C211.892 68.7158 211.977 67.5368 211.977 66.4C212.019 56.9684 211.977 47.4947 211.977 38.0631C212.189 36.6737 213.925 36.8 214.984 36.6316ZM213.84 38.4842C213.756 48.8 213.756 59.1579 213.84 69.4737C227.055 69.5579 240.226 69.4737 253.44 69.4316C253.567 68.8842 253.695 68.2947 253.652 67.7052C253.652 63.0737 253.61 58.4842 253.652 53.8526C253.61 48.7158 253.779 43.5789 253.567 38.4421C251.153 38.2316 248.739 38.4421 246.325 38.3579C236.711 38.3579 227.139 38.3579 217.525 38.3579C216.297 38.4 215.069 38.3158 213.84 38.4842Z" fill="#9CC0FA"/>
<path d="M69.0781 43.2C75.6428 43.0735 82.2075 43.2 88.7299 43.1579C89.1534 43.1579 90.3817 43.1157 89.7887 43.8748C82.8852 43.9592 75.9817 43.917 69.0781 43.917C69.0781 43.7061 69.0781 43.3687 69.0781 43.2Z" fill="#92AAE6"/>
<path d="M160.391 44.3368C161.153 44.1263 161.873 43.8737 162.635 43.6631C162.381 46.7368 162.847 49.8526 162.593 52.9684C162.508 53.0947 162.381 53.3895 162.297 53.5579C162.212 50.5263 162.339 47.4526 162.127 44.421C161.534 44.3368 160.941 44.3368 160.391 44.3368Z" fill="#E5987E"/>
<path d="M162.635 43.6631C163.44 45.5579 162.169 47.8737 163.652 49.5579C163.906 49.2631 164.202 48.9684 164.456 48.7158C164.626 48.7158 164.965 48.7158 165.134 48.7158C164.88 48.9684 164.584 49.221 164.329 49.5158C163.44 52.8842 164.668 56.5474 163.313 59.7895C162.593 61.6421 160.899 62.8631 159.205 63.7474C157.976 64.4631 156.452 64.8842 155.054 64.421C154.165 64.1263 153.572 63.2842 153.445 62.3579C153.191 60.4632 153.275 58.5263 153.275 56.6316C155.351 56.1684 157.553 57.2632 159.544 56.3368C160.009 56.1684 160.136 55.6631 160.391 55.3263C160.984 54.6947 161.619 54.1053 162.254 53.5158C162.339 53.3895 162.466 53.0947 162.551 52.9263C162.805 49.8526 162.339 46.7368 162.635 43.6631Z" fill="#FF9464"/>
<path d="M160.391 44.3368C160.942 44.3368 161.535 44.3368 162.085 44.3789C162.297 47.4105 162.17 50.4842 162.255 53.5157C161.619 54.1052 160.984 54.6947 160.391 55.3263C159.671 55.7894 158.951 56.2947 158.062 56.2526C156.452 56.2947 154.843 56.0421 153.276 55.6631C153.191 54.3999 153.106 53.0947 153.106 51.8315C153.106 50.9894 153.149 50.1473 153.106 49.3052C153.022 47.7052 152.852 46.1052 152.979 44.5052C155.393 45.0947 157.935 44.8842 160.391 44.3368ZM155.436 49.0947C155.351 49.4736 155.309 49.8526 155.266 50.2315C155.605 50.3578 155.944 50.5263 156.24 50.7368C156.283 51.1999 156.325 51.6631 156.664 52.0421C156.833 52.1684 157.045 52.2947 157.215 52.421C157.426 52.3368 157.638 52.2526 157.892 52.2105C157.977 51.7473 158.104 51.2842 158.189 50.8631C158.782 50.9052 159.375 50.9052 159.968 50.9473H159.84L159.756 50.5263C160.137 49.8105 158.909 49.221 158.4 49.6421L158.146 49.4736C157.469 48.6315 156.283 49.1789 155.436 49.0947Z" fill="#FF9160"/>
<path d="M218.499 45.4736C228.494 45.5158 238.49 45.4314 248.485 45.4736C248.443 45.6423 248.315 45.9375 248.273 46.1062C239.294 46.064 230.315 46.1484 221.337 46.064C220.405 46.0219 219.431 46.2327 218.584 45.9797C218.541 45.8953 218.541 45.6001 218.499 45.4736Z" fill="#8AA6E2"/>
<path d="M218.414 46.9895C220.235 46.8208 222.056 46.9473 223.835 46.9895C229.934 46.8208 236.075 47.2003 242.174 46.9473C243.529 46.9051 244.927 46.9051 246.282 46.9051C247.341 46.9051 248.485 46.8208 249.459 47.2847C249.289 47.369 248.993 47.5799 248.823 47.6642C238.998 47.7486 229.172 47.6642 219.346 47.7064C218.88 47.7908 218.499 47.5377 218.414 46.9895Z" fill="#8AA6E2"/>
<path d="M80.5979 50.5685C83.9438 50.442 87.2896 50.4841 90.6355 50.5263L90.8473 50.695L90.7202 51.1589C87.2473 51.2011 83.7743 51.1589 80.3438 51.2011C80.3861 51.0324 80.5132 50.695 80.5979 50.5685Z" fill="#8AA6E2"/>
<path d="M68.9082 57.5158C78.2258 57.4314 87.5435 57.4736 96.8611 57.4736C96.8611 57.6423 96.8188 57.9375 96.8188 58.1062C87.5011 58.1906 78.2258 58.1484 68.9082 58.1484C68.9082 58.0219 68.9082 57.6845 68.9082 57.5158Z" fill="#8AA6E2"/>
<path d="M68.9505 72.8853C68.5693 71.9997 69.6281 72.2949 70.0517 72.1683C79.5387 72.1262 89.0258 72.1262 98.5128 72.1683C98.5128 72.337 98.4705 72.6744 98.4705 72.801C88.6446 72.9697 78.7764 72.8431 68.9505 72.8853Z" fill="#8AA6E2"/>
<path d="M68.8662 75.7474C73.1439 75.6209 77.4215 75.6631 81.6991 75.7053C82.2497 75.6631 82.0803 76.5066 81.4874 76.2957C77.3368 76.3379 73.2286 76.3801 69.078 76.2535L68.8662 75.7474Z" fill="#8AA6E2"/>
<path d="M39.8964 55.0316C41.5905 50.5263 45.9953 47.2421 50.7811 46.6526C54.0423 46.1474 57.4305 47.0737 60.1835 48.8421C63.5717 51.2842 65.9435 55.3263 65.8164 59.5368C65.9011 63.8316 63.5294 67.8737 60.1835 70.4C56.16 73.0947 50.6964 73.6 46.3341 71.4526C47.1811 70.3158 48.0282 69.1789 48.96 68.0842C52.687 63.7474 56.0329 59.1158 59.8023 54.7789C59.4211 54.4842 59.0823 54.1474 58.7011 53.8526C55.1435 58.021 51.7129 62.2316 48.3247 66.5263C47.3082 67.7895 46.3764 69.0947 45.2329 70.2316C44.9788 70.1474 44.5129 70.021 44.2588 69.9789C39.6847 66.6947 37.7364 60.2526 39.8964 55.0316Z" fill="#83B1FF"/>
<path d="M165.135 48.6736C165.982 48.7579 166.998 48.7157 167.591 49.4315C168.693 50.6105 168.396 52.5473 167.337 53.6421C168.015 54.8631 168.82 56 169.54 57.1368C171.191 59.5789 172.843 62.0631 174.707 64.3789C174.834 64.3789 175.088 64.421 175.215 64.4631C175.469 66.3579 175.257 68.2947 174.241 69.9368C173.055 71.4526 171.615 72.8421 169.709 73.3894C167.422 73.9789 164.584 73.7684 162.933 71.9157C161.408 70.4421 160.942 68.3368 160.264 66.4C160.01 65.4736 159.587 64.5473 159.163 63.6631C160.857 62.7368 162.551 61.5579 163.271 59.7052C164.627 56.421 163.441 52.8 164.288 49.4315C164.584 49.1789 164.881 48.9263 165.135 48.6736Z" fill="#FF9464"/>
<path d="M218.584 48.6318C220.024 48.3788 221.506 48.5475 222.946 48.5896C226.716 48.6318 230.485 48.2944 234.255 48.674C234.297 48.8005 234.466 49.0536 234.509 49.2222C229.215 49.3909 223.963 49.2644 218.669 49.3488C218.626 49.1379 218.584 48.8005 218.584 48.6318Z" fill="#A3C4EA"/>
<path d="M155.435 49.0947C156.325 49.1789 157.468 48.6315 158.146 49.3473C157.299 49.3052 155.647 48.8421 155.478 50.021L155.774 50.0631C156.24 50.0631 156.706 50.0631 157.172 50.0631C156.96 50.4 156.748 50.6947 156.537 51.0315L156.198 50.7368C155.901 50.5263 155.562 50.3579 155.224 50.2315C155.308 49.8526 155.351 49.4736 155.435 49.0947Z" fill="#B6797B"/>
<path d="M151.285 50.821C151.158 49.8105 152.344 49.5158 153.106 49.3474C153.148 50.1895 153.106 51.0316 153.106 51.8737C153.064 51.621 152.937 51.1158 152.852 50.8631C152.344 50.9052 151.751 51.1579 151.285 50.821Z" fill="#21377C"/>
<path d="M155.436 50.021C155.605 48.8842 157.299 49.3473 158.104 49.3473L158.358 49.5158C158.781 49.8526 159.247 50.1473 159.713 50.4L159.798 50.821C159.163 50.7368 158.485 50.7789 157.934 50.4C157.807 50.2736 157.596 49.9789 157.511 49.8526C156.918 49.8947 156.325 49.9789 155.69 50.021H155.436Z" fill="#372754"/>
<path d="M158.4 49.5157C158.951 49.0947 160.137 49.7263 159.756 50.3999C159.29 50.1473 158.824 49.8526 158.4 49.5157Z" fill="#CC8580"/>
<path d="M218.457 50.4844C219.939 50.3157 221.379 50.3579 222.862 50.3579C227.521 50.3579 232.137 50.3579 236.796 50.4001C237.982 50.4422 239.168 50.4422 240.354 50.6531C239.591 51.581 238.194 50.9905 237.135 51.1592C230.994 51.117 224.895 51.117 218.754 51.117C218.669 50.9905 218.542 50.6531 218.457 50.4844Z" fill="#B3CCED"/>
<path d="M156.198 50.7368L156.537 51.0316C156.749 51.2421 156.961 51.4947 157.172 51.7473C157.342 51.3263 157.511 50.9052 157.723 50.4842C157.977 50.9895 157.935 51.4947 157.681 51.9579C157.384 52.1684 157.045 52.2105 156.664 52.0842C156.325 51.6631 156.241 51.2 156.198 50.7368Z" fill="#182151"/>
<path d="M148.702 116.8C152.048 116.758 155.352 117.011 158.655 117.053C160.519 117.095 162.424 116.969 164.246 117.475C160.392 117.601 156.495 117.686 152.641 117.264C151.37 117.095 149.888 117.559 148.702 116.8Z" fill="#182151"/>
<path d="M106.222 173.305C108.085 173.221 109.949 173.137 111.812 173.263C112.193 173.263 112.321 173.769 112.617 173.98C111.219 173.938 109.864 173.812 108.466 173.812C107.704 173.769 106.984 173.769 106.222 173.769C106.222 173.643 106.222 173.432 106.222 173.305Z" fill="#182151"/>
<path d="M218.499 52.3792C219.304 52.1262 220.193 52.2527 220.998 52.2105C226.461 52.2105 231.967 52.2105 237.431 52.2105C237.981 52.2527 238.744 52.2105 238.786 52.9275C238.151 53.0118 237.473 53.054 236.838 53.054C232.094 53.0118 227.351 52.9696 222.607 53.0118C221.252 52.9696 219.897 53.0962 218.584 52.8853C218.541 52.7588 218.541 52.5057 218.499 52.3792Z" fill="#C4DAF7"/>
<path d="M48.3252 66.5263C51.7134 62.2315 55.144 58.021 58.7016 53.8526C59.0828 54.1473 59.4216 54.4842 59.8028 54.7789C56.0334 59.0737 52.6875 63.7052 48.9605 68.0842C48.0287 69.1789 47.224 70.3158 46.3346 71.4526C46.2499 71.5789 46.0805 71.7473 45.9958 71.8737C45.7416 71.3263 45.4875 70.7789 45.2334 70.2316C46.3346 69.0947 47.3087 67.7894 48.3252 66.5263Z" fill="#5C91F7"/>
<path d="M218.796 54.1057C221.972 53.8527 225.149 53.9792 228.283 53.8105C232.391 54.0214 236.499 53.8105 240.607 53.8948L240.777 54.1901L240.692 54.6118C236.669 54.8227 232.603 54.5696 228.579 54.6961C225.191 54.654 221.76 54.8648 218.372 54.5696C218.457 54.4431 218.669 54.2322 218.796 54.1057Z" fill="#CADCF6"/>
<path d="M158.061 56.2526C158.951 56.2947 159.671 55.7473 160.391 55.3263C160.137 55.7052 160.01 56.1684 159.544 56.3368C157.553 57.2631 155.351 56.1684 153.275 56.6316C153.275 56.3789 153.275 55.9158 153.275 55.7052C154.842 56.0421 156.452 56.2947 158.061 56.2526Z" fill="#FF9464"/>
<path d="M175.257 64.5052C176.951 64.7579 178.645 65.0526 180.339 65.2631C178.984 65.7263 177.586 65.1368 176.231 65.3895C175.765 66.2316 176.061 67.3263 175.638 68.2105C175.384 68.9263 174.876 69.5579 174.24 69.9789C175.299 68.3368 175.511 66.4 175.257 64.5052Z" fill="#032A6E"/>
<path d="M98.5555 86.8632C105.12 86.7789 111.685 86.6105 118.292 86.6105C118.885 86.779 119.435 86.9895 120.071 86.9895C123.459 87.0737 126.805 86.9053 130.193 86.9895C130.744 87.0316 131.21 86.8211 131.718 86.6105C132.565 87.0316 133.115 87.8316 133.539 88.6316C136.334 93.979 139.299 99.2 142.137 104.505C144.297 108.632 146.626 112.632 148.744 116.758C149.887 117.516 151.37 117.053 152.683 117.221C156.537 117.642 160.433 117.558 164.287 117.432C164.414 118.821 163.017 119.326 161.873 119.2C159.374 119.2 156.918 119.495 154.419 119.453C141.29 119.158 128.16 119.495 115.031 119.242C113.421 119.411 112.574 117.853 111.812 116.758C106.645 107.789 101.817 98.6526 96.7766 89.6421C96.4802 89.0526 96.0143 88.2947 96.3955 87.6211C96.819 86.8632 97.7931 86.9053 98.5555 86.8632ZM121.468 98.9474C120.833 99.3684 121.172 100.084 121.214 100.674C120.706 100.463 120.071 100.126 119.563 100.589C118.758 101.937 119.817 103.537 120.96 104.337C121.807 104.968 123.459 105.053 123.755 103.789C123.501 102.442 122.951 100.716 121.299 100.589C121.68 100.168 122.485 98.8632 121.468 98.9474Z" fill="#032A6E"/>
<path d="M218.33 59.8747C218.415 58.9469 219.431 59.3264 220.067 59.2421C227.987 59.2843 235.907 59.1577 243.827 59.2843C243.784 59.4108 243.699 59.706 243.699 59.8325C239.634 60.0012 235.525 59.8747 231.459 59.9169C227.055 59.9169 222.692 60.0012 218.33 59.8747Z" fill="#89A6DF"/>
<path d="M218.372 64.5895C225.276 64.5473 232.221 64.5473 239.125 64.5895C239.125 64.7582 239.125 65.0956 239.083 65.2643C235.271 65.3065 231.459 65.2643 227.647 65.2643C224.598 65.2221 221.549 65.3486 218.499 65.1378C218.457 64.9691 218.414 64.716 218.372 64.5895Z" fill="#889EE5"/>
<path d="M68.7812 65.2634C69.2048 65.2212 69.6283 65.179 70.0518 65.1368C78.8189 65.1368 87.586 65.1368 96.353 65.1368C96.7342 65.1368 96.946 65.3477 96.9883 65.7695C95.506 65.9803 94.0236 65.8538 92.5413 65.896C84.706 65.896 76.913 65.896 69.1201 65.896C69.0354 65.7273 68.866 65.4321 68.7812 65.2634Z" fill="#8FA9E4"/>
<path d="M176.231 65.3895C177.544 65.1369 178.984 65.7263 180.339 65.2632C183.092 65.5579 185.845 66.1053 188.514 66.8632C183.939 69.0106 181.991 74.6527 182.881 79.3684C183.05 80.7158 183.939 82.0632 183.516 83.4527C182.076 88.0421 180.466 92.5895 179.746 97.3474C179.619 98.0632 179.45 98.779 179.238 99.4948C177.586 100.421 175.681 100.505 173.859 100.674C165.601 101.221 156.961 97.7263 152.09 90.9474C152.005 93.3895 152.132 95.8316 152.471 98.2316C149.676 97.8948 146.838 97.4737 144.043 97.1369C145.441 91.4106 146.669 85.6842 147.982 79.9579C148.194 79.0316 148.405 78.1053 148.702 77.2211C149.337 75.2 150.65 73.4316 152.217 72C154.546 69.7263 157.554 68.4211 160.518 67.2C160.476 67.0316 160.391 66.6527 160.349 66.4842C160.984 68.4211 161.492 70.5263 163.017 72C164.711 73.8527 167.506 74.0632 169.794 73.4737C171.699 72.9263 173.139 71.5369 174.325 70.0211C174.961 69.6 175.426 68.9684 175.723 68.2527C176.062 67.3263 175.765 66.2316 176.231 65.3895Z" fill="#163F92"/>
<path d="M188.513 66.8631C190.673 67.4526 192.748 68.4631 194.443 69.8947C197.534 72.5052 199.017 76.5473 199.356 80.5052C212.358 80.5473 225.403 80.5052 238.405 80.5052C241.581 80.5052 244.504 82.8631 245.436 85.8526C245.181 88.1263 245.69 90.3999 245.436 92.6736C243.996 91.1999 242.513 89.4315 240.311 89.1789C237.558 88.7578 235.144 90.9052 234.127 93.2631C227.944 106.063 222.057 118.989 215.916 131.832C209.774 131.874 203.676 131.832 197.534 131.832C197.534 131.284 197.534 130.779 197.534 130.232C198.381 121.474 198.89 112.674 199.356 103.874C199.779 97.6842 199.906 91.4947 199.694 85.2631C199.228 88.5052 198.72 91.7052 197.788 94.821C197.28 96.4631 196.984 98.1894 195.967 99.621C192.833 98.821 189.614 98.5262 186.396 98.021C184.193 97.7684 181.991 97.2631 179.746 97.2631C180.466 92.5052 182.076 87.9578 183.516 83.3684C183.939 81.9789 183.05 80.6315 182.88 79.2841C181.991 74.6526 183.939 69.0526 188.513 66.8631Z" fill="#5187FF"/>
<path d="M110.414 68.7579C110.541 67.9579 111.6 67.5368 112.278 67.9579C112.786 68.5473 112.998 69.3052 113.421 69.9789C115.454 73.5579 119.181 75.8737 123.035 77.0947C128.414 78.9052 134.174 78.6526 139.765 78.4C142.772 78.0631 145.779 77.6842 148.744 77.1789C148.447 78.0631 148.235 78.9894 148.024 79.9158C145.271 79.8316 142.518 80.5473 139.765 80.7579C134.174 81.1368 128.499 81.0105 123.078 79.5368C120.918 78.9895 118.927 77.9368 117.021 76.8C114.565 75.3263 112.659 73.0947 111.092 70.7368C110.711 70.1473 110.33 69.4737 110.414 68.7579Z" fill="#FDFEFD"/>
<path d="M136.25 68.1263C137.055 67.7053 138.198 68.379 138.071 69.3474C138.156 70.4 136.801 71.2421 135.954 70.4842C134.979 69.9368 135.276 68.4211 136.25 68.1263Z" fill="#9EBFFB"/>
<path d="M44.2592 69.9789C44.5133 70.0632 44.9792 70.1895 45.2333 70.2316C45.4874 70.7789 45.7415 71.3263 45.9957 71.8737C43.6239 74.9053 41.1251 77.8526 38.7109 80.8421C37.5251 82.2737 36.8898 84.0842 36.8898 85.9368C36.7204 90.9474 36.9321 96 36.7627 101.011C36.6357 100.505 36.5086 100.042 36.3815 99.5368C36.0427 100.463 35.6615 101.389 35.3227 102.316C35.3227 101.768 35.2804 101.263 35.2804 100.758C35.238 96.3368 35.4074 91.9158 35.3227 87.4947C35.2804 84.9684 35.6192 82.3158 37.1862 80.2526C39.7274 76.9263 42.4804 73.8105 45.0215 70.4842C44.8521 70.4 44.4709 70.1053 44.2592 69.9789Z" fill="#83ABF3"/>
<path d="M68.8662 74.2742C69.6286 73.8946 70.518 73.979 71.365 73.979C79.7933 74.0211 88.2215 73.9368 96.6497 73.979C97.0733 74.0211 97.7933 73.8946 97.5391 74.5694C96.7344 74.7803 95.8874 74.7381 95.0827 74.7381C86.8662 74.6959 78.6497 74.8225 70.4333 74.7381C69.8827 74.6538 69.1203 74.9068 68.8662 74.2742Z" fill="#92ABE4"/>
<path d="M249.883 81.5999C249.967 81.0105 250.391 80.3368 251.111 80.3789C251.958 80.4631 252.72 80.9263 253.44 81.3894C255.558 82.821 257.167 85.0105 257.633 87.5368C257.93 89.221 257.464 90.8631 257.167 92.5052C257.506 92.5052 257.845 92.4631 258.226 92.4631C258.734 89.1368 260.259 85.9789 262.673 83.621C263.224 83.1578 263.817 82.4842 264.621 82.5684C265.299 83.2 265.384 84.1684 265.469 85.0105C265.638 88.1263 264.24 91.1578 262.207 93.5157C263.393 95.6631 263.181 98.2315 262.25 100.421C265.299 98.5263 269.407 98.3157 272.541 100.126C273.261 100.505 273.981 101.389 273.516 102.232C272.838 103.747 271.61 104.968 270.297 105.979C269.153 106.905 267.713 107.242 266.4 107.874C267.798 108.042 269.238 108 270.678 108.126C267.078 108.168 263.436 108.337 259.836 108.253C258.311 108.168 256.786 108.168 255.261 108.168C253.949 103.832 252.339 99.0315 254.203 94.6105C253.44 94.2736 252.593 94.021 252.043 93.3894C250.349 91.5368 249.713 88.9684 249.629 86.5263C249.629 84.9263 249.544 83.242 249.883 81.5999ZM255.685 99.4947C255.812 102.147 256.363 104.8 256.913 107.41C258.269 104.547 259.793 101.684 260.301 98.5684C260.386 97.9368 260.513 97.0947 259.878 96.7157C258.014 95.8315 255.6 97.4315 255.685 99.4947Z" fill="#A2C8FF"/>
<path d="M197.746 94.9052C198.678 91.7894 199.186 88.5474 199.652 85.3474C199.906 91.5368 199.737 97.7684 199.313 103.958C198.847 112.758 198.339 121.558 197.492 130.316C197.28 132.589 196.899 134.947 195.459 136.758C194.4 138.274 192.791 139.284 191.139 140.084C189.275 140.379 187.37 140.253 185.506 140.295C171.995 140.547 158.4 141.347 144.932 140.168C144.127 140.126 143.068 139.874 142.603 140.8C140.654 144.168 138.833 147.621 136.843 150.989C133.37 156.758 129.6 162.316 126.297 168.168C131.591 168.379 136.927 168.211 142.221 168.253C172.165 168.253 202.066 168.211 232.01 168.295H232.179C196.814 168.295 161.492 168.337 126.127 168.253C124.941 170.189 123.628 172 122.443 173.937C121.807 174.905 121.257 175.958 120.367 176.758C117.911 175.747 115.243 175.453 112.701 174.737C112.659 174.568 112.617 174.189 112.617 174.021C113.252 172.421 113.718 170.779 114.141 169.095C117.191 157.853 119.901 146.484 122.697 135.158C123.035 133.895 123.459 132.589 123.544 131.242C122.57 132.463 121.934 133.895 121.214 135.242C118.546 140.253 116.598 145.6 114.565 150.863C112.617 155.958 110.584 161.053 108.72 166.189C107.873 168.421 107.661 170.947 106.221 172.926C106.01 171.368 105.967 169.811 105.84 168.211L105.798 167.874C93.1343 167.916 80.5131 167.916 67.8496 167.874C80.4708 167.789 93.1343 167.874 105.755 167.832C105.078 158.526 104.485 149.221 103.765 139.958C103.553 136.926 103.426 133.937 103.172 130.905C103.003 128.126 102.791 125.179 104.146 122.653C105.755 119.747 108.678 117.81 111.77 116.758C112.532 117.895 113.379 119.411 114.988 119.242C128.118 119.537 141.247 119.2 154.377 119.453C155.478 119.747 156.664 119.916 157.807 120.042C161.026 120.337 164.245 120.926 167.506 120.884C168.014 120.884 168.523 120.884 169.031 121.053C167.21 121.389 165.388 120.632 163.567 121.053C164.668 121.768 165.981 122.147 167.125 122.779C168.988 123.789 170.725 125.053 172.377 126.4C173.774 127.453 175.468 128.547 177.29 128.337C178.984 128.21 180.254 126.989 181.525 126.021C183.092 124.674 184.49 123.116 185.675 121.432C185.93 120.968 186.099 120.505 186.311 120.084C189.995 117.6 190.843 113.01 192.494 109.179C193.003 108.295 192.537 107.032 193.426 106.4C194.4 104.211 194.824 101.81 195.883 99.7052C196.941 98.2737 197.238 96.5052 197.746 94.9052ZM193.214 107.116C193.214 107.284 193.214 107.621 193.214 107.789C193.765 107.958 193.723 106.947 193.214 107.116Z" fill="#153E91"/>
<path d="M58.8711 118.358C64.8429 118.274 70.7723 118.358 76.744 118.316C77.464 118.274 78.1417 118.4 78.8617 118.568C78.6923 118.947 78.5652 119.284 78.3958 119.663C78.3958 119.411 78.4382 118.863 78.4382 118.568C73.2287 118.358 68.0193 118.568 62.8099 118.526C61.497 118.526 60.184 118.526 58.8711 118.358Z" fill="#153E91"/>
<path d="M245.435 85.8948C245.901 88.8421 245.732 91.8316 245.774 94.8211C245.732 99.2421 245.859 103.705 245.732 108.126C244.63 110.063 243.995 112.211 243.19 114.274C240.522 121.305 237.727 128.295 235.101 135.368C234.508 133.221 232.39 131.874 230.188 131.874C225.444 131.832 220.659 131.958 215.915 131.874C222.014 119.032 227.943 106.105 234.127 93.3053C235.186 90.9474 237.557 88.8 240.31 89.2211C242.513 89.4737 243.995 91.2421 245.435 92.7158C245.689 90.4421 245.181 88.1685 245.435 85.8948Z" fill="#3567D4"/>
<path d="M52.4331 149.811C52.4756 148 52.3056 146.19 52.6457 144.421C52.4756 151.284 52.7732 158.19 52.5607 165.053C52.5182 164.926 52.4331 164.632 52.3906 164.463C52.4756 159.579 52.3906 154.695 52.4331 149.811Z" fill="#3567D4"/>
<path d="M118.292 86.6108C121.426 86.5686 124.56 86.5686 127.694 86.5263C129.05 86.5263 130.405 86.4419 131.718 86.653C131.252 86.8641 130.744 87.0753 130.193 87.0331C126.805 86.9486 123.459 87.0753 120.071 87.0331C119.436 86.9908 118.885 86.7797 118.292 86.6108Z" fill="#01194F"/>
<path d="M152.09 90.9473C156.96 97.7263 165.643 101.221 173.859 100.674C175.68 100.505 177.628 100.421 179.238 99.4947C178.603 102.147 177.967 104.758 177.332 107.41C177.078 108.421 176.654 109.516 175.596 109.853C174.071 109.895 172.546 110.105 171.064 110.4C171.148 110.442 171.318 110.568 171.403 110.61C170.047 110.821 168.692 111.032 167.294 111.2C166.363 111.116 165.431 111.116 164.626 111.579C161.238 112.042 157.892 112.674 154.504 113.053C154.504 110.779 153.953 108.589 153.868 106.316C153.826 106.274 153.784 106.232 153.741 106.189C153.36 103.537 153.021 100.842 152.471 98.1894C152.09 95.7894 151.963 93.3473 152.09 90.9473Z" fill="#072E74"/>
<path d="M40.7862 100.926C40.7862 98.0631 40.5744 95.1579 40.8709 92.2947C43.6662 94.1894 44.4709 97.8105 44.3862 100.968C43.2003 100.884 41.972 100.842 40.7862 100.926Z" fill="#578BF0"/>
<path d="M255.685 99.4947C255.6 97.4316 258.014 95.8737 259.878 96.7158C260.513 97.0948 260.386 97.9369 260.301 98.5684C259.751 101.726 258.268 104.589 256.913 107.411C256.32 104.8 255.812 102.147 255.685 99.4947Z" fill="#E6F2FD"/>
<path d="M142.688 102.947C143.069 100.968 143.535 99.0315 144.043 97.0947C146.839 97.4315 149.676 97.8526 152.471 98.1894C153.022 100.842 153.361 103.495 153.742 106.189C153.7 106.737 153.7 107.326 153.446 107.789C152.217 110.316 150.354 112.632 147.94 114.147C150.862 113.81 153.784 112.926 156.749 113.179C155.987 113.137 155.224 113.095 154.504 113.053C157.893 112.674 161.239 112.084 164.627 111.579C165.516 111.495 166.406 111.368 167.295 111.2C168.65 111.032 170.006 110.821 171.403 110.61C172.801 110.442 174.241 110.358 175.596 109.853C176.655 109.516 177.121 108.379 177.333 107.41C177.968 104.758 178.603 102.147 179.239 99.4947C179.408 98.7789 179.577 98.0631 179.747 97.3473C181.991 97.3473 184.194 97.8526 186.396 98.1052C189.573 98.6105 192.834 98.8631 195.968 99.7052C194.867 101.853 194.486 104.253 193.511 106.4C192.58 107.032 193.046 108.295 192.58 109.179C190.928 112.968 190.081 117.558 186.396 120.084C186.227 120.168 185.93 120.295 185.761 120.379C183.982 120.547 182.33 121.347 180.551 121.179C177.671 120.926 174.791 121.221 171.954 120.8C168.311 120.632 164.542 120.968 160.984 119.958C161.281 119.747 161.62 119.495 161.916 119.284C163.06 119.41 164.457 118.863 164.33 117.516C162.509 117.01 160.603 117.179 158.74 117.095C155.394 117.053 152.09 116.8 148.787 116.842C146.669 112.716 144.34 108.716 142.18 104.589C142.391 104.042 142.603 103.495 142.688 102.947Z" fill="#FF9565"/>
<path d="M121.468 98.9473C122.527 98.8631 121.68 100.21 121.299 100.547C122.951 100.674 123.459 102.4 123.755 103.747C123.501 105.01 121.807 104.968 120.96 104.295C119.816 103.495 118.758 101.937 119.562 100.547C120.071 100.084 120.664 100.421 121.214 100.632C121.129 100.084 120.833 99.3263 121.468 98.9473Z" fill="#FCFEFE"/>
<path d="M36.3821 99.5789C36.5091 100.084 36.6362 100.547 36.7632 101.053C36.9327 103.074 36.7632 105.053 36.848 107.074C36.848 109.305 37.1444 111.579 36.5938 113.768C36.1279 113.347 35.3656 113.011 35.408 112.253C35.2809 108.968 35.3656 105.684 35.3232 102.4C35.6621 101.432 36.0432 100.505 36.3821 99.5789Z" fill="#74A1F8"/>
<path d="M34.4757 101.263C34.7298 101.095 34.9839 100.968 35.2804 100.8C35.2804 101.305 35.3228 101.853 35.3228 102.358C35.3651 105.642 35.2804 108.926 35.4075 112.21C35.3651 112.926 36.1275 113.263 36.5933 113.726C37.1439 111.537 36.8475 109.263 36.8475 107.032C36.8051 105.01 36.9322 103.032 36.7628 101.01C38.1181 100.968 39.431 100.968 40.7863 100.884C41.9722 100.842 43.2004 100.842 44.3863 100.926H44.8098C44.8945 106.695 44.7675 112.463 44.8522 118.232C41.591 118.232 38.3298 118.232 35.0686 118.232C34.6451 114.61 34.8992 110.947 34.6875 107.326C34.4757 105.347 34.4333 103.284 34.4757 101.263Z" fill="#9FC6FF"/>
<path d="M44.8096 100.968C49.3413 101.095 53.9155 100.884 58.4472 101.095L58.659 101.516C58.8284 101.937 59.1249 102.274 59.4637 102.568C59.2519 102.568 58.8284 102.61 58.5743 102.61C58.4472 105.01 58.5319 107.453 58.5319 109.853C58.5743 111.158 58.3625 112.505 58.8707 113.726C59.2519 113.6 59.6755 113.516 60.0566 113.432C60.0143 113.768 60.0143 114.105 59.9719 114.442C59.6331 114.821 59.2519 115.2 58.9131 115.579C58.8707 116.505 58.8707 117.432 58.8284 118.358C54.1696 118.232 49.4684 118.274 44.8096 118.316C44.8096 112.505 44.9366 106.737 44.8096 100.968Z" fill="#4073E1"/>
<path d="M58.6591 101.516C60.9038 101.768 63.2755 100.842 65.3932 101.937C66.7485 102.695 66.9179 104.505 66.2826 105.768C64.7579 109.011 62.3438 111.747 60.0143 114.442C60.0567 114.105 60.0567 113.768 60.0991 113.432C59.7179 113.516 59.2944 113.642 58.9132 113.726C58.3626 112.505 58.6167 111.158 58.5744 109.853C58.6167 107.453 58.4896 105.011 58.6167 102.611C58.8285 102.611 59.252 102.568 59.5061 102.568C59.1673 102.274 58.8285 101.979 58.6591 101.516ZM58.9555 103.074C58.9132 106.526 58.9132 109.979 58.9555 113.432C61.1579 111.032 63.2755 108.505 64.8849 105.726C65.3932 104.884 65.8167 103.453 64.6732 102.947C62.852 102.189 60.8614 102.989 58.9555 103.074Z" fill="#3964CB"/>
<path d="M58.9556 103.074C60.8615 102.989 62.8521 102.189 64.6732 102.905C65.8591 103.41 65.4356 104.842 64.885 105.684C63.2332 108.505 61.1156 111.032 58.9556 113.389C58.9132 109.979 58.9132 106.526 58.9556 103.074Z" fill="#E5F3FE"/>
<path d="M153.699 106.189C153.741 106.232 153.784 106.274 153.826 106.316C153.911 108.589 154.461 110.779 154.461 113.053C155.224 113.095 155.986 113.137 156.706 113.179C153.741 112.968 150.819 113.811 147.896 114.147C150.311 112.632 152.132 110.316 153.402 107.789C153.699 107.326 153.699 106.737 153.699 106.189Z" fill="#E7F1F9"/>
<path d="M193.215 107.116C193.724 106.947 193.766 107.959 193.215 107.791C193.215 107.664 193.215 107.284 193.215 107.116Z" fill="#3C3663"/>
<path d="M245.732 108.126C248.909 108.421 252.127 108.295 255.304 108.253C256.829 108.21 258.353 108.253 259.878 108.337C251.534 125.432 243.572 142.695 235.737 160.042C234.466 162.779 233.492 165.642 232.01 168.253C202.109 168.168 172.165 168.21 142.222 168.21C136.927 168.168 131.591 168.337 126.297 168.126C129.6 162.274 133.412 156.716 136.843 150.947C138.113 151.537 139.511 152 140.951 151.958C167.972 151.958 194.951 151.958 221.972 151.958C223.836 151.916 225.826 152.21 227.563 151.326C229.172 150.484 229.935 148.674 230.57 147.074C231.417 144.758 232.349 142.526 233.196 140.21C233.831 138.61 234.424 137.01 235.102 135.41C237.727 128.379 240.523 121.389 243.191 114.316C243.996 112.21 244.631 110.063 245.732 108.126Z" fill="#5B90FF"/>
<path d="M259.836 108.295C263.436 108.379 267.078 108.253 270.678 108.168C263.944 126.568 257.464 145.053 250.857 163.495C250.222 165.179 249.84 167.368 247.934 168.084C246.452 168.379 244.97 168.253 243.445 168.253C244.123 171.705 244.843 175.2 245.605 178.653C245.817 180.042 246.24 181.389 246.24 182.779C245.944 184.758 242.767 185.137 242.005 183.326C241.37 181.768 241.243 180.084 240.819 178.484C240.057 175.031 239.21 171.621 238.447 168.21C236.372 168.126 234.254 168.21 232.179 168.168H232.01C233.45 165.516 234.424 162.653 235.737 159.958C243.53 142.653 251.492 125.389 259.836 108.295Z" fill="#3365D2"/>
<path d="M171.064 110.401C172.547 110.106 174.072 109.895 175.596 109.853C174.241 110.359 172.801 110.485 171.403 110.612C171.319 110.57 171.149 110.443 171.064 110.401Z" fill="#3D3758"/>
<path d="M164.626 111.622C165.431 111.116 166.405 111.158 167.294 111.242C166.405 111.369 165.515 111.538 164.626 111.622Z" fill="#413952"/>
<path d="M10.758 118.989C10.6309 118.147 11.6474 118.358 12.1556 118.274C19.7791 118.316 27.4027 118.316 35.0262 118.274C38.2874 118.274 41.5486 118.274 44.8097 118.274C49.4686 118.232 54.1697 118.189 58.8286 118.316C60.1415 118.526 61.4544 118.526 62.7674 118.526C67.9768 118.568 73.1862 118.358 78.3956 118.568C78.3956 118.821 78.3533 119.368 78.3533 119.663C77.5062 121.305 76.4897 122.905 75.6003 124.547C75.3039 124.926 75.1344 125.6 74.4991 125.558C71.9156 125.6 69.2897 125.516 66.7062 125.6L66.2827 125.558C65.7744 125.474 65.3086 125.389 64.8003 125.389C63.9956 125.558 64.0803 126.526 63.9109 127.116C63.6144 126.61 63.3603 126.105 63.0215 125.642C50.6968 125.516 38.3297 125.6 26.005 125.642C25.6238 125.642 25.285 125.642 24.9462 125.684C24.7768 125.474 24.6497 125.263 24.4803 125.053C24.0144 125.6 23.6333 126.189 23.3368 126.863C23.2521 126.526 23.1674 126.189 23.125 125.81C22.9556 125.768 22.6591 125.684 22.4897 125.684C19.8215 125.6 17.1533 125.726 14.4427 125.6C13.2568 123.326 11.8591 121.263 10.758 118.989Z" fill="#2E60CA"/>
<path d="M154.419 119.495C156.918 119.495 159.374 119.2 161.873 119.242C161.577 119.453 161.238 119.705 160.941 119.916C164.499 120.926 168.226 120.589 171.911 120.758C174.748 121.179 177.671 120.926 180.508 121.137C182.287 121.305 183.981 120.505 185.718 120.337C182.499 122.105 178.73 121.221 175.214 121.389C173.139 121.263 171.106 121.095 169.031 121.053C168.565 120.884 168.014 120.884 167.506 120.884C164.245 120.926 161.068 120.337 157.807 120.042C156.706 119.958 155.562 119.789 154.419 119.495Z" fill="#DB8969"/>
<path d="M185.718 120.379C185.887 120.295 186.184 120.168 186.353 120.084C186.142 120.547 185.972 121.01 185.718 121.432C184.066 121.389 182.499 122.021 180.847 121.937C179.492 121.895 178.094 121.937 176.739 121.937C176.189 122.021 175.723 121.684 175.257 121.432C178.73 121.263 182.499 122.147 185.718 120.379Z" fill="#1E2758"/>
<path d="M163.567 121.095C165.389 120.674 167.21 121.389 169.031 121.095C171.106 121.179 173.139 121.305 175.214 121.432C175.68 121.684 176.146 122.021 176.697 121.937C178.052 121.937 179.45 121.895 180.805 121.937C182.457 122.021 184.024 121.389 185.676 121.432C184.49 123.116 183.092 124.674 181.525 126.021C180.254 127.032 178.984 128.21 177.29 128.337C175.426 128.547 173.774 127.453 172.377 126.4C170.725 125.053 168.989 123.832 167.125 122.779C165.981 122.189 164.711 121.81 163.567 121.095Z" fill="#052C71"/>
<path d="M24.4802 124.968C24.6496 125.179 24.7767 125.389 24.9461 125.6C25.2849 125.6 25.6661 125.6 26.0049 125.558C26.0473 133.053 26.0049 140.547 26.0049 148.084C25.9626 158.316 25.9626 168.505 26.0049 178.737C24.8614 179.326 23.4637 179.453 22.4473 178.526C22.532 167.368 22.4896 156.168 22.4896 145.01C22.4473 138.526 22.532 132.042 22.4473 125.558C22.6167 125.6 22.9131 125.684 23.0826 125.684C23.1673 126.021 23.252 126.358 23.2943 126.737C23.6331 126.147 24.0143 125.516 24.4802 124.968Z" fill="#3765D4"/>
<path d="M64.8008 125.389C65.309 125.389 65.7749 125.516 66.2832 125.558C66.3255 129.768 66.2408 133.979 66.2408 138.232C66.1984 138.821 66.4102 139.41 66.622 139.958V140.042C63.5302 140 60.4384 140.758 57.3467 140.337C59.2526 140.126 61.1584 140.295 63.0643 140.168C63.1067 135.326 63.0643 130.526 63.0643 125.684C63.4032 126.147 63.6573 126.653 63.9537 127.158C64.1232 126.484 63.9961 125.558 64.8008 125.389Z" fill="#3464D4"/>
<path d="M26.0052 125.6C38.3299 125.558 50.697 125.516 63.0217 125.6C63.0217 130.442 63.0641 135.242 63.0217 140.084C61.1158 140.253 59.2099 140.042 57.3041 140.253C55.1864 140.674 53.2382 142.316 52.5605 144.379C52.2217 146.147 52.3911 148 52.3488 149.768C52.3064 154.653 52.4335 159.537 52.3064 164.421C51.6711 162.653 52.0947 160.758 51.9252 158.905C44.5982 157.768 37.6523 154.863 31.2994 151.116C29.5205 150.105 27.9111 148.716 25.9629 148.042C26.0052 140.589 26.0476 133.095 26.0052 125.6Z" fill="#E4F1FE"/>
<path d="M66.2826 125.558L66.7061 125.6C66.7061 130.358 66.7908 135.158 66.6214 139.916C66.4096 139.368 66.2402 138.779 66.2402 138.189C66.2402 133.979 66.3249 129.768 66.2826 125.558Z" fill="#2A53B4"/>
<path d="M195.459 136.716C196.899 134.863 197.28 132.505 197.492 130.274C197.492 130.779 197.492 131.326 197.492 131.874C203.633 131.874 209.732 131.916 215.873 131.874C220.616 131.958 225.402 131.832 230.146 131.874C232.306 131.874 234.466 133.221 235.059 135.368C234.423 136.968 233.788 138.568 233.153 140.168C219.176 139.958 205.157 140.126 191.139 140.042C192.833 139.242 194.4 138.232 195.459 136.716Z" fill="#2E5EC5"/>
<path d="M121.215 135.242C121.935 133.895 122.57 132.421 123.544 131.242C123.459 132.589 123.036 133.853 122.697 135.158C119.902 146.484 117.191 157.81 114.142 169.095C113.718 170.779 113.252 172.421 112.617 174.021C112.363 173.81 112.236 173.305 111.812 173.305C109.949 173.221 108.085 173.263 106.222 173.347C106.222 173.263 106.222 173.053 106.222 172.968C107.662 170.989 107.873 168.463 108.721 166.232C110.584 161.095 112.575 156 114.565 150.905C116.598 145.6 118.546 140.253 121.215 135.242Z" fill="#072F75"/>
<path d="M57.3462 140.295C60.4379 140.716 63.5297 139.958 66.6215 140C78.9885 140 91.3979 140 103.765 140C104.485 149.305 105.078 158.61 105.756 167.874C93.1344 167.916 80.4709 167.832 67.8497 167.916C80.5132 167.958 93.1344 167.958 105.798 167.916L105.84 168.253C93.1344 168.295 80.4285 168.253 67.6803 168.253C65.9862 168.21 64.2921 168.168 62.5979 168.337C60.3532 168.042 58.0662 168.421 55.8215 168.168C54.2121 167.916 52.8144 166.61 52.4756 165.01C52.7297 158.147 52.4332 151.284 52.5603 144.379C53.2803 142.358 55.2285 140.716 57.3462 140.295Z" fill="#5A8EFF"/>
<path d="M142.646 140.759C143.111 139.873 144.17 140.126 144.975 140.126C144.297 140.675 143.45 140.801 142.646 140.759Z" fill="#6390E4"/>
<path d="M144.975 140.126C158.485 141.347 172.038 140.505 185.549 140.253C187.412 140.21 189.318 140.337 191.182 140.042C205.158 140.126 219.177 139.958 233.196 140.168C232.349 142.484 231.417 144.758 230.57 147.031C229.935 148.631 229.172 150.442 227.563 151.284C225.826 152.168 223.836 151.874 221.972 151.916C194.951 151.916 167.972 151.916 140.951 151.916C139.511 151.958 138.156 151.495 136.843 150.905C138.833 147.579 140.697 144.126 142.603 140.716C143.45 140.8 144.297 140.674 144.975 140.126Z" fill="#3667D1"/>
<path d="M62.6406 168.337C64.3347 168.168 66.0288 168.211 67.7229 168.253C67.0453 171.747 66.0712 175.158 65.3088 178.611C64.8429 180.253 64.6312 182.021 63.8688 183.579C63.0218 185.263 60.0571 184.716 59.8029 182.863C59.6759 181.432 60.2265 180.084 60.4806 178.695C61.2006 175.242 61.8782 171.789 62.6406 168.337Z" fill="#396AD7"/>
<path d="M106.222 173.768C106.984 173.768 107.704 173.768 108.466 173.81C109.652 174.779 111.346 174.189 112.702 174.695C115.243 175.453 117.911 175.705 120.368 176.716C120.156 177.095 119.902 177.474 119.69 177.853C119.055 178.568 118.25 179.326 117.233 179.284C115.158 179.495 113.379 178.063 112.151 176.589C111.135 176.968 110.118 177.516 108.975 177.347C108.128 177.221 107.281 177.01 106.433 176.968C106.264 175.916 106.222 174.863 106.222 173.768Z" fill="#FF9364"/>
<path d="M108.466 173.81C109.863 173.81 111.219 173.937 112.616 173.979C112.659 174.148 112.701 174.485 112.701 174.696C111.303 174.19 109.652 174.78 108.466 173.81Z" fill="#F09F81"/>
<path d="M108.974 177.389C110.075 177.558 111.134 177.011 112.151 176.632C113.421 178.105 115.158 179.537 117.233 179.326C118.249 179.368 119.097 178.611 119.689 177.895L119.774 178.274C120.833 180.379 121.257 182.737 121.087 185.053C120.918 186.779 119.351 188.295 117.529 188.126C111.007 188.084 104.485 188.168 97.9624 188.084C96.7342 188 96.3107 186.779 96.1836 185.768C96.1836 184.8 96.8189 184 97.5812 183.495C99.6989 181.979 102.071 180.968 104.442 179.916C104.951 179.705 105.374 179.326 105.628 178.821C103.722 179.705 101.647 179.326 99.6565 179.579C100.334 179.368 100.969 179.116 101.647 178.905C103.341 178.611 105.078 178.105 106.433 177.011C107.322 177.053 108.127 177.263 108.974 177.389Z" fill="#2C5CC2"/>
<path d="M119.774 178.274C121.087 178.821 122.485 178.568 123.882 178.61C162.847 178.568 201.812 178.653 240.776 178.568C241.2 180.168 241.327 181.853 241.962 183.41C242.767 185.221 245.901 184.842 246.198 182.863C246.198 181.474 245.816 180.084 245.562 178.737C247.934 178.695 250.348 178.568 252.72 178.779C253.525 179.032 254.372 179.158 255.219 179.2C254.965 179.789 254.753 180.379 254.795 181.01C254.795 184.21 254.88 187.453 254.753 190.695C254.245 190.779 253.736 190.863 253.228 190.947C255.261 191.874 257.464 191.537 259.581 191.832C253.864 192 248.146 191.874 242.428 191.916C180.127 191.916 117.784 191.958 55.4823 191.916C46.3764 191.874 37.3129 191.958 28.207 191.874C28.8 191.747 29.52 191.747 30.0706 191.368C29.7741 188.8 29.7741 186.189 30.0282 183.579C30.1976 181.853 29.9435 180.042 28.7576 178.695C33.8823 178.695 38.9647 178.653 44.0894 178.653C49.5106 178.695 54.9741 178.526 60.3953 178.737C60.1412 180.126 59.5906 181.474 59.7176 182.905C59.9717 184.758 62.9364 185.347 63.7835 183.621C64.5459 182.063 64.7153 180.295 65.2235 178.653C76.7435 178.61 88.2635 178.653 99.7835 178.653C100.419 178.653 101.012 178.821 101.605 178.947C100.927 179.158 100.292 179.41 99.6141 179.621C96.2682 180.505 92.9647 181.6 89.8729 183.158C88.7717 183.747 87.4588 184.632 87.5435 186.063C87.5859 187.284 88.8141 188.126 89.9576 188.168C92.6258 188.295 95.2517 188.042 97.92 188.168C104.442 188.253 110.965 188.168 117.487 188.21C119.266 188.379 120.875 186.863 121.045 185.137C121.256 182.737 120.833 180.337 119.774 178.274Z" fill="#A5CBFF"/>
<path d="M21.8121 178.61C21.9815 178.61 22.3203 178.61 22.4897 178.568C23.5062 179.495 24.9038 179.368 26.0473 178.779C26.9791 178.61 27.9109 178.61 28.8426 178.61C30.0285 179.958 30.2826 181.768 30.1132 183.495C29.8168 186.063 29.8591 188.674 30.1556 191.284C29.6473 191.663 28.9274 191.663 28.2921 191.789C24.3532 191.789 20.4144 191.916 16.4756 191.705C17.1956 191.495 17.8732 191.242 18.5932 191.032C18.0426 190.863 17.5344 190.695 16.9838 190.526C16.8991 188.884 17.1956 187.2 17.0685 185.558C16.9838 184.21 17.3226 182.905 17.2379 181.558C17.1532 180.632 17.1532 179.663 17.1956 178.737C18.7203 178.779 20.245 178.695 21.8121 178.61Z" fill="#AFD0FF"/>
<path d="M99.6564 179.579C101.647 179.326 103.765 179.705 105.628 178.821C105.374 179.326 104.951 179.705 104.442 179.916C102.071 180.926 99.6988 181.979 97.5811 183.495C96.8188 184 96.1835 184.842 96.1835 185.768C96.3105 186.779 96.734 188 97.9623 188.084C95.294 187.958 92.6682 188.168 89.9999 188.084C88.8564 188.042 87.5858 187.242 87.5858 185.979C87.5011 184.589 88.8564 183.705 89.9152 183.074C93.007 181.516 96.3105 180.463 99.6564 179.579Z" fill="#3E70D8"/>
<path d="M252.806 178.737C258.142 178.442 263.479 178.695 268.815 178.61C268.942 178.821 269.069 179.032 269.239 179.242C269.069 180.21 268.434 181.053 268.095 181.979C268.264 184.842 268.307 187.705 268.053 190.568C267.799 190.695 267.587 190.821 267.375 190.947C267.799 191.242 268.222 191.495 268.646 191.747C265.681 191.874 262.674 191.874 259.709 191.747C257.592 191.453 255.389 191.747 253.356 190.863C253.864 190.779 254.373 190.695 254.881 190.61C254.966 187.41 254.881 184.168 254.923 180.926C254.881 180.295 255.093 179.663 255.347 179.116C254.457 179.116 253.61 178.989 252.806 178.737Z" fill="#B2D3FD"/>
</g>
<defs>
<clipPath id="clip0_1270_1830">
<rect width="288" height="192" fill="white"/>
</clipPath>
</defs>
</svg>
