<svg width="36" height="36" viewBox="0 0 36 36" fill="none" xmlns="http://www.w3.org/2000/svg">
<g clip-path="url(#clip0_1189_11036)">
<path d="M33.573 8.82633L32.3704 4.61757C32.3014 4.37562 32.0802 4.20877 31.8285 4.20877H31.2272C30.9755 4.20877 30.7544 4.37562 30.6853 4.61757L29.4828 8.82633C29.3973 9.12565 29.5705 9.43763 29.8699 9.5232C30.1693 9.60863 30.4812 9.43552 30.5668 9.13606L30.7935 8.34237H32.2623L32.489 9.13613C32.5598 9.3837 32.7855 9.54507 33.0308 9.54507C33.0821 9.54507 33.1342 9.53797 33.1859 9.5232C33.4851 9.43763 33.6585 9.12565 33.573 8.82633ZM31.1155 7.21505L31.5278 5.77203L31.9401 7.21505H31.1155Z" fill="#555555"/>
<path d="M33.633 1.20248H30.3704C30.3795 0.945211 30.3025 0.691523 30.1448 0.476297C29.9229 0.173602 29.5804 0 29.2051 0H22.2092C20.9038 0 19.8418 1.06207 19.8418 2.36742V8.98123C19.8418 10.0925 20.6114 11.0274 21.6455 11.2809V13.7912C21.6455 14.0192 21.7828 14.2248 21.9935 14.312C22.0633 14.3408 22.1364 14.3549 22.2091 14.3549C22.3558 14.3549 22.5 14.2976 22.6078 14.1898L25.4489 11.3486H26.073C26.0639 11.6059 26.141 11.8596 26.2987 12.0748C26.5205 12.3775 26.863 12.5512 27.2382 12.5512H33.633C34.9384 12.5512 36.0004 11.4891 36.0004 10.1838V3.56991C36.0005 2.26455 34.9384 1.20248 33.633 1.20248ZM26.3847 10.2213H25.2155C25.066 10.2213 24.9226 10.2807 24.817 10.3864L22.7729 12.4305V10.785C22.7729 10.4737 22.5206 10.2213 22.2092 10.2213C21.5254 10.2213 20.9691 9.66502 20.9691 8.98123V2.36742C20.9691 1.68363 21.5254 1.12732 22.2092 1.12732H29.2051C29.2113 1.12732 29.2241 1.12732 29.2354 1.14265C29.2467 1.15805 29.2429 1.17028 29.241 1.17619L27.3086 7.29556C27.2832 7.28044 27.2569 7.26652 27.2287 7.25527C26.7507 7.06416 26.3335 6.81216 25.9777 6.50264C26.6105 5.62542 26.8447 4.70517 26.9311 4.13353H27.6205C27.9318 4.13353 28.1842 3.88118 28.1842 3.56984C28.1842 3.25856 27.9319 3.00614 27.6205 3.00614H25.7791V2.96859C25.7791 2.65732 25.5268 2.4049 25.2154 2.4049C24.9041 2.4049 24.6517 2.65725 24.6517 2.96859V3.00614H22.8104C22.4991 3.00614 22.2467 3.25849 22.2467 3.56984C22.2467 3.88118 22.499 4.13353 22.8104 4.13353H25.7859C25.7103 4.52032 25.5503 5.05913 25.2141 5.60109C25.1239 5.45477 25.0411 5.30191 24.9676 5.14097C24.8383 4.85768 24.5038 4.73316 24.2207 4.86246C23.9375 4.99184 23.8128 5.32624 23.9422 5.60939C24.0864 5.92523 24.2589 6.22076 24.457 6.49505C24.124 6.7872 23.7129 7.05101 23.2022 7.25527C22.9132 7.37093 22.7726 7.69894 22.8882 7.98799C22.9764 8.20842 23.188 8.34251 23.4118 8.34251C23.4815 8.34251 23.5523 8.3295 23.621 8.30208C24.2726 8.04136 24.7976 7.70604 25.2211 7.33451C25.6771 7.73557 26.2095 8.06189 26.8098 8.30208C26.8652 8.32416 26.9219 8.33653 26.9784 8.34061L26.3847 10.2213ZM34.8731 10.1837C34.8731 10.8675 34.3168 11.4238 33.633 11.4238H27.2384C27.2322 11.4238 27.2194 11.4238 27.2081 11.4084C27.1969 11.393 27.2007 11.3809 27.2026 11.3749L30.0588 2.32987H33.633C34.3167 2.32987 34.8731 2.88619 34.8731 3.56998V10.1837H34.8731Z" fill="#555555"/>
<path d="M23.0818 28.9639L17.8121 27.3425C17.5423 27.2595 17.3611 27.0141 17.3611 26.7319V24.6774L17.6681 24.4216C18.2194 23.9621 18.5856 23.3187 18.699 22.61L18.7691 22.1713H19.2024C20.1763 22.1713 20.9686 21.379 20.9686 20.4051V19.2026C20.9686 18.3379 20.3438 17.6168 19.522 17.466L20.0703 14.0391C20.3193 12.4828 19.8757 10.9026 18.853 9.70346C17.8305 8.50428 16.3401 7.81635 14.7641 7.81635H10.4132C8.83716 7.81635 7.34681 8.50407 6.32426 9.70332C5.3017 10.9025 4.85803 12.4828 5.10701 14.0389L5.6553 17.4658C4.83356 17.6167 4.20877 18.3378 4.20877 19.2025V20.405C4.20877 21.3789 5.00105 22.1712 5.97495 22.1712H6.40821L6.47838 22.61C6.5918 23.3187 6.95791 23.962 7.50931 24.4216L7.81622 24.6774V26.7318C7.81622 27.014 7.63502 27.2595 7.3653 27.3424L2.09559 28.9638C0.842203 29.3496 0 30.4899 0 31.8013V34.2338C0 35.2077 0.792281 36 1.76618 36H23.4112C24.3851 36 25.1774 35.2077 25.1774 34.2338V31.8013C25.1774 30.4899 24.3352 29.3496 23.0818 28.9639ZM19.8413 19.2025V20.405C19.8413 20.7572 19.5547 21.0438 19.2025 21.0438H18.9496L19.3437 18.5799C19.6283 18.6445 19.8413 18.8989 19.8413 19.2025ZM5.97495 21.0438C5.62268 21.0438 5.33609 20.7572 5.33609 20.405V19.2025C5.33609 18.8989 5.54913 18.6445 5.83355 18.5799L6.22779 21.0438H5.97495ZM6.22034 13.8609C6.02353 12.6311 6.37411 11.3824 7.18214 10.4347C7.99024 9.48711 9.16791 8.9436 10.4133 8.9436H14.7642C16.0096 8.9436 17.1873 9.48704 17.9954 10.4347C18.8034 11.3823 19.154 12.6311 18.9572 13.8609L18.3852 17.4363H17.9082C17.8897 17.4363 17.8741 17.4231 17.8711 17.4049L17.4374 14.8021C17.3434 14.2381 16.8601 13.8288 16.2883 13.8288H8.8894C8.31762 13.8288 7.83436 14.2381 7.74035 14.8022L7.30659 17.4049C7.3035 17.4231 7.28796 17.4363 7.26954 17.4363H6.79247L6.22034 13.8609ZM7.59157 22.4319L6.97268 18.5637H7.2694C7.84118 18.5637 8.32444 18.1543 8.41844 17.5903L8.8522 14.9876C8.8553 14.9694 8.87084 14.9562 8.88926 14.9562H16.2881C16.3066 14.9562 16.3221 14.9694 16.3252 14.9876L16.7589 17.5903C16.8529 18.1543 17.3362 18.5637 17.908 18.5637H18.2047L17.7715 21.2714C17.64 21.4194 16.2708 22.8476 12.5887 22.8476C12.2775 22.8476 12.0251 23.1 12.0251 23.4113C12.0251 23.7226 12.2774 23.975 12.5887 23.975C14.9519 23.975 16.4982 23.4331 17.4405 22.9099C17.3268 23.1573 17.1589 23.3785 16.9464 23.5556L14.5333 25.5665C14.3109 25.7519 14.029 25.8539 13.7394 25.8539H11.4379C11.1485 25.8539 10.8664 25.7518 10.644 25.5665L8.23092 23.5556C7.88906 23.2705 7.66188 22.8714 7.59157 22.4319ZM7.69683 28.42C8.44256 28.1906 8.94361 27.5122 8.94361 26.732V25.6169L9.92236 26.4326C10.347 26.7864 10.8853 26.9813 11.4379 26.9813H13.7394C14.2921 26.9813 14.8304 26.7864 15.255 26.4326L16.2337 25.6169V26.7319C16.2337 27.5121 16.7348 28.1905 17.4805 28.4199L17.7651 28.5075C15.7667 31.5735 13.1104 32.3326 12.5873 32.4555C12.0591 32.3344 9.41766 31.5896 7.41206 28.5076L7.69683 28.42ZM4.20877 34.8727H1.76618C1.41391 34.8727 1.12732 34.5861 1.12732 34.2338V31.8013C1.12732 31.4823 1.20867 31.1802 1.35316 30.9156L3.76256 32.9234C4.04613 33.1597 4.20877 33.507 4.20877 33.8761V34.8727ZM19.8413 33.8761V34.8726H5.33609V33.8761C5.33609 33.1714 5.02559 32.5085 4.48425 32.0574L2.18067 30.1378C2.25963 30.1006 2.34162 30.0676 2.42712 30.0414L6.2948 28.8514C8.79729 32.927 12.3422 33.5617 12.4959 33.5873C12.5266 33.5924 12.5575 33.5949 12.5886 33.5949C12.6197 33.5949 12.6506 33.5924 12.6813 33.5873C12.8351 33.5616 16.3801 32.927 18.8824 28.8514L22.7501 30.0414C22.8356 30.0677 22.9175 30.1006 22.9965 30.1378L20.6931 32.0575C20.1518 32.5085 19.8413 33.1714 19.8413 33.8761ZM24.0501 34.2338C24.0501 34.5861 23.7635 34.8727 23.4112 34.8727H20.9687V33.8762C20.9687 33.5071 21.1313 33.1598 21.4149 32.9235L23.8243 30.9158C23.9688 31.1803 24.0501 31.4823 24.0501 31.8014V34.2338Z" fill="#555555"/>
</g>
<defs>
<clipPath id="clip0_1189_11036">
<rect width="36" height="36" fill="white"/>
</clipPath>
</defs>
</svg>
