<svg width="36" height="36" viewBox="0 0 36 36" fill="none" xmlns="http://www.w3.org/2000/svg">
<path d="M33.0129 8.60399L31.2129 5.72399C31.0689 5.50799 30.8529 5.39999 30.6009 5.39999C30.3489 5.39999 30.1329 5.54399 29.9889 5.72399L28.1889 8.60399C28.1169 8.74799 28.0809 8.85599 28.0809 8.99999V28.08C28.0809 29.484 29.1969 30.6 30.6009 30.6C32.0049 30.6 33.1209 29.484 33.1209 28.08V8.99999C33.1209 8.85599 33.0849 8.74799 33.0129 8.60399ZM30.6009 7.48799L31.6809 9.21599V25.56H29.5209V9.21599L30.6009 7.48799ZM30.6009 29.16C29.9889 29.16 29.5209 28.692 29.5209 28.08V27H31.6809V28.08C31.6809 28.692 31.2129 29.16 30.6009 29.16ZM23.7609 1.79999H5.04086C3.85286 1.79999 2.88086 2.77199 2.88086 3.95999V32.04C2.88086 33.228 3.85286 34.2 5.04086 34.2H23.7609C24.9489 34.2 25.9209 33.228 25.9209 32.04V3.95999C25.9209 2.77199 24.9489 1.79999 23.7609 1.79999ZM24.4809 32.04C24.4809 32.436 24.1569 32.76 23.7609 32.76H5.04086C4.64486 32.76 4.32086 32.436 4.32086 32.04V3.95999C4.32086 3.56399 4.64486 3.23999 5.04086 3.23999H23.7609C24.1569 3.23999 24.4809 3.56399 24.4809 3.95999V32.04ZM10.0809 6.83999C10.0809 6.44399 10.4049 6.11999 10.8009 6.11999H18.0009C18.3969 6.11999 18.7209 6.44399 18.7209 6.83999C18.7209 7.23599 18.3969 7.55999 18.0009 7.55999H10.8009C10.4049 7.55999 10.0809 7.23599 10.0809 6.83999ZM21.6009 10.44C21.6009 10.836 21.2769 11.16 20.8809 11.16H7.92086C7.52486 11.16 7.20086 10.836 7.20086 10.44C7.20086 10.044 7.52486 9.71999 7.92086 9.71999H20.8809C21.2769 9.71999 21.6009 10.044 21.6009 10.44ZM21.6009 14.04C21.6009 14.436 21.2769 14.76 20.8809 14.76H7.92086C7.52486 14.76 7.20086 14.436 7.20086 14.04C7.20086 13.644 7.52486 13.32 7.92086 13.32H20.8809C21.2769 13.32 21.6009 13.644 21.6009 14.04ZM21.6009 17.64C21.6009 18.036 21.2769 18.36 20.8809 18.36H7.92086C7.52486 18.36 7.20086 18.036 7.20086 17.64C7.20086 17.244 7.52486 16.92 7.92086 16.92H20.8809C21.2769 16.92 21.6009 17.244 21.6009 17.64ZM21.6009 25.56C21.6009 25.956 21.2769 26.28 20.8809 26.28H7.92086C7.52486 26.28 7.20086 25.956 7.20086 25.56C7.20086 25.164 7.52486 24.84 7.92086 24.84H20.8809C21.2769 24.84 21.6009 25.164 21.6009 25.56ZM21.6009 29.16C21.6009 29.556 21.2769 29.88 20.8809 29.88H7.92086C7.52486 29.88 7.20086 29.556 7.20086 29.16C7.20086 28.764 7.52486 28.44 7.92086 28.44H20.8809C21.2769 28.44 21.6009 28.764 21.6009 29.16Z" fill="#555555"/>
</svg>
